<svg width="440" height="440" viewBox="0 0 440 440" fill="none" xmlns="http://www.w3.org/2000/svg">
<g clip-path="url(#clip0_2593_12812)">
<g style="mix-blend-mode:screen" opacity="0.87">
<path d="M173.492 94.4253C190.857 94.1863 207.792 99.8312 221.54 110.441C229.739 116.24 236.459 123.884 241.16 132.758C245.86 141.631 248.409 151.485 248.6 161.525C248.405 171.571 245.855 181.43 241.155 190.31C236.456 199.19 229.737 206.843 221.54 212.653C207.792 223.311 190.842 229.002 173.448 228.801C156.121 228.337 139.6 221.38 127.16 209.309C120.706 203.069 115.582 195.588 112.096 187.315C108.61 179.043 106.835 170.15 106.876 161.173C106.818 151.477 108.92 141.889 113.03 133.106C117.14 124.323 123.154 116.565 130.636 110.397C142.729 100.422 157.821 94.7976 173.492 94.4253Z" fill="#B4CBDE"/>
</g>
<g style="mix-blend-mode:screen" opacity="0.9">
<path d="M174.55 96.5358C191.695 96.3467 208.377 102.099 221.762 112.816C229.416 118.493 235.663 125.855 240.019 134.331C244.375 142.807 246.725 152.171 246.886 161.7C246.722 171.24 244.372 180.616 240.016 189.106C235.66 197.596 229.416 204.974 221.762 210.672C208.348 221.331 191.682 227.062 174.55 226.908C157.543 226.615 141.276 219.904 129.01 208.12C122.748 202.059 117.774 194.796 114.387 186.767C110.999 178.737 109.269 170.106 109.298 161.392C109.243 151.928 111.305 142.571 115.332 134.007C119.359 125.442 125.25 117.886 132.574 111.892C144.435 102.188 159.227 96.7768 174.55 96.5358Z" fill="#BBD2E6"/>
</g>
<g style="mix-blend-mode:screen" opacity="0.94">
<path d="M175.604 98.6027C192.525 98.5095 208.939 104.365 221.98 115.147C229.09 120.719 234.862 127.812 238.874 135.905C242.887 143.998 245.037 152.887 245.168 161.919C245.044 170.95 242.892 179.839 238.871 187.927C234.85 196.015 229.062 203.096 221.936 208.647C208.922 219.445 192.515 225.304 175.604 225.191C158.889 224.989 142.882 218.41 130.856 206.799C124.794 200.932 119.978 193.902 116.697 186.13C113.416 178.357 111.737 170.003 111.76 161.567C111.676 152.305 113.682 143.143 117.628 134.763C121.574 126.384 127.359 119.002 134.552 113.167C146.206 103.828 160.671 98.6959 175.604 98.6027Z" fill="#C2DAEF"/>
</g>
<g style="mix-blend-mode:screen" opacity="0.97">
<path d="M176.662 100.715C193.37 100.656 209.539 106.624 222.202 117.523C228.867 122.884 234.245 129.671 237.94 137.384C241.635 145.098 243.553 153.542 243.553 162.095C243.553 170.648 241.635 179.092 237.94 186.806C234.245 194.52 228.867 201.307 222.202 206.667C209.561 217.574 193.402 223.544 176.706 223.475C160.312 223.539 144.534 217.228 132.706 205.875C126.812 200.169 122.132 193.329 118.949 185.768C115.766 178.206 114.144 170.079 114.182 161.875C114.101 152.867 116.057 143.957 119.905 135.812C123.753 127.667 129.392 120.497 136.402 114.839C147.828 105.695 162.027 100.713 176.662 100.715Z" fill="#C8E1F7"/>
</g>
<g style="mix-blend-mode:screen">
<path d="M241.734 162.317C241.682 170.347 239.93 178.274 236.593 185.577C233.256 192.881 228.41 199.394 222.374 204.689C210.106 215.704 194.201 221.8 177.714 221.805C161.614 221.901 146.113 215.713 134.506 204.557C128.813 199.027 124.296 192.404 121.226 185.085C118.156 177.766 116.597 169.902 116.642 161.965C116.642 128.217 143.966 102.785 177.714 102.785C194.201 102.791 210.106 108.886 222.374 119.901C228.413 125.203 233.261 131.724 236.598 139.035C239.935 146.346 241.685 154.281 241.734 162.317Z" fill="#CFE9FF"/>
</g>
<g style="mix-blend-mode:multiply" opacity="0.06">
<path d="M125.445 406.538C110.479 393.655 98.4606 377.701 90.2079 359.761C81.9551 341.82 77.6609 322.313 77.6172 302.566C77.6172 200.046 181.193 134.838 277.949 170.874C379.809 208.89 405.285 329.274 331.145 400.554C275.661 454.102 185.417 459.162 125.445 406.538Z" fill="#F5F5F5"/>
</g>
<g style="mix-blend-mode:multiply" opacity="0.69">
<path d="M188.891 321.727C138.511 310.155 98.8672 268.927 98.8672 214.543C98.8672 139.479 166.583 86.9435 239.667 98.9115C314.467 111.407 357.763 182.203 335.015 247.631C314.819 305.843 250.491 335.939 188.891 321.727Z" fill="#8C8C8C"/>
</g>
<g style="mix-blend-mode:multiply" opacity="0.75">
<path d="M195.231 321.859C142.607 312.399 101.203 270.291 101.203 214.367C101.203 141.987 165.135 90.5514 235.931 100.319C308.135 110.263 353.455 176.395 335.459 241.119C319.047 299.815 256.655 333.035 195.231 321.859Z" fill="#818181"/>
</g>
<g style="mix-blend-mode:multiply" opacity="0.81">
<path d="M201.61 321.99C146.698 314.642 103.094 271.434 103.094 214.146C103.094 144.538 163.638 94.3781 232.102 101.726C301.578 109.162 349.186 170.542 335.854 234.21C323.358 293.786 262.902 330.218 201.61 321.99Z" fill="#777777"/>
</g>
<g style="mix-blend-mode:multiply" opacity="0.88">
<path d="M207.946 322.124C150.834 317.064 105.25 272.8 105.25 213.972C105.25 147.092 162.186 98.2956 228.45 103.136C295.242 108.196 345.226 164.736 336.426 227.524C327.802 287.76 269.194 327.536 207.946 322.124Z" fill="#6C6C6C"/>
</g>
<g style="mix-blend-mode:multiply" opacity="0.94">
<path d="M214.279 322.214C155.011 319.662 107.359 273.814 107.359 213.754C107.359 149.602 160.731 102.126 224.399 104.546C288.067 106.966 340.999 158.754 336.643 220.838C332.375 281.602 275.571 324.898 214.279 322.214Z" fill="#626262"/>
</g>
<g style="mix-blend-mode:multiply">
<path d="M337.037 214.146C337.037 275.526 281.993 322.342 220.613 322.342C159.233 322.342 109.469 274.91 109.469 213.53C109.469 152.15 159.233 105.906 220.613 105.906C281.993 105.906 337.037 152.766 337.037 214.146Z" fill="#575757"/>
</g>
<path d="M341.981 221.136C353.006 152.614 306.395 88.1301 237.874 77.1057C169.353 66.0813 104.869 112.692 93.8442 181.213C82.8198 249.734 129.43 314.218 197.951 325.243C266.472 336.267 330.957 289.657 341.981 221.136Z" fill="url(#paint0_radial_2593_12812)"/>
<path d="M216.789 323.004C284.077 323.004 338.625 268.456 338.625 201.168C338.625 133.88 284.077 79.332 216.789 79.332C149.501 79.332 94.9531 133.88 94.9531 201.168C94.9531 268.456 149.501 323.004 216.789 323.004Z" fill="url(#paint1_radial_2593_12812)"/>
<g style="mix-blend-mode:multiply">
<path d="M124.699 133.453C130.111 131.561 143.839 141.857 142.519 147.709C141.199 153.561 137.503 160.117 142.519 160.909C147.535 161.701 156.071 151.141 156.071 142.693C156.071 134.245 167.819 122.497 174.331 124.433C180.843 126.369 180.359 137.325 185.419 134.861C190.479 132.397 184.099 122.497 192.591 119.901C201.083 117.305 232.983 128.393 235.579 140.405C238.175 152.417 243.411 168.081 238.835 171.205C234.259 174.329 250.671 202.005 256.435 201.213C271.879 198.881 263.607 229.197 256.435 233.773C249.263 238.349 225.151 252.649 216.835 240.945C208.519 229.241 185.419 231.793 195.935 240.945C206.451 250.097 223.611 266.685 216.835 275.485C208.035 287.057 185.463 296.781 179.699 278.741C177.675 272.361 145.203 269.545 158.403 257.841C171.603 246.137 160.339 220.045 154.003 229.813C147.667 239.581 130.551 246.093 127.955 227.217C125.359 208.341 110.619 218.725 102.787 202.401C94.9547 186.077 109.299 138.865 124.699 133.453Z" fill="#DDDDDD"/>
</g>
<g style="mix-blend-mode:multiply">
<path d="M275.441 154.879C263.033 154.439 261.097 139.919 256.565 141.679C252.033 143.439 245.477 159.279 245.477 170.983C245.477 182.687 262.417 192.499 272.185 186.647C281.953 180.795 283.449 155.187 275.441 154.879Z" fill="#DDDDDD"/>
</g>
<g style="mix-blend-mode:multiply">
<path d="M311.257 152.943C304.789 153.515 297.617 165.307 303.469 168.563C309.321 171.819 313.237 177.671 317.813 175.735C322.389 173.799 325.601 151.623 311.257 152.943Z" fill="#DDDDDD"/>
</g>
<g style="mix-blend-mode:multiply">
<path d="M287.806 176.002C289.214 172.086 301.49 173.67 304.13 178.862C305.546 181.288 307.45 183.393 309.723 185.044C311.995 186.695 314.585 187.856 317.33 188.454C320.586 188.454 334.93 192.546 334.93 201.038C334.93 209.53 332.29 232.278 327.758 233.598C323.226 234.918 308.618 224.49 311.654 219.254C314.69 214.018 311.654 214.854 311.654 203.81C311.654 192.766 300.962 208.87 301.49 212.082C302.634 219.474 319.706 230.342 311.654 240.11C303.602 249.878 284.11 237.514 287.982 226.426C291.854 215.338 280.854 208.166 273.682 201.038C266.51 193.91 283.934 186.958 287.806 176.002Z" fill="#DDDDDD"/>
</g>
<g style="mix-blend-mode:multiply">
<path d="M206.402 109.295C200.462 109.999 199.67 119.767 208.118 117.523C216.566 115.279 215.598 108.195 206.402 109.295Z" fill="#DDDDDD"/>
</g>
<path d="M193.601 191.575C198.001 189.375 211.685 193.995 200.553 201.167C189.421 208.339 182.029 197.427 193.601 191.575Z" fill="#E0E0E0"/>
<path d="M218.463 293.479C215.427 295.415 214.767 303.863 222.027 300.739C230.871 296.867 225.723 288.815 218.463 293.479Z" fill="#E0E0E0"/>
<g style="mix-blend-mode:multiply">
<path d="M242.001 113.826C239.229 115.234 224.753 120.118 233.641 122.626C237.689 123.77 255.157 121.746 253.617 117.698C253.162 116.634 252.487 115.679 251.636 114.895C250.784 114.111 249.777 113.516 248.679 113.15C247.581 112.785 246.419 112.656 245.267 112.772C244.116 112.888 243.003 113.248 242.001 113.826Z" fill="#DDDDDD"/>
</g>
<path d="M265.273 246.4C264.129 244.112 249.961 245.652 254.801 252.12C259.641 258.588 259.509 252.648 262.193 253.66C267.605 255.596 266.153 248.116 265.273 246.4Z" fill="#E0E0E0"/>
<g style="mix-blend-mode:multiply">
<path d="M174.767 252.385C174.767 252.385 171.907 247.545 169.531 252.385C167.155 257.225 175.999 271.789 180.399 267.873C184.799 263.957 183.347 254.365 180.399 254.937C179.325 254.989 178.254 254.785 177.275 254.341C176.296 253.898 175.436 253.227 174.767 252.385Z" fill="#DDDDDD"/>
</g>
<path d="M159.063 291.633C149.691 294.141 151.451 305.229 160.163 300.917C168.875 296.605 161.087 291.105 159.063 291.633Z" fill="#DDDDDD"/>
<g style="mix-blend-mode:multiply">
<path d="M256.432 299.421C251.064 300.829 251.636 306.241 256.432 303.821C261.228 301.401 257.576 299.201 256.432 299.421Z" fill="#DDDDDD"/>
</g>
<g style="mix-blend-mode:screen" opacity="0.4">
<path d="M306.15 259.599C295.986 262.283 298.274 274.735 307.69 270.027C317.106 265.319 308.35 258.851 306.15 259.599Z" fill="#6B6B6B"/>
</g>
<path d="M131.3 219.074C126.68 218.634 128.836 237.114 138.384 235.178C147.932 233.242 156.688 225.542 139.924 225.542C130.64 225.542 134.468 219.338 131.3 219.074Z" fill="#A8A8A8"/>
<g style="mix-blend-mode:multiply">
<path d="M147.008 148.851C147.008 148.851 138.824 158.795 145.688 156.639C152.552 154.483 152.2 142.867 147.008 148.851Z" fill="#DDDDDD"/>
</g>
<path d="M171.598 128.04C167.594 129.096 160.73 134.2 167.198 136.84C173.666 139.48 178.594 126.148 171.598 128.04Z" fill="#D1D1D1"/>
<g style="mix-blend-mode:multiply">
<path d="M285.252 113.961C302.605 134.997 311.605 161.685 310.534 188.934C309.463 216.182 298.396 242.082 279.446 261.691C260.495 281.3 234.988 293.244 207.792 295.245C180.596 297.245 153.616 289.162 132 272.537C141.884 284.754 154.251 294.733 168.281 301.813C182.311 308.892 197.685 312.911 213.385 313.603C229.084 314.295 244.752 311.644 259.351 305.827C273.949 300.009 287.146 291.157 298.066 279.856C308.987 268.556 317.383 255.065 322.699 240.276C328.014 225.487 330.127 209.738 328.899 194.071C327.671 178.403 323.129 163.176 315.575 149.396C308.02 135.616 297.624 123.598 285.076 114.137L285.252 113.961Z" fill="#DBDBDB"/>
</g>
<g style="mix-blend-mode:soft-light">
<path d="M109.343 175.692C103.975 210.012 136.887 262.24 173.055 262.24C209.223 262.24 314.559 223.08 291.855 159.94C280.063 127.292 245.567 85.668 209.399 85.668C173.231 85.668 118.803 116.072 109.343 175.692Z" fill="#C9C9C9"/>
</g>
<g style="mix-blend-mode:screen" opacity="0.3">
<path d="M188.76 144.935C122.276 176.395 116.996 190.563 119.284 175.999C128.436 117.919 181.28 96.5352 194.7 96.5352C208.12 96.5352 291.5 96.3152 188.76 144.935Z" fill="#FFF1D4"/>
</g>
<path d="M284.023 240.02C283.576 240.015 283.141 239.88 282.77 239.631C282.4 239.382 282.11 239.03 281.937 238.619C281.764 238.207 281.715 237.754 281.796 237.315C281.878 236.876 282.086 236.47 282.395 236.148C283.847 234.74 285.211 234.52 286.443 236.148C288.203 238.612 286.883 240.02 284.023 240.02Z" fill="url(#paint2_radial_2593_12812)"/>
<path d="M99.9717 224.707C99.7272 224.694 99.492 224.608 99.2962 224.461C99.1005 224.314 98.953 224.112 98.8727 223.88C98.7925 223.649 98.783 223.399 98.8455 223.162C98.908 222.925 99.0397 222.712 99.2237 222.551C100.06 221.759 100.632 221.627 101.336 222.551C102.04 223.475 101.556 224.707 99.9717 224.707Z" fill="url(#paint3_radial_2593_12812)"/>
<path d="M249.037 292.953C248.789 292.948 248.548 292.869 248.346 292.725C248.143 292.581 247.989 292.379 247.904 292.146C247.818 291.913 247.805 291.659 247.866 291.418C247.927 291.178 248.059 290.961 248.245 290.797C249.081 290.005 249.697 289.873 250.357 290.797C251.017 291.721 250.797 292.953 249.037 292.953Z" fill="url(#paint4_radial_2593_12812)"/>
<path style="mix-blend-mode:color-dodge" opacity="0.3" d="M344.48 281.16C344.832 282.216 323.008 290.532 295.728 299.728C268.448 308.924 246.052 315.568 245.7 314.556C245.348 313.544 267.172 305.184 294.452 295.988C321.732 286.792 344.128 280.148 344.48 281.16Z" fill="url(#paint5_radial_2593_12812)"/>
<path style="mix-blend-mode:color-dodge" opacity="0.3" d="M325.909 255.199C326.789 255.859 313.677 275.439 296.649 298.891C279.621 322.343 265.101 340.779 264.265 340.163C263.429 339.547 276.497 319.967 293.525 296.515C310.553 273.063 325.073 254.759 325.909 255.199Z" fill="url(#paint6_radial_2593_12812)"/>
<path style="mix-blend-mode:color-dodge" opacity="0.3" d="M272.801 249.522C273.769 249.082 284.505 270.334 296.781 297.042C309.057 323.75 318.165 345.75 317.197 346.19C316.229 346.63 305.581 325.598 293.305 298.67C281.029 271.742 271.921 249.962 272.801 249.522Z" fill="url(#paint7_radial_2593_12812)"/>
</g>
<defs>
<radialGradient id="paint0_radial_2593_12812" cx="0" cy="0" r="1" gradientUnits="userSpaceOnUse" gradientTransform="translate(169.967 128.283) scale(198.748 198.748)">
<stop stop-color="#F5F5F5"/>
<stop offset="1" stop-color="#F5F5F5"/>
</radialGradient>
<radialGradient id="paint1_radial_2593_12812" cx="0" cy="0" r="1" gradientUnits="userSpaceOnUse" gradientTransform="translate(170.325 130.504) scale(192.676 192.676)">
<stop stop-color="#E0E0E0"/>
<stop offset="1" stop-color="#E0E0E0"/>
</radialGradient>
<radialGradient id="paint2_radial_2593_12812" cx="0" cy="0" r="1" gradientUnits="userSpaceOnUse" gradientTransform="translate(281.603 237.16) scale(6.07201 6.07201)">
<stop stop-color="#F5F5F5"/>
<stop offset="1" stop-color="#DCE7F0"/>
</radialGradient>
<radialGradient id="paint3_radial_2593_12812" cx="0" cy="0" r="1" gradientUnits="userSpaceOnUse" gradientTransform="translate(98.7397 223.123) scale(3.3 3.29999)">
<stop stop-color="#F5F5F5"/>
<stop offset="1" stop-color="#DCE7F0"/>
</radialGradient>
<radialGradient id="paint4_radial_2593_12812" cx="0" cy="0" r="1" gradientUnits="userSpaceOnUse" gradientTransform="translate(247.805 291.369) scale(3.30001 3.30003)">
<stop stop-color="#F5F5F5"/>
<stop offset="1" stop-color="#DCE7F0"/>
</radialGradient>
<radialGradient id="paint5_radial_2593_12812" cx="0" cy="0" r="1" gradientUnits="userSpaceOnUse" gradientTransform="translate(1174.55 -1222.36) rotate(-18.6157) scale(51.9588 2.13026)">
<stop stop-color="#545454"/>
<stop offset="0.13" stop-color="#3F3F3F"/>
<stop offset="0.35" stop-color="#232323"/>
<stop offset="0.56" stop-color="#101010"/>
<stop offset="0.78" stop-color="#040404"/>
<stop offset="1"/>
</radialGradient>
<radialGradient id="paint6_radial_2593_12812" cx="0" cy="0" r="1" gradientUnits="userSpaceOnUse" gradientTransform="translate(519.549 1836.65) rotate(-53.8068) scale(52.665 1.86705)">
<stop stop-color="#545454"/>
<stop offset="0.13" stop-color="#3F3F3F"/>
<stop offset="0.35" stop-color="#232323"/>
<stop offset="0.56" stop-color="#101010"/>
<stop offset="0.78" stop-color="#040404"/>
<stop offset="1"/>
</radialGradient>
<radialGradient id="paint7_radial_2593_12812" cx="0" cy="0" r="1" gradientUnits="userSpaceOnUse" gradientTransform="translate(1174.52 1405.33) rotate(-114.814) scale(53.152 1.84802)">
<stop stop-color="#545454"/>
<stop offset="0.13" stop-color="#3F3F3F"/>
<stop offset="0.35" stop-color="#232323"/>
<stop offset="0.56" stop-color="#101010"/>
<stop offset="0.78" stop-color="#040404"/>
<stop offset="1"/>
</radialGradient>
<clipPath id="clip0_2593_12812">
<rect width="440" height="440" fill="white"/>
</clipPath>
</defs>
</svg>
