<svg width="1440" height="603" viewBox="0 0 1440 603" fill="none" xmlns="http://www.w3.org/2000/svg">
<g filter="url(#filter0_d_2089_7417)">
<ellipse cx="662.563" cy="344.085" rx="105.008" ry="111.086" fill="#FFFEFE"/>
</g>
<g filter="url(#filter1_i_2089_7417)">
<path d="M1492.41 114.67L1292.31 39.6711L1263.92 56.3662C1263.92 56.3662 1257.26 50.0361 1230.25 53.8657C1203.24 57.6953 1176.8 61.1619 1176.8 61.1619L1082.92 24.1207L998.044 17.8174L883.24 69.4302L719.009 111.14L607.141 233.155L1068.65 306.905L1581.97 305.55L1492.41 114.67Z" fill="url(#paint0_linear_2089_7417)"/>
</g>
<path d="M900.275 243.795C900.275 243.795 724.581 196.068 711.469 202.432C698.358 208.795 630.178 201.848 630.178 201.848L590.844 151.524C590.844 151.524 559.376 129.251 541.02 122.888C522.664 116.524 451.862 122.888 451.862 122.888L349.592 78.343L302.391 59.2524L234.211 1.98047C234.211 1.98047 137.186 43.3435 121.453 43.3435C105.719 43.3435 87.3627 91.0701 87.3627 91.0701L27.0499 122.888L-20.1514 186.523L-167 412.429H999.922L900.275 243.795Z" fill="url(#paint1_linear_2089_7417)"/>
<path fill-rule="evenodd" clip-rule="evenodd" d="M711.469 200.451C724.581 194.088 900.275 241.814 900.275 241.814L999.922 410.448H998.752L900.275 243.795C900.275 243.795 724.581 196.068 711.469 202.432C698.358 208.795 630.178 201.848 630.178 201.848L590.844 151.524C590.844 151.524 559.376 129.251 541.02 122.888C522.664 116.524 451.862 122.888 451.862 122.888L349.592 78.3429L302.391 59.2523L234.211 1.98041C234.211 1.98041 137.186 43.3434 121.453 43.3434C105.719 43.3434 87.3627 91.0701 87.3627 91.0701L27.0499 122.888L-20.1514 186.523L-165.713 410.448H-167L-20.1514 184.543L27.0499 120.907L87.3627 89.0896C87.3627 89.0896 105.719 41.363 121.453 41.363C137.186 41.363 234.211 0 234.211 0L302.391 57.2719L349.592 76.3625L451.862 120.907C451.862 120.907 522.664 114.544 541.02 120.907C559.376 127.271 590.844 149.543 590.844 149.543L630.178 199.867C630.178 199.867 698.358 206.815 711.469 200.451Z" fill="url(#paint2_radial_2089_7417)"/>
<path d="M727.59 316.095L581.381 235.22H542.678L501.826 250.874C501.826 250.874 469.574 167.39 456.673 167.39C443.772 167.39 402.919 180.434 402.919 180.434L362.067 216.958L336.265 256.091L263.16 295.224C263.16 295.224 230.908 336.966 207.257 352.62L183.605 368.273H727.59V316.095Z" fill="url(#paint3_linear_2089_7417)"/>
<path fill-rule="evenodd" clip-rule="evenodd" d="M581.381 235.22L727.59 316.095V318.076L581.381 237.201H542.678L501.826 252.854C501.826 252.854 469.574 169.37 456.673 169.37C443.772 169.37 402.919 182.414 402.919 182.414L362.067 218.939L336.265 258.072L263.16 297.205C263.16 297.205 230.908 338.947 207.257 354.6L186.598 368.273H183.605L207.257 352.62C230.908 336.966 263.16 295.224 263.16 295.224L336.265 256.091L362.067 216.958L402.919 180.434C402.919 180.434 443.772 167.39 456.673 167.39C469.574 167.39 501.826 250.874 501.826 250.874L542.678 235.22H581.381Z" fill="url(#paint4_radial_2089_7417)"/>
<path d="M565.711 306.515C565.711 306.515 705.126 249.409 716.233 253.214C727.34 257.019 894.741 153.165 894.741 153.165L1018.21 143.557L1148.45 72.7383L1237.37 79.4646L1303.58 126.359L1509.7 387.566L496.664 453.961L565.711 306.515Z" fill="url(#paint5_linear_2089_7417)"/>
<path fill-rule="evenodd" clip-rule="evenodd" d="M716.233 253.214C705.126 249.409 565.711 306.515 565.711 306.515L496.664 453.961L497.621 453.899L565.711 308.496C565.711 308.496 705.126 251.389 716.233 255.194C727.34 258.999 894.741 155.146 894.741 155.146L1018.21 145.537L1148.45 74.7187L1237.37 81.445L1303.58 128.34L1508.21 387.664L1509.7 387.566L1303.58 126.359L1237.37 79.4646L1148.45 72.7383L1018.21 143.557L894.741 153.165C894.741 153.165 727.34 257.019 716.233 253.214Z" fill="url(#paint6_radial_2089_7417)"/>
<g style="mix-blend-mode:overlay">
<path d="M1491.8 291.488L1480.74 235.368L1470.92 271.666L1464.84 242.13L1458.43 265.822L1451.95 234.357L1446.47 254.625L1442.15 227.953L1438.26 242.33L1436.7 234.739L1433.49 246.591L1431.66 236.418L1426.16 260.141L1421.37 236.855L1409.42 281.026L1400.99 228.984L1391.45 264.252L1387.06 239.163L1383.49 251.253L1382.06 244.877L1379.11 254.843L1377.45 246.297L1372.24 266.846L1368.05 240.982L1362.07 263.093L1358.14 245.476L1355.19 255.443L1353.53 246.896L1348.32 267.445L1342.32 230.454L1332.53 266.657L1328.54 241.972L1322.79 263.228L1316.94 234.838L1306.28 274.264L1299.67 242.184L1292.71 267.918L1285.67 233.741L1279.72 255.755L1275.02 226.785L1270.8 242.401L1269.1 234.156L1265.62 247.029L1263.63 235.98L1257.66 261.746L1252.45 236.454L1239.48 284.431L1232.28 239.992L1223.8 271.348L1219.89 249.042L1216.71 259.792L1215.45 254.122L1212.99 262.446L1209.06 242.535L1204.44 259.623L1202.99 250.659L1198.79 266.2L1195.13 248.459L1191.35 262.446L1190.08 255.918L1188.26 263.097L1183.84 241.65L1181.55 250.127L1180.12 241.298L1177.61 250.578L1175.25 236.039L1171.85 248.635L1170.48 241.984L1167.87 251.621L1167.86 251.54L1167.65 252.289L1166.06 243.455L1161.25 264.238L1157.05 243.838L1155.09 251.072L1153.39 243.567L1144.86 271.932L1139.19 236.942L1133.57 257.746L1130.73 267.199L1126.99 245.86L1124.31 254.904L1121.54 242.634L1118.62 252.348L1118.57 252.11L1117.94 254.615L1115.44 262.917L1110.7 236.255L1106.38 250.643L1104.66 243.057L1101.87 252.347L1101.65 251.391L1100.9 253.937L1099.08 244.749L1092.96 268.487L1092.03 264.369L1087.8 238.229L1079.22 269.947L1075.72 248.32L1070.68 266.944L1068.73 257.466L1065.16 237.396L1055.06 271.001L1050.42 248.506L1050.12 249.633L1049.73 247.613L1045.75 259.713L1044.19 253.34L1042.03 259.91L1038.16 241.11L1032.94 260.396L1028.83 235.016L1025.13 248.697L1023.64 241.473L1020.59 252.752L1018.85 243.071L1014.23 263.002L1012.62 255.436L1011.98 257.684L1009.06 243.486L1004.22 261.38L1000.25 239.022L993.69 260.828L991.383 246.586L987.084 262.482L984.969 250.578L981.549 260.322L980.532 254.515L977.747 263.933L976.639 258.966L974.342 266.729L973.046 260.072L968.987 276.078L965.723 255.932L961.066 273.156L958.004 259.432L955.708 267.196L954.412 260.538L950.352 276.546L945.684 247.73L938.059 275.931L934.943 256.703L928.905 279.031L922.269 249.718L912.701 281.544L906.845 255.68L900.6 276.453L894.362 248.9L889.02 266.671L884.869 243.312L881.08 255.918L879.575 249.271L876.451 259.662L874.69 250.753L870.154 268.349L869.28 263.496L868.382 267.372L864.711 251.16L855.53 281.7L851.898 259.282L849.323 268.807L844.971 244.312L835.675 275.233L831.452 253.262L827.969 263.864L826.599 258.28L823.727 267.019L822.126 259.535L819.857 267.579L818.648 260.115L815.811 270.608L813.02 254.901L807.192 274.287L803.408 258.861L800.536 267.6L798.935 260.116L795.565 272.065L794.472 266.763L792.88 272.652L788.098 245.736L781.869 266.456L780.504 258.036L778.111 266.886L777.148 262.214L776.36 265.127L774.714 255.86L769.308 271.263L767.711 263.516L760.359 290.707L756.278 265.521L751.473 283.293L749.259 270.65L747.457 276.743L746.74 273.529L745.255 278.551L744.416 274.245L741.791 284.6L739.679 271.567L736.666 282.709L734.685 273.831L733.2 278.854L732.362 274.547L729.736 284.902L726.715 266.261L721.783 284.505L719.767 272.066L715.862 286.51L711.568 267.547L705.379 288.135L701.59 271.404L697.551 284.842L693.515 267.018L690.059 278.514L687.374 263.403L684.923 271.558L683.949 267.258L681.928 273.98L680.789 268.217L677.321 281.671L674.334 268.48L666.802 293.533L661.564 264.05L655.55 284.053L652.819 269.84L650.565 276.698L649.679 273.086L647.821 278.739L646.786 273.898L643.498 285.553L640.895 270.9L637.125 283.441L634.677 273.462L632.819 279.115L631.783 274.274L628.496 285.928L624.772 264.971L618.599 285.505L616.115 271.521L607.568 295.87L903.365 294.707L903.017 292.944L970.192 292.679L969.89 293.54L1491.8 291.488Z" fill="#140D24"/>
</g>
<g style="mix-blend-mode:overlay">
<path d="M606.525 303.232L598.527 262.653L591.431 288.899L587.031 267.543L582.398 284.674L577.711 261.923L573.748 276.578L570.623 257.292L567.813 267.688L566.682 262.199L564.365 270.769L563.041 263.413L559.066 280.566L555.598 263.729L546.961 295.667L540.865 258.038L533.969 283.538L530.792 265.398L528.207 274.14L527.179 269.529L525.047 276.735L523.844 270.556L520.076 285.414L517.046 266.713L512.723 282.701L509.881 269.962L507.75 277.169L506.547 270.99L502.779 285.848L498.445 259.101L491.367 285.277L488.475 267.429L484.319 282.798L480.09 262.271L472.382 290.778L467.602 267.582L462.571 286.189L457.48 261.478L453.176 277.395L449.782 256.448L446.729 267.739L445.501 261.778L442.984 271.086L441.545 263.096L437.229 281.727L433.461 263.439L424.081 298.129L418.875 265.997L412.744 288.67L409.92 272.541L407.621 280.314L406.707 276.214L404.927 282.233L402.089 267.836L398.748 280.191L397.698 273.71L394.659 284.947L392.017 272.12L389.282 282.233L388.363 277.512L387.046 282.704L383.851 267.196L382.194 273.326L381.16 266.942L379.345 273.652L377.642 263.139L375.18 272.246L374.189 267.438L372.305 274.406L372.295 274.347L372.148 274.889L370.999 268.501L367.517 283.529L364.478 268.778L363.063 274.009L361.835 268.582L355.669 289.092L351.57 263.792L347.503 278.834L345.448 285.669L342.746 270.24L340.812 276.779L338.803 267.907L336.692 274.931L336.658 274.759L336.199 276.57L334.394 282.573L330.969 263.295L327.841 273.699L326.599 268.213L324.58 274.931L324.426 274.239L323.881 276.08L322.568 269.437L318.143 286.601L317.468 283.623L314.406 264.723L308.205 287.657L305.671 272.019L302.03 285.485L300.618 278.632L298.04 264.12L290.736 288.418L287.385 272.154L287.164 272.968L286.883 271.507L284.008 280.257L282.878 275.649L281.317 280.399L278.516 266.805L274.745 280.751L271.772 262.399L269.097 272.291L268.021 267.068L265.816 275.223L264.556 268.223L261.217 282.635L260.047 277.164L259.588 278.789L257.473 268.524L253.975 281.462L251.103 265.296L246.363 281.063L244.694 270.765L241.586 282.259L240.057 273.651L237.584 280.697L236.848 276.498L234.835 283.308L234.033 279.716L232.373 285.329L231.436 280.516L228.501 292.09L226.141 277.523L222.773 289.976L220.559 280.054L218.899 285.667L217.962 280.853L215.027 292.428L211.651 271.593L206.138 291.983L203.885 278.08L199.519 294.225L194.721 273.03L187.803 296.042L183.569 277.341L179.053 292.361L174.543 272.439L170.68 285.288L167.679 268.398L164.938 277.512L163.851 272.707L161.592 280.22L160.319 273.778L157.038 286.501L156.407 282.992L155.757 285.795L153.103 274.072L146.465 296.154L143.838 279.945L141.976 286.832L138.83 269.121L132.108 291.479L129.055 275.593L126.536 283.258L125.546 279.221L123.469 285.54L122.312 280.128L120.671 285.944L119.797 280.547L117.745 288.134L115.727 276.777L111.514 290.795L108.777 279.641L106.701 285.96L105.543 280.548L103.106 289.188L102.316 285.355L101.165 289.613L97.7073 270.151L93.2031 285.133L92.2168 279.044L90.4861 285.443L89.7901 282.065L89.2205 284.171L88.03 277.471L84.1209 288.608L82.9668 283.006L77.6503 302.667L74.6999 284.456L71.2252 297.306L69.6244 288.165L68.3217 292.57L67.8034 290.247L66.7294 293.878L66.1231 290.764L64.2244 298.251L62.6977 288.828L60.5191 296.884L59.087 290.465L58.013 294.097L57.4068 290.982L55.508 298.47L53.3242 284.992L49.7576 298.182L48.3003 289.188L45.4762 299.632L42.3719 285.921L37.8965 300.808L35.1574 288.71L32.2364 298.427L29.3185 285.539L26.8197 293.851L24.8782 282.925L23.1056 288.821L22.4019 285.712L20.9406 290.573L20.1171 286.406L17.6089 296.134L15.4495 286.596L10.0032 304.711L6.21582 283.392L1.86762 297.856L-0.107473 287.579L-1.73686 292.538L-2.37766 289.926L-3.72081 294.014L-4.46973 290.513L-6.84677 298.94L-8.72918 288.346L-11.4551 297.414L-13.2252 290.198L-14.5686 294.286L-15.3174 290.785L-17.6943 299.212L-20.3866 284.059L-24.8502 298.906L-26.6467 288.794L-32.8264 306.4L181.052 305.559L180.801 304.284L229.372 304.093L229.153 304.716L606.525 303.232Z" fill="#140D24"/>
</g>
<mask id="mask0_2089_7417" style="mask-type:alpha" maskUnits="userSpaceOnUse" x="-99" y="292" width="1681" height="359">
<rect x="-98.1602" y="292.95" width="1680.13" height="357.708" fill="#3C1D00"/>
</mask>
<g mask="url(#mask0_2089_7417)">
<rect x="-98.1602" y="292.95" width="1680.13" height="357.708" fill="#001F3C"/>
<g style="mix-blend-mode:overlay" opacity="0.5">
<path d="M114.777 311.112C114.777 311.112 214.615 345.419 233.733 345.419C252.851 345.419 291.087 355.509 320.826 359.545C350.565 363.581 856.388 399.905 856.388 399.905H911.618L951.978 418.067C951.978 418.067 1011.46 407.977 1019.95 407.977C1028.45 407.977 1083.68 436.23 1083.68 436.23L1143.16 476.59H1185.64L1249.37 512.915L1316.04 523.206L1395.94 470.536L1491.53 377.707V292.95H114.777V311.112Z" fill="url(#paint7_linear_2089_7417)"/>
</g>
<g style="mix-blend-mode:overlay" opacity="0.67">
<path d="M560.082 293.88C560.082 293.88 319.783 288.061 344.826 305.532C369.869 323.002 507.759 319.07 484.06 331.223C476.855 334.918 452.127 331.223 421.859 340.576C394.186 349.128 406.691 369.081 429.363 369.353C471.775 369.863 506.166 374.49 485.66 380.05C449.965 389.728 439.811 394.941 449.965 402.462C454.665 405.943 484.421 400.259 486.977 406.027C495.697 425.706 420.551 401.783 420.551 438.444C420.551 477.483 557.59 439.951 557.448 465.228C557.369 479.205 523.787 482.223 512.177 488.034C483.837 502.217 498.187 525.665 551.062 517.492C596.485 510.471 584.686 564.561 540.843 566.605C502.897 568.374 475.76 642.422 591.018 637.907L784.478 673.566L908.478 672.388C908.478 672.388 1043.85 690.37 1010.46 652.794C977.074 615.218 993.173 621.838 1021.05 587.874C1048.92 553.911 992.135 549.305 961.685 530.957C931.235 512.609 977.781 517.536 1041.21 505.445C1104.63 493.354 1103.21 424.667 1047.47 424.091C991.731 423.515 985.344 394.991 1026.18 392.275C1067.02 389.558 1156.21 357.897 1090.26 343.845C1024.31 329.793 1088.71 324.36 1118.41 321.643C1148.1 318.927 1127.26 293.88 1127.26 293.88H560.082Z" fill="url(#paint8_linear_2089_7417)"/>
</g>
<g style="mix-blend-mode:overlay" opacity="0.67">
<path d="M879.782 293.88C879.782 293.88 1026.01 288.061 1010.77 305.532C995.529 323.002 911.621 319.07 926.042 331.223C930.427 334.918 945.474 331.223 963.893 340.576C980.732 349.128 973.122 369.081 959.326 369.353C933.518 369.863 912.591 374.49 925.069 380.05C946.79 389.728 952.969 394.941 946.79 402.462C943.93 405.943 925.823 400.259 924.267 406.027C918.961 425.706 964.689 401.783 964.689 438.444C964.689 477.483 881.299 439.951 881.385 465.228C881.433 479.205 901.868 482.223 908.933 488.034C926.178 502.218 917.446 525.665 885.271 517.492C857.63 510.471 864.81 564.561 891.489 566.605C914.58 568.374 931.093 642.422 860.958 637.907L743.235 673.566L667.779 672.388C667.779 672.388 585.406 690.37 605.722 652.794C626.038 615.218 616.241 621.838 599.279 587.875C582.317 553.911 616.873 549.305 635.402 530.957C653.932 512.609 640.674 493.275 601.629 494.057C549.238 495.106 568.092 447.639 601.629 437.278C655.652 420.59 647.95 390.888 596.155 392.275C526.707 394.134 517.029 357.897 557.162 343.845C597.295 329.793 558.107 324.36 540.036 321.643C532.005 320.436 530.049 314.818 530.354 308.948C530.802 300.338 535.838 293.88 541.596 293.88H879.782Z" fill="url(#paint9_linear_2089_7417)"/>
</g>
<g style="mix-blend-mode:overlay" filter="url(#filter2_f_2089_7417)">
<path d="M560.082 293.88C560.082 293.88 319.783 288.061 344.826 305.532C369.869 323.002 507.759 319.07 484.06 331.223C476.855 334.918 452.127 331.223 421.859 340.576C394.186 349.128 406.691 369.081 429.363 369.353C471.775 369.863 506.166 374.49 485.66 380.05C449.965 389.728 439.811 394.941 449.965 402.462C454.665 405.943 484.421 400.259 486.977 406.027C495.697 425.706 420.551 401.783 420.551 438.444C420.551 477.483 557.59 439.951 557.448 465.228C557.369 479.205 523.787 482.223 512.177 488.034C483.837 502.217 498.187 525.665 551.062 517.492C596.485 510.471 584.686 564.561 540.843 566.605C502.897 568.374 475.76 642.422 591.018 637.907L784.478 673.566L908.478 672.388C908.478 672.388 1043.85 690.37 1010.46 652.794C977.074 615.218 993.173 621.838 1021.05 587.874C1048.92 553.911 992.135 549.305 961.685 530.957C931.235 512.609 977.781 517.536 1041.21 505.445C1104.63 493.354 1103.21 424.667 1047.47 424.091C991.731 423.515 985.344 394.991 1026.18 392.275C1067.02 389.558 1156.21 357.897 1090.26 343.845C1024.31 329.793 1088.71 324.36 1118.41 321.643C1148.1 318.927 1127.26 293.88 1127.26 293.88H560.082Z" fill="#FFA98E"/>
</g>
<g style="mix-blend-mode:overlay" filter="url(#filter3_f_2089_7417)">
<path d="M879.782 293.88C879.782 293.88 1026.01 288.061 1010.77 305.532C995.529 323.002 911.621 319.07 926.042 331.223C930.427 334.918 945.474 331.223 963.893 340.576C980.732 349.128 973.122 369.081 959.326 369.353C933.518 369.863 912.591 374.49 925.069 380.05C946.79 389.728 952.969 394.941 946.79 402.462C943.93 405.943 925.823 400.259 924.267 406.027C918.961 425.706 964.689 401.783 964.689 438.444C964.689 477.483 881.299 439.951 881.385 465.228C881.433 479.205 901.868 482.223 908.933 488.034C926.178 502.218 917.446 525.665 885.271 517.492C857.63 510.471 864.81 564.561 891.489 566.605C914.58 568.374 931.093 642.422 860.958 637.907L743.235 673.566L667.779 672.388C667.779 672.388 585.406 690.37 605.722 652.794C626.038 615.218 616.241 621.838 599.279 587.875C582.317 553.911 616.873 549.305 635.402 530.957C653.932 512.609 640.674 493.275 601.629 494.057C549.238 495.106 568.092 447.639 601.629 437.278C655.652 420.59 647.95 390.888 596.155 392.275C526.707 394.134 517.029 357.897 557.162 343.845C597.295 329.793 558.107 324.36 540.036 321.643C532.005 320.436 530.049 314.818 530.354 308.948C530.802 300.338 535.838 293.88 541.596 293.88H879.782Z" fill="#FFA98E"/>
</g>
<g opacity="0.6">
<g opacity="0.6" filter="url(#filter4_f_2089_7417)">
<path fill-rule="evenodd" clip-rule="evenodd" d="M508.134 292.951C511.23 283.857 512.909 274.108 512.909 263.967C512.909 214.321 472.663 174.075 423.017 174.075C373.371 174.075 333.125 214.321 333.125 263.967C333.125 274.108 334.804 283.857 337.9 292.951H508.134Z" fill="#FFFDEE"/>
</g>
<g opacity="0.6" filter="url(#filter5_f_2089_7417)">
<path fill-rule="evenodd" clip-rule="evenodd" d="M509.674 292.951C511.783 285.315 512.909 277.273 512.909 268.967C512.909 219.321 472.663 179.075 423.017 179.075C373.371 179.075 333.125 219.321 333.125 268.967C333.125 277.273 334.251 285.315 336.36 292.951H509.674Z" fill="#FFFDEE"/>
</g>
</g>
<g style="mix-blend-mode:overlay" opacity="0.3">
<path d="M1472.59 289.441L1461.72 344.578L1452.08 308.915L1446.1 337.934L1439.8 314.657L1433.43 345.571L1428.05 325.658L1423.8 351.863L1419.98 337.738L1418.45 345.195L1415.3 333.551L1413.5 343.546L1408.1 320.239L1403.39 343.117L1391.65 299.719L1383.37 350.85L1374 316.2L1369.68 340.849L1366.17 328.971L1364.77 335.235L1361.88 325.444L1360.24 333.84L1355.12 313.651L1351 339.062L1345.13 317.338L1341.27 334.647L1338.37 324.855L1336.74 333.251L1331.62 313.062L1325.73 349.406L1316.11 313.837L1312.18 338.09L1306.53 317.205L1300.79 345.098L1290.31 306.363L1283.82 337.881L1276.98 312.598L1270.06 346.176L1264.22 324.547L1259.6 353.01L1255.46 337.668L1253.79 345.768L1250.37 333.12L1248.41 343.977L1242.55 318.662L1237.43 343.511L1224.68 296.374L1217.61 340.035L1209.28 309.227L1205.44 331.143L1202.32 320.582L1201.07 326.152L1198.65 317.974L1194.8 337.537L1190.26 320.748L1188.83 329.554L1184.7 314.285L1181.11 331.716L1177.4 317.974L1176.15 324.388L1174.36 317.334L1170.02 338.406L1167.77 330.077L1166.36 338.751L1163.89 329.634L1161.58 343.919L1158.23 331.543L1156.89 338.077L1154.33 328.609L1154.32 328.689L1154.12 327.953L1152.55 336.633L1147.82 316.213L1143.69 336.256L1141.77 329.149L1140.1 336.522L1131.72 308.654L1126.15 343.032L1120.63 322.592L1117.84 313.304L1114.16 334.27L1111.54 325.384L1108.81 337.439L1105.94 327.895L1105.89 328.129L1105.27 325.668L1102.82 317.511L1098.16 343.706L1093.91 329.57L1092.22 337.024L1089.48 327.896L1089.27 328.836L1088.53 326.334L1086.75 335.361L1080.73 312.038L1079.82 316.085L1075.66 341.767L1067.23 310.604L1063.79 331.852L1058.84 313.555L1056.92 322.867L1053.42 342.585L1043.49 309.569L1038.94 331.669L1038.64 330.563L1038.26 332.547L1034.35 320.659L1032.82 326.92L1030.69 320.465L1026.89 338.937L1021.76 319.988L1017.72 344.924L1014.09 331.483L1012.63 338.579L1009.63 327.499L1007.92 337.01L1003.38 317.427L1001.79 324.861L1001.17 322.653L998.295 336.602L993.541 319.021L989.638 340.988L983.198 319.564L980.931 333.556L976.708 317.939L974.63 329.634L971.269 320.06L970.27 325.766L967.534 316.513L966.445 321.393L964.189 313.766L962.915 320.307L958.927 304.58L955.72 324.374L951.145 307.452L948.136 320.935L945.88 313.307L944.607 319.848L940.619 304.121L936.032 332.432L928.54 304.725L925.479 323.616L919.547 301.679L913.027 330.479L903.626 299.21L897.873 324.621L891.737 304.212L885.609 331.282L880.36 313.823L876.282 336.773L872.558 324.388L871.08 330.918L868.011 320.709L866.281 329.462L861.824 312.175L860.966 316.943L860.083 313.134L856.477 329.062L847.456 299.057L843.888 321.082L841.358 311.725L837.082 335.791L827.949 305.41L823.8 326.997L820.377 316.581L819.032 322.067L816.21 313.481L814.637 320.834L812.408 312.931L811.22 320.264L808.432 309.955L805.69 325.387L799.965 306.34L796.247 321.496L793.425 312.91L791.852 320.263L788.541 308.523L787.467 313.732L785.903 307.946L781.205 334.391L775.084 314.034L773.744 322.307L771.392 313.611L770.447 318.202L769.673 315.34L768.055 324.444L762.743 309.311L761.175 316.923L753.951 290.208L749.942 314.953L745.221 297.492L743.046 309.913L741.275 303.927L740.571 307.084L739.112 302.15L738.288 306.382L735.708 296.208L733.633 309.013L730.673 298.066L728.727 306.788L727.268 301.853L726.444 306.085L723.864 295.911L720.897 314.225L716.05 296.301L714.07 308.523L710.233 294.331L706.015 312.962L699.934 292.734L696.212 309.172L692.243 295.97L688.278 313.481L684.882 302.187L682.244 317.033L679.836 309.022L678.879 313.246L676.894 306.641L675.775 312.304L672.367 299.085L669.432 312.045L662.032 287.431L656.886 316.398L650.977 296.745L648.294 310.709L646.08 303.971L645.209 307.52L643.384 301.966L642.366 306.722L639.136 295.272L636.578 309.668L632.875 297.346L630.469 307.151L628.644 301.596L627.626 306.353L624.397 294.902L620.738 315.493L614.673 295.318L612.232 309.058L603.835 285.135L894.454 286.278L894.112 288.01L960.111 288.27L959.814 287.424L1472.59 289.441Z" fill="#140D24"/>
</g>
<g style="mix-blend-mode:overlay" opacity="0.3">
<path d="M604.431 277.903L596.572 317.771L589.6 291.985L585.277 312.967L580.725 296.136L576.12 318.488L572.227 304.09L569.157 323.038L566.395 312.825L565.284 318.217L563.008 309.798L561.707 317.024L557.802 300.172L554.394 316.714L545.909 285.335L539.919 322.306L533.145 297.252L530.023 315.074L527.483 306.486L526.473 311.015L524.379 303.935L523.197 310.007L519.495 295.408L516.518 313.782L512.27 298.074L509.478 310.59L507.384 303.51L506.202 309.581L502.5 294.983L498.242 321.262L491.288 295.543L488.447 313.079L484.364 297.979L480.209 318.147L472.635 290.139L467.939 312.929L462.996 294.647L457.994 318.926L453.766 303.287L450.431 323.868L447.431 312.774L446.225 318.631L443.752 309.486L442.338 317.336L438.098 299.032L434.396 316.999L425.18 282.916L420.065 314.486L414.042 292.21L411.267 308.056L409.009 300.42L408.11 304.447L406.361 298.535L403.573 312.679L400.29 300.54L399.259 306.907L396.273 295.867L393.677 308.471L390.99 298.534L390.087 303.172L388.794 298.072L385.655 313.308L384.026 307.285L383.01 313.558L381.227 306.965L379.554 317.294L377.135 308.346L376.161 313.07L374.31 306.224L374.301 306.282L374.157 305.75L373.027 312.026L369.606 297.261L366.62 311.754L365.231 306.615L364.024 311.946L357.966 291.796L353.939 316.653L349.943 301.874L347.924 295.158L345.269 310.317L343.369 303.892L341.395 312.609L339.321 305.708L339.288 305.877L338.837 304.098L337.063 298.2L333.698 317.14L330.625 306.919L329.405 312.309L327.421 305.708L327.269 306.388L326.734 304.579L325.444 311.106L321.096 294.243L320.434 297.169L317.425 315.738L311.332 293.205L308.843 308.569L305.266 295.339L303.879 302.072L301.346 316.33L294.169 292.457L290.877 308.437L290.66 307.637L290.384 309.072L287.56 300.476L286.449 305.003L284.915 300.336L282.163 313.692L278.459 299.99L275.537 318.021L272.909 308.302L271.852 313.433L269.686 305.421L268.447 312.299L265.167 298.139L264.018 303.514L263.567 301.917L261.489 312.003L258.052 299.292L255.23 315.175L250.573 299.684L248.934 309.801L245.88 298.509L244.378 306.965L241.948 300.043L241.225 304.168L239.247 297.478L238.459 301.007L236.828 295.492L235.907 300.221L233.024 288.85L230.705 303.162L227.396 290.926L225.221 300.675L223.59 295.16L222.669 299.889L219.786 288.518L216.469 308.988L211.052 288.954L208.839 302.614L204.55 286.752L199.835 307.576L193.038 284.967L188.878 303.341L184.441 288.584L180.01 308.157L176.215 295.533L173.266 312.127L170.574 303.172L169.505 307.894L167.286 300.512L166.035 306.841L162.812 294.341L162.192 297.789L161.554 295.035L158.946 306.552L152.424 284.857L149.843 300.782L148.014 294.016L144.923 311.417L138.319 289.45L135.319 305.058L132.844 297.527L131.871 301.494L129.831 295.285L128.694 300.602L127.082 294.888L126.223 300.19L124.207 292.736L122.225 303.894L118.084 290.122L115.396 301.081L113.356 294.873L112.219 300.189L109.824 291.701L109.048 295.467L107.917 291.284L104.52 310.405L100.095 295.685L99.1255 301.667L97.425 295.38L96.7413 298.699L96.1816 296.63L95.012 303.213L91.1713 292.271L90.0374 297.774L84.814 278.458L81.9153 296.35L78.5014 283.725L76.9286 292.706L75.6487 288.378L75.1395 290.661L74.0842 287.093L73.4885 290.152L71.6231 282.796L70.1231 292.055L67.9827 284.14L66.5757 290.446L65.5204 286.878L64.9248 289.938L63.0593 282.582L60.9137 295.824L57.4095 282.864L55.9778 291.701L53.2031 281.439L50.1532 294.91L45.7562 280.285L43.0649 292.17L40.195 282.624L37.3283 295.286L34.8732 287.12L32.9657 297.854L31.2241 292.061L30.5327 295.116L29.0971 290.34L28.2879 294.435L25.8237 284.877L23.702 294.248L18.3511 276.45L14.63 297.395L10.3579 283.185L8.41743 293.281L6.81657 288.41L6.18698 290.976L4.86735 286.959L4.13154 290.399L1.79611 282.119L-0.0533454 292.529L-2.7315 283.619L-4.47061 290.709L-5.7905 286.692L-6.52619 290.132L-8.86148 281.852L-11.5067 296.74L-15.8921 282.153L-17.6572 292.088L-23.7287 274.79L186.406 275.616L186.159 276.869L233.88 277.056L233.665 276.445L604.431 277.903Z" fill="#140D24"/>
</g>
</g>
<path d="M-126.749 438.324L28.3735 428.621H100.102L144.623 446.086H283.134C283.134 446.086 310.342 444.146 344.969 446.086C379.597 448.027 461.219 418.918 461.219 418.918L547.788 432.549L703.612 446.179H866.857L943.533 432.549H1064.73L1158.72 411.156L1235.39 428.668H1354.12L1645.91 438.324L1670.64 502.41L1623.38 699.999H-148.332L-126.749 438.324Z" fill="#000821"/>
<path fill-rule="evenodd" clip-rule="evenodd" d="M1373.06 458.053C1373.06 458.053 1378.35 453.963 1384.27 446.812L1392.23 446.154C1392.99 447.683 1393.79 449.158 1394.63 450.574C1395.67 453.584 1396.62 455.261 1396.62 455.261C1396.62 455.261 1402.14 472.185 1404.58 464.044C1409.43 469.422 1413.33 472.437 1413.33 472.437C1413.33 472.437 1441.54 500.584 1415.87 461.649C1413.57 458.167 1411.59 454.74 1409.88 451.372L1412.34 451.169C1419.56 455.695 1430.1 461.858 1437.13 464.037C1448.59 489.972 1476.85 506.345 1476.85 506.345C1476.85 506.345 1510.13 530.386 1480.52 499.932C1480.66 498.694 1480.75 497.181 1480.78 495.353C1485.13 497.852 1488.06 498.579 1480.73 490.336C1480.68 488.359 1480.57 486.138 1480.42 483.65C1480.17 479.668 1480.25 475.79 1480.61 472.021C1480.95 472.295 1481.13 472.435 1481.13 472.435C1481.13 472.435 1509.31 500.586 1483.67 461.648C1483.35 461.158 1483.03 460.669 1482.72 460.182C1482.96 459.259 1483.22 458.344 1483.49 457.437C1484.79 459.383 1486.03 461.026 1487.09 462.331C1486.26 463.269 1485.78 463.779 1485.78 463.779L1488.52 464.036C1489.58 465.25 1490.24 465.892 1490.24 465.892C1490.24 465.892 1508.23 489.691 1499.03 465.021L1499.24 465.041C1499.38 464.894 1499.51 464.748 1499.65 464.602C1499.82 464.74 1499.91 464.81 1499.91 464.81C1499.91 464.81 1521.59 486.444 1504.29 459.344C1506.1 457.191 1507.73 455.099 1509.2 453.068C1512.95 455.104 1516.71 456.899 1519.7 457.826C1529.23 479.392 1552.73 493.007 1552.73 493.007C1552.73 493.007 1580.4 512.998 1555.78 487.674C1556.08 484.956 1556.1 480.645 1555.7 474.135C1555.49 470.823 1555.56 467.599 1555.86 464.465C1556.14 464.693 1556.29 464.809 1556.29 464.809C1556.29 464.809 1579.73 488.218 1558.4 455.839C1558.13 455.432 1557.87 455.025 1557.61 454.62C1557.81 453.852 1558.02 453.091 1558.25 452.337C1559.33 453.955 1560.37 455.322 1561.24 456.407C1560.55 457.187 1560.15 457.611 1560.15 457.611L1562.43 457.825C1563.31 458.834 1563.86 459.368 1563.86 459.368C1563.86 459.368 1578.82 479.159 1571.18 458.644L1571.35 458.66C1576.57 453.082 1580.43 447.956 1583.21 443.271L1586.03 443.536C1605.76 422.452 1605.99 407.835 1602.42 399.081C1606.13 396.656 1608.49 395.397 1608.49 395.397C1606.28 396.359 1604.15 397.327 1602.08 398.299C1599.25 392.024 1594.57 389.012 1594.57 389.012C1596.77 392.501 1597.55 396.457 1597.34 400.602C1592.48 403.039 1588.04 405.501 1583.99 407.976C1581.84 405.394 1579.89 404.137 1579.89 404.137C1580.89 405.729 1581.6 407.417 1582.06 409.177C1573.93 414.307 1567.45 419.479 1562.3 424.575C1562.43 390.876 1591.26 369.026 1591.26 369.026C1548.85 394.759 1546.07 420.685 1551.41 438.121C1551.01 438.787 1550.62 439.449 1550.25 440.107C1541.62 417.363 1547.94 398.491 1554.66 386.756C1565.71 381.335 1574.83 378.485 1574.83 378.485C1568.43 379.749 1562.53 381.204 1557.09 382.813C1560.96 376.971 1564.37 373.72 1564.37 373.72C1559.52 377.334 1555.36 380.922 1551.81 384.468C1545.78 386.47 1540.36 388.667 1535.5 390.999C1532.07 384.44 1527.16 381.284 1527.16 381.284C1529.51 384.999 1530.51 389.155 1530.54 393.518C1524.7 396.668 1519.75 400.009 1515.57 403.41C1515.19 403.636 1514.82 403.862 1514.45 404.089C1511.86 400.984 1509.51 399.473 1509.51 399.473C1510.72 401.386 1511.57 403.418 1512.12 405.534C1507.36 408.538 1503.07 411.554 1499.21 414.566C1513.43 382.411 1549.4 363.832 1549.4 363.832C1517.24 377.376 1499.91 392.194 1490.93 405.688C1491.09 404.938 1491.26 404.198 1491.44 403.47C1494.12 394.475 1498.25 386.568 1502.65 379.953C1505.62 375.92 1507.93 373.72 1507.93 373.72C1507.3 374.19 1506.68 374.659 1506.07 375.127C1514.68 363.695 1523.18 357.249 1523.18 357.249C1504.5 368.584 1492.22 379.951 1484.46 390.835C1482.83 387.48 1480.72 384.053 1478.06 380.57C1478.43 379.886 1478.8 379.219 1479.17 378.571C1492.46 372.051 1503.43 368.624 1503.43 368.624C1495.73 370.144 1488.64 371.894 1482.09 373.83C1486.75 366.803 1490.84 362.894 1490.84 362.894C1485.02 367.24 1480.01 371.555 1475.75 375.819C1475.32 375.96 1474.9 376.102 1474.48 376.244C1470.25 371.491 1464.96 366.649 1458.41 361.76C1458.41 361.76 1464.61 367.684 1469.79 377.911C1460.14 381.483 1451.92 385.479 1444.91 389.698C1444.1 389.104 1443.34 388.583 1442.63 388.132C1447.89 377.314 1454.49 371.017 1454.49 371.017C1439.68 382.066 1431.29 392.875 1427.14 402.964C1425.93 404.097 1424.78 405.232 1423.69 406.364C1424.25 397.606 1426.74 390.793 1428.7 386.68C1448.15 363.761 1472.84 351.003 1472.84 351.003C1434.17 367.29 1413.33 385.11 1402.53 401.337C1407.53 377.646 1422.97 362.894 1422.97 362.894C1411.19 371.685 1402.79 380.35 1397.01 388.721C1392.29 376.08 1382.11 362.454 1363.42 348.511C1363.42 348.511 1385.05 369.18 1385.4 400.881C1382.09 399.406 1379.94 398.785 1379.94 398.785C1381.89 399.892 1383.71 401.101 1385.4 402.392C1385.35 406.788 1384.89 411.389 1383.9 416.17C1381.89 413.27 1379.67 410.715 1377.36 408.472C1376.77 393.583 1365.82 386.549 1365.82 386.549C1368.7 391.102 1369.56 396.319 1369.07 401.769C1365.86 399.605 1362.8 397.979 1360.29 396.803C1355.7 388.484 1349.01 383.147 1344.45 380.225C1350.78 367.217 1358.7 359.644 1358.7 359.644C1332.84 378.943 1323.26 397.632 1321.94 413.945C1319.27 389.344 1330.63 373.177 1330.63 373.177C1311.28 393.255 1307.02 411.857 1310.05 427.807C1305.44 418.024 1298.68 410.733 1291.96 405.424C1294.85 403.552 1296.66 402.581 1296.66 402.581C1294.9 403.35 1293.2 404.123 1291.54 404.899C1288.9 393.704 1281.19 387.279 1277.78 384.918C1280.52 382.221 1282.42 380.78 1282.42 380.78C1280.47 381.959 1278.63 383.139 1276.88 384.319C1276.41 384.019 1276.14 383.871 1276.14 383.871C1276.31 384.075 1276.47 384.28 1276.64 384.486C1269.36 389.423 1263.77 394.346 1259.54 399.165C1257.42 397.549 1255.31 396.13 1253.29 394.89C1261.91 390.764 1268.84 388.6 1268.84 388.6C1263.55 389.645 1258.67 390.848 1254.17 392.179C1257.37 387.348 1260.19 384.661 1260.19 384.661C1256.38 387.501 1253.08 390.322 1250.25 393.113C1243.1 389.155 1237.69 387.6 1237.69 387.6C1241.25 389.618 1244.44 391.917 1247.28 394.416C1214.25 406.149 1204.65 425.061 1201.86 435.064C1205.48 398.354 1247.81 376.486 1247.81 376.486C1221.23 387.683 1206.9 399.933 1199.48 411.089C1202.91 394.802 1213.53 384.661 1213.53 384.661C1205.43 390.705 1199.65 396.661 1195.68 402.416C1192.44 393.726 1185.43 384.359 1172.59 374.773C1172.59 374.773 1203.05 403.877 1177.47 442.663C1171.86 451.171 1169.99 455.02 1170.06 456.311C1167.88 452.683 1166.21 449.166 1164.96 445.79L1167.18 445.998C1196.18 415.014 1174.24 400.923 1174.24 400.923C1177.88 406.683 1176.82 413.989 1173.96 420.993C1173.5 407.415 1164.62 399.823 1159.54 396.575C1163.9 387.632 1169.35 382.426 1169.35 382.426C1157.18 391.502 1150.26 400.381 1146.81 408.675C1145.86 407.635 1145.01 406.926 1144.5 406.539C1146.14 397.294 1150.05 391.73 1150.05 391.73C1139.65 402.516 1135.59 412.682 1135.31 421.843L1135.27 421.865C1133.49 419.731 1131.88 418.692 1131.88 418.692C1132.71 420.008 1133.29 421.404 1133.67 422.859C1133.31 423.088 1132.95 423.318 1132.59 423.547C1129.8 419.499 1126.49 416.259 1123.21 413.703C1123.13 413.329 1123.03 412.963 1122.93 412.604C1130.01 398.207 1141.28 389.664 1141.28 389.664C1132.1 395.231 1125.17 400.808 1120.02 406.267C1118.82 404.449 1117.49 402.992 1116.29 401.879C1122.88 398.989 1127.7 397.485 1127.7 397.485C1123.07 398.398 1118.77 399.431 1114.75 400.565C1114.41 400.302 1114.11 400.074 1113.83 399.882C1116.69 395.797 1119.05 393.546 1119.05 393.546C1115.04 396.533 1111.6 399.5 1108.67 402.431C1104.51 403.81 1100.71 405.301 1097.23 406.875C1091.16 403.085 1086.15 401.645 1086.15 401.645C1089.42 403.496 1092.22 405.692 1094.62 408.097C1070.77 419.704 1063.15 435.22 1060.71 443.949C1064.34 407.239 1106.67 385.371 1106.67 385.371C1080.08 396.567 1065.75 408.818 1058.34 419.973C1061.77 403.686 1072.39 393.546 1072.39 393.546C1064.29 399.589 1058.51 405.545 1054.53 411.3C1051.3 402.61 1044.29 393.243 1031.45 383.657C1031.45 383.657 1061.91 412.762 1036.33 451.548C1030.72 460.058 1028.85 463.906 1028.91 465.197C1026.73 461.568 1025.07 458.051 1023.82 454.675L1026.04 454.883C1055.03 423.899 1033.09 409.807 1033.09 409.807C1036.74 415.568 1035.68 422.873 1032.82 429.878C1032.36 416.299 1023.48 408.708 1018.4 405.46C1022.76 396.517 1028.2 391.311 1028.2 391.311C1010.43 404.577 1003.84 417.424 1002.93 428.638C1001.09 411.727 1008.91 400.614 1008.91 400.614C995.603 414.417 992.672 427.206 994.758 438.171C991.532 431.324 986.768 429.2 982.071 425.535C979.765 415.429 971.443 410.914 971.443 410.914C973.974 413.949 975.216 417.484 975.573 421.212C970.48 418.338 966.572 417.215 966.572 417.215C970.132 419.231 973.138 421.655 975.676 424.315C975.567 428.56 974.498 432.939 973.028 437.027C964.332 419.029 945.011 413.477 945.011 413.477C952.847 417.915 957.998 424.33 961.385 430.882C961.202 431.001 961.021 431.121 960.842 431.24C958.544 428.566 955.973 427.393 955.973 427.393C957.529 428.858 958.534 430.577 959.137 432.412C957.4 433.647 955.854 434.88 954.482 436.105C953.102 435.038 952.029 434.548 952.029 434.548C952.739 435.216 953.334 435.938 953.829 436.699C951.104 439.229 949.11 441.724 947.694 444.142C942.115 429.277 951.171 418.689 951.171 418.689C936.776 431.438 939.885 442.963 945.156 450.475C945.088 450.782 945.028 451.087 944.976 451.389C937.367 441.645 936.996 433.114 937.997 427.717C941.966 424.961 945.509 423.403 945.509 423.403C942.899 424.172 940.541 425.008 938.41 425.898C939.14 423.194 940.098 421.648 940.098 421.648C938.565 423.401 937.331 425.121 936.359 426.802C920.006 434.417 918.631 445.281 919.18 450.865C913.686 431.139 931.844 417.782 931.844 417.782C919.928 424.817 914.762 431.924 913.061 438.171C912.662 435.764 912.641 433.579 912.821 431.674C919.072 425.159 928.208 418.125 940.748 414.12C940.748 414.12 920.808 417.136 905.638 429.691C905.256 429.327 904.859 428.962 904.446 428.597C904.698 426.005 905.307 423.34 906.455 420.77C909.953 418.847 913.824 417.135 918.088 415.772C918.088 415.772 913.814 416.419 907.717 418.359C909.463 415.478 912.01 412.797 915.641 410.581C915.641 410.581 905.746 413.611 899.692 421.347C898.648 421.796 897.587 422.277 896.515 422.794C894.934 421.818 893.223 420.844 891.371 419.875C891.371 419.875 893.183 421.046 895.633 423.226C893.83 424.123 892.004 425.12 890.191 426.225C890.722 424.844 891.19 424.087 891.19 424.087C890.312 425.092 889.533 426.086 888.844 427.068C886.658 428.474 884.503 430.043 882.442 431.793C882.469 431.507 882.502 431.25 882.535 431.023C887.721 422.958 888.87 413.42 881.447 402.669C881.447 402.669 884.997 411.781 876.857 424.844C880.158 416.058 878.468 405.667 865.896 394.298C865.896 394.298 869.322 398.67 870.271 405.888C864.048 408.121 852.456 413.515 846.926 424.062C846.724 418.441 848.411 412.69 854.156 408.416C854.156 408.416 827.252 418.109 844.259 443.931L846.527 443.898C844.031 446.454 841.071 449.096 837.563 451.794C838.109 450.793 837.706 447.687 835.356 440.732C824.641 409.035 865.562 388.148 865.562 388.148C849.309 394.863 838.9 401.749 832.456 408.328C830.688 403.614 827.219 398.638 821.493 393.459C821.493 393.459 828.166 401.976 825.464 414.86C822.32 405.739 812.77 395.363 790.74 385.092C790.74 385.092 824.307 404.592 814.152 433.391C815.166 425.239 812.624 409.378 782.393 398.261C780.596 395.807 778.314 393.296 775.48 390.736C775.48 390.736 777.251 392.993 778.602 396.941C774.663 395.642 770.302 394.421 765.477 393.298C765.477 393.298 772.028 395.573 779.366 399.597C781.215 407.476 780.53 419.931 766.462 434.157C766.366 433.716 766.255 433.271 766.129 432.823C775.875 421.855 781.622 405.03 755.011 386.416C755.011 386.416 771.753 401.874 761.438 423.576C758.82 420.047 755.134 416.404 750.095 412.71C751.01 411.599 752.11 410.546 753.423 409.569C753.423 409.569 751.439 410.284 748.889 411.843C746.352 410.054 743.494 408.255 740.283 406.451C741.397 403.773 743.256 401.263 746.133 399.124C746.133 399.124 741.379 400.836 737.131 404.74C735.749 404.014 734.309 403.288 732.808 402.562C732.808 402.562 734.337 403.487 736.615 405.227C730.997 410.691 726.668 420.113 736.236 434.638L738.616 434.604C739.436 437.754 740.994 441.241 743.526 445.084L743.67 445.082C731.096 457.921 749.412 445.901 749.412 445.901C749.412 445.901 750.023 445.584 751.053 444.976L752.979 444.949C752.979 444.949 752.785 444.657 752.462 444.121C753.512 443.465 754.775 442.635 756.159 441.645C756.11 442.142 756.049 442.642 755.975 443.146C755.639 443.394 755.299 443.643 754.955 443.892C727.557 463.71 753.904 449.769 753.904 449.769C753.904 449.769 754.062 449.702 754.359 449.568C753.634 451.601 752.691 453.68 751.5 455.802C749.159 459.974 747.843 462.75 747.243 464.515C719.346 479.631 748.084 468.095 748.084 468.095C748.084 468.095 771.455 460.464 785.891 447.039C792.23 445.986 803.383 442.112 809.127 440.027C806.72 442.191 803.996 444.389 800.919 446.614C773.504 466.428 799.863 452.491 799.863 452.491C799.863 452.491 803.283 451.033 807.955 448.348C807.514 452.805 815.607 443.966 815.607 443.966C815.607 443.966 816.683 443.106 818.166 441.536C820.323 439.854 822.452 437.999 824.415 435.986C826.638 442.405 830.865 446.406 830.865 446.406C830.865 446.406 835.313 452.469 837.073 452.169C832.004 456.022 825.816 459.989 818.273 463.99C783.643 482.359 815.015 469.766 815.015 469.766C815.015 469.766 823.439 467.016 833.295 461.912C835.758 460.998 837.795 460.18 837.795 460.18C837.795 460.18 851.364 455.749 864.211 447.701C866.737 450.665 868.572 453.63 869.797 455.909C869.391 458.029 868.934 459.386 868.934 459.386L871.453 459.341C871.638 459.78 871.727 460.023 871.727 460.023L876.533 459.242C876.073 458.006 875.553 456.839 874.984 455.736C875.557 452.743 875.491 450.134 875.014 447.874L875.706 447.963C881.498 454.397 883.984 461.155 883.984 461.155L888.79 460.373C888.102 458.528 887.281 456.833 886.362 455.278C894.195 464.171 906.391 469.214 906.391 469.214C906.391 469.214 907.493 469.774 908.825 470.401C914.157 473.896 918.713 475.78 918.713 475.78C918.713 475.78 935.683 484.406 916.951 471.824C912.871 469.083 909.523 466.366 906.781 463.727C907.733 463.934 910.14 459.78 910.14 459.78C910.14 459.78 912.426 457.039 913.629 452.642C914.69 454.021 915.841 455.291 917.008 456.443C917.81 457.519 918.393 458.108 918.393 458.108C918.393 458.108 922.771 464.163 922.532 461.11C925.059 462.949 926.909 463.947 926.909 463.947C926.909 463.947 941.167 473.494 926.338 459.922C924.674 458.398 923.2 456.893 921.898 455.411C925.005 456.839 931.038 459.492 934.467 460.213C942.276 469.409 954.917 474.636 954.917 474.636C954.917 474.636 970.462 482.537 955.372 472.183C955.047 470.975 954.335 469.073 953.069 466.216C952.425 464.762 951.915 463.338 951.523 461.946C951.683 462.037 951.769 462.083 951.769 462.083C951.769 462.083 966.021 471.632 951.201 458.058C951.015 457.887 950.83 457.716 950.649 457.546C950.609 457.201 950.576 456.858 950.549 456.518C951.298 457.196 951.981 457.764 952.549 458.214C952.375 458.581 952.269 458.781 952.269 458.781L953.312 458.8C953.869 459.216 954.199 459.434 954.199 459.434C954.199 459.434 964.106 467.667 957.305 458.873L957.383 458.874C958.752 456.241 959.595 453.853 960.038 451.696L961.326 451.719C966.501 441.769 964.16 435.316 961.121 431.574C961.265 431.434 961.404 431.302 961.536 431.178C964.874 437.74 966.456 444.411 967.206 449.343C965 453.152 963.23 455.564 963.23 455.564L967.852 455.826C967.885 456.651 967.88 457.108 967.88 457.108L977.181 456.339C977.196 454.025 977.055 451.826 976.78 449.737C980.309 443.644 982 438.338 982.496 433.771C989.595 446.874 989.442 457.898 989.442 457.898L998.742 457.129C998.764 453.671 998.439 450.47 997.839 447.511C1005.97 464.792 1024.72 475.65 1024.72 475.65C1024.72 475.65 1026.34 476.821 1028.33 478.145C1035.63 485.246 1042.64 489.303 1042.64 489.303C1042.64 489.303 1067.61 507.345 1042.16 481.85C1036.62 476.297 1032.4 470.886 1029.22 465.701C1030.81 466.206 1038.07 458.964 1038.07 458.964C1038.07 458.964 1044.13 454.28 1049.37 446.43C1050.35 449.089 1051.57 451.562 1052.9 453.822C1053.62 455.891 1054.27 457.044 1054.27 457.044C1054.27 457.044 1058.07 468.68 1059.74 463.082C1063.08 466.78 1065.76 468.852 1065.76 468.852C1065.76 468.852 1085.15 488.202 1067.5 461.436C1065.52 458.431 1063.87 455.485 1062.53 452.605C1067.2 455.633 1076.37 461.295 1082.12 463.078C1089.99 480.907 1109.43 492.163 1109.43 492.163C1109.43 492.163 1132.3 508.69 1111.95 487.755C1112.19 485.507 1112.21 481.943 1111.88 476.561C1111.71 473.823 1111.76 471.157 1112.01 468.567C1112.24 468.755 1112.37 468.851 1112.37 468.851C1112.37 468.851 1131.74 488.204 1114.11 461.435C1113.89 461.098 1113.67 460.762 1113.46 460.427C1113.63 459.793 1113.8 459.164 1113.99 458.54C1114.88 459.878 1115.74 461.007 1116.46 461.904C1115.89 462.55 1115.56 462.9 1115.56 462.9L1117.45 463.077C1118.17 463.911 1118.63 464.353 1118.63 464.353C1118.63 464.353 1130.99 480.714 1124.68 463.754L1124.82 463.768C1129.13 459.156 1132.32 454.918 1134.62 451.045L1136.95 451.264C1137.9 450.246 1138.8 449.246 1139.65 448.264L1139.88 448.245L1139.89 447.988C1140.81 446.904 1141.67 445.842 1142.47 444.803C1151.51 458.454 1165.86 466.765 1165.86 466.765C1165.86 466.765 1167.48 467.937 1169.48 469.262C1176.78 476.362 1183.78 480.419 1183.78 480.419C1183.78 480.419 1208.75 498.461 1183.3 472.965C1177.76 467.412 1173.54 462.001 1170.36 456.816C1171.96 457.319 1179.21 450.079 1179.21 450.079C1179.21 450.079 1185.28 445.395 1190.51 437.545C1191.49 440.204 1192.71 442.677 1194.04 444.937C1194.76 447.007 1195.41 448.16 1195.41 448.16C1195.41 448.16 1199.21 459.795 1200.88 454.197C1204.22 457.895 1206.9 459.967 1206.9 459.967C1206.9 459.967 1226.29 479.318 1208.64 452.551C1206.66 449.547 1205.02 446.6 1203.67 443.721C1208.34 446.749 1217.51 452.41 1223.26 454.193C1231.14 472.023 1250.57 483.278 1250.57 483.278C1250.57 483.278 1273.44 499.805 1253.09 478.87C1253.34 476.622 1253.35 473.058 1253.02 467.677C1252.85 464.939 1252.91 462.273 1253.15 459.682C1253.24 459.749 1253.31 459.805 1253.36 459.849C1253.46 459.927 1253.51 459.966 1253.51 459.966C1253.51 459.966 1272.89 479.319 1255.25 452.55C1255.03 452.214 1254.82 451.878 1254.6 451.543C1254.77 450.908 1254.94 450.28 1255.13 449.656C1256.03 450.994 1256.88 452.123 1257.6 453.02C1257.03 453.665 1256.7 454.016 1256.7 454.016L1258.59 454.192C1259.32 455.027 1259.77 455.468 1259.77 455.468C1259.77 455.468 1272.14 471.83 1265.82 454.87L1265.96 454.883C1267.8 452.921 1269.43 451.026 1270.87 449.199L1270.92 449.201C1270.96 450.402 1270.96 451.066 1270.96 451.066L1284.49 449.947C1284.51 446.581 1284.3 443.382 1283.9 440.344C1287.61 433.948 1289.92 428.149 1291.19 422.919C1291.86 421.154 1292.33 419.484 1292.64 417.909C1302.54 436.737 1302.32 456.503 1302.32 456.503L1315.85 455.385C1315.88 450.354 1315.41 445.698 1314.53 441.393C1326.36 466.53 1353.63 482.325 1353.63 482.325C1353.63 482.325 1355.99 484.029 1358.89 485.956C1369.51 496.284 1379.7 502.185 1379.7 502.185C1379.7 502.185 1416.02 528.43 1379.01 491.343C1370.94 483.266 1364.8 475.395 1360.18 467.852C1362.5 468.587 1373.06 458.053 1373.06 458.053ZM896.192 427.736C894.115 429.445 892.246 431.187 890.576 432.899C891.96 433.65 893.565 434.669 895.154 436.009C894.949 432.934 895.36 430.185 896.192 427.736ZM905.884 445.815C906.171 449.117 905.448 453.175 902.894 458.084L901.668 458.062C903.018 459.813 904.619 461.622 906.517 463.471C906.222 462.785 906.439 460.658 907.711 455.893C909.42 449.49 908.7 443.73 906.835 438.792C906.332 439.477 905.869 440.133 905.447 440.755C906.198 443.85 907.041 445.832 907.041 445.832L905.884 445.815ZM894.686 439.844C894.931 440.316 895.159 440.791 895.371 441.266C895.174 441.581 894.982 441.899 894.793 442.22C894.705 441.339 894.677 440.544 894.686 439.844ZM898.001 452.396C896.767 450.051 895.969 447.878 895.465 445.938L897.034 446.14C897.65 448.601 897.902 450.817 898.001 452.396ZM879.757 447.361C880.811 448.285 881.844 449.302 882.83 450.421C881.953 448.904 881.237 447.306 880.735 445.63C880.323 446.325 879.998 446.91 879.757 447.361ZM881.436 432.668L881.471 432.58L881.354 432.742L881.436 432.668ZM874.822 439.836C874.045 440.532 873.245 441.213 872.426 441.877C872.59 442.114 872.751 442.358 872.906 442.609C873.514 441.653 874.154 440.728 874.822 439.836ZM883.668 441.145C884.073 442.362 884.595 443.654 885.261 445.008C884.792 443.427 884.509 441.77 884.471 440.045C884.191 440.42 883.924 440.787 883.668 441.145ZM888.696 434.901C888.748 438.617 889.639 443.103 892.294 448.056C892.088 445.107 892.578 441.958 894.01 438.627C892.946 436.836 891.604 435.111 889.914 433.586C889.495 434.028 889.089 434.466 888.696 434.901ZM739.84 421.072C738.78 416.852 738.394 412.16 739.785 407.81C741.711 409.481 743.844 411.526 745.919 413.909C743.671 415.688 741.393 418.053 739.84 421.072ZM749.831 439.103C752.088 436.91 754.037 434.751 755.713 432.634C754.46 426.311 751.372 420.788 747.854 416.259C744.265 423.963 747.153 433.228 749.831 439.103ZM853.306 435.626C858.455 427.898 859.501 421.453 859.434 417.301C854.901 424.191 853.638 431.441 853.306 435.626ZM860.685 415.525C863.33 420.388 864.237 424.985 863.856 429.29C869.813 420.514 870.967 412.743 870.372 406.767C866.225 409.31 863.076 412.346 860.685 415.525ZM869.764 443.934C868.874 444.59 867.97 445.228 867.056 445.847C868.206 446.821 869.335 447.904 870.411 449.106C870.379 447.426 870.193 445.666 869.764 443.934ZM956.088 437.52C957.211 435.888 958.364 434.487 959.406 433.342C960.159 436.322 959.95 439.537 959.376 442.427C958.537 440.359 957.304 438.739 956.088 437.52ZM955.041 439.13C953.139 442.232 951.468 446.015 950.791 450.346C951.697 451.796 952.752 453.275 953.972 454.777C955.421 450.753 956.983 444.406 955.041 439.13ZM934.701 430.246C930.097 442.205 938.332 451.872 944.887 457.299C945.561 462.123 947.91 465.953 949.573 468.142C926.492 450.883 931.305 435.243 931.305 435.243C928.474 440.435 927.948 445.214 928.867 449.517C924.597 441.637 929.244 434.902 934.701 430.246ZM1144.44 406.905C1145.15 408.187 1145.64 409.539 1145.94 410.941C1145.27 412.902 1144.78 414.828 1144.46 416.713C1144.25 416.817 1144.05 416.921 1143.85 417.025C1143.66 413.313 1143.93 409.919 1144.44 406.905ZM1130.05 442.198C1127.51 447.345 1124.23 452.151 1121.43 455.834C1120.25 452.928 1119.35 450.089 1118.7 447.322C1121.43 442.278 1124.76 437.709 1128.29 433.651C1129.17 436.828 1129.71 439.763 1130.05 442.198ZM1017.89 406.55C1014.47 413.967 1011.93 423.756 1013.65 435.154C1015.31 429.75 1018.38 424.078 1023.29 418.201C1022.44 414.054 1020.77 410.031 1017.89 406.55ZM1023.68 420.512C1021.65 425.69 1019.63 433.815 1021.05 443.844C1022.7 438.595 1024.89 429.449 1023.68 420.512ZM1115.69 411.35C1113.93 409.647 1111.97 408.057 1109.77 406.629C1108.58 408.932 1107.46 411.506 1106.52 414.322C1107.98 415.829 1109.39 417.495 1110.7 419.331C1111.99 416.722 1113.63 414.056 1115.69 411.35ZM1107.02 430.988C1106.38 428.497 1105.53 425.833 1104.41 423.127C1103.58 428.871 1103.69 435.286 1105.42 442.217C1105.83 441.612 1106.33 440.84 1106.9 439.926C1106.58 437.111 1106.58 434.12 1107.02 430.988ZM1107.57 443.914L1105.85 443.816C1106.28 445.331 1106.78 446.869 1107.38 448.429C1107.68 447.885 1108 447.338 1108.34 446.787C1108.05 445.858 1107.79 444.899 1107.57 443.914ZM1155.52 411.466C1155.52 411.466 1155.25 411.611 1154.75 411.897C1154.1 416.313 1154.01 421.128 1154.79 426.27C1156.45 420.866 1159.52 415.193 1164.43 409.316C1163.58 405.17 1161.91 401.146 1159.03 397.665C1157.16 401.711 1155.56 406.463 1154.77 411.797C1155.02 411.687 1155.27 411.576 1155.52 411.466ZM1144.01 419.095L1144.14 418.991C1144.12 419.246 1144.09 419.502 1144.07 419.756C1144.05 419.535 1144.03 419.314 1144.01 419.095ZM1123.64 421.939C1124.71 423.911 1125.61 425.901 1126.37 427.861C1124.32 429.396 1122.43 430.929 1120.7 432.458C1122.39 428.59 1123.3 425.089 1123.64 421.939ZM1093.62 417.127C1093.62 417.127 1074.03 444.98 1104.17 479.596C1102.66 475.378 1101.02 468.076 1103.13 459.189C1095.64 449.339 1088.05 432.85 1099.47 413.94C1098.98 413.236 1098.47 412.539 1097.94 411.852C1086.82 419.448 1077.29 429.898 1079.3 442.814C1080.6 434.844 1084.87 426.205 1093.62 417.127ZM1103.26 408.482C1102.6 408.871 1101.94 409.27 1101.28 409.678C1101.51 409.851 1101.73 410.026 1101.96 410.205C1102.37 409.633 1102.81 409.058 1103.26 408.482ZM1110 406.183C1111.63 406.815 1114 407.849 1116.72 409.38C1116.49 406.99 1115.89 404.679 1114.83 402.528C1113.6 403.082 1112.33 403.681 1111.02 404.323C1110.68 404.921 1110.33 405.541 1110 406.183ZM1113.19 401.016L1113.45 400.94C1113.59 400.899 1113.72 400.859 1113.86 400.819C1113.75 400.652 1113.64 400.486 1113.53 400.321C1113.36 400.562 1113.2 400.81 1113.03 401.063L1113.19 401.016ZM1276.41 412.981C1274.64 410.846 1273.02 409.807 1273.02 409.807C1273.85 411.123 1274.44 412.519 1274.81 413.974L1274.52 414.163L1274.33 414.282L1274.14 414.402C1271.18 410.047 1267.81 406.327 1264.35 403.169C1266.13 399.637 1268.15 396.466 1270.19 393.698C1274.88 396.494 1278.88 399.783 1282.3 403.366C1282.24 405.542 1282.01 407.743 1281.64 409.942C1279.82 410.951 1278.08 411.965 1276.41 412.981ZM1279.61 418.375C1279.24 417.43 1278.81 416.565 1278.36 415.78C1279.22 415.016 1280.07 414.283 1280.91 413.582C1280.54 415.193 1280.1 416.794 1279.61 418.375ZM1269.44 436.613C1267.25 440.496 1264.76 444.067 1262.57 446.95C1261.39 444.044 1260.49 441.205 1259.84 438.438C1262 434.451 1264.53 430.76 1267.24 427.384C1268.2 430.658 1268.91 433.777 1269.44 436.613ZM1164.83 411.627C1162.79 416.805 1160.77 424.93 1162.19 434.959C1163.84 429.71 1166.03 420.564 1164.83 411.627ZM1258.48 426.704C1260.43 424.771 1262.62 422.825 1265.06 420.876C1263.9 417.843 1262.52 414.754 1260.86 411.697C1259.41 416.293 1258.5 421.315 1258.48 426.704ZM1255.85 403.793C1254.34 401.747 1252.68 399.755 1250.86 397.847C1245.86 407.626 1241.95 422.228 1248.52 439.545C1248.82 439.001 1249.14 438.453 1249.48 437.903C1246.67 428.75 1246.58 416.768 1255.85 403.793ZM1270.36 393.462C1272.46 394.185 1276.87 395.871 1282.15 398.851C1281.69 394.039 1280.21 389.447 1277.31 385.389C1275.26 387.449 1272.81 390.163 1270.36 393.462ZM1244.4 399.597C1227.74 420.769 1236.07 439.517 1244.27 450.305C1242.16 459.192 1243.8 466.493 1245.31 470.712C1215.17 436.096 1234.76 408.242 1234.76 408.242C1226.01 417.32 1221.75 425.959 1220.45 433.93C1218.11 418.983 1231.24 407.34 1244.4 399.597ZM1370.53 447.265C1374.24 441.63 1377.14 436.136 1379.36 430.81C1378.54 427.437 1377.41 423.768 1375.86 420.038C1373.32 428.876 1367.32 439.54 1355.55 452.117L1352.32 451.814C1354.14 456.725 1356.57 461.84 1359.74 467.119C1359.65 465.241 1362.36 459.643 1370.53 447.265ZM1361.85 399.956C1364.28 402.093 1366.41 404.405 1368.27 406.818C1367.61 409.787 1366.62 412.784 1365.41 415.744C1365.21 409.685 1363.85 404.445 1361.85 399.956ZM1411.44 422.923C1410.8 421.884 1410.13 420.886 1409.44 419.927C1411.23 414.47 1413.56 409.298 1416.28 404.425C1414.23 409.74 1413.32 414.853 1413.29 419.725C1412.63 420.809 1412.01 421.876 1411.44 422.923ZM1597.16 402.698C1596.33 409.392 1593.18 416.445 1589.5 422.723C1589.38 418.025 1588.01 414.25 1586.35 411.361C1590.19 407.948 1593.91 405.05 1597.16 402.698ZM1582.7 414.738C1575.91 421.263 1569.06 429.33 1563.94 438.768C1564.73 442.115 1565.82 445.549 1567.25 449.064C1573.81 440.429 1582.57 426.694 1582.7 414.738ZM1442 389.45C1441.58 390.371 1441.17 391.323 1440.77 392.304C1441.52 391.808 1442.29 391.314 1443.07 390.823C1442.73 390.358 1442.38 389.9 1442 389.45ZM1447.53 399.659C1442.83 404.198 1438.86 409.201 1436.21 414.647C1436.19 417.093 1436.32 419.619 1436.63 422.217C1439.2 416.081 1443.06 409.729 1448.47 403.203C1448.22 402.01 1447.9 400.827 1447.53 399.659ZM1453.31 398.037C1453.66 397.483 1453.86 397.196 1453.86 397.196C1453.64 397.426 1453.42 397.655 1453.2 397.884C1452.69 397.206 1452.18 396.56 1451.65 395.944C1456.68 391.698 1462.28 387.917 1467.89 384.621C1465.35 387.843 1463.21 391.027 1461.43 394.162C1460.8 393.646 1460.4 393.39 1460.4 393.39C1460.67 393.813 1460.91 394.243 1461.14 394.679C1459.37 397.857 1457.97 400.984 1456.88 404.053C1455.85 401.823 1454.63 399.822 1453.31 398.037ZM1469.4 407.086C1470.25 410.768 1470.34 415.215 1468.96 420.456C1469.2 424.291 1469.76 428.271 1470.71 432.378C1471.54 430.559 1472.27 428.762 1472.9 426.99C1472.58 420.194 1473.57 412.771 1476.67 404.943C1476.58 399.107 1475.61 393.726 1474.17 388.886C1472.02 394.27 1470.26 400.374 1469.4 407.086ZM1451.86 447.913L1449.18 447.662C1450.69 451.745 1452.71 455.999 1455.35 460.389C1455.28 459.087 1456.84 455.634 1461.3 448.556C1460.01 446.2 1458.82 443.7 1457.78 441.07C1456.04 443.27 1454.07 445.551 1451.86 447.913ZM1449.08 406.801C1447.84 410.035 1446.63 414.012 1445.8 418.623C1445.15 423.293 1444.99 428.654 1445.83 434.561C1447.8 428.303 1450.4 417.464 1449.08 406.801ZM1464.83 454.384C1462.21 456.867 1457.13 461.445 1455.71 460.998C1458.55 465.631 1462.08 470.411 1466.43 475.3C1466 470.367 1466.2 464.645 1467.69 458.381C1466.73 457.122 1465.78 455.788 1464.83 454.384ZM1545.11 453.122C1542.56 463.871 1544.54 472.703 1546.38 477.806C1532.74 462.147 1527.52 447.632 1526.32 435.595C1529.42 431.395 1531.82 427.451 1533.66 423.759C1534.09 435.738 1539.63 445.904 1545.11 453.122ZM1545.28 391.787C1542.73 393.287 1540.18 394.907 1537.71 396.645C1538.16 398.318 1538.49 400.131 1538.64 402.087C1540.34 398.72 1542.53 395.281 1545.28 391.787ZM1520.92 419.524C1522.51 416.405 1524.5 413.223 1526.95 409.987C1527.8 407.853 1528.54 405.702 1529.12 403.558C1525.48 406.956 1522.33 410.677 1520.02 414.706C1520.43 416.199 1520.75 417.804 1520.92 419.524ZM1469 487.823L1469.21 488.064L1469.16 487.913L1469.09 487.741L1468.84 487.569L1468.7 487.477L1469 487.823ZM1498.96 447.045C1498.57 447.62 1498.18 448.186 1497.79 448.74C1497.15 447.537 1496.56 446.343 1496 445.158C1496.87 445.722 1497.87 446.36 1498.96 447.045ZM1343.7 381.811C1338.73 392.6 1335.03 406.838 1337.53 423.419C1339.95 415.558 1344.41 407.307 1351.56 398.758C1350.32 392.727 1347.89 386.874 1343.7 381.811ZM1352.13 402.12C1349.17 409.652 1346.23 421.471 1348.3 436.059C1350.7 428.424 1353.88 415.12 1352.13 402.12ZM766.627 442.784C778.745 434.862 793.969 420.748 785.457 403.288C795.546 410.086 804.137 419.92 796.243 431.424C797.942 425.141 796.969 418.164 791.736 410.584C791.736 410.584 800.634 433.418 757.965 458.615C761.039 455.419 765.382 449.828 766.627 442.784Z" fill="#000821"/>
<path fill-rule="evenodd" clip-rule="evenodd" d="M110.746 463.948C110.746 463.948 105.454 459.859 99.5304 452.707L91.5758 452.05C90.8159 453.579 90.0114 455.053 89.1775 456.47C88.1319 459.479 87.1809 461.156 87.1809 461.156C87.1809 461.156 81.662 478.081 79.2247 469.939C74.3725 475.318 70.4713 478.332 70.4713 478.332C70.4713 478.332 42.2643 506.479 67.9379 467.544C70.2336 464.063 72.2189 460.635 73.9234 457.268L71.4629 457.064C64.2414 461.59 53.7067 467.753 46.6756 469.933C35.2173 495.868 6.95323 512.24 6.95323 512.24C6.95323 512.24 -26.3213 536.281 3.28039 505.828C3.14599 504.589 3.05894 503.076 3.02894 501.249C-1.32886 503.747 -4.25241 504.475 3.07169 496.232C3.12844 494.254 3.23082 492.034 3.38449 489.546C3.63052 485.563 3.55167 481.685 3.19081 477.917C2.85787 478.19 2.67663 478.331 2.67663 478.331C2.67663 478.331 -25.5102 506.482 0.135681 467.543C0.458252 467.053 0.774651 466.565 1.08503 466.077C0.844299 465.154 0.587387 464.239 0.315201 463.332C-0.987518 465.279 -2.22873 466.921 -3.28304 468.226C-2.45058 469.165 -1.9705 469.675 -1.9705 469.675L-4.71373 469.932C-5.77305 471.145 -6.43058 471.787 -6.43058 471.787C-6.43058 471.787 -24.4215 495.587 -15.2301 470.917L-15.4361 470.936C-15.5733 470.789 -15.7098 470.643 -15.8454 470.497C-16.0162 470.635 -16.1074 470.706 -16.1074 470.706C-16.1074 470.706 -37.7871 492.34 -20.4901 465.24C-22.2938 463.087 -23.9229 460.995 -25.3907 458.964C-29.1486 460.999 -32.9031 462.794 -35.8948 463.721C-45.4229 485.288 -68.926 498.902 -68.926 498.902C-68.926 498.902 -96.5954 518.894 -71.9802 493.57C-72.2753 490.851 -72.2959 486.54 -71.8937 480.031C-71.6891 476.719 -71.7547 473.494 -72.0548 470.36C-72.3316 470.588 -72.4823 470.705 -72.4823 470.705C-72.4823 470.705 -95.9214 494.114 -74.5954 461.734C-74.3272 461.327 -74.064 460.921 -73.8059 460.515C-74.0061 459.748 -74.2197 458.987 -74.4461 458.233C-75.5293 459.851 -76.5614 461.217 -77.4381 462.302C-76.7458 463.083 -76.3465 463.507 -76.3465 463.507L-78.6281 463.72C-79.509 464.73 -80.0557 465.264 -80.0557 465.264C-80.0557 465.264 -95.016 485.054 -87.3729 464.54L-87.5439 464.556C-92.7649 458.977 -96.6208 453.851 -99.4024 449.167L-102.222 449.431C-121.954 428.348 -122.187 413.731 -118.616 404.977C-122.33 402.552 -124.684 401.292 -124.684 401.292C-122.477 402.254 -120.344 403.222 -118.28 404.195C-115.449 397.92 -110.76 394.908 -110.76 394.908C-112.966 398.396 -113.745 402.353 -113.54 406.498C-108.677 408.935 -104.238 411.397 -100.188 413.871C-98.0394 411.289 -96.0826 410.033 -96.0826 410.033C-97.0887 411.624 -97.798 413.313 -98.2525 415.073C-90.1263 420.202 -83.6437 425.374 -78.4999 430.47C-78.6283 396.771 -107.451 374.921 -107.451 374.921C-65.0492 400.655 -62.2659 426.58 -67.6082 444.017C-67.2013 444.682 -66.8144 445.344 -66.4467 446.003C-57.8158 423.259 -64.1335 404.387 -70.8521 392.652C-81.9089 387.23 -91.0248 384.38 -91.0248 384.38C-84.6274 385.644 -78.7267 387.1 -73.2841 388.709C-77.1572 382.866 -80.5621 379.616 -80.5621 379.616C-75.7155 383.23 -71.5558 386.818 -68.0068 390.364C-61.977 392.366 -56.5595 394.563 -51.692 396.895C-48.2693 390.336 -43.3553 387.18 -43.3553 387.18C-45.7035 390.894 -46.7077 395.05 -46.7356 399.414C-40.8945 402.563 -35.9486 405.905 -31.7607 409.306C-31.3848 409.532 -31.0117 409.758 -30.6414 409.984C-28.0576 406.88 -25.7044 405.368 -25.7044 405.368C-26.9142 407.282 -27.7673 409.313 -28.3139 411.429C-23.555 414.433 -19.2649 417.449 -15.4012 420.461C-29.6289 388.306 -65.5945 369.728 -65.5945 369.728C-33.4352 383.271 -16.1016 398.09 -7.12736 411.583C-7.28564 410.833 -7.45656 410.094 -7.63885 409.365C-10.3147 400.37 -14.4441 392.463 -18.8489 385.849C-21.8194 381.816 -24.1219 379.616 -24.1219 379.616C-23.4927 380.085 -22.8751 380.554 -22.269 381.023C-30.8713 369.591 -39.3754 363.144 -39.3754 363.144C-20.6978 374.48 -8.41253 385.846 -0.658424 396.73C0.971619 393.376 3.08079 389.948 5.74597 386.465C5.37854 385.781 5.00836 385.115 4.63719 384.466C-8.65953 377.947 -19.622 374.52 -19.622 374.52C-11.9286 376.04 -4.8326 377.79 1.71256 379.725C-2.94519 372.699 -7.0399 368.79 -7.0399 368.79C-1.21145 373.136 3.79092 377.451 8.05894 381.715C8.48282 381.856 8.90413 381.997 9.32301 382.14C13.5504 377.386 18.8458 372.544 25.3979 367.655C25.3979 367.655 19.1975 373.579 14.0197 383.806C23.6633 387.378 31.886 391.375 38.8972 395.594C39.7025 395 40.4695 394.479 41.1758 394.027C35.91 383.21 29.3194 376.913 29.3194 376.913C44.1266 387.962 52.5158 398.77 56.6631 408.859C57.8768 409.993 59.0259 411.127 60.1138 412.26C59.5563 403.502 57.0604 396.689 55.1085 392.576C35.6566 369.656 10.9597 356.898 10.9597 356.898C49.6333 373.185 70.4781 391.006 81.2704 407.233C76.2715 383.541 60.8333 368.79 60.8333 368.79C72.6144 377.581 81.017 386.245 86.7992 394.616C91.5107 381.975 101.698 368.35 120.384 354.406C120.384 354.406 98.7523 375.076 98.4095 406.776C101.71 405.301 103.869 404.681 103.869 404.681C101.914 405.788 100.098 406.997 98.4094 408.288C98.4562 412.684 98.9163 417.285 99.9006 422.065C101.91 419.166 104.136 416.61 106.442 414.367C107.034 399.479 117.986 392.444 117.986 392.444C115.107 396.998 114.248 402.215 114.732 407.665C117.948 405.501 121.002 403.874 123.518 402.699C128.109 394.38 134.79 389.042 139.358 386.121C133.026 373.112 125.1 365.539 125.1 365.539C150.963 384.838 160.544 403.527 161.862 419.84C164.539 395.239 153.17 379.072 153.17 379.072C172.522 399.15 176.786 417.753 173.752 433.703C178.361 423.919 185.129 416.628 191.844 411.319C188.955 409.448 187.141 408.477 187.141 408.477C188.903 409.245 190.609 410.018 192.261 410.795C194.904 399.6 202.617 393.174 206.02 390.813C203.289 388.117 201.388 386.675 201.388 386.675C203.331 387.855 205.174 389.035 206.921 390.214C207.394 389.914 207.666 389.767 207.666 389.767C207.496 389.97 207.33 390.175 207.168 390.382C214.442 395.319 220.033 400.241 224.266 405.06C226.389 403.445 228.495 402.025 230.514 400.786C221.89 396.66 214.967 394.495 214.967 394.495C220.256 395.54 225.135 396.744 229.634 398.074C226.432 393.244 223.617 390.556 223.617 390.556C227.427 393.397 230.723 396.218 233.559 399.008C240.702 395.05 246.115 393.495 246.115 393.495C242.551 395.513 239.369 397.813 236.528 400.311C269.557 412.044 279.158 430.956 281.949 440.96C278.325 404.25 235.991 382.382 235.991 382.382C262.578 393.578 276.908 405.829 284.327 416.984C280.891 400.697 270.277 390.557 270.277 390.557C278.377 396.6 284.153 402.557 288.128 408.311C291.367 399.621 298.37 390.254 311.217 380.668C311.217 380.668 280.757 409.772 306.333 448.558C311.943 457.067 313.811 460.915 313.748 462.207C315.928 458.578 317.597 455.062 318.847 451.686L316.627 451.894C287.629 420.909 309.568 406.818 309.568 406.818C305.926 412.579 306.986 419.884 309.847 426.889C310.305 413.31 319.182 405.719 324.261 402.471C319.907 393.528 314.459 388.322 314.459 388.322C326.621 397.397 333.546 406.276 336.997 414.571C337.947 413.53 338.798 412.821 339.305 412.434C337.668 403.189 333.756 397.625 333.756 397.625C344.152 408.411 348.214 418.578 348.498 427.739L348.534 427.761C350.31 425.627 351.928 424.587 351.928 424.587C351.096 425.903 350.51 427.3 350.134 428.754C350.497 428.984 350.857 429.213 351.212 429.443C354.008 425.394 357.316 422.155 360.591 419.599C360.677 419.225 360.77 418.858 360.871 418.499C353.798 404.103 342.529 395.56 342.529 395.56C351.701 401.126 358.63 406.703 363.784 412.163C364.988 410.344 366.318 408.888 367.517 407.775C360.92 404.884 356.109 403.38 356.109 403.38C360.731 404.293 365.039 405.327 369.054 406.461C369.39 406.197 369.699 405.97 369.972 405.778C367.118 401.692 364.759 399.441 364.759 399.441C368.766 402.429 372.205 405.395 375.139 408.327C379.292 409.706 383.094 411.197 386.574 412.771C392.641 408.98 397.652 407.541 397.652 407.541C394.383 409.392 391.581 411.587 389.18 413.993C413.034 425.6 420.656 441.115 423.091 449.845C419.467 413.134 377.133 391.266 377.133 391.266C403.72 402.463 418.05 414.713 425.469 425.869C422.033 409.582 411.42 399.441 411.42 399.441C419.519 405.485 425.295 411.441 429.27 417.196C432.509 408.506 439.512 399.139 452.359 389.553C452.359 389.553 421.899 418.657 447.474 457.443C453.086 465.953 454.953 469.802 454.89 471.092C457.07 467.463 458.739 463.946 459.989 460.57L457.769 460.778C428.771 429.794 450.71 415.703 450.71 415.703C447.068 421.463 448.128 428.769 450.989 435.773C451.448 422.195 460.324 414.604 465.403 411.355C461.049 402.413 455.601 397.206 455.601 397.206C473.38 410.473 479.967 423.32 480.873 434.534C482.713 417.623 474.898 406.51 474.898 406.51C488.202 420.313 491.133 433.101 489.047 444.067C492.272 437.22 497.036 435.096 501.734 431.43C504.04 421.324 512.362 416.809 512.362 416.809C509.831 419.844 508.589 423.38 508.232 427.107C513.324 424.234 517.233 423.11 517.233 423.11C513.673 425.127 510.667 427.551 508.129 430.211C508.238 434.456 509.307 438.835 510.776 442.922C519.472 424.925 538.794 419.373 538.794 419.373C530.958 423.81 525.807 430.226 522.42 436.778C522.603 436.897 522.784 437.016 522.963 437.135C525.261 434.462 527.832 433.289 527.832 433.289C526.276 434.754 525.271 436.473 524.668 438.308C526.405 439.543 527.951 440.776 529.323 442.001C530.702 440.933 531.775 440.443 531.775 440.443C531.066 441.112 530.47 441.833 529.975 442.594C532.701 445.125 534.695 447.62 536.111 450.037C541.69 435.172 532.634 424.584 532.634 424.584C547.029 437.334 543.92 448.858 538.648 456.371C538.716 456.678 538.776 456.982 538.828 457.285C546.438 447.541 546.808 439.01 545.808 433.612C541.839 430.856 538.296 429.298 538.296 429.298C540.906 430.067 543.264 430.904 545.395 431.794C544.664 429.089 543.706 427.543 543.706 427.543C545.239 429.297 546.473 431.017 547.445 432.698C563.799 440.313 565.173 451.177 564.625 456.761C570.118 437.034 551.961 423.677 551.961 423.677C563.877 430.712 569.043 437.819 570.744 444.066C571.142 441.659 571.164 439.474 570.984 437.57C564.732 431.055 555.596 424.021 543.057 420.015C543.057 420.015 562.996 423.031 578.167 435.586C578.549 435.222 578.946 434.858 579.359 434.493C579.107 431.901 578.498 429.235 577.35 426.666C573.852 424.743 569.981 423.03 565.716 421.668C565.716 421.668 569.991 422.314 576.088 424.255C574.341 421.373 571.795 418.692 568.164 416.477C568.164 416.477 578.059 419.507 584.113 427.243C585.156 427.691 586.218 428.173 587.29 428.689C588.87 427.713 590.582 426.739 592.433 425.771C592.433 425.771 590.622 426.941 588.172 429.121C589.974 430.018 591.8 431.015 593.614 432.121C593.083 430.74 592.615 429.983 592.615 429.983C593.492 430.988 594.272 431.982 594.96 432.964C597.147 434.37 599.302 435.939 601.362 437.688C601.335 437.402 601.303 437.145 601.27 436.919C596.083 428.853 594.935 419.316 602.358 408.565C602.358 408.565 598.807 417.676 606.948 430.739C603.646 421.953 605.336 411.563 617.908 400.193C617.908 400.193 614.482 404.565 613.534 411.784C619.757 414.017 631.349 419.411 636.879 429.958C637.081 424.336 635.394 418.585 629.648 414.312C629.648 414.312 656.553 424.005 639.545 449.826L637.278 449.794C639.773 452.35 642.734 454.991 646.241 457.69C645.696 456.688 646.098 453.582 648.449 446.628C659.164 414.931 618.242 394.044 618.242 394.044C634.496 400.759 644.905 407.645 651.349 414.223C653.117 409.51 656.585 404.534 662.312 399.355C662.312 399.355 655.639 407.871 658.341 420.755C661.485 411.635 671.035 401.258 693.065 390.987C693.065 390.987 659.498 410.488 669.653 439.287C668.639 431.134 671.181 415.274 701.412 404.157C703.209 401.702 705.491 399.192 708.325 396.631C708.325 396.631 706.554 398.888 705.203 402.837C709.142 401.538 713.503 400.316 718.327 399.194C718.327 399.194 711.777 401.468 704.439 405.492C702.59 413.372 703.274 425.827 717.343 440.053C717.439 439.611 717.55 439.166 717.676 438.718C707.929 427.75 702.182 410.925 728.794 392.311C728.794 392.311 712.052 407.77 722.367 429.472C724.985 425.943 728.671 422.3 733.709 418.605C732.795 417.494 731.694 416.441 730.382 415.465C730.382 415.465 732.366 416.18 734.916 417.738C737.453 415.95 740.311 414.15 743.522 412.347C742.407 409.668 740.548 407.159 737.672 405.019C737.672 405.019 742.426 406.732 746.674 410.635C748.055 409.91 749.496 409.184 750.997 408.458C750.997 408.458 749.467 409.382 747.189 411.123C752.808 416.586 757.137 426.008 747.569 440.534L745.188 440.5C744.369 443.65 742.81 447.136 740.279 450.98L740.134 450.977C752.708 463.816 734.393 451.797 734.393 451.797C734.393 451.797 733.782 451.479 732.752 450.872L730.826 450.844C730.826 450.844 731.02 450.552 731.343 450.016C730.293 449.36 729.029 448.531 727.646 447.541C727.695 448.037 727.756 448.537 727.83 449.041C728.165 449.29 728.505 449.539 728.85 449.788C756.247 469.605 729.901 455.665 729.901 455.665C729.901 455.665 729.742 455.597 729.446 455.464C730.17 457.496 731.114 459.575 732.305 461.698C734.645 465.869 735.962 468.646 736.562 470.41C764.459 485.526 735.72 473.99 735.72 473.99C735.72 473.99 712.35 466.36 697.914 452.935C691.575 451.882 680.421 448.008 674.677 445.923C677.084 448.086 679.808 450.285 682.886 452.509C710.301 472.323 683.942 458.386 683.942 458.386C683.942 458.386 680.522 456.929 675.85 454.244C676.291 458.701 668.198 449.861 668.198 449.861C668.198 449.861 667.122 449.001 665.638 447.432C663.482 445.75 661.353 443.895 659.39 441.882C657.167 448.3 652.94 452.302 652.94 452.302C652.94 452.302 648.492 458.365 646.731 458.064C651.801 461.917 657.989 465.884 665.532 469.885C700.162 488.255 668.79 475.662 668.79 475.662C668.79 475.662 660.366 472.911 650.509 467.808C648.047 466.893 646.01 466.076 646.01 466.076C646.01 466.076 632.44 461.645 619.594 453.596C617.068 456.56 615.232 459.525 614.008 461.804C614.414 463.924 614.87 465.282 614.87 465.282L612.352 465.237C612.167 465.675 612.077 465.919 612.077 465.919L607.271 465.137C607.732 463.902 608.252 462.735 608.821 461.631C608.248 458.638 608.314 456.03 608.791 453.77L608.098 453.859C602.307 460.293 599.82 467.051 599.82 467.051L595.015 466.269C595.703 464.423 596.524 462.729 597.443 461.174C589.61 470.067 577.414 475.11 577.414 475.11C577.414 475.11 576.312 475.67 574.979 476.296C569.648 479.792 565.091 481.676 565.091 481.676C565.091 481.676 548.122 490.301 566.854 477.719C570.934 474.979 574.281 472.261 577.024 469.622C576.071 469.829 573.665 465.675 573.665 465.675C573.665 465.675 571.379 462.934 570.176 458.538C569.115 459.916 567.963 461.186 566.797 462.338C565.995 463.414 565.412 464.004 565.412 464.004C565.412 464.004 561.034 470.059 561.273 467.005C558.745 468.844 556.895 469.843 556.895 469.843C556.895 469.843 542.637 479.389 557.467 465.817C559.131 464.294 560.605 462.788 561.906 461.306C558.799 462.734 552.766 465.388 549.338 466.109C541.529 475.304 528.888 480.531 528.888 480.531C528.888 480.531 513.343 488.432 528.433 478.079C528.757 476.87 529.469 474.968 530.735 472.111C531.379 470.657 531.89 469.233 532.282 467.841C532.121 467.932 532.035 467.979 532.035 467.979C532.035 467.979 517.784 477.527 532.604 463.953C532.79 463.782 532.974 463.612 533.156 463.441C533.196 463.096 533.229 462.754 533.255 462.414C532.507 463.092 531.823 463.66 531.255 464.11C531.43 464.477 531.535 464.677 531.535 464.677L530.493 464.696C529.936 465.112 529.606 465.329 529.606 465.329C529.606 465.329 519.698 473.562 526.5 464.768L526.422 464.77C525.052 462.137 524.209 459.749 523.766 457.591L522.479 457.615C517.303 447.665 519.645 441.211 522.684 437.469C522.54 437.329 522.401 437.198 522.268 437.073C518.931 443.636 517.348 450.307 516.598 455.239C518.804 459.048 520.575 461.46 520.575 461.46L515.953 461.722C515.919 462.547 515.924 463.003 515.924 463.003L506.623 462.234C506.609 459.92 506.75 457.721 507.024 455.633C503.495 449.539 501.805 444.233 501.308 439.666C494.209 452.77 494.363 463.794 494.363 463.794L485.062 463.025C485.041 459.567 485.366 456.366 485.966 453.406C477.835 470.687 459.089 481.545 459.089 481.545C459.089 481.545 457.468 482.717 455.473 484.041C448.17 491.142 441.167 495.199 441.167 495.199C441.167 495.199 416.196 513.241 441.644 487.745C447.187 482.192 451.41 476.782 454.584 471.596C452.99 472.101 445.733 464.859 445.733 464.859C445.733 464.859 439.671 460.175 434.439 452.326C433.457 454.984 432.236 457.458 430.906 459.718C430.187 461.787 429.533 462.94 429.533 462.94C429.533 462.94 425.739 474.575 424.063 468.978C420.728 472.675 418.046 474.748 418.046 474.748C418.046 474.748 398.654 494.098 416.304 467.331C418.285 464.327 419.93 461.38 421.279 458.501C416.603 461.529 407.439 467.19 401.687 468.973C393.81 486.803 374.379 498.058 374.379 498.058C374.379 498.058 351.504 514.586 371.854 493.65C371.61 491.403 371.593 487.839 371.925 482.457C372.094 479.719 372.04 477.053 371.792 474.462C371.564 474.65 371.439 474.746 371.439 474.746C371.439 474.746 352.062 494.1 369.692 467.33C369.914 466.994 370.131 466.658 370.345 466.323C370.179 465.688 370.003 465.059 369.815 464.436C368.92 465.774 368.067 466.903 367.342 467.8C367.914 468.445 368.244 468.796 368.244 468.796L366.358 468.973C365.63 469.807 365.178 470.248 365.178 470.248C365.178 470.248 352.81 486.61 359.128 469.65L358.987 469.663C354.671 465.051 351.483 460.813 349.184 456.941L346.853 457.159C345.9 456.141 345.002 455.141 344.157 454.16L343.921 454.14L343.92 453.883C342.994 452.799 342.132 451.738 341.331 450.698C332.295 464.35 317.948 472.661 317.948 472.661C317.948 472.661 316.326 473.833 314.33 475.157C307.028 482.258 300.025 486.314 300.025 486.314C300.025 486.314 275.053 504.356 300.502 478.861C306.045 473.307 310.267 467.897 313.442 462.711C311.847 463.215 304.591 455.975 304.591 455.975C304.591 455.975 298.529 451.29 293.297 443.441C292.315 446.099 291.094 448.573 289.764 450.833C289.045 452.902 288.391 454.055 288.391 454.055C288.391 454.055 284.597 465.691 282.921 460.093C279.585 463.791 276.903 465.863 276.903 465.863C276.903 465.863 257.512 485.213 275.162 458.447C277.143 455.442 278.788 452.496 280.137 449.616C275.46 452.644 266.297 458.306 260.545 460.089C252.667 477.918 233.237 489.173 233.237 489.173C233.237 489.173 210.362 505.701 230.712 484.766C230.468 482.518 230.451 478.954 230.783 473.572C230.952 470.834 230.898 468.168 230.65 465.577C230.568 465.645 230.499 465.701 230.445 465.744C230.348 465.822 230.297 465.862 230.297 465.862C230.297 465.862 210.919 485.215 228.55 458.446C228.772 458.109 228.989 457.773 229.202 457.438C229.037 456.804 228.86 456.175 228.673 455.552C227.778 456.889 226.925 458.019 226.2 458.916C226.772 459.561 227.102 459.911 227.102 459.911L225.216 460.088C224.488 460.922 224.036 461.364 224.036 461.364C224.036 461.364 211.668 477.725 217.987 460.765L217.845 460.778C216.009 458.816 214.377 456.922 212.93 455.095L212.89 455.097C212.841 456.297 212.848 456.961 212.848 456.961L199.318 455.843C199.298 452.477 199.503 449.278 199.902 446.24C196.198 439.844 193.886 434.044 192.614 428.815C191.946 427.05 191.474 425.38 191.166 423.804C181.268 442.633 181.485 462.398 181.485 462.398L167.956 461.28C167.925 456.25 168.397 451.594 169.27 447.289C157.442 472.426 130.175 488.22 130.175 488.22C130.175 488.22 127.816 489.925 124.913 491.851C114.291 502.18 104.104 508.081 104.104 508.081C104.104 508.081 67.7808 534.325 104.798 497.239C112.861 489.161 119.004 481.291 123.622 473.748C121.302 474.482 110.746 463.948 110.746 463.948ZM587.612 433.632C589.689 435.34 591.558 437.082 593.229 438.794C591.844 439.545 590.24 440.565 588.651 441.904C588.856 438.83 588.444 436.08 587.612 433.632ZM577.921 451.711C577.633 455.012 578.357 459.07 580.911 463.979L582.137 463.957C580.787 465.708 579.185 467.518 577.288 469.366C577.583 468.681 577.366 466.554 576.094 461.789C574.384 455.385 575.105 449.626 576.97 444.688C577.473 445.372 577.935 446.029 578.358 446.65C577.607 449.745 576.763 451.727 576.763 451.727L577.921 451.711ZM589.119 445.739C588.873 446.212 588.645 446.687 588.434 447.162C588.63 447.476 588.823 447.794 589.012 448.115C589.1 447.235 589.128 446.439 589.119 445.739ZM585.804 458.291C587.038 455.946 587.836 453.774 588.339 451.834L586.77 452.035C586.154 454.497 585.903 456.713 585.804 458.291ZM604.048 453.256C602.994 454.18 601.961 455.197 600.975 456.316C601.851 454.799 602.568 453.201 603.07 451.526C603.481 452.221 603.806 452.805 604.048 453.256ZM602.369 438.564L602.333 438.476L602.451 438.637L602.369 438.564ZM608.982 445.731C609.759 446.428 610.56 447.108 611.378 447.772C611.214 448.009 611.054 448.253 610.898 448.505C610.29 447.548 609.65 446.624 608.982 445.731ZM600.137 447.04C599.731 448.258 599.21 449.55 598.544 450.904C599.013 449.322 599.295 447.666 599.334 445.941C599.613 446.315 599.881 446.682 600.137 447.04ZM595.109 440.797C595.057 444.512 594.166 448.998 591.51 453.951C591.717 451.002 591.226 447.854 589.795 444.522C590.859 442.731 592.2 441.007 593.891 439.482C594.31 439.923 594.716 440.362 595.109 440.797ZM743.964 426.968C745.024 422.748 745.41 418.055 744.02 413.705C742.093 415.376 739.961 417.422 737.885 419.804C740.134 421.584 742.412 423.949 743.964 426.968ZM733.973 444.999C731.717 442.806 729.768 440.647 728.092 438.53C729.344 432.207 732.433 426.683 735.95 422.154C739.54 429.858 736.651 439.123 733.973 444.999ZM630.499 441.521C625.349 433.794 624.304 427.348 624.37 423.197C628.903 430.087 630.167 437.337 630.499 441.521ZM623.12 421.42C620.474 426.283 619.567 430.88 619.949 435.185C613.991 426.409 612.837 418.638 613.432 412.663C617.579 415.205 620.729 418.241 623.12 421.42ZM614.041 449.83C614.931 450.486 615.835 451.123 616.748 451.742C615.598 452.717 614.469 453.8 613.394 455.002C613.426 453.321 613.612 451.562 614.041 449.83ZM527.717 443.416C526.594 441.784 525.44 440.383 524.398 439.238C523.646 442.218 523.855 445.432 524.428 448.322C525.268 446.255 526.5 444.635 527.717 443.416ZM528.763 445.025C530.666 448.127 532.336 451.911 533.014 456.241C532.108 457.692 531.053 459.17 529.833 460.673C528.384 456.648 526.822 450.302 528.763 445.025ZM549.103 436.141C553.707 448.1 545.473 457.768 538.918 463.194C538.244 468.019 535.895 471.848 534.232 474.038C557.313 456.779 552.5 441.138 552.5 441.138C555.33 446.33 555.857 451.109 554.938 455.412C559.207 447.533 554.56 440.797 549.103 436.141ZM339.368 412.801C338.658 414.083 338.165 415.434 337.86 416.836C338.538 418.798 339.026 420.723 339.348 422.608C339.55 422.712 339.75 422.816 339.95 422.92C340.14 419.209 339.877 415.814 339.368 412.801ZM353.758 448.093C356.294 453.24 359.574 458.046 362.372 461.729C363.559 458.824 364.459 455.985 365.108 453.217C362.375 448.174 359.043 443.604 355.512 439.546C354.634 442.724 354.093 445.658 353.758 448.093ZM465.919 412.445C469.335 419.863 471.877 429.651 470.159 441.05C468.496 435.646 465.425 429.973 460.513 424.096C461.366 419.95 463.034 415.926 465.919 412.445ZM460.122 426.407C462.153 431.586 464.174 439.711 462.756 449.739C461.102 444.49 458.915 435.345 460.122 426.407ZM368.112 417.246C369.872 415.543 371.839 413.953 374.039 412.524C375.222 414.828 376.347 417.402 377.288 420.218C375.826 421.725 374.415 423.39 373.108 425.226C371.817 422.617 370.171 419.951 368.112 417.246ZM376.786 436.884C377.427 434.393 378.274 431.729 379.391 429.022C380.224 434.767 380.115 441.181 378.383 448.112C377.978 447.507 377.474 446.735 376.906 445.822C377.225 443.007 377.229 440.015 376.786 436.884ZM376.232 449.809L377.957 449.711C377.528 451.226 377.021 452.765 376.429 454.325C376.125 453.781 375.805 453.233 375.468 452.683C375.753 451.754 376.01 450.795 376.232 449.809ZM328.283 417.362C328.283 417.362 328.553 417.506 329.052 417.792C329.7 422.209 329.792 427.023 329.017 432.165C327.354 426.761 324.283 421.088 319.371 415.212C320.224 411.065 321.892 407.042 324.777 403.561C326.64 407.607 328.244 412.359 329.038 417.693C328.787 417.582 328.535 417.472 328.283 417.362ZM339.798 424.99L339.661 424.886C339.687 425.142 339.711 425.397 339.731 425.651C339.755 425.43 339.778 425.21 339.798 424.99ZM360.166 427.835C359.098 429.806 358.195 431.797 357.43 433.757C359.483 435.291 361.372 436.825 363.109 438.354C361.419 434.485 360.508 430.984 360.166 427.835ZM390.187 423.023C390.187 423.023 409.774 450.876 379.632 485.492C381.149 481.273 382.784 473.972 380.677 465.085C388.162 455.234 395.757 438.746 384.334 419.836C384.82 419.131 385.33 418.434 385.867 417.747C396.99 425.344 406.518 435.793 404.5 448.709C403.2 440.739 398.937 432.1 390.187 423.023ZM380.542 414.378C381.203 414.767 381.864 415.165 382.524 415.574C382.298 415.746 382.073 415.922 381.847 416.101C381.43 415.528 380.995 414.954 380.542 414.378ZM373.807 412.079C372.178 412.711 369.802 413.745 367.089 415.275C367.319 412.885 367.911 410.574 368.974 408.423C370.201 408.978 371.477 409.576 372.787 410.218C373.129 410.816 373.47 411.437 373.807 412.079ZM370.617 406.912L370.356 406.835C370.218 406.795 370.08 406.755 369.942 406.715C370.05 406.547 370.161 406.381 370.276 406.216C370.441 406.458 370.608 406.705 370.776 406.959L370.617 406.912ZM207.392 418.876C209.168 416.742 210.786 415.703 210.786 415.703C209.954 417.019 209.368 418.415 208.992 419.87L209.289 420.058L209.477 420.178L209.665 420.298C212.623 415.943 215.991 412.222 219.456 409.065C217.676 405.532 215.65 402.361 213.614 399.594C208.929 402.389 204.927 405.678 201.509 409.261C201.564 411.438 201.794 413.639 202.161 415.837C203.986 416.847 205.729 417.86 207.392 418.876ZM204.194 424.27C204.565 423.325 204.99 422.461 205.442 421.675C204.582 420.911 203.73 420.178 202.891 419.477C203.266 421.088 203.705 422.69 204.194 424.27ZM214.362 442.508C216.555 446.392 219.04 449.962 221.23 452.845C222.417 449.94 223.317 447.1 223.966 444.333C221.805 440.347 219.271 436.656 216.56 433.28C215.601 436.553 214.89 439.672 214.362 442.508ZM318.98 417.523C321.011 422.701 323.032 430.826 321.614 440.855C319.96 435.606 317.773 426.46 318.98 417.523ZM225.322 432.6C223.371 430.667 221.187 428.721 218.746 426.771C219.903 423.739 221.287 420.649 222.942 417.593C224.394 422.189 225.302 427.211 225.322 432.6ZM227.95 409.688C229.46 407.643 231.122 405.651 232.949 403.743C237.947 413.521 241.858 428.123 235.287 445.44C234.983 444.896 234.663 444.349 234.327 443.799C237.131 434.646 237.227 422.663 227.95 409.688ZM213.44 399.358C211.346 400.08 206.94 401.766 201.658 404.746C202.119 399.934 203.594 395.343 206.493 391.285C208.54 393.344 210.993 396.059 213.44 399.358ZM239.4 405.493C256.06 426.664 247.732 445.413 239.535 456.2C241.642 465.087 240.007 472.389 238.49 476.607C268.632 441.991 249.045 414.138 249.045 414.138C257.795 423.216 262.058 431.855 263.358 439.825C265.694 424.878 252.567 413.235 239.4 405.493ZM113.28 453.161C109.564 447.526 106.661 442.031 104.446 436.705C105.265 433.333 106.393 429.664 107.947 425.933C110.482 434.772 116.483 445.435 128.254 458.012L131.483 457.71C129.665 462.62 127.238 467.736 124.066 473.015C124.158 471.137 121.442 465.539 113.28 453.161ZM121.95 405.852C119.524 407.989 117.397 410.301 115.532 412.714C116.195 415.682 117.183 418.679 118.392 421.64C118.597 415.58 119.954 410.341 121.95 405.852ZM72.3619 428.818C73.0016 427.78 73.6699 426.781 74.3617 425.822C72.5787 420.366 70.2461 415.194 67.5296 410.321C69.5793 415.635 70.4837 420.749 70.5112 425.621C71.1762 426.704 71.7919 427.771 72.3619 428.818ZM-113.356 408.594C-112.523 415.288 -109.375 422.341 -105.694 428.619C-105.571 423.921 -104.209 420.146 -102.547 417.257C-106.386 413.844 -110.101 410.945 -113.356 408.594ZM-98.8925 420.633C-92.1031 427.159 -85.2554 435.225 -80.1398 444.663C-80.9255 448.01 -82.0142 451.445 -83.4493 454.959C-90.0088 446.325 -98.7613 432.589 -98.8925 420.633ZM41.8001 395.345C42.2245 396.267 42.6377 397.218 43.0354 398.199C42.2826 397.703 41.5142 397.209 40.73 396.718C41.0703 396.254 41.4268 395.796 41.8001 395.345ZM36.2778 405.555C40.9776 410.093 44.9408 415.097 47.5933 420.542C47.6163 422.989 47.4868 425.515 47.1761 428.113C44.6004 421.977 40.7461 415.624 35.3329 409.099C35.5891 407.906 35.9019 406.722 36.2778 405.555ZM30.4921 403.932C30.1494 403.378 29.9481 403.092 29.9481 403.092C30.1692 403.321 30.3882 403.55 30.6054 403.779C31.1103 403.101 31.6285 402.455 32.1547 401.84C27.1221 397.594 21.5224 393.812 15.9178 390.517C18.4534 393.739 20.591 396.922 22.3727 400.058C23.0061 399.541 23.4036 399.286 23.4036 399.286C23.1362 399.709 22.8897 400.139 22.6635 400.575C24.4323 403.752 25.8367 406.88 26.9203 409.948C27.9541 407.719 29.1764 405.718 30.4921 403.932ZM14.402 412.982C13.5585 416.663 13.4628 421.111 14.8409 426.351C14.6027 430.187 14.043 434.166 13.0937 438.273C12.2678 436.454 11.5393 434.658 10.9011 432.886C11.2263 426.089 10.237 418.666 7.12978 410.839C7.22922 405.003 8.19385 399.621 9.63254 394.782C11.7852 400.165 13.5408 406.269 14.402 412.982ZM31.942 453.809L34.6272 453.557C33.1149 457.641 31.0969 461.895 28.4595 466.284C28.5231 464.982 26.9633 461.529 22.5088 454.451C23.7945 452.096 24.9863 449.596 26.0219 446.965C27.7652 449.166 29.7312 451.447 31.942 453.809ZM34.7276 412.697C35.9629 415.93 37.1755 419.908 38.0001 424.519C38.6588 429.188 38.8098 434.55 37.9745 440.457C36.0024 434.198 33.4031 423.36 34.7276 412.697ZM18.9698 460.28C21.591 462.762 26.6773 467.341 28.0897 466.894C25.2538 471.526 21.7264 476.307 17.3751 481.196C17.8072 476.263 17.6001 470.54 16.1148 464.276C17.0715 463.017 18.0295 461.684 18.9698 460.28ZM-61.3077 459.018C-58.7589 469.767 -60.7363 478.599 -62.5717 483.701C-48.9365 468.042 -43.7144 453.527 -42.5197 441.491C-45.6119 437.29 -48.0171 433.346 -49.851 429.655C-50.2887 441.633 -55.8224 451.799 -61.3077 459.018ZM-61.4718 397.683C-58.922 399.182 -56.3734 400.802 -53.9026 402.541C-54.3572 404.213 -54.6853 406.027 -54.8344 407.983C-56.5358 404.615 -58.7226 401.176 -61.4718 397.683ZM-37.1167 425.419C-38.7057 422.3 -40.699 419.119 -43.1475 415.883C-44.0002 413.749 -44.7352 411.598 -45.3141 409.454C-41.6766 412.852 -38.5232 416.572 -36.2168 420.602C-36.6299 422.094 -36.9424 423.7 -37.1167 425.419ZM14.8044 493.718L14.5948 493.96L14.6491 493.808L14.7098 493.636L14.9668 493.464L15.1034 493.372L14.8044 493.718ZM-15.1561 452.941C-14.7657 453.516 -14.3756 454.081 -13.9873 454.635C-13.3475 453.433 -12.7512 452.239 -12.1962 451.054C-13.0661 451.617 -14.0643 452.256 -15.1561 452.941ZM140.109 387.706C145.079 398.496 148.776 412.734 146.276 429.314C143.858 421.454 139.391 413.202 132.246 404.654C133.486 398.622 135.912 392.77 140.109 387.706ZM131.676 408.015C134.632 415.548 137.572 427.367 135.509 441.955C133.103 434.32 129.921 421.016 131.676 408.015ZM717.177 448.68C705.06 440.758 689.835 426.643 698.347 409.184C688.259 415.982 679.668 425.815 687.562 437.319C685.862 431.036 686.835 424.06 692.069 416.479C692.069 416.479 683.171 439.313 725.84 464.511C722.766 461.314 718.423 455.724 717.177 448.68Z" fill="#000821"/>
<defs>
<filter id="filter0_d_2089_7417" x="541.555" y="220.999" width="242.016" height="254.172" filterUnits="userSpaceOnUse" color-interpolation-filters="sRGB">
<feFlood flood-opacity="0" result="BackgroundImageFix"/>
<feColorMatrix in="SourceAlpha" type="matrix" values="0 0 0 0 0 0 0 0 0 0 0 0 0 0 0 0 0 0 127 0" result="hardAlpha"/>
<feMorphology radius="5" operator="dilate" in="SourceAlpha" result="effect1_dropShadow_2089_7417"/>
<feOffset dy="4"/>
<feGaussianBlur stdDeviation="5.5"/>
<feComposite in2="hardAlpha" operator="out"/>
<feColorMatrix type="matrix" values="0 0 0 0 1 0 0 0 0 0.6 0 0 0 0 0 0 0 0 0.42 0"/>
<feBlend mode="normal" in2="BackgroundImageFix" result="effect1_dropShadow_2089_7417"/>
<feBlend mode="normal" in="SourceGraphic" in2="effect1_dropShadow_2089_7417" result="shape"/>
</filter>
<filter id="filter1_i_2089_7417" x="607.141" y="17.8174" width="974.828" height="290.087" filterUnits="userSpaceOnUse" color-interpolation-filters="sRGB">
<feFlood flood-opacity="0" result="BackgroundImageFix"/>
<feBlend mode="normal" in="SourceGraphic" in2="BackgroundImageFix" result="shape"/>
<feColorMatrix in="SourceAlpha" type="matrix" values="0 0 0 0 0 0 0 0 0 0 0 0 0 0 0 0 0 0 127 0" result="hardAlpha"/>
<feOffset dy="1"/>
<feGaussianBlur stdDeviation="1"/>
<feComposite in2="hardAlpha" operator="arithmetic" k2="-1" k3="1"/>
<feColorMatrix type="matrix" values="0 0 0 0 1 0 0 0 0 0.803937 0 0 0 0 0.754167 0 0 0 1 0"/>
<feBlend mode="normal" in2="shape" result="effect1_innerShadow_2089_7417"/>
</filter>
<filter id="filter2_f_2089_7417" x="314.996" y="264.95" width="847.371" height="439.738" filterUnits="userSpaceOnUse" color-interpolation-filters="sRGB">
<feFlood flood-opacity="0" result="BackgroundImageFix"/>
<feBlend mode="normal" in="SourceGraphic" in2="BackgroundImageFix" result="shape"/>
<feGaussianBlur stdDeviation="14" result="effect1_foregroundBlur_2089_7417"/>
</filter>
<filter id="filter3_f_2089_7417" x="502.324" y="264.95" width="537.559" height="439.738" filterUnits="userSpaceOnUse" color-interpolation-filters="sRGB">
<feFlood flood-opacity="0" result="BackgroundImageFix"/>
<feBlend mode="normal" in="SourceGraphic" in2="BackgroundImageFix" result="shape"/>
<feGaussianBlur stdDeviation="14" result="effect1_foregroundBlur_2089_7417"/>
</filter>
<filter id="filter4_f_2089_7417" x="332.125" y="173.075" width="181.785" height="120.875" filterUnits="userSpaceOnUse" color-interpolation-filters="sRGB">
<feFlood flood-opacity="0" result="BackgroundImageFix"/>
<feBlend mode="normal" in="SourceGraphic" in2="BackgroundImageFix" result="shape"/>
<feGaussianBlur stdDeviation="0.5" result="effect1_foregroundBlur_2089_7417"/>
</filter>
<filter id="filter5_f_2089_7417" x="308.125" y="154.075" width="229.785" height="163.875" filterUnits="userSpaceOnUse" color-interpolation-filters="sRGB">
<feFlood flood-opacity="0" result="BackgroundImageFix"/>
<feBlend mode="normal" in="SourceGraphic" in2="BackgroundImageFix" result="shape"/>
<feGaussianBlur stdDeviation="12.5" result="effect1_foregroundBlur_2089_7417"/>
</filter>
<linearGradient id="paint0_linear_2089_7417" x1="709.376" y1="102.941" x2="1423.29" y2="303.241" gradientUnits="userSpaceOnUse">
<stop stop-color="#A2534F"/>
<stop offset="0.651042" stop-color="#002A38"/>
</linearGradient>
<linearGradient id="paint1_linear_2089_7417" x1="46.9739" y1="412.429" x2="765.09" y2="78.1123" gradientUnits="userSpaceOnUse">
<stop stop-color="#000821"/>
<stop offset="1" stop-color="#5D1D2E"/>
</linearGradient>
<radialGradient id="paint2_radial_2089_7417" cx="0" cy="0" r="1" gradientUnits="userSpaceOnUse" gradientTransform="translate(508.045 77.2048) rotate(105.367) scale(345.599 1015.14)">
<stop stop-color="#FFFDEF"/>
<stop offset="1" stop-color="#FFFDEF" stop-opacity="0"/>
</radialGradient>
<linearGradient id="paint3_linear_2089_7417" x1="637.583" y1="481.046" x2="742.032" y2="243.043" gradientUnits="userSpaceOnUse">
<stop stop-color="#000821"/>
<stop offset="1" stop-color="#5D1D2E"/>
</linearGradient>
<radialGradient id="paint4_radial_2089_7417" cx="0" cy="0" r="1" gradientUnits="userSpaceOnUse" gradientTransform="translate(531.533 186.084) rotate(96.2252) scale(135.412 112.221)">
<stop stop-color="#FFFDE8"/>
<stop offset="1" stop-color="#FFFDE8" stop-opacity="0"/>
</radialGradient>
<linearGradient id="paint5_linear_2089_7417" x1="1291.69" y1="494.9" x2="536.996" y2="252.495" gradientUnits="userSpaceOnUse">
<stop stop-color="#000821"/>
<stop offset="1" stop-color="#5D1D2E"/>
</linearGradient>
<radialGradient id="paint6_radial_2089_7417" cx="0" cy="0" r="1" gradientUnits="userSpaceOnUse" gradientTransform="translate(875.784 122.733) rotate(68.9622) scale(354.883 258.568)">
<stop stop-color="#FFFDE8"/>
<stop offset="1" stop-color="#FFFDE8" stop-opacity="0"/>
</radialGradient>
<linearGradient id="paint7_linear_2089_7417" x1="1148.73" y1="748.92" x2="729.461" y2="301.497" gradientUnits="userSpaceOnUse">
<stop stop-color="#000821" stop-opacity="0"/>
<stop offset="1" stop-color="#5D1D2E"/>
</linearGradient>
<linearGradient id="paint8_linear_2089_7417" x1="738.681" y1="-106.383" x2="738.681" y2="676.689" gradientUnits="userSpaceOnUse">
<stop stop-color="#FFFEFE"/>
<stop offset="1" stop-color="#FFFEFE" stop-opacity="0"/>
</linearGradient>
<linearGradient id="paint9_linear_2089_7417" x1="771.103" y1="-106.383" x2="771.103" y2="676.689" gradientUnits="userSpaceOnUse">
<stop stop-color="#FFFEFE"/>
<stop offset="1" stop-color="#FFFEFE" stop-opacity="0"/>
</linearGradient>
</defs>
</svg>
