<svg width="39" height="22" viewBox="0 0 39 22" fill="none" xmlns="http://www.w3.org/2000/svg">
<path d="M20.4062 20.7812L20.0524 21.1351C20.2478 21.3305 20.5647 21.3305 20.7601 21.1351L20.4062 20.7812ZM0.237239 3.28125C0.237239 4.7553 1.4322 5.95026 2.90625 5.95026C4.3803 5.95026 5.57526 4.7553 5.57526 3.28125C5.57526 1.8072 4.3803 0.612239 2.90625 0.612239C1.4322 0.612239 0.237239 1.8072 0.237239 3.28125ZM37.5524 2.92739C34.1353 6.34448 31.4688 9.01093 28.8024 11.6774C26.1359 14.3438 23.4695 17.0103 20.0524 20.4274L20.7601 21.1351C24.1772 17.718 26.8437 15.0516 29.5101 12.3851C32.1766 9.71866 34.843 7.05221 38.2601 3.63512L37.5524 2.92739ZM20.7601 20.4274L3.26011 2.92739L2.55239 3.63511L20.0524 21.1351L20.7601 20.4274Z" fill="url(#paint0_linear_811_19)"/>
<defs>
<linearGradient id="paint0_linear_811_19" x1="4" y1="4.64286" x2="34.3571" y2="5" gradientUnits="userSpaceOnUse">
<stop stop-color="white"/>
<stop offset="1" stop-color="white"/>
</linearGradient>
</defs>
</svg>