<svg width="39" height="22" viewBox="0 0 39 22" fill="none" xmlns="http://www.w3.org/2000/svg">
<path d="M33.2372 3.40626C33.2372 4.88031 34.4322 6.07527 35.9062 6.07527C37.3803 6.07527 38.5753 4.88031 38.5753 3.40626C38.5753 1.9322 37.3803 0.737245 35.9062 0.737245C34.4322 0.737245 33.2372 1.9322 33.2372 3.40626ZM18.4062 20.9062L18.0524 21.2601C18.2478 21.4555 18.5647 21.4555 18.7601 21.2601L18.4062 20.9062ZM35.5524 3.05239C32.1353 6.46948 29.4688 9.13593 26.8024 11.8024C24.1359 14.4688 21.4695 17.1353 18.0524 20.5524L18.7601 21.2601C22.1772 17.843 24.8437 15.1766 27.5101 12.5101C30.1766 9.84366 32.843 7.17721 36.2601 3.76012L35.5524 3.05239ZM18.7601 20.5524L1.26011 3.05239L0.552386 3.76011L18.0524 21.2601L18.7601 20.5524Z" fill="url(#paint0_linear_811_18)"/>
<defs>
<linearGradient id="paint0_linear_811_18" x1="0.571429" y1="3.42857" x2="34.1429" y2="3.42857" gradientUnits="userSpaceOnUse">
<stop stop-color="white"/>
<stop offset="0.755495" stop-color="white"/>
</linearGradient>
</defs>
</svg>
