<svg width="1920" height="609" viewBox="0 0 1920 609" fill="none" xmlns="http://www.w3.org/2000/svg">
<g style="mix-blend-mode:multiply" opacity="0.25">
<path d="M-92.5751 204.605C-59.6179 203.342 -28.4694 187.551 3.1384 178.249L116.278 144.859C131.436 140.38 146.795 135.901 162.556 135.499C183.714 134.982 204.297 141.93 224.422 148.763L458.194 228.377C491.61 239.861 525.802 251.345 560.941 250.513C597.859 249.738 633.142 235.526 667.506 221.487L827.698 156.113C844.55 149.223 861.775 142.275 879.861 141.212C899.268 140.064 918.359 145.749 937.048 151.405L1214.17 235.296C1246.52 245.087 1279.94 254.992 1313.39 250.915C1338.22 247.9 1361.53 237.335 1384.44 226.884L1644.33 108.368C1657.88 102.166 1671.81 95.9073 1686.59 94.9312C1701.38 93.955 1716.16 98.4626 1730.6 102.568C1926.68 158.209 2141.45 143.423 2325.18 233.89C2349.58 245.919 2374.19 260.648 2388.8 284.305C2403.41 307.962 2404.62 342.731 2384.81 361.823C2371.06 375.116 2351.1 378.044 2332.47 380.341C2246.35 390.993 2162.49 401.53 2078.98 422.144C1987.28 444.825 1879 438.193 1785.01 441.925C1586.13 449.842 1386.99 447.743 1188.33 435.638C1160.5 433.953 1132.7 432.039 1104.91 429.896C810.1 407.702 516.012 363.431 220.489 369.604C96.1533 372.216 -30.5077 383.528 -150.681 350.195" fill="#13181A"/>
</g>
<path d="M1322.52 528.16C1409.52 528.16 1480.04 454.699 1480.04 364.08C1480.04 273.461 1409.52 200 1322.52 200C1235.53 200 1165 273.461 1165 364.08C1165 454.699 1235.53 528.16 1322.52 528.16Z" fill="#040128"/>
<path d="M250.5 277C303.795 277 347 232.005 347 176.5C347 120.995 303.795 76 250.5 76C197.205 76 154 120.995 154 176.5C154 232.005 197.205 277 250.5 277Z" fill="url(#paint0_linear_302_80)"/>
<path d="M-199.743 259.585C-164.317 229.985 -123.838 204.835 -78.9961 197.456C-34.1537 190.077 11.6935 201.016 56.3923 210.203C156.211 230.76 258.47 242.129 360.241 236.904C454.978 232.023 535.362 199.15 625.965 174.315C636.587 171.444 647.439 168.573 658.377 169.406C676.204 170.956 691.563 182.469 706.664 192.374C785.095 244.541 878.426 265.356 969.488 285.224C1004.54 292.889 1040.37 300.584 1075.94 296.22C1104.5 292.717 1131.63 281.606 1158.13 270.036C1224.35 241.139 1289.05 208.864 1351.97 173.339C1390.9 151.347 1452.88 108.942 1496.14 101.018C1516.01 97.3715 1535.87 105.554 1554.71 113.076C1821.69 219.678 2121.7 220.281 2381.51 344.855C2409.47 358.263 2438.52 374.771 2452.59 403.281C2414.32 419.072 2372.58 423.034 2331.44 425.388C2042.98 441.695 1753.89 384.246 1465.77 403.482C1298.54 414.65 1133.44 451.543 966.043 459.266C640.922 474.253 316.69 378.877 -7.65593 406.87" fill="#040128"/>
<path d="M1219.11 335.783C1196.14 336.012 1173.17 336.615 1150.21 337.592C1111.39 339.228 1072.38 341.898 1033.82 337.017C1005.86 333.486 978.532 326.021 951.287 318.585C903.201 305.465 847.708 277.185 833.584 279.683C819.459 282.18 728.396 325.275 705.258 325.275C682.119 325.275 574.52 282.209 532.003 271.127C420.098 241.555 306.987 214.998 201.398 165.559C155.809 144.198 110.479 120.34 61.3016 111.009C32.1052 105.525 1.21509 105.037 -25.1391 90.9118C-41.9909 81.8393 -55.7709 67.7712 -70.5557 55.3683C-98.4302 31.9391 -130.612 14.1795 -165.293 3.08663C-170.542 0.932743 -176.278 0.24793 -181.886 1.1056C-188.375 2.65596 -193.37 7.91 -197.934 12.9343C-317.16 143.165 -435.582 280.4 -525.496 434.748C-530.204 442.787 -534.884 452.921 -530.434 461.104C-526.96 467.449 -519.41 469.717 -512.606 471.353C-365.419 506.15 -210.911 487.804 -62.4025 515.826C14.6506 530.382 89.0625 557.198 165.513 574.883C286.088 602.79 410.481 607.613 534.012 608.388C872.423 610.488 1210.37 583.09 1544.03 526.506C1577.36 520.764 1611.87 509.28 1645.4 507.012C1674.11 505.059 1699.43 512.754 1727.19 497.394C1750.41 484.589 1766.92 454.328 1756.07 429.321C1751.16 418.038 1741.71 409.683 1731.49 403.109C1703.3 384.763 1669.86 377.643 1637.1 371.527C1499.24 346.234 1359.26 334.264 1219.11 335.783Z" fill="#040128"/>
<defs>
<linearGradient id="paint0_linear_302_80" x1="250.5" y1="76" x2="250.5" y2="277" gradientUnits="userSpaceOnUse">
<stop stop-color="white"/>
<stop offset="1" stop-color="#252525"/>
</linearGradient>
</defs>
</svg>
