<svg width="1920" height="1080" viewBox="0 0 1920 1080" fill="none" xmlns="http://www.w3.org/2000/svg">
<path d="M1974.99 27.0216V1053.02C1975.15 1060.03 1971.91 1066.81 1965.99 1071.87C1960.07 1076.92 1951.94 1079.85 1943.39 1080H31.6061C23.0501 1079.85 14.9176 1076.92 8.99327 1071.85C3.06898 1066.78 -0.16309 1060 0.0063406 1052.98V26.9784C-0.148978 19.9673 3.08937 13.1915 9.01215 8.13493C14.9349 3.07834 23.0594 0.153146 31.6061 0L1943.39 0C1951.95 0.153095 1960.08 3.08425 1966.01 8.15023C1971.93 13.2162 1975.16 20.0031 1974.99 27.0216Z" fill="url(#paint0_linear_302_75)"/>
<defs>
<linearGradient id="paint0_linear_302_75" x1="987.5" y1="1080" x2="987.5" y2="0" gradientUnits="userSpaceOnUse">
<stop offset="0.36" stop-color="#FFFFDB"/>
<stop offset="0.47" stop-color="#4C0067"/>
<stop offset="0.6" stop-color="#56016B"/>
<stop offset="0.690009" stop-color="#3B0A53"/>
<stop offset="0.842585" stop-color="#11023C"/>
<stop offset="1" stop-color="#01073E"/>
</linearGradient>
</defs>
</svg>
