<svg width="3140" height="1137" viewBox="0 0 3140 1137" fill="none" xmlns="http://www.w3.org/2000/svg">
<path d="M1051.9 500.018C1045.19 496.227 1040.96 493.763 1039.22 492.623C1014.28 476.278 1005.03 446.309 1008.03 417.796C1009.12 407.488 1011.51 397.412 1015.2 387.569C1016.35 384.526 1017.67 381.105 1019.19 377.304C1019.86 375.613 1021.12 372.97 1022.96 369.372C1026.63 363.093 1029.72 358.394 1032.23 355.273C1041.6 343.608 1052.81 332.359 1065.19 323.951C1073.02 318.629 1081.18 313.937 1089.66 309.877C1093.55 308.017 1097.33 306.479 1100.99 305.262C1116.74 300.051 1132.79 296.741 1149.15 295.331C1153.75 294.932 1158.32 294.752 1162.86 294.788C1163.41 294.792 1163.45 294.932 1162.97 295.21C1155.82 299.335 1149.43 303.405 1143.78 307.422C1138.36 311.28 1133.62 315.729 1129.57 320.77C1126.75 324.287 1124.64 328.267 1123.25 332.71C1120.99 339.941 1119.75 347.341 1120.2 355.085C1120.36 357.976 1120.85 361.327 1121.65 365.137C1122.84 370.808 1123.77 376.828 1125.04 382.502C1126.55 389.314 1128.38 396.196 1129.15 402.982C1129.83 409.112 1129.71 415.379 1128.79 421.783C1128.34 424.896 1127.68 427.733 1126.8 430.293C1123.94 438.666 1120.08 447.171 1114.82 454.398C1110.28 460.633 1105.45 466.575 1100.32 472.225C1091.12 482.368 1080.19 490.228 1067.53 495.803C1062.31 498.106 1057.1 499.511 1051.9 500.018Z" fill="#FFA218"/>
<path d="M1022.96 369.372C1021.12 372.969 1019.86 375.613 1019.18 377.304C1017.67 381.104 1016.35 384.526 1015.2 387.569C1011.51 397.412 1009.12 407.488 1008.03 417.796C1005.02 446.309 1014.28 476.278 1039.22 492.623C1040.96 493.762 1045.18 496.227 1051.9 500.018C1049.02 500.683 1046.26 501.014 1043.61 501.007C1037.79 500.986 1033.33 500.765 1030.24 500.342C1028.62 500.119 1025.85 499.581 1021.93 498.729C1018.53 497.992 1015.8 497.304 1013.74 496.665C997.956 491.786 985.04 482.748 974.996 469.552C973.976 468.21 971.897 465.233 968.76 460.621C964.003 453.608 960.865 445.846 959.37 437.332C957.836 428.624 957.564 419.911 958.887 411.279C960.701 399.473 964.766 388.08 971.072 377.102C973.813 372.334 976.67 367.582 980.143 363.276C982.214 360.72 984.253 358.298 986.27 356.009C988.068 353.976 990.311 351.804 993.012 349.491C996.905 346.161 1000.74 342.904 1004.51 339.718C1008.16 336.642 1011.94 333.869 1015.86 331.4C1016.06 331.279 1016.11 331.319 1015.99 331.523C1013.74 335.61 1012.2 339.521 1011.36 343.253C1010.62 346.553 1010.52 349.628 1011.05 352.479C1012.42 359.853 1016.88 365.137 1022.96 369.372Z" fill="#FF8D24"/>
<path d="M1040.02 555.643C1043.57 548.083 1047.36 540.713 1051.41 533.531C1051.5 533.359 1051.45 533.29 1051.26 533.323C1044.34 534.466 1037.17 534.346 1029.72 532.963C1016.06 530.417 1003.92 525.23 993.332 517.404C992.716 516.952 992.14 516.425 991.549 515.937C991.323 515.748 991.268 515.791 991.377 516.064L997.131 530.168C998.135 532.945 999.077 535.585 999.957 538.091C1007.28 558.972 1013.08 579.92 1017.38 600.933C1018.04 604.165 1018.71 607.48 1019.37 610.879C1024.61 637.762 1027.66 665.308 1028.5 693.516C1028.73 701.421 1028.69 709.62 1028.34 718.114C1028.13 723.543 1028.06 728.287 1028.11 732.344C1028.24 741.235 1027.04 752.013 1025.52 761.795C1022.75 779.546 1017.48 796.515 1009.71 812.682C1002.96 826.708 994.126 839.706 982.463 849.721C978.282 853.311 973.727 856.052 968.791 857.944C967.132 858.583 965.435 858.918 963.722 858.965C957.19 859.128 951.623 857.438 947.037 853.871C943.238 850.92 940.116 847.018 937.671 842.159C934.339 835.539 931.941 828.593 930.485 821.303C928.554 811.608 927.503 801.803 927.339 791.905C927.168 781.68 927.713 771.489 928.959 761.339C931.279 742.567 935.265 723.471 940.918 704.05C944.748 690.914 947.754 680.949 949.949 674.152C954.551 659.895 959.993 645.217 966.268 630.121C971.796 616.812 978.313 604.326 985.289 591.16C985.585 590.609 985.904 590.081 986.262 589.577C986.34 589.461 986.449 589.367 986.574 589.302C986.706 589.239 986.846 589.206 986.986 589.207C987.126 589.21 987.266 589.246 987.391 589.314C987.516 589.383 987.625 589.48 987.702 589.598C987.959 589.987 988.006 590.477 987.85 591.069C987.126 593.716 986.418 596.202 985.709 598.524C981.373 612.853 977.122 627.483 972.956 642.414C969.834 653.628 966.081 665.536 963.029 677.378C958.366 695.43 954.177 713.513 950.463 731.629C948.937 739.084 947.722 746.856 946.819 754.944C946.523 757.682 946.189 760.62 945.823 763.758C944.53 774.838 944.133 786.041 944.624 797.356C944.811 801.756 945.262 806.53 945.979 811.686C947.154 820.143 949.194 828.787 952.861 836.458C954.823 840.562 957.143 842.984 961.908 843.67C964.82 844.075 967.234 842.657 969.686 840.843C970.644 840.134 971.313 839.55 971.695 839.106C972.785 838.405 973.766 837.58 974.63 836.645C979.06 831.817 982.906 826.264 986.161 819.987C991.774 809.178 996.298 798.119 999.724 786.827C1002.7 777.026 1004.85 767.893 1006.17 759.427C1008.37 745.436 1009.92 730.945 1010.83 715.953C1011.13 711.05 1011.23 705.938 1011.13 700.616C1010.98 692.535 1010.8 684.368 1010.58 676.115C1010.13 659.363 1008.41 641.78 1005.94 621.453C1005.51 617.923 1005.01 614.603 1004.45 611.493C1002.6 601.254 1000.5 590.895 998.167 580.414C996.913 574.78 995.13 568.231 992.81 560.766C989.836 551.17 987.212 543.386 984.946 537.411C981.591 528.555 978.118 519.526 974.552 510.323C973.454 507.483 972.388 504.856 971.345 502.442C969.632 498.435 968.293 495.062 966.712 490.59C965.653 487.563 964.47 484.568 963.177 481.603L956.824 464.039C956.661 463.593 956.723 463.563 956.995 463.948C963.987 473.666 971.928 482.742 980.812 491.178C989.742 499.662 999.303 507.022 1010.78 510.881C1022.94 514.974 1036.63 516.693 1049.51 514.183C1057.74 512.584 1065.73 510.265 1073.51 507.23C1074.79 506.727 1076.57 506.037 1077.92 506.657C1082 508.528 1079.92 512.661 1077.95 515.192C1072.58 522.069 1067.34 528.682 1062.25 535.747C1055.84 544.643 1050.67 551.954 1046.78 557.682C1041.55 565.361 1037.34 573.49 1033.14 581.762C1033.07 581.894 1032.97 582.002 1032.84 582.071C1032.71 582.139 1032.56 582.167 1032.42 582.148C1032.08 582.107 1031.89 581.931 1031.82 581.621C1031.78 581.41 1031.78 581.189 1031.83 580.956C1032.93 575.857 1034.11 571.45 1035.38 567.734C1036.54 564.33 1038.08 560.299 1040.02 555.643Z" fill="white"/>
<path d="M963.177 481.603C964.477 484.568 965.653 487.563 966.712 490.59C968.293 495.063 969.632 498.435 971.352 502.442C972.388 504.856 973.454 507.483 974.552 510.323C978.126 519.526 981.591 528.555 984.946 537.411C987.22 543.385 989.836 551.17 992.81 560.766C995.13 568.231 996.913 574.781 998.167 580.414C1000.5 590.895 1002.6 601.254 1004.45 611.493C1005.02 614.603 1005.51 617.923 1005.94 621.453C1008.41 641.78 1010.13 659.363 1010.58 676.115C1010.8 684.368 1010.98 692.536 1011.13 700.616C1011.23 705.938 1011.13 711.05 1010.83 715.953C1009.92 730.945 1008.37 745.436 1006.17 759.427C1004.85 767.893 1002.7 777.026 999.724 786.827C996.298 798.119 991.774 809.178 986.169 819.987C982.906 826.264 979.06 831.817 974.63 836.645C973.766 837.58 972.793 838.405 971.695 839.106C972.146 838.156 972.528 837.299 972.855 836.544C980.641 818.251 986.278 799.249 989.766 779.538C990.342 776.297 990.918 772.965 991.494 769.539C995.107 748.11 997.372 726.798 998.291 705.602C998.439 702.224 998.408 698.785 998.493 695.367C998.665 688.769 998.462 681.379 998.4 674.497C998.353 669.889 998.26 665.282 998.104 660.677C997.941 655.805 997.769 651.41 997.583 647.491C996.718 629.601 994.912 611.93 992.171 594.477C989.711 578.802 986.955 565.2 983.895 553.671C981.567 544.866 979.255 536.472 976.701 527.886C973.914 518.484 971.041 508.663 968.075 498.425C966.463 492.863 964.836 487.256 963.177 481.603Z" fill="#2C2C2C"/>
<path d="M1040.02 555.643L1042.77 541.925C1042.79 541.813 1042.75 541.76 1042.63 541.767C1036.53 542.136 1030.59 541.75 1024.78 540.611C1021.73 540.013 1018.5 539.115 1015.06 537.918C1009.03 535.815 1003.05 533.232 997.131 530.168L991.377 516.064C991.268 515.791 991.323 515.748 991.549 515.938C992.14 516.425 992.716 516.952 993.332 517.404C1003.92 525.23 1016.06 530.417 1029.72 532.963C1037.17 534.346 1044.34 534.466 1051.26 533.323C1051.45 533.29 1051.5 533.359 1051.41 533.531C1047.36 540.713 1043.57 548.083 1040.02 555.643Z" fill="#2C2C2C"/>
</svg>
