 <svg
          xmlns="http://www.w3.org/2000/svg"
          width="1920"
          height="609"
          viewBox="0 0 1920 609"
          fill="none"
        >
          <path
            d="M2066.23 495.865C2057.59 460.671 2044.76 426.639 2028.04 394.494C2022.32 383.453 2015.37 371.786 2001.1 364.66C1986.83 357.534 1968.8 356.63 1951.27 357.509C1946 348.425 1940.96 339.267 1935.42 330.133C1930.88 322.606 1926.42 315.078 1922.25 307.4C1920.12 303.461 1918.06 299.471 1916.11 295.482C1914.7 292.621 1913.2 286.022 1910.79 283.989C1916.11 288.438 1922.26 291.797 1928.87 293.876C1914.1 265.547 1901.28 241.634 1894.16 212.126C1897.76 216.718 1902.7 220.083 1908.28 221.762C1901.22 209.999 1896.14 197.157 1893.23 183.748C1893.8 185.603 1894.95 187.228 1896.51 188.388C1898.06 189.547 1899.95 190.181 1901.89 190.196C1889.35 160.086 1876.11 121.219 1875.88 116.928C1877.2 118.175 1878.83 119.042 1880.59 119.437C1876.77 115.742 1873.82 111.23 1871.97 106.239C1874.48 108.522 1875.33 110.53 1878.06 110.53C1870.01 89.0259 1868.68 80.4193 1867.05 67.6476C1868.73 69.2033 1869.23 69.8808 1870.29 69.8808C1865.73 59.9583 1862.36 49.5313 1860.25 38.8171C1861.61 41.1255 1861.81 39.8208 1863.14 41.0252C1859.03 32.6445 1854.09 8.28031 1854.09 0C1852.83 11.6426 1850.22 24.2638 1844.05 34.4511C1845.92 33.2894 1847.48 31.687 1848.59 29.784C1841.77 61.9266 1840.79 88.8 1821.88 112.311L1828.81 110.203C1827.74 116.029 1825.7 121.634 1822.79 126.789L1829.76 123.552C1822.08 145.809 1817.72 155.971 1803.32 175.568C1808.03 173.767 1812.23 170.838 1815.54 167.036L1801.92 192.53C1807.89 192.379 1810.45 190.372 1815.11 186.909C1806.91 211.273 1793.14 243.416 1779.55 264.97C1784.04 264.756 1788.31 262.981 1791.64 259.951C1789.39 266.274 1786.43 272.319 1782.81 277.967C1777.82 266.112 1773.81 253.868 1770.82 241.358C1774.35 246.11 1779.29 249.623 1784.94 251.395C1777.86 239.211 1772.78 225.97 1769.89 212.177C1770.44 214.065 1771.57 215.73 1773.12 216.927C1774.68 218.124 1776.58 218.789 1778.55 218.826C1766.01 187.762 1752.76 147.615 1752.54 143.199C1753.83 144.51 1755.46 145.439 1757.25 145.884C1753.41 142.036 1750.46 137.383 1748.63 132.259C1751.13 134.593 1751.99 136.675 1754.72 136.675C1746.67 114.469 1745.34 105.486 1743.71 92.4133C1745.42 94.0192 1745.89 94.7217 1746.95 94.7217C1742.46 83.1543 1740.1 78.412 1736.91 62.6543C1738.27 65.038 1738.49 63.6831 1739.8 64.9377C1735.68 56.3061 1730.74 31.1641 1730.74 22.5827C1729.49 34.6267 1726.88 47.6745 1720.71 58.1378C1722.61 56.9306 1724.17 55.2761 1725.28 53.3202C1718.43 86.5167 1717.45 114.243 1698.54 138.632L1705.49 136.475C1704.4 142.466 1702.36 148.243 1699.44 153.587L1706.44 150.25C1698.74 173.209 1694.38 183.697 1679.98 203.921C1684.73 202.053 1688.93 199.025 1692.2 195.114L1678.58 221.461C1684.55 221.285 1687.11 219.227 1691.77 215.639C1684.77 236.93 1676.27 257.7 1666.34 277.792C1660.27 257.718 1655.38 238.498 1655.43 235.863C1656.41 236.96 1657.67 237.774 1659.07 238.222C1656.21 235.02 1654.09 231.224 1652.87 227.106C1654.73 229.063 1655.38 230.745 1657.54 230.92C1653.75 219.572 1651.59 207.746 1651.12 195.792C1652.37 197.147 1652.75 197.724 1653.62 197.799C1650.54 189.561 1648.45 180.987 1647.38 172.255C1648.33 174.188 1648.58 173.159 1649.56 174.213C1646.73 167.237 1644.14 147.389 1644.55 140.715C1642.87 149.999 1640.06 159.96 1634.51 167.739C1636.09 166.921 1637.44 165.733 1638.45 164.276C1631.13 189.669 1628.82 211.173 1612.32 228.863L1618.01 227.608C1616.82 232.217 1614.86 236.593 1612.22 240.555L1618.01 238.398C1610.49 255.761 1606.5 263.665 1593.81 278.545C1597.7 277.401 1601.24 275.305 1604.12 272.447C1600 279.005 1595.87 285.553 1591.73 292.094C1596.54 292.345 1598.7 290.89 1602.66 288.38C1595.64 305.059 1587.37 321.181 1577.91 336.607C1571.74 322.681 1566.47 308.805 1566.35 306.923C1567.22 307.63 1568.24 308.121 1569.33 308.354C1566.97 306.387 1565.1 303.895 1563.86 301.077C1565.42 302.332 1566 303.436 1567.73 303.436C1564.17 296.004 1561.82 288.049 1560.78 279.874C1561.83 280.727 1562.16 281.104 1562.81 281.104C1559.97 275.709 1557.86 269.964 1556.52 264.016C1557.39 265.296 1557.52 264.568 1558.35 265.246C1555.23 258.077 1553.3 250.45 1552.63 242.663C1552.06 249.398 1549.86 255.893 1546.21 261.582C1547.36 261 1548.36 260.137 1549.09 259.073C1544.78 276.763 1544.08 291.517 1532.21 304.439L1536.58 303.285C1535.89 306.541 1534.6 309.639 1532.77 312.418L1537.18 310.637C1533.57 321.183 1527.9 330.901 1520.48 339.217C1523.38 338.276 1526.03 336.669 1528.2 334.524L1519.57 348.551C1522.63 348.491 1525.57 347.404 1527.93 345.464C1523.3 357.277 1517.71 368.691 1511.22 379.589C1507.95 373.614 1505.15 367.399 1502.82 360.996C1503.72 361.608 1504.74 362.019 1505.81 362.201C1503.52 360.659 1501.64 358.583 1500.34 356.154C1501.89 357.207 1502.47 358.111 1504.2 358.111C1500.68 352.069 1498.33 345.423 1497.25 338.514C1498.31 339.217 1498.63 339.543 1499.29 339.543C1496.48 335.152 1494.36 330.365 1492.99 325.341C1493.84 326.395 1493.99 325.792 1494.82 326.344C1491.74 320.517 1489.8 314.155 1489.1 307.601C1488.48 313.343 1486.25 318.795 1482.68 323.333C1483.79 322.852 1484.78 322.122 1485.57 321.201C1481.25 335.904 1480.55 348.174 1468.69 358.838L1473.05 357.885C1472.33 360.636 1471.03 363.202 1469.24 365.412L1473.65 363.957C1469.85 372.985 1464.16 381.089 1456.95 387.719C1459.77 386.985 1462.4 385.659 1464.68 383.83C1461.79 387.694 1458.93 391.583 1456.05 395.472C1459.01 395.457 1461.91 394.586 1464.4 392.963C1460.91 400.491 1455.85 407.14 1452.39 414.567C1449.88 419.837 1447.97 427.113 1441.53 428.744L1451.26 426.11C1448.54 429.609 1445.47 432.82 1442.1 435.695C1444.06 435.562 1445.95 434.913 1447.57 433.813C1445.06 437.987 1441.34 441.303 1436.91 443.323C1438.22 441.475 1438.92 439.265 1438.92 436.999L1432.75 444.753C1433.95 442.232 1434.39 439.414 1434 436.648C1432.8 440.407 1430.17 443.542 1426.68 445.38C1427.6 443.43 1428.04 441.289 1427.97 439.134C1427.9 436.979 1427.32 434.871 1426.28 432.985C1425.82 437.556 1424.08 441.905 1421.26 445.531C1421.66 443.448 1421.76 441.319 1421.56 439.208L1416.55 446.735C1415.99 444.455 1415.8 442.099 1416 439.76C1415.01 441.167 1414.17 442.672 1413.49 444.251L1413.81 436.723C1412.22 438.166 1410.99 439.967 1410.23 441.979C1409.47 443.991 1409.21 446.154 1409.45 448.291C1406.94 444.452 1404.03 440.638 1401.93 436.598C1400.67 434.089 1400.07 430.225 1398.26 428.217C1399.32 429.362 1400.75 430.092 1402.3 430.275C1399.92 426.628 1397.99 422.711 1396.53 418.607C1398.02 420.036 1399.97 420.882 1402.03 420.991C1395.37 409.029 1389.96 396.417 1385.88 383.353C1387.45 384.99 1389.6 385.953 1391.87 386.038C1389.78 381.956 1387.71 377.866 1385.67 373.768C1387.15 375.578 1389.06 376.992 1391.22 377.883C1385.75 370.304 1381.68 361.806 1379.2 352.791L1382.39 354.347C1381.04 351.846 1380.11 349.143 1379.63 346.343L1382.79 347.371C1374.19 336.055 1373.74 323.108 1370.65 307.626C1371.15 308.531 1371.85 309.305 1372.71 309.884C1370.05 304.73 1368.48 299.085 1368.09 293.299C1367.63 300.037 1366.24 306.681 1363.98 313.046C1364.58 312.444 1364.68 313.046 1365.31 311.967C1364.37 317.141 1362.85 322.191 1360.77 327.022C1361.25 327.022 1361.47 326.671 1362.25 325.918C1361.5 332.993 1359.81 339.938 1357.23 346.568C1358.49 346.568 1358.89 345.615 1360.02 344.511C1359.19 346.897 1357.84 349.073 1356.08 350.884C1356.9 350.669 1357.65 350.235 1358.24 349.63C1355.01 361.618 1351.06 373.399 1346.4 384.909C1347.3 384.885 1348.18 384.569 1348.89 384.008C1349.6 383.447 1350.1 382.672 1350.34 381.797C1349.02 388.225 1346.7 394.406 1343.47 400.114C1346.04 399.274 1348.28 397.651 1349.89 395.472C1346.63 409.674 1340.83 421.192 1334.11 434.816C1337.14 433.802 1339.94 432.189 1342.34 430.074C1341.23 431.779 1340.39 433.639 1339.83 435.594C1338.93 437.526 1338 439.433 1337.02 441.34C1335.06 445.742 1332.82 450.016 1330.32 454.137C1329.27 455.311 1328.12 456.394 1326.89 457.374C1326.61 457.6 1326.16 457.776 1325.96 457.5C1325.9 457.329 1325.9 457.143 1325.96 456.973C1325.96 455.542 1326.16 454.137 1326.29 452.732C1324.84 453.974 1323.52 455.362 1322.35 456.872C1321.17 458.368 1319.5 459.399 1317.63 459.783C1317.88 457.274 1320.14 454.965 1319.72 452.431C1317.51 455.542 1315.18 458.553 1312.69 461.414C1312.37 461.79 1311.84 462.192 1311.46 461.891C1312 459.088 1312.24 456.237 1312.17 453.384C1310.91 456.45 1309 459.207 1306.57 461.464C1306.91 459.796 1306.82 458.071 1306.32 456.446L1302.59 462.869C1302.26 463.421 1301.61 464.074 1301.11 463.672C1300.98 463.533 1300.88 463.365 1300.83 463.181C1300.78 462.998 1300.77 462.805 1300.81 462.618C1300.95 459.959 1301.43 457.329 1302.23 454.79C1300.68 458.148 1298.86 461.378 1296.79 464.45C1296.54 464.826 1296.22 465.228 1295.79 465.228C1295.36 465.228 1294.86 464.55 1294.71 463.948C1294.06 460.865 1293.8 457.712 1293.93 454.564C1292.63 457.934 1291.65 461.421 1291 464.977C1288.55 461.333 1287.09 457.113 1286.76 452.732C1286.23 457.173 1285.68 461.64 1285.16 466.081C1284.21 462.609 1283.67 459.039 1283.55 455.442C1282.43 459.624 1281.19 463.806 1279.84 467.988C1279.16 468.164 1278.84 467.135 1278.84 466.407V460.26L1274.55 468.239C1274.22 464.888 1274.38 461.507 1275.02 458.202C1272.25 461.086 1270.72 464.941 1270.76 468.941C1269.16 465.955 1267.52 462.995 1265.89 460.009C1266.44 463.54 1266.15 467.15 1265.04 470.547C1264.87 471.074 1264.57 471.676 1264.04 471.777C1263.51 471.877 1262.83 470.823 1262.78 469.995C1262.66 468.124 1262.88 466.247 1263.41 464.45C1260.26 466.631 1257.74 469.598 1256.09 473.056C1255.97 470.379 1256.59 467.721 1257.89 465.378C1254.81 467.685 1252.25 470.629 1250.4 474.01C1250.05 471.077 1250.14 468.108 1250.67 465.203C1247.89 467.433 1245.62 470.241 1244.03 473.433C1242.9 470.85 1242.09 468.136 1241.64 465.353C1241.12 468.792 1239.66 472.02 1237.43 474.687C1236.48 471.56 1236.6 468.207 1237.76 465.152C1235.47 467.232 1233.61 469.738 1232.29 472.53C1232.31 470.407 1232.57 468.294 1233.07 466.231C1230.52 468.884 1228.57 472.049 1227.35 475.515C1226.57 473.277 1226.37 470.876 1226.77 468.54C1225.54 470.66 1224.56 472.917 1223.86 475.264L1221.6 467.887C1221.65 469.201 1221.41 470.509 1220.91 471.722C1220.4 472.935 1219.64 474.023 1218.67 474.913C1218.9 473.248 1218.9 471.559 1218.67 469.895L1213.83 477.874C1213.25 477.874 1213.15 476.971 1213.2 476.369L1213.9 469.744C1212.03 472.161 1210.48 474.809 1209.29 477.623C1208.56 477.422 1208.36 476.444 1208.31 475.666C1208.17 473.72 1208.17 471.766 1208.31 469.82C1206.61 472.124 1205.24 474.659 1204.25 477.347L1200.39 468.69C1200.21 472.047 1199.36 475.334 1197.88 478.351C1197.13 478.351 1196.8 477.372 1196.73 476.594C1196.52 474.602 1196.42 472.6 1196.42 470.597L1189.18 478.777C1189.98 476.469 1190.68 474.11 1191.28 471.727C1188.56 474.113 1186.2 476.876 1184.26 479.932C1184.39 477.27 1184.87 474.637 1185.69 472.103C1183.09 474.477 1181.16 477.486 1180.07 480.835C1179.53 477.329 1178.57 473.901 1177.21 470.622C1177.01 472.811 1176.46 474.953 1175.58 476.971C1174.72 478.975 1173.14 480.58 1171.14 481.462C1171.54 479.425 1172.08 477.421 1172.77 475.465L1166.18 481.287C1166.21 478.913 1167.1 476.632 1168.69 474.863C1166.43 476.174 1164.38 477.805 1162.59 479.706C1163.11 478.258 1163.34 476.724 1163.27 475.189C1163.27 474.411 1163.09 473.659 1162.97 472.881L1154.69 483.595C1154.69 481.337 1154.69 479.078 1154.69 476.82C1153.09 478.902 1151.9 481.269 1151.18 483.796C1150.4 483.796 1150.38 482.566 1150.63 481.788C1151.46 479.129 1152.28 476.469 1153.14 473.809C1150.37 476.366 1148.32 479.613 1147.22 483.219C1146.19 481.072 1145.51 478.777 1145.19 476.419C1144.74 478.627 1144.26 480.835 1143.78 483.043C1142.94 480.307 1141.85 477.653 1140.52 475.114C1140.47 478.292 1139.45 481.38 1137.61 483.971C1137.24 484.498 1136.46 485 1136.06 484.498C1136.36 483.118 1136.63 481.713 1136.94 480.308C1133.91 482.757 1130.42 484.559 1126.68 485.602C1129.26 483.839 1131.06 481.14 1131.69 478.075C1128.73 480.985 1125.42 483.514 1121.84 485.602C1123.38 483.566 1124.09 481.017 1123.82 478.476C1121.48 481.496 1118.79 484.233 1115.82 486.631C1115.62 484.668 1116.14 482.698 1117.27 481.086C1115.45 482.478 1113.88 484.176 1112.63 486.104C1112.94 483.566 1113.6 481.084 1114.59 478.727C1112.01 480.882 1109.69 483.323 1107.67 486.004C1107.57 483.027 1108.45 480.101 1110.18 477.673C1107.4 479.861 1105.09 482.583 1103.38 485.678C1103.28 482.765 1103.97 479.88 1105.36 477.322C1102.15 479.304 1101 483.52 1098.56 486.481C1098.24 485.089 1098.25 483.639 1098.59 482.252C1098.94 480.865 1099.61 479.58 1100.55 478.501C1098.21 480.005 1096.21 481.989 1094.7 484.323C1094.44 482.483 1094.06 480.664 1093.55 478.878L1089.11 486.179C1088.63 486.982 1087.73 487.911 1086.95 487.434C1086.74 487.262 1086.57 487.043 1086.45 486.796C1086.33 486.548 1086.27 486.278 1086.27 486.004C1086.12 485.151 1085.97 484.298 1085.85 483.495C1085.35 484.9 1084.82 486.305 1084.22 487.66C1083.02 485.539 1082.72 483.031 1083.37 480.684C1080.93 482.593 1079.06 485.137 1077.97 488.036C1077.24 486.353 1076.89 484.527 1076.95 482.692C1076.14 484.574 1075.37 486.455 1074.56 488.362C1073.31 487.334 1073.41 485.377 1073.61 483.746C1073.76 482.642 1073.91 481.563 1074.04 480.484C1071.05 482.14 1069.57 485.678 1068.34 488.965C1067.87 486.93 1067.96 484.807 1068.59 482.817C1066.86 484.561 1065.5 486.645 1064.61 488.94C1064.2 486.411 1064.44 483.821 1065.31 481.412C1062.97 483.681 1061.47 486.682 1061.07 489.918C1060.54 487.154 1059.48 484.52 1057.93 482.165C1058.01 485.108 1056.96 487.969 1055 490.169C1054.77 490.445 1054.42 490.696 1054.1 490.545C1053.77 490.395 1053.85 489.768 1054.1 489.366C1054.6 488.237 1055.1 487.083 1055.58 485.954L1050.71 490.269C1050.95 488.749 1051.45 487.28 1052.19 485.929C1050.23 487.311 1048.4 488.873 1046.72 490.596C1047 488.381 1047.94 486.301 1049.41 484.624C1047.5 485.723 1045.73 487.046 1044.14 488.563C1044.14 487.108 1044.14 485.653 1044.14 484.222L1037.27 489.868C1036.92 490.169 1036.32 490.42 1036.09 490.044C1035.86 489.667 1036.09 489.391 1036.27 489.14L1039.5 484.122C1036.57 485.459 1034 487.461 1031.98 489.968C1031.93 488.351 1032.37 486.758 1033.26 485.402C1031.78 486.954 1030.45 488.633 1029.27 490.42C1029.39 487.976 1029.17 485.527 1028.62 483.143C1027.62 485.669 1026.06 487.934 1024.05 489.768C1023.92 489.921 1023.76 490.046 1023.58 490.137C1023.4 490.227 1023.2 490.281 1023 490.294C1023.94 488.494 1024.55 486.539 1024.8 484.523C1022.19 486.132 1019.92 488.238 1018.11 490.721C1018.49 488.558 1019.25 486.479 1020.34 484.574C1018.65 485.619 1017.08 486.838 1015.65 488.212C1016.04 486.782 1016.21 485.302 1016.15 483.821C1014.59 486.912 1012.27 489.555 1009.41 491.499C1009.08 491.725 1008.63 491.951 1008.33 491.7C1008.91 490.211 1009.38 488.685 1009.76 487.133C1007.84 488.253 1006.1 489.648 1004.59 491.273C1004.11 491.775 1003.54 492.352 1002.86 492.302C1003.19 490.324 1004.06 488.474 1005.37 486.957C1003.57 487.847 1002.02 489.155 1000.83 490.771C1000.43 491.298 1000 491.9 999.374 491.951C999.221 489.783 999.757 487.623 1000.9 485.778C998.865 487.556 997.165 489.69 995.888 492.076C995.888 489.692 995.713 487.309 995.637 484.925C994.926 487.278 993.932 489.536 992.678 491.649C992.572 489.129 992.329 486.616 991.951 484.122C990.318 487.009 988.206 489.597 985.706 491.775C985.505 491.951 985.229 492.151 984.979 492.051C984.728 491.951 984.652 491.248 984.828 490.796C985.355 489.517 985.881 488.287 986.383 486.957C984.377 487.685 983.223 489.843 981.718 491.399C981.517 491.599 981.192 491.8 980.991 491.599C981.612 489.789 982.349 488.02 983.198 486.305C980.914 487.921 978.914 489.905 977.279 492.176C977.521 489.421 978.578 486.801 980.314 484.649C978.039 486.233 976.075 488.224 974.52 490.52C974.465 488.777 974.272 487.04 973.943 485.326L969.053 491.675C968.877 491.9 968.627 492.151 968.351 492.051C968.075 491.951 968.05 491.7 968 491.449L967.448 488.588C966.743 490.147 965.903 491.641 964.94 493.055C964.94 491.047 964.739 489.015 964.664 486.982C963.542 489.858 961.436 492.241 958.72 493.707C958.448 491.155 959.011 488.584 960.325 486.38C958.004 487.661 956.223 489.737 955.309 492.227C955.109 492.779 954.783 493.481 954.231 493.456C954.082 491.247 954.551 489.04 955.585 487.083C952.62 488.67 950.291 491.231 948.989 494.334C948.618 494.038 948.326 493.653 948.142 493.214C947.958 492.776 947.887 492.298 947.936 491.825C948.047 490.879 948.327 489.961 948.764 489.115C947.183 490.053 945.984 491.519 945.378 493.255C945.378 493.582 945.102 493.983 944.776 493.958C944.45 493.933 944.299 493.28 944.4 492.854C944.726 491.474 945.077 490.094 945.403 488.714C943.246 489.818 942.895 492.829 941.265 494.686C941.222 491.876 940.589 489.106 939.409 486.556C938.939 489.621 937.598 492.486 935.547 494.811C935.317 493.235 935.645 491.629 936.475 490.269C934.469 491.283 932.874 492.958 931.96 495.012C931.891 492.4 932.694 489.839 934.243 487.735C932.648 489.004 931.155 490.397 929.778 491.9C929.503 492.201 929.252 492.528 928.976 492.854C928.72 491.161 928.359 489.485 927.897 487.836C926.599 490.054 925.051 492.117 923.283 493.983C922.982 494.309 922.555 494.66 922.129 494.535C921.934 494.449 921.775 494.298 921.678 494.108C921.194 493.135 921.096 492.015 921.402 490.972C921.527 490.295 921.653 489.592 921.753 488.914C919.752 490.623 918.056 492.66 916.737 494.936C916.515 492.846 916.88 490.734 917.79 488.839C915.845 490.441 914.328 492.502 913.376 494.836C913.025 494.836 912.9 494.384 912.875 494.033C912.84 492.424 913.078 490.821 913.577 489.291C911.691 490.71 910.254 492.645 909.439 494.861C909.121 494.392 908.899 493.864 908.787 493.309C908.675 492.753 908.675 492.18 908.787 491.624C909.045 490.525 909.441 489.463 909.966 488.463C908.753 489.06 907.761 490.026 907.132 491.223C906.489 492.419 905.976 493.681 905.602 494.987L902.893 488.664C902.944 490.587 902.54 492.496 901.714 494.234C901.539 494.535 901.188 494.836 900.937 494.635C900.876 494.573 900.829 494.498 900.799 494.416C900.768 494.334 900.756 494.246 900.761 494.159C900.983 492.373 900.786 490.56 900.184 488.864C898.834 490.717 897.342 492.462 895.72 494.083L896.498 490.119L891.683 495.137C891.586 492.874 892.219 490.64 893.488 488.764C891.892 490.06 890.422 491.505 889.099 493.08C888.6 491.565 887.953 490.102 887.168 488.714C885.688 490.37 884.184 492.001 882.654 493.582C882.386 493.917 882.042 494.183 881.651 494.359C881.452 494.437 881.232 494.442 881.03 494.373C880.828 494.304 880.657 494.166 880.547 493.983C880.446 493.682 880.446 493.356 880.547 493.055C880.773 491.75 881.024 490.545 881.25 489.165C879.354 490.433 877.81 492.159 876.76 494.184C876.725 494.298 876.666 494.403 876.589 494.494C876.511 494.584 876.416 494.658 876.309 494.711C875.757 494.911 875.481 494.008 875.581 493.381C875.83 491.851 876.357 490.38 877.136 489.04C874.917 490.304 873.06 492.119 871.744 494.309C871.444 492.263 871.669 490.173 872.396 488.237C869.838 489.898 867.94 492.401 867.029 495.313C866.434 494.383 866.066 493.326 865.957 492.227C865.849 491.128 866.001 490.018 866.402 488.99C864.728 490.742 863.528 492.892 862.916 495.238C862.39 495.238 862.064 494.635 861.988 494.083C861.632 491.858 861.919 489.577 862.816 487.509C860.706 489.376 859.204 491.832 858.502 494.56C857.804 491.916 856.741 489.382 855.342 487.033C855.649 489.542 855.285 492.087 854.289 494.41C854.18 494.632 854.016 494.822 853.812 494.962C853.311 495.238 852.684 494.786 852.508 494.209C852.37 493.632 852.37 493.03 852.508 492.452C852.565 492.165 852.561 491.87 852.497 491.584C852.432 491.299 852.308 491.03 852.132 490.796C851.054 492.452 849.9 494.033 848.696 495.589C848.652 493.8 849.012 492.025 849.75 490.395C847.538 491.812 845.664 493.696 844.257 495.915C844.01 493.036 844.912 490.177 846.765 487.961C844.913 489.324 843.266 490.947 841.875 492.779C841.649 491.348 841.398 489.918 841.047 488.513C840.395 489.717 839.718 491.022 839.041 492.126C838.866 492.536 838.556 492.873 838.163 493.08C837.335 493.381 836.583 492.377 836.482 491.474C836.516 490.567 836.406 489.661 836.156 488.789C835.098 490.636 834.353 492.645 833.949 494.736C832.821 494.159 832.896 492.452 833.147 491.148L833.949 487.007C831.216 487.986 830.062 491.298 829.234 494.184C828.473 491.215 828.516 488.097 829.36 485.151C828.136 486.284 827.182 487.676 826.566 489.226C825.95 490.776 825.687 492.444 825.799 494.108C824.603 491.388 823.024 488.853 821.109 486.581C821.53 489.514 820.851 492.5 819.203 494.962C818.623 493.408 818.375 491.749 818.475 490.094C816.511 491.173 814.848 492.725 813.635 494.61C813.106 492.956 813.223 491.164 813.961 489.592C811.496 490.44 809.351 492.025 807.816 494.134C807.421 493 807.317 491.786 807.515 490.602C807.712 489.418 808.204 488.303 808.945 487.359C807.339 487.823 805.912 488.765 804.855 490.06C803.797 491.356 803.16 492.943 803.026 494.61L798.261 487.635C798.703 489.449 798.797 491.331 798.537 493.18C797.559 490.997 796.506 488.864 795.327 486.782C795.358 488.931 794.85 491.053 793.847 492.954C793.745 490.114 793.324 487.295 792.593 484.549C791.671 487.9 789.58 490.81 786.7 492.754L789.533 488.588C787.195 489.823 784.964 491.249 782.862 492.854L786.248 488.312C784.278 489.407 782.443 490.729 780.781 492.252V492.076C781.241 490.788 781.319 489.393 781.006 488.061C778.022 489.165 775.991 492.227 773.031 493.381C772.68 493.531 772.153 493.582 772.028 493.205C771.954 493.02 771.954 492.813 772.028 492.628C772.712 490.643 773.748 488.799 775.088 487.183C771.917 488.525 768.933 490.27 766.21 492.377C766.722 490.182 767.725 488.131 769.144 486.38C765.717 487.936 762.593 490.085 759.915 492.728C760.724 490.211 760.956 487.544 760.592 484.925C758.906 487.876 756.52 490.366 753.645 492.176C754.116 490.383 754.972 488.713 756.153 487.284C753.346 488.324 750.703 489.76 748.303 491.549L751.362 485.728C748.39 487.33 745.525 489.123 742.785 491.097C743.719 490.03 744.362 488.739 744.652 487.35C744.942 485.961 744.869 484.521 744.44 483.168C742.898 486.556 740.141 489.242 736.716 490.696C737.317 488.326 738.63 486.198 740.478 484.599C737.554 485.779 734.968 487.667 732.954 490.094C733.28 488.058 734.257 486.183 735.738 484.749C732.992 486.28 730.461 488.17 728.214 490.37C728.167 489.135 728.403 487.905 728.903 486.774C729.402 485.644 730.153 484.642 731.098 483.846C728.684 485.29 726.51 487.102 724.653 489.216C724.903 487.233 724.903 485.226 724.653 483.244C723.082 485.198 721.16 486.841 718.985 488.086L720.339 484.147C718.081 485.269 716.082 486.85 714.47 488.789C714.752 486.491 715.568 484.291 716.853 482.365C713.638 483.687 710.98 486.081 709.329 489.14H709.128L708.677 481.161C707.897 482.915 706.663 484.429 705.102 485.545C703.541 486.661 701.71 487.339 699.799 487.509C701.737 485.06 703.023 482.16 703.536 479.078L695.485 483.846C694.607 484.373 693.529 484.9 692.651 484.373C693.328 483.037 694.286 481.864 695.46 480.935C691.716 482.288 688.049 483.846 684.475 485.602C685.552 483.499 686.883 481.535 688.438 479.756C685.825 480.911 683.497 482.624 681.616 484.774C682.528 482.375 682.771 479.773 682.318 477.247C681.684 479.021 680.647 480.624 679.29 481.93C677.932 483.236 676.291 484.21 674.494 484.774C675.754 483.153 676.854 481.414 677.779 479.58C675.419 481.587 672.589 482.959 669.553 483.57C671.787 481.924 673.523 479.692 674.569 477.121C672.065 479.401 669.284 481.357 666.293 482.943C667.148 480.776 667.795 478.533 668.224 476.243C667.588 477.429 666.676 478.445 665.565 479.204L660.549 483.219C660.454 482.136 660.673 481.048 661.18 480.087C661.687 479.125 662.461 478.331 663.409 477.799C661.243 478.721 659.224 479.956 657.414 481.462C657.778 480.423 657.856 479.305 657.64 478.225C656.602 479.593 655.339 480.772 653.903 481.713C653.835 479.299 654.453 476.915 655.684 474.838C653.295 476.141 651.263 478.011 649.765 480.283C649.489 480.735 648.938 481.261 648.511 480.935C648.085 480.609 648.285 480.283 648.361 479.907C648.788 477.712 649.418 475.561 650.242 473.483C647.132 474.361 645.602 478.326 642.567 479.38C642.785 476.469 643.641 473.641 645.075 471.099C642.001 473.119 639.503 475.903 637.827 479.179C637.733 476.566 637.093 474.001 635.946 471.651C635.34 474.52 633.89 477.141 631.783 479.179C631.095 475.08 631.991 470.872 634.291 467.411C632.185 468.367 630.319 469.782 628.83 471.554C627.341 473.325 626.268 475.408 625.689 477.648C624.886 477.071 624.987 475.842 625.162 474.863C625.463 473.383 625.739 471.902 626.015 470.422C623.7 472.005 621.896 474.228 620.823 476.82C620.394 474.471 620.276 472.075 620.472 469.694C619.046 471.969 617.158 473.918 614.93 475.415C614.654 475.591 614.253 475.766 614.027 475.415C613.936 475.292 613.892 475.141 613.901 474.989C613.957 474.196 614.226 473.433 614.679 472.78L617.412 468.138L609.387 474.16C608.735 474.637 607.807 475.114 607.23 474.537C608.125 473.782 608.844 472.84 609.338 471.779C609.832 470.717 610.088 469.56 610.089 468.389C608.384 470.987 605.925 473.001 603.042 474.16C602.591 474.336 601.964 474.411 601.763 473.96C601.664 473.701 601.664 473.415 601.763 473.157C602.443 471.625 603.283 470.17 604.271 468.816C601.747 470.164 599.52 472.007 597.725 474.236H597.374C597.088 471.522 597.724 468.79 599.18 466.482C597.334 468.087 595.811 470.029 594.69 472.203C592.183 466.031 601.487 447.337 603.067 442.093C603.995 439.057 604.848 435.444 603.067 432.909C601.587 430.852 598.904 430.4 596.672 429.171C594.288 427.722 592.334 425.662 591.012 423.206C589.689 420.749 589.046 417.983 589.148 415.195C589.372 409.528 591.461 404.094 595.092 399.738C596.897 402.262 599.411 404.192 602.315 405.283C602.996 403.036 603.089 400.651 602.584 398.357C602.079 396.063 600.993 393.938 599.43 392.185C598.895 391.771 598.422 391.28 598.026 390.73C597.681 390.047 597.461 389.308 597.374 388.547C596.287 382.548 592.893 377.215 587.919 373.693C579.768 367.445 569.134 366.391 559.128 364.81C552.202 364.06 545.354 362.708 538.663 360.77C525.446 356.304 512.003 355.627 503.551 353.243C502.002 352.908 500.54 352.25 499.263 351.311C498.265 350.435 497.417 349.401 496.755 348.25C495.159 345.864 493.933 343.249 493.118 340.496C491.814 335.478 492.14 327.273 494.949 322.781C496.203 320.749 496.955 320.925 499.363 320.724C500.759 320.451 502.059 319.816 503.133 318.882C504.207 317.949 505.017 316.749 505.482 315.404C506.636 312.745 507.088 309.809 508.141 307.124C502.423 305.694 497.056 312.393 491.463 312.142C493.329 309.21 496.053 306.924 499.263 305.594C508.768 301.83 520.63 299.873 529.81 295.306C534.959 292.615 539.18 288.436 541.923 283.312C542.905 283.12 543.876 282.877 544.832 282.584C548.848 281.168 552.42 278.719 555.19 275.483C558.074 272.322 562.965 266.024 562.714 264.995C562.463 263.966 552.381 277.792 543.904 279.498C549.146 267.78 549.146 254.858 547.867 255.234C547.19 255.435 545.484 262.31 544.857 266.049C543.297 275.026 538.418 283.088 531.189 288.631C530.261 289.334 529.308 289.961 528.33 290.564C531.707 286.135 533.845 280.886 534.525 275.358C535.578 267.83 532.894 252.374 532.017 252.775C531.139 253.177 531.54 260.303 531.565 266.124C527.778 261.382 525.145 251.32 524.443 251.546C523.74 251.771 523.891 255.008 524.242 256.715C524.478 257.638 524.78 258.544 525.145 259.425C526.852 263.33 528.989 267.033 531.515 270.465C531.503 272.806 531.277 275.141 530.838 277.44C530.168 280.158 529.218 282.798 528.004 285.319C526.488 288.584 524.32 291.505 521.634 293.901C516.88 295.689 511.955 296.984 506.937 297.765C509.445 293.901 511.025 289.409 509.445 286.8C508.743 285.721 508.943 292.37 501.771 298.718C499.911 299.088 498.096 299.651 496.354 300.399C492.215 302.529 488.744 305.759 486.322 309.734C485.285 308.762 484.188 307.857 483.036 307.024C481.173 305.911 479.08 305.242 476.917 305.067C477.184 302.096 476.946 299.101 476.215 296.209C475.76 294.585 475.138 293.013 474.359 291.517C474.108 282.082 477.895 277.089 476.867 277.491C474.559 278.419 472.829 282.81 472.051 287.527C469.809 283.637 467.952 279.535 466.509 275.283C466.434 271.684 466.916 268.095 467.938 264.644C468.704 261.958 469.668 259.333 470.823 256.79C471.864 254.785 473.046 252.857 474.359 251.019C477.688 249.939 480.865 248.439 483.814 246.552C484.518 246.111 485.181 245.608 485.795 245.047C486.949 243.968 488.83 241.634 488.579 240.957C488.328 240.279 481.381 246.377 476.741 247.656C479.977 243.19 484.265 237.62 483.939 237.118C483.613 236.616 473.707 246.477 470.02 252.976C467.275 257.784 465.511 263.088 464.829 268.583C464.653 267.504 464.503 266.425 464.402 265.296C463.706 256.284 465.585 247.26 469.819 239.276C471.634 236.031 473.113 232.609 474.233 229.063C473.782 227.984 466.584 237.519 462.471 249.513C459.487 242.412 461.744 226.63 461.042 227.182C460.339 227.734 459.336 235.688 459.085 239.928C458.744 243.996 459.257 248.09 460.59 251.947C460.799 252.461 461.033 252.963 461.292 253.453C459.535 259.306 459.25 265.504 460.465 271.494C462.747 280.778 467.989 289.786 470.772 298.693C471.4 300.696 471.672 302.794 471.575 304.891H470.797C469.883 304.943 468.973 304.743 468.164 304.314C467.543 303.821 467.009 303.227 466.584 302.557C465.406 301.011 463.924 299.724 462.228 298.774C460.533 297.825 458.661 297.233 456.728 297.037C456.759 302.869 458.846 308.502 462.621 312.945C463.235 313.539 463.714 314.258 464.026 315.053C464.256 316.196 464.116 317.383 463.625 318.441C461.861 324.32 459.499 330.004 456.577 335.403C455.862 336.382 455.421 337.533 455.298 338.74C455.343 339.499 455.603 340.23 456.047 340.848C456.491 341.465 457.101 341.944 457.806 342.228C459.191 342.753 460.701 342.858 462.145 342.529C462.792 342.362 463.464 342.32 464.126 342.403C465.756 342.754 466.634 344.661 466.935 346.343C468.888 353.535 470.099 360.909 470.547 368.348C470.559 372.995 471.148 377.622 472.302 382.124C474.81 390.103 481.607 395.447 486.873 401.495L487.099 401.77C487.099 403.376 486.848 404.982 486.648 406.538C486.636 406.772 486.636 407.007 486.648 407.241C485.519 414.848 483.97 422.387 482.008 429.823C480.829 434.34 479.5 438.806 478.096 443.272C476.601 448.347 473.879 452.975 470.17 456.747C470.597 454.388 471.048 452.029 471.475 449.671C469.591 451.982 467.492 454.107 465.205 456.019C465.86 453.025 467.004 450.16 468.59 447.538C465.858 449.72 463.338 452.156 461.067 454.815C462.635 452.124 463.319 449.008 463.023 445.907C461.227 449.637 458.464 452.817 455.022 455.116C457.388 452.802 458.937 449.781 459.436 446.509C457.17 450.544 453.502 453.607 449.129 455.116C451.906 452.892 453.872 449.814 454.721 446.359C453.021 449.224 450.47 451.487 447.423 452.832C449.195 450.44 450.129 447.53 450.082 444.552C447.574 448.542 443.962 453.083 439.473 452.08C440.696 449.204 442.226 446.47 444.038 443.925C440.398 445.564 437.018 447.728 434.006 450.348C435.481 447.224 437.522 444.399 440.025 442.018C436.587 443.405 433.638 445.78 431.548 448.843L430.745 440.01C430.252 442.91 428.685 445.517 426.356 447.312C426.847 445.303 427.697 443.399 428.864 441.692C426.064 442.944 423.515 444.696 421.341 446.861C423.057 444.623 424.6 442.258 425.955 439.785C422.621 441.033 419.685 443.157 417.453 445.932C418.708 443.093 419.781 440.176 420.663 437.2C417.779 438.953 415.408 441.438 413.792 444.402C412.989 441.318 411.915 438.312 410.581 435.419C410.517 438.577 409.655 441.667 408.073 444.402C407.407 440.035 407.936 435.569 409.603 431.479C405.641 433.988 403.634 438.655 401.879 443.097C401.143 439.801 401.041 436.394 401.578 433.06C399.605 435.474 398.092 438.229 397.114 441.19C394.982 438.296 393.943 434.74 394.179 431.153C393.027 433.743 392.372 436.526 392.248 439.358C390.86 436.945 390.396 434.109 390.944 431.379C389.938 433.693 389.287 436.147 389.013 438.656C388.008 437.393 387.29 435.926 386.909 434.357C386.528 432.789 386.493 431.156 386.806 429.572C385.262 431.51 384.12 433.737 383.445 436.121C381.163 434.49 379.232 432.031 377.125 430.174C374.617 427.991 374.617 426.36 374.768 422.948C374.768 421.468 374.918 419.962 375.019 418.457C376.473 420.966 379.307 425.984 381.038 425.984C382.191 425.984 382.994 424.654 383.019 423.475C382.927 422.281 382.734 421.098 382.442 419.937C382.375 418.421 382.626 416.907 383.179 415.494C383.731 414.081 384.574 412.799 385.652 411.732C387.659 409.499 390.066 407.692 391.897 405.308C396.537 399.261 396.537 391.132 397.891 383.905C400.067 374.558 403.368 365.509 407.722 356.957C410.996 349.743 411.875 341.671 410.23 333.922C409.503 330.434 408.274 327.072 407.497 323.609C406.792 320.114 406.315 316.577 406.067 313.021C405.44 306.045 405.189 298.718 404.537 291.517C404.828 290.043 405.196 288.586 405.641 287.151C406.359 285.191 406.954 283.188 407.421 281.154C407.848 278.427 407.848 275.651 407.421 272.924C407.106 270.108 406.604 267.317 405.917 264.568C408.617 263.86 411.121 262.547 413.24 260.729C414.865 259.445 416.179 257.81 417.082 255.946C417.985 254.081 418.455 252.037 418.456 249.965C414.293 253.428 408.55 253.653 403.409 255.259C403.802 251.251 405.412 247.46 408.023 244.394C415.547 235.763 426.231 227.708 433.103 218.5C436.853 213.209 438.979 206.94 439.222 200.459C440.104 199.777 440.942 199.039 441.73 198.251C444.992 194.782 447.321 190.544 448.502 185.931C449.831 181.339 451.612 172.657 450.784 171.804C449.956 170.951 446.746 189.694 439.272 195.766C438.821 181.539 432.651 168.868 431.598 169.897C431.046 170.474 432.626 178.077 433.78 182.066C436.547 191.809 435.608 202.232 431.147 211.323C430.584 212.479 429.956 213.602 429.266 214.686C430.479 208.642 430.081 202.386 428.112 196.544C425.604 188.565 415.572 174.89 414.87 175.593C414.168 176.295 418.03 183.246 420.814 188.916C414.845 186.207 407.446 177.726 406.87 178.328C406.293 178.93 407.973 181.991 409.152 183.472C409.815 184.269 410.545 185.007 411.334 185.68C414.862 188.62 418.716 191.146 422.82 193.207C423.935 195.511 424.834 197.913 425.504 200.383C426.134 203.404 426.453 206.481 426.457 209.567C426.533 213.587 425.8 217.58 424.3 221.31C420.505 225.503 416.305 229.311 411.76 232.677C412.513 227.658 411.76 222.389 408.926 220.683C407.722 219.98 411.108 226.404 407.07 236.34C405.467 237.62 404.004 239.066 402.706 240.656C400.006 244.27 398.232 248.492 397.54 252.951C393.765 251.532 389.603 251.532 385.828 252.951H385.552C384.771 248.473 382.912 244.253 380.135 240.656C378.805 239.016 377.3 237.526 375.646 236.215C371.608 226.178 374.994 219.855 373.79 220.557C370.906 222.263 370.203 227.432 370.931 232.551C366.391 229.18 362.191 225.373 358.391 221.185C356.896 217.453 356.155 213.462 356.209 209.442C356.234 206.356 356.562 203.28 357.187 200.258C357.857 197.788 358.755 195.385 359.871 193.082C363.971 191.014 367.825 188.489 371.357 185.554C372.146 184.882 372.876 184.143 373.539 183.346C374.718 181.866 376.423 178.829 375.796 178.202C375.169 177.575 367.846 186.081 361.877 188.791C364.661 183.12 368.372 176.044 367.796 175.467C367.219 174.89 357.187 188.44 354.579 196.419C352.615 202.261 352.209 208.514 353.4 214.56C352.748 213.481 352.096 212.352 351.519 211.198C347.099 202.091 346.206 191.668 349.011 181.941C350.165 177.951 351.745 170.348 351.193 169.771C350.115 168.743 343.97 181.414 343.519 195.641C335.995 189.569 332.785 170.85 332.007 171.678C331.23 172.506 332.96 181.213 334.289 185.805C335.47 190.418 337.799 194.657 341.061 198.125C341.838 198.926 342.676 199.664 343.569 200.333C343.812 206.814 345.938 213.084 349.688 218.374C356.535 227.583 367.244 235.637 374.768 244.269C376.91 246.723 378.363 249.702 378.981 252.901C376.95 252.349 374.868 252.022 372.837 251.445C371.307 251.167 369.849 250.579 368.555 249.715C367.261 248.852 366.158 247.733 365.313 246.427C365.019 248.859 365.268 251.327 366.039 253.652C366.811 255.977 368.088 258.103 369.777 259.876C371.476 261.681 373.491 263.161 375.721 264.242C375.451 265.66 375.266 267.093 375.169 268.533C374.369 278.297 372.485 287.941 369.551 297.288C369.02 299.305 368.289 301.263 367.369 303.134C362.88 311.515 352.322 313.974 344.171 316.835L323.806 324.086C314.15 327.524 303.742 331.614 298.3 340.521C296.018 344.26 294.563 348.877 290.952 351.21C292.671 352.18 294.625 352.658 296.597 352.592C298.57 352.526 300.487 351.917 302.137 350.834C300.708 351.788 303.818 361.523 304.119 363.029C305.1 367.134 305.421 371.369 305.072 375.575C304.618 378.537 303.614 381.388 302.112 383.98C299.64 388.504 296.289 392.488 292.256 395.698C290.482 396.758 289.093 398.359 288.294 400.265C288.076 401.279 288.033 402.323 288.168 403.351C288.469 407.14 288.895 410.879 289.472 414.718C289.905 416.225 290.042 417.801 289.874 419.36C289.547 420.815 287.366 423.801 287.366 420.564C287.366 419.711 287.742 418.833 287.366 418.055L284.858 423.073V414.969C284.673 416.549 284.106 418.061 283.206 419.372C282.306 420.684 281.099 421.756 279.691 422.496C280.985 420.329 281.564 417.81 281.346 415.295C280.721 418.016 279.091 420.401 276.782 421.969C278.295 419.372 278.787 416.304 278.161 413.363C276.008 416.411 273.374 419.089 270.362 421.292C271.189 418.783 271.967 416.148 272.694 413.564C269.852 415.624 267.398 418.173 265.446 421.091C265.246 418.102 265.543 415.101 266.324 412.209C263.285 414.584 260.988 417.779 259.703 421.417C258.123 418.682 256.442 415.972 254.888 413.288C256.066 413.288 257.27 413.288 258.474 413.062C248.091 401.52 224.566 365.036 219.776 354.598C221.327 356.053 223.325 356.937 225.444 357.107C222.133 352.763 219.402 348.005 217.318 342.955C219.515 344.729 222.223 345.749 225.043 345.866C215.832 331.556 208.26 316.254 202.471 300.249C204.795 302.304 207.772 303.469 210.873 303.536L202.321 288.33C204.475 290.6 207.141 292.32 210.095 293.349C200.916 281.907 198.133 275.96 193.242 262.962L197.681 264.844C195.838 261.869 194.539 258.589 193.844 255.159L198.258 256.388C186.195 242.663 185.568 226.956 181.229 208.187C181.95 209.316 182.941 210.248 184.113 210.897C180.429 204.798 178.214 197.926 177.643 190.823C176.974 199.07 175.028 207.163 171.874 214.811C172.727 214.084 172.852 214.811 173.73 213.506C172.39 219.798 170.258 225.894 167.385 231.648C168.037 231.648 168.363 231.272 169.441 230.343C168.367 239.011 166 247.469 162.419 255.435C164.15 255.435 164.727 254.256 166.307 252.926C165.092 255.889 163.203 258.526 160.789 260.629C161.906 260.397 162.943 259.878 163.799 259.123C163.799 261.633 155.246 284.341 147.221 301.93C148.416 301.949 149.588 301.597 150.576 300.924C151.564 300.25 152.319 299.287 152.739 298.166C150.837 306.079 147.56 313.595 143.058 320.373C146.564 319.436 149.708 317.469 152.086 314.727C149.762 323.261 146.568 331.535 142.556 339.417C138.769 331.363 135.785 324.563 134.355 320.573C135.839 322.458 137.998 323.691 140.374 324.011C136.802 317.821 133.942 311.247 131.847 304.414C133.933 306.739 136.835 308.168 139.948 308.404C130.744 291.166 121.389 265.472 115.821 246C119.007 248.76 120.837 250.366 124.775 250.492L115.546 230.092C117.675 233.038 120.525 235.388 123.822 236.917C114.066 221.26 111.106 213.13 105.89 195.315L110.63 197.824C108.612 193.637 107.234 189.171 106.542 184.576L111.232 186.257C98.4162 167.438 97.739 145.959 93.0993 120.24C93.8144 121.715 94.8722 122.997 96.1841 123.979C92.1727 115.295 89.841 105.93 89.3123 96.3778C89.3123 103.027 85.9767 122.498 83.1678 129.198C84.0707 128.219 84.1961 129.198 85.124 127.441C83.737 135.932 81.4762 144.257 78.3776 152.282C79.0798 152.282 79.431 151.73 80.5595 150.476C79.4527 162.172 76.9261 173.691 73.0357 184.776C74.8916 184.776 75.5436 183.17 77.1738 181.339C75.9779 185.232 73.9786 188.831 71.3052 191.902C72.5399 191.531 73.6443 190.818 74.4903 189.845C74.4903 193.257 65.4115 224.346 56.9346 248.434C58.3438 248.335 59.6814 247.776 60.7417 246.842C61.8021 245.908 62.5264 244.651 62.8032 243.265C60.8629 253.846 57.3993 264.09 52.5206 273.677C56.4739 272.208 59.8444 269.496 62.1261 265.948C59.9303 276.348 56.9456 286.565 53.1977 296.51C50.3888 290.363 48.1818 285.219 46.978 281.756C48.8295 284.119 51.5284 285.667 54.5019 286.072C49.9746 278.378 46.3316 270.196 43.6424 261.683C46.2984 264.629 49.994 266.428 53.9501 266.701C42.3634 244.997 30.6011 212.678 23.6039 188.164C27.5915 191.651 29.7735 193.684 34.8646 193.834C31.0023 185.286 27.1234 176.73 23.2277 168.165C25.9143 171.882 29.5174 174.838 33.6858 176.747C21.3718 157.05 17.66 146.812 11.1143 124.43L17.1333 127.743C14.6147 122.47 12.8825 116.857 11.992 111.082L17.9108 113.164C1.75957 89.5277 0.931961 62.5038 -4.91159 30.1353C-4.03011 32.0074 -2.71458 33.6419 -1.07442 34.9028C-6.41637 24.6653 -8.59828 11.9688 -9.72685 0.250934C-9.72685 8.58142 -13.9402 33.0962 -17.4514 41.527C-16.3228 40.2975 -16.1472 41.527 -14.9434 39.2938C-16.6799 49.9807 -19.5208 60.4584 -23.4203 70.5582C-22.5425 70.5582 -22.1162 69.8557 -20.6866 68.3C-22.0529 83.005 -25.2026 97.4891 -30.0664 111.433C-27.734 111.433 -26.9565 109.426 -24.8749 107.117C-26.3745 112.018 -28.8866 116.548 -32.2483 120.416C-30.6884 119.987 -29.286 119.115 -28.2105 117.907C-28.4111 122.222 -39.6468 161.34 -50.4059 191.626C-48.6366 191.5 -46.9569 190.799 -45.6217 189.631C-44.2864 188.462 -43.3686 186.89 -43.0074 185.153C-45.4423 198.452 -49.8018 211.326 -55.9485 223.368C-50.985 221.532 -46.7516 218.133 -43.8852 213.682C-50.0046 243.391 -60.9142 267.429 -73.5293 295.933C-67.7293 293.716 -62.4642 290.295 -58.0802 285.896C-60.1618 287.929 -61.4409 294.553 -62.6197 297.439C-64.2916 301.487 -66.0472 305.485 -67.8864 309.433C-71.4226 317.161 -75.2347 324.764 -79.0969 332.316C-86.6208 347.07 -93.1415 361.849 -101.167 376.403C-98.7384 374.381 -96.1079 372.615 -93.317 371.133C-95.3238 377.579 -97.8397 383.855 -100.841 389.902C-116.892 390.479 -133.444 391.282 -151 392.411C-145.207 468.741 -141.445 515.813 -135.676 592.167L-38.0166 607.223C461.694 642.351 1742.16 627.873 1879.37 622.102C1956.21 618.79 2044.89 602.254 2066.23 553.375C2074.08 535.033 2070.9 515.085 2066.23 495.865ZM376.975 378.661C377.878 375.607 379.185 372.687 380.862 369.979C381.237 369.943 381.615 369.943 381.991 369.979C383.571 370.305 383.771 371.234 384.223 372.789C385.103 376.506 385.549 380.312 385.552 384.131C385.677 387.845 385.828 391.659 385.978 395.297C386.067 396.428 386.016 397.565 385.828 398.684C385.505 399.952 384.971 401.157 384.248 402.247C382.482 405.161 380.359 407.841 377.928 410.226C376.875 411.28 375.746 412.284 374.768 413.413C374.968 407.241 374.592 386.891 376.975 378.661ZM-49.3776 383.93V384.432C-49.6535 383.729 -49.9545 383.027 -50.2554 382.324L-49.0516 381.722C-49.1861 382.419 -49.2865 383.123 -49.3526 383.83L-49.3776 383.93ZM-40.349 385.486C-40.6497 385.236 -40.9345 384.968 -41.2017 384.683L-40.5496 384.307C-40.5496 384.457 -40.2988 384.608 -40.1734 384.758C-40.2109 384.97 -40.2612 385.18 -40.3239 385.386L-40.349 385.486ZM237.181 410.778L237.031 410.477H237.482L237.181 410.778ZM248.994 415.797C248.651 416.145 248.222 416.396 247.75 416.524C247.279 416.652 246.782 416.652 246.31 416.525C245.801 415.897 245.472 415.144 245.357 414.344C245.242 413.544 245.346 412.728 245.658 411.983L249.42 412.51C249.42 412.911 249.42 413.338 249.42 413.714C249.522 414.413 249.371 415.125 248.994 415.722V415.797ZM325.637 428.569C325.637 428.895 325.486 429.246 325.386 429.597L322.878 422.321C321.824 423.767 320.979 425.355 320.37 427.038L321.424 416.7C321.343 418.305 320.863 419.864 320.026 421.236C319.189 422.608 318.023 423.748 316.633 424.554C318.269 422.357 319.477 419.871 320.195 417.227C317.393 420.281 314.226 422.978 310.765 425.256C311.781 424.134 312.559 422.817 313.05 421.385C313.542 419.953 313.737 418.436 313.624 416.926C312.338 419.768 310.343 422.231 307.83 424.077C308.786 421.831 309.081 419.359 308.683 416.951L305.799 421.969C305.799 420.589 305.799 419.209 305.799 417.829C304.921 418.983 304.018 420.138 303.116 421.267L302.639 417.227C302.338 418.555 301.883 419.843 301.285 421.066C301.285 421.292 300.984 421.568 300.733 421.618C300.515 421.614 300.308 421.524 300.156 421.367C295.516 417.879 295.993 411.757 296.194 406.312C296.394 405.029 296.897 403.811 297.66 402.76C298.423 401.708 299.425 400.853 300.582 400.265C303.052 398.556 305.353 396.615 307.454 394.469C309.559 392.096 311.794 389.842 314.151 387.719C316.204 386.179 318.348 384.763 320.571 383.479L320.897 383.253C319.685 386.707 318.041 389.995 316.006 393.039C315.195 393.988 314.688 395.159 314.552 396.401C314.696 397.61 315.203 398.748 316.006 399.663C318.497 403.292 320.504 407.232 321.975 411.381C324.157 416.851 326.816 422.471 325.637 428.493V428.569ZM351.394 431.605V431.831C351.317 429.092 351.569 426.354 352.146 423.676C350.328 425.929 348.903 428.474 347.933 431.203C347.548 430.504 347.347 429.718 347.347 428.92C347.347 428.122 347.548 427.336 347.933 426.637C348.692 425.218 349.137 423.651 349.237 422.045C346.764 424.429 344.883 427.359 343.744 430.601C343.322 428.145 342.158 425.877 340.409 424.102C341.073 426.266 340.949 428.596 340.058 430.676C339.315 428.467 337.765 426.621 335.719 425.507C331.656 423.35 331.656 419.009 330.854 414.643C330.302 411.657 329.374 408.771 328.546 405.886C327.539 403.559 327.476 400.931 328.371 398.559C329.165 397.349 330.241 396.351 331.506 395.648C339.029 390.504 346.779 384.884 351.268 376.729C352.04 375.318 352.703 373.85 353.25 372.338C355.068 372.951 356.688 374.043 357.939 375.499C358.818 376.815 359.455 378.276 359.82 379.815C362.477 388.933 364.364 398.258 365.463 407.692C366.416 415.973 368.147 423.048 366.115 431.529C365.965 432.107 365.639 432.834 365.062 432.784C364.485 432.734 364.259 432.031 364.184 431.429C363.858 428.867 363.758 426.281 363.883 423.701C361.75 425.997 360.246 428.806 359.519 431.856L360.498 423.174C358.708 425.682 357.414 428.51 356.685 431.504C356.01 427.661 354.951 423.895 353.525 420.263C353.984 424.148 353.24 428.081 351.394 431.529V431.605ZM513.383 422.346C514.135 416.901 516.568 410.904 521.609 409.298C524.297 408.701 527.093 408.796 529.734 409.574C541.121 411.883 546.688 414.191 555.993 416.525C557.48 421.6 560.173 426.241 563.843 430.049C566.075 432.558 568.332 435.243 570.664 437.727C571.477 438.441 572.069 439.372 572.37 440.412C572.491 441.042 572.491 441.689 572.37 442.319C571.316 447.663 567.354 451.402 564.846 456.019C562.338 460.636 557.021 463.973 554.463 468.841C555.639 466.602 556.444 464.187 556.845 461.69C554.705 464.025 552.775 466.544 551.077 469.217C551.554 466.583 552.005 463.948 552.482 461.313C550.17 463.542 548.291 466.179 546.939 469.092C547.095 465.488 547.753 461.924 548.895 458.503C546.502 460.317 544.519 462.618 543.077 465.253L544.732 458.277C542.155 460.717 540.009 463.576 538.387 466.733C539.777 464.182 540.469 461.308 540.393 458.403C539.129 462.011 536.524 464.995 533.12 466.733C535.704 464.156 537.452 460.859 538.136 457.274C535.749 461.268 532.207 464.443 527.979 466.382L533.471 456.119C530.635 458.296 527.999 460.723 525.596 463.371C526.702 461.136 527.682 458.841 528.531 456.496L522.436 464.4C522.406 461.674 522.787 458.958 523.565 456.345C522.29 458.925 520.497 461.215 518.298 463.07C517.957 461.746 517.897 460.366 518.121 459.017C518.346 457.669 518.85 456.383 519.602 455.241C517.522 456.823 515.987 459.017 515.213 461.514C513.608 455.266 513.884 448.492 513.433 442.093C512.739 435.53 512.722 428.913 513.383 422.346ZM488.93 434.892C490.284 431.831 491.714 428.794 493.219 425.783C493.77 424.704 498.234 417.729 497.984 416.951C498.762 418.423 499.433 419.949 499.99 421.518C504.007 432.57 505.987 444.26 505.834 456.019C505.844 457.145 505.631 458.263 505.207 459.306C504.934 459.854 504.535 460.329 504.042 460.691C503.549 461.054 502.977 461.293 502.373 461.389C503.366 459.009 503.603 456.38 503.05 453.861C501.961 456.475 500.528 458.931 498.786 461.163C499.053 457.815 498.935 454.447 498.435 451.126C497.934 454.46 496.499 457.583 494.297 460.134C494.426 456.932 494.974 453.76 495.927 450.7C493.635 453.091 491.919 455.974 490.911 459.13C491.237 456.621 491.588 454.112 491.914 451.427C489.774 453.431 488.512 456.2 488.403 459.13C487.221 457.2 486.444 455.048 486.121 452.807C485.416 454.81 485.143 456.939 485.318 459.055C480.227 451.703 485.92 441.692 488.93 434.791V434.892ZM593.311 448.918C592.659 453.901 591.585 458.82 590.101 463.622C589.374 465.93 589.524 467.31 587.367 468.64L587.668 467.862C586.699 468.411 585.761 469.015 584.859 469.669C583.899 469.974 582.961 470.343 582.05 470.773C582.461 469.311 583.114 467.929 583.981 466.683C581.341 468.245 579.16 470.479 577.661 473.157C578.163 470.268 578.087 467.309 577.436 464.45C577.079 466.455 576.132 468.307 574.715 469.769C573.298 471.231 571.477 472.236 569.485 472.655C570.388 470.698 572.896 469.769 573.398 467.637C570.659 469.321 567.603 470.422 564.419 470.873C565.612 469.009 567.133 467.377 568.909 466.056C566.538 466.937 564.281 468.099 562.187 469.518C565.548 465.725 568.616 461.682 571.366 457.424C574.063 453.725 577.186 450.356 580.671 447.388C581.387 446.889 581.992 446.249 582.449 445.507C582.907 444.764 583.206 443.935 583.329 443.072C583.258 442.192 583.002 441.337 582.577 440.563C581.574 438.405 580.546 436.197 579.593 433.938C582.241 436.121 585.068 438.076 588.044 439.785C590.212 440.703 591.987 442.355 593.06 444.452C593.5 445.899 593.587 447.431 593.311 448.918ZM1578.31 347.698C1578.16 347.246 1578.03 346.769 1577.91 346.318L1578.81 345.74L1579.11 345.991L1578.31 347.698ZM1666.34 295.431C1666.14 294.478 1665.96 293.524 1665.79 292.571L1666.14 292.345C1666.39 292.801 1666.71 293.222 1667.07 293.6L1666.34 295.431ZM1785.52 284.717C1785.17 283.939 1784.87 283.161 1784.51 282.384C1785.7 281.716 1786.77 280.869 1787.7 279.874C1787.1 281.355 1786.37 282.961 1785.49 284.767L1785.52 284.717Z"
            fill="url(#paint0_linear_88_1507)"
          />
          <defs>
            <linearGradient
              id="paint0_linear_88_1507"
              x1="959.949"
              y1="629.906"
              x2="959.949"
              y2="0.0753069"
              gradientUnits="userSpaceOnUse"
            >
              
                 <stop offset="0.05" stop-color="#063347"/>
<stop offset="0.39" stop-color="#0B414E"/>
<stop offset="0.99" stop-color="#196461"/>

                
            </linearGradient>
          </defs>
        </svg>