<svg width="1920" height="739" viewBox="0 0 1920 739" fill="none" xmlns="http://www.w3.org/2000/svg">
<path d="M1970.71 534.139C1962.93 496.229 1951.39 459.57 1936.33 424.943C1931.18 413.051 1924.93 400.482 1912.09 392.806C1899.24 385.13 1883.01 384.157 1867.23 385.103C1862.49 375.319 1857.95 365.453 1852.96 355.615C1848.88 347.506 1844.86 339.398 1841.11 331.127C1839.19 326.884 1837.34 322.586 1835.58 318.288C1834.32 315.207 1832.96 308.099 1830.8 305.909C1835.59 310.702 1841.12 314.32 1847.07 316.559C1833.78 286.043 1822.24 260.285 1815.83 228.5C1819.07 233.445 1823.51 237.071 1828.54 238.879C1822.18 226.208 1817.61 212.375 1814.99 197.93C1815.51 199.929 1816.54 201.679 1817.94 202.928C1819.34 204.177 1821.04 204.86 1822.78 204.877C1811.5 172.442 1799.58 130.575 1799.37 125.953C1800.56 127.297 1802.03 128.231 1803.62 128.656C1800.17 124.675 1797.52 119.816 1795.85 114.439C1798.11 116.899 1798.88 119.061 1801.34 119.061C1794.09 95.8974 1792.9 86.6265 1791.43 72.869C1792.94 74.5448 1793.39 75.2746 1794.34 75.2746C1790.24 64.5863 1787.21 53.3544 1785.31 41.8132C1786.53 44.2998 1786.71 42.8944 1787.91 44.1917C1784.2 35.1642 1779.76 8.91943 1779.76 0C1778.63 12.5413 1776.28 26.1367 1770.73 37.1103C1772.41 35.8588 1773.81 34.1328 1774.81 32.0829C1768.67 66.7065 1767.79 95.6541 1750.77 120.98L1757 118.71C1756.04 124.985 1754.21 131.023 1751.59 136.575L1757.86 133.089C1750.95 157.063 1747.03 168.01 1734.07 189.119C1738.31 187.18 1742.08 184.024 1745.06 179.929L1732.8 207.39C1738.18 207.228 1740.48 205.066 1744.68 201.336C1737.3 227.581 1724.9 262.204 1712.67 285.422C1716.71 285.191 1720.56 283.279 1723.55 280.016C1721.53 286.827 1718.86 293.338 1715.6 299.423C1711.11 286.652 1707.51 273.463 1704.81 259.988C1707.99 265.106 1712.44 268.89 1717.52 270.799C1711.15 257.675 1706.58 243.412 1703.98 228.554C1704.46 230.588 1705.48 232.381 1706.89 233.671C1708.29 234.96 1710 235.677 1711.76 235.716C1700.48 202.255 1688.56 159.009 1688.36 154.252C1689.52 155.665 1690.99 156.665 1692.6 157.144C1689.14 152.999 1686.49 147.987 1684.83 142.468C1687.09 144.981 1687.86 147.225 1690.32 147.225C1683.07 123.304 1681.88 113.628 1680.41 99.5463C1681.94 101.276 1682.37 102.033 1683.32 102.033C1679.28 89.5727 1677.16 84.4643 1674.29 67.4903C1675.51 70.0581 1675.71 68.5985 1676.89 69.95C1673.19 60.6521 1668.74 33.5695 1668.74 24.3257C1667.61 37.2994 1665.26 51.3543 1659.71 62.6252C1661.41 61.3248 1662.82 59.5426 1663.82 57.4357C1657.66 93.1945 1656.77 123.061 1639.75 149.333L1646.01 147.008C1645.03 153.462 1643.19 159.686 1640.57 165.442L1646.86 161.847C1639.93 186.578 1636.01 197.876 1623.05 219.661C1627.32 217.649 1631.1 214.387 1634.04 210.174L1621.79 238.554C1627.16 238.365 1629.46 236.149 1633.66 232.284C1627.36 255.218 1619.71 277.59 1610.77 299.233C1605.31 277.61 1600.9 256.907 1600.95 254.069C1601.83 255.25 1602.96 256.127 1604.22 256.609C1601.65 253.16 1599.74 249.071 1598.65 244.636C1600.32 246.744 1600.9 248.555 1602.85 248.744C1599.44 236.52 1597.49 223.781 1597.07 210.904C1598.2 212.363 1598.53 212.985 1599.32 213.066C1596.55 204.192 1594.66 194.956 1593.7 185.551C1594.56 187.632 1594.79 186.524 1595.67 187.659C1593.12 180.145 1590.79 158.766 1591.15 151.576C1589.64 161.577 1587.11 172.307 1582.12 180.686C1583.54 179.805 1584.76 178.525 1585.67 176.956C1579.08 204.309 1577 227.472 1562.15 246.528L1567.27 245.176C1566.19 250.141 1564.43 254.855 1562.05 259.123L1567.27 256.798C1560.5 275.502 1556.91 284.016 1545.49 300.044C1548.99 298.813 1552.17 296.555 1554.76 293.476C1551.06 300.54 1547.34 307.594 1543.61 314.64C1547.95 314.91 1549.89 313.342 1553.45 310.639C1547.14 328.605 1539.69 345.972 1531.17 362.588C1525.62 347.587 1520.88 332.641 1520.77 330.614C1521.55 331.375 1522.47 331.903 1523.45 332.154C1521.33 330.035 1519.64 327.351 1518.53 324.316C1519.93 325.667 1520.45 326.857 1522.01 326.857C1518.8 318.852 1516.69 310.283 1515.76 301.477C1516.7 302.396 1517 302.801 1517.58 302.801C1515.03 296.989 1513.13 290.801 1511.92 284.395C1512.71 285.773 1512.82 284.989 1513.57 285.719C1510.76 277.997 1509.03 269.782 1508.42 261.393C1507.91 268.648 1505.92 275.644 1502.64 281.773C1503.68 281.146 1504.57 280.216 1505.24 279.07C1501.35 298.125 1500.72 314.018 1490.04 327.938L1493.97 326.694C1493.35 330.202 1492.19 333.539 1490.54 336.533L1494.51 334.614C1491.27 345.974 1486.16 356.442 1479.48 365.399C1482.09 364.386 1484.48 362.656 1486.43 360.345L1478.67 375.454C1481.41 375.39 1484.06 374.218 1486.18 372.129C1482.02 384.854 1476.99 397.148 1471.15 408.888C1468.21 402.452 1465.68 395.757 1463.59 388.86C1464.39 389.519 1465.31 389.962 1466.27 390.157C1464.22 388.497 1462.53 386.261 1461.35 383.644C1462.75 384.779 1463.27 385.752 1464.83 385.752C1461.66 379.244 1459.54 372.084 1458.58 364.642C1459.52 365.399 1459.82 365.751 1460.41 365.751C1457.88 361.021 1455.97 355.864 1454.74 350.452C1455.51 351.588 1455.64 350.939 1456.39 351.534C1453.62 345.256 1451.87 338.404 1451.24 331.343C1450.68 337.529 1448.68 343.402 1445.46 348.29C1446.46 347.771 1447.35 346.985 1448.06 345.993C1444.17 361.832 1443.54 375.048 1432.86 386.536L1436.79 385.509C1436.14 388.472 1434.97 391.236 1433.36 393.617L1437.33 392.049C1433.91 401.774 1428.79 410.504 1422.3 417.645C1424.84 416.855 1427.21 415.427 1429.25 413.456C1426.66 417.618 1424.08 421.808 1421.49 425.997C1424.16 425.981 1426.77 425.042 1429 423.294C1425.87 431.403 1421.31 438.566 1418.19 446.566C1415.93 452.242 1414.22 460.08 1408.42 461.837L1417.18 458.999C1414.73 462.768 1411.97 466.228 1408.94 469.324C1410.7 469.182 1412.4 468.482 1413.86 467.297C1411.6 471.794 1408.25 475.365 1404.26 477.541C1405.44 475.551 1406.07 473.17 1406.07 470.73L1400.52 479.081C1401.6 476.366 1401.99 473.331 1401.65 470.351C1400.56 474.4 1398.2 477.777 1395.05 479.757C1395.88 477.657 1396.28 475.35 1396.22 473.029C1396.16 470.707 1395.63 468.437 1394.69 466.405C1394.28 471.329 1392.72 476.014 1390.18 479.919C1390.54 477.676 1390.63 475.382 1390.45 473.108L1385.93 481.217C1385.43 478.761 1385.26 476.223 1385.44 473.703C1384.55 475.219 1383.79 476.84 1383.18 478.541L1383.47 470.432C1382.04 471.986 1380.93 473.926 1380.25 476.093C1379.57 478.26 1379.33 480.591 1379.55 482.892C1377.29 478.757 1374.67 474.649 1372.77 470.297C1371.64 467.594 1371.1 463.432 1369.48 461.27C1370.43 462.503 1371.72 463.289 1373.11 463.486C1370.97 459.558 1369.23 455.339 1367.92 450.918C1369.26 452.457 1371.01 453.368 1372.86 453.485C1366.88 440.6 1362 427.015 1358.33 412.942C1359.74 414.706 1361.68 415.743 1363.72 415.835C1361.84 411.438 1359.98 407.032 1358.15 402.618C1359.48 404.567 1361.19 406.091 1363.13 407.05C1358.21 398.887 1354.55 389.732 1352.32 380.022L1355.19 381.698C1353.97 379.004 1353.14 376.092 1352.71 373.075L1355.55 374.184C1347.81 361.994 1347.4 348.047 1344.62 331.37C1345.07 332.345 1345.71 333.179 1346.47 333.803C1344.08 328.251 1342.67 322.17 1342.32 315.937C1341.9 323.196 1340.65 330.352 1338.62 337.208C1339.16 336.56 1339.25 337.208 1339.82 336.046C1338.97 341.619 1337.6 347.06 1335.73 352.263C1336.16 352.263 1336.36 351.885 1337.06 351.074C1336.39 358.696 1334.87 366.176 1332.55 373.319C1333.68 373.319 1334.04 372.292 1335.05 371.102C1334.3 373.673 1333.09 376.016 1331.51 377.968C1332.25 377.735 1332.92 377.268 1333.45 376.616C1330.54 389.53 1326.98 402.22 1322.79 414.618C1323.61 414.593 1324.39 414.252 1325.03 413.648C1325.67 413.044 1326.13 412.209 1326.34 411.267C1325.15 418.191 1323.06 424.848 1320.15 430.998C1322.47 430.092 1324.49 428.344 1325.93 425.997C1323 441.296 1317.78 453.702 1311.73 468.378C1314.46 467.285 1316.98 465.548 1319.14 463.27C1318.14 465.106 1317.38 467.11 1316.88 469.216C1316.07 471.297 1315.23 473.351 1314.35 475.406C1312.59 480.147 1310.57 484.751 1308.32 489.19C1307.38 490.455 1306.34 491.621 1305.23 492.677C1304.98 492.92 1304.58 493.109 1304.4 492.812C1304.34 492.629 1304.34 492.428 1304.4 492.244C1304.4 490.704 1304.58 489.19 1304.69 487.676C1303.39 489.015 1302.2 490.509 1301.15 492.136C1300.08 493.748 1298.58 494.858 1296.9 495.272C1297.13 492.569 1299.16 490.082 1298.78 487.352C1296.79 490.704 1294.69 493.947 1292.46 497.028C1292.16 497.434 1291.69 497.866 1291.35 497.542C1291.83 494.523 1292.04 491.452 1291.98 488.379C1290.85 491.682 1289.13 494.651 1286.95 497.082C1287.25 495.286 1287.17 493.428 1286.72 491.677L1283.36 498.596C1283.06 499.191 1282.48 499.893 1282.03 499.461C1281.91 499.311 1281.82 499.13 1281.78 498.932C1281.73 498.735 1281.72 498.527 1281.76 498.326C1281.89 495.462 1282.32 492.628 1283.04 489.893C1281.64 493.511 1280 496.99 1278.14 500.299C1277.92 500.704 1277.62 501.137 1277.24 501.137C1276.86 501.137 1276.41 500.407 1276.27 499.758C1275.69 496.437 1275.45 493.041 1275.57 489.65C1274.4 493.28 1273.51 497.036 1272.93 500.866C1270.72 496.941 1269.41 492.395 1269.11 487.676C1268.64 492.461 1268.14 497.272 1267.67 502.056C1266.82 498.316 1266.33 494.47 1266.22 490.596C1265.22 495.1 1264.1 499.605 1262.88 504.11C1262.27 504.299 1261.98 503.191 1261.98 502.407V495.785L1258.12 504.38C1257.82 500.771 1257.97 497.128 1258.55 493.569C1256.06 496.675 1254.68 500.828 1254.71 505.137C1253.27 501.921 1251.8 498.731 1250.33 495.515C1250.83 499.318 1250.56 503.208 1249.57 506.867C1249.41 507.434 1249.14 508.083 1248.66 508.191C1248.19 508.299 1247.58 507.164 1247.53 506.272C1247.43 504.257 1247.62 502.234 1248.1 500.299C1245.26 502.648 1242.99 505.844 1241.51 509.57C1241.4 506.686 1241.96 503.822 1243.13 501.299C1240.35 503.784 1238.05 506.955 1236.38 510.597C1236.07 507.437 1236.15 504.24 1236.63 501.11C1234.12 503.513 1232.08 506.537 1230.65 509.975C1229.63 507.193 1228.91 504.269 1228.5 501.272C1228.03 504.976 1226.72 508.453 1224.71 511.326C1223.86 507.958 1223.96 504.346 1225 501.056C1222.95 503.296 1221.28 505.995 1220.08 509.002C1220.1 506.716 1220.34 504.44 1220.78 502.218C1218.49 505.076 1216.74 508.485 1215.64 512.218C1214.93 509.807 1214.76 507.221 1215.12 504.705C1214.01 506.988 1213.13 509.419 1212.5 511.948L1210.47 504.002C1210.51 505.417 1210.29 506.826 1209.84 508.132C1209.38 509.438 1208.7 510.611 1207.83 511.57C1208.04 509.777 1208.04 507.957 1207.83 506.164L1203.47 514.759C1202.95 514.759 1202.86 513.786 1202.91 513.137L1203.54 506.002C1201.85 508.605 1200.46 511.457 1199.38 514.489C1198.73 514.273 1198.55 513.219 1198.5 512.381C1198.38 510.284 1198.38 508.18 1198.5 506.083C1196.97 508.566 1195.74 511.296 1194.85 514.192L1191.37 504.867C1191.21 508.483 1190.45 512.023 1189.11 515.273C1188.44 515.273 1188.14 514.219 1188.07 513.381C1187.89 511.234 1187.8 509.078 1187.8 506.921L1181.28 515.732C1182 513.246 1182.63 510.705 1183.18 508.137C1180.73 510.708 1178.6 513.684 1176.85 516.975C1176.97 514.108 1177.4 511.272 1178.14 508.543C1175.8 511.1 1174.06 514.341 1173.08 517.949C1172.59 514.172 1171.73 510.48 1170.51 506.948C1170.33 509.305 1169.83 511.613 1169.04 513.786C1168.27 515.945 1166.84 517.674 1165.05 518.624C1165.4 516.43 1165.89 514.271 1166.52 512.164L1160.58 518.435C1160.61 515.878 1161.41 513.422 1162.84 511.516C1160.81 512.928 1158.96 514.685 1157.35 516.732C1157.81 515.173 1158.02 513.521 1157.96 511.867C1157.96 511.029 1157.8 510.218 1157.69 509.38L1150.24 520.922C1150.24 518.489 1150.24 516.057 1150.24 513.624C1148.8 515.867 1147.73 518.417 1147.08 521.138C1146.38 521.138 1146.36 519.814 1146.58 518.976C1147.33 516.111 1148.07 513.246 1148.84 510.381C1146.35 513.135 1144.51 516.633 1143.51 520.516C1142.59 518.203 1141.97 515.732 1141.68 513.191C1141.28 515.57 1140.85 517.948 1140.42 520.327C1139.66 517.38 1138.68 514.521 1137.49 511.786C1137.44 515.21 1136.52 518.536 1134.87 521.327C1134.53 521.895 1133.83 522.435 1133.47 521.895C1133.74 520.408 1133.99 518.895 1134.26 517.381C1131.54 520.019 1128.4 521.96 1125.03 523.084C1127.35 521.184 1128.97 518.277 1129.54 514.975C1126.88 518.11 1123.9 520.834 1120.67 523.084C1122.06 520.89 1122.7 518.145 1122.45 515.408C1120.34 518.661 1117.93 521.608 1115.25 524.192C1115.07 522.077 1115.54 519.956 1116.56 518.219C1114.92 519.718 1113.5 521.547 1112.38 523.625C1112.66 520.891 1113.25 518.216 1114.14 515.678C1111.83 517.999 1109.74 520.629 1107.91 523.516C1107.83 520.31 1108.62 517.158 1110.17 514.543C1107.67 516.899 1105.59 519.831 1104.05 523.165C1103.97 520.028 1104.58 516.92 1105.84 514.165C1102.95 516.3 1101.91 520.841 1099.72 524.03C1099.43 522.531 1099.44 520.97 1099.75 519.475C1100.06 517.981 1100.66 516.596 1101.5 515.435C1099.4 517.055 1097.61 519.192 1096.24 521.705C1096.01 519.724 1095.66 517.764 1095.2 515.84L1091.21 523.706C1090.78 524.571 1089.97 525.571 1089.27 525.057C1089.08 524.871 1088.92 524.636 1088.82 524.37C1088.71 524.103 1088.66 523.811 1088.66 523.516C1088.52 522.597 1088.39 521.678 1088.27 520.814C1087.82 522.327 1087.35 523.841 1086.81 525.3C1085.73 523.016 1085.46 520.314 1086.04 517.786C1083.85 519.842 1082.17 522.582 1081.19 525.706C1080.53 523.892 1080.21 521.926 1080.26 519.949C1079.54 521.976 1078.84 524.003 1078.12 526.057C1076.99 524.949 1077.08 522.841 1077.26 521.084C1077.39 519.895 1077.53 518.732 1077.64 517.57C1074.96 519.354 1073.62 523.165 1072.52 526.706C1072.1 524.514 1072.17 522.227 1072.74 520.084C1071.18 521.962 1069.96 524.207 1069.15 526.679C1068.79 523.956 1069 521.165 1069.79 518.57C1067.68 521.014 1066.33 524.247 1065.97 527.733C1065.5 524.755 1064.54 521.918 1063.15 519.381C1063.21 522.552 1062.27 525.634 1060.51 528.003C1060.31 528.3 1059.99 528.571 1059.7 528.409C1059.4 528.246 1059.47 527.571 1059.7 527.138C1060.15 525.922 1060.6 524.679 1061.03 523.462L1056.65 528.111C1056.87 526.473 1057.32 524.892 1057.98 523.435C1056.21 524.925 1054.57 526.608 1053.06 528.463C1053.31 526.077 1054.15 523.836 1055.47 522.03C1053.76 523.214 1052.17 524.639 1050.73 526.273C1050.73 524.706 1050.73 523.138 1050.73 521.597L1044.55 527.679C1044.23 528.003 1043.69 528.273 1043.49 527.868C1043.29 527.463 1043.49 527.165 1043.65 526.895L1046.56 521.489C1043.92 522.929 1041.6 525.086 1039.79 527.787C1039.74 526.045 1040.14 524.328 1040.94 522.868C1039.61 524.54 1038.41 526.349 1037.35 528.273C1037.46 525.641 1037.26 523.003 1036.76 520.435C1035.86 523.155 1034.46 525.595 1032.65 527.571C1032.53 527.736 1032.39 527.871 1032.23 527.968C1032.06 528.065 1031.89 528.123 1031.7 528.138C1032.55 526.199 1033.1 524.093 1033.33 521.922C1030.98 523.655 1028.93 525.923 1027.3 528.598C1027.65 526.268 1028.33 524.028 1029.31 521.976C1027.79 523.102 1026.38 524.415 1025.09 525.895C1025.44 524.355 1025.59 522.76 1025.54 521.165C1024.14 524.495 1022.05 527.341 1019.47 529.436C1019.18 529.679 1018.77 529.922 1018.5 529.652C1019.02 528.048 1019.45 526.405 1019.79 524.733C1018.06 525.94 1016.5 527.442 1015.14 529.192C1014.71 529.733 1014.19 530.355 1013.58 530.301C1013.87 528.17 1014.66 526.178 1015.84 524.544C1014.22 525.502 1012.82 526.911 1011.75 528.652C1011.39 529.219 1011 529.868 1010.44 529.922C1010.3 527.587 1010.78 525.26 1011.82 523.273C1009.98 525.189 1008.45 527.487 1007.3 530.057C1007.3 527.49 1007.14 524.922 1007.08 522.354C1006.44 524.889 1005.54 527.321 1004.41 529.598C1004.32 526.883 1004.1 524.176 1003.76 521.489C1002.29 524.599 1000.39 527.387 998.137 529.733C997.957 529.922 997.709 530.138 997.483 530.03C997.257 529.922 997.189 529.165 997.347 528.679C997.821 527.3 998.296 525.976 998.747 524.544C996.941 525.327 995.903 527.652 994.548 529.328C994.368 529.544 994.074 529.76 993.894 529.544C994.452 527.594 995.116 525.689 995.88 523.841C993.824 525.582 992.024 527.719 990.553 530.165C990.771 527.198 991.721 524.375 993.284 522.057C991.236 523.764 989.469 525.908 988.07 528.382C988.019 526.503 987.846 524.632 987.55 522.787L983.148 529.625C982.99 529.868 982.765 530.138 982.516 530.03C982.268 529.922 982.245 529.652 982.2 529.382L981.704 526.3C981.069 527.979 980.314 529.589 979.446 531.111C979.446 528.949 979.266 526.76 979.198 524.571C978.188 527.668 976.292 530.235 973.848 531.814C973.603 529.065 974.11 526.296 975.293 523.922C973.204 525.302 971.601 527.538 970.778 530.22C970.597 530.814 970.304 531.571 969.807 531.544C969.673 529.164 970.095 526.787 971.026 524.679C968.357 526.389 966.26 529.147 965.089 532.49C964.755 532.171 964.492 531.756 964.327 531.284C964.161 530.811 964.097 530.297 964.141 529.787C964.241 528.768 964.493 527.779 964.886 526.868C963.463 527.878 962.384 529.458 961.839 531.328C961.839 531.679 961.59 532.112 961.297 532.085C961.003 532.057 960.868 531.355 960.958 530.895C961.252 529.409 961.568 527.922 961.861 526.435C959.92 527.625 959.604 530.868 958.137 532.868C958.098 529.841 957.529 526.858 956.466 524.111C956.043 527.413 954.836 530.499 952.99 533.003C952.783 531.306 953.078 529.575 953.825 528.111C952.02 529.203 950.584 531.007 949.762 533.22C949.699 530.406 950.422 527.648 951.816 525.381C950.38 526.748 949.037 528.249 947.798 529.868C947.549 530.192 947.324 530.544 947.075 530.895C946.845 529.071 946.521 527.266 946.105 525.49C944.936 527.879 943.542 530.101 941.951 532.111C941.68 532.463 941.296 532.841 940.913 532.706C940.737 532.613 940.594 532.451 940.506 532.247C940.071 531.198 939.983 529.992 940.258 528.868C940.371 528.138 940.484 527.382 940.574 526.652C938.773 528.493 937.247 530.686 936.059 533.139C935.86 530.886 936.188 528.612 937.007 526.571C935.256 528.296 933.891 530.516 933.034 533.03C932.718 533.03 932.606 532.544 932.583 532.166C932.552 530.432 932.766 528.705 933.215 527.057C931.517 528.586 930.224 530.67 929.49 533.057C929.204 532.552 929.004 531.984 928.904 531.385C928.803 530.786 928.803 530.169 928.903 529.571C929.136 528.387 929.492 527.242 929.964 526.165C928.873 526.809 927.98 527.849 927.414 529.138C926.835 530.427 926.374 531.786 926.036 533.193L923.599 526.381C923.644 528.454 923.281 530.51 922.538 532.382C922.38 532.706 922.064 533.031 921.838 532.814C921.783 532.747 921.741 532.666 921.713 532.578C921.686 532.489 921.675 532.395 921.68 532.301C921.88 530.377 921.702 528.424 921.161 526.598C919.945 528.594 918.602 530.473 917.142 532.22L917.842 527.949L913.508 533.355C913.421 530.917 913.991 528.51 915.133 526.49C913.696 527.886 912.374 529.442 911.183 531.138C910.734 529.506 910.152 527.931 909.445 526.435C908.113 528.219 906.758 529.976 905.381 531.679C905.14 532.04 904.831 532.327 904.478 532.517C904.3 532.601 904.102 532.606 903.92 532.532C903.738 532.458 903.584 532.309 903.485 532.111C903.394 531.787 903.394 531.436 903.485 531.111C903.688 529.706 903.914 528.409 904.117 526.922C902.411 528.287 901.021 530.147 900.077 532.328C900.045 532.45 899.992 532.564 899.922 532.662C899.852 532.759 899.767 532.839 899.67 532.895C899.174 533.112 898.925 532.139 899.016 531.463C899.239 529.815 899.714 528.23 900.415 526.787C898.417 528.148 896.746 530.103 895.562 532.463C895.292 530.258 895.494 528.008 896.149 525.922C893.846 527.711 892.138 530.407 891.318 533.544C890.782 532.542 890.451 531.403 890.353 530.22C890.255 529.036 890.392 527.841 890.754 526.733C889.247 528.62 888.167 530.937 887.616 533.463C887.142 533.463 886.848 532.814 886.781 532.22C886.46 529.822 886.718 527.365 887.525 525.138C885.627 527.148 884.274 529.794 883.643 532.733C883.014 529.885 882.057 527.156 880.799 524.625C881.074 527.327 880.747 530.069 879.85 532.571C879.753 532.81 879.605 533.015 879.421 533.166C878.97 533.463 878.406 532.976 878.248 532.355C878.123 531.733 878.123 531.085 878.248 530.463C878.299 530.154 878.295 529.835 878.237 529.528C878.179 529.22 878.067 528.931 877.909 528.679C876.938 530.463 875.9 532.166 874.816 533.841C874.777 531.915 875.101 530.002 875.764 528.246C873.774 529.773 872.087 531.803 870.821 534.193C870.599 531.092 871.41 528.012 873.078 525.625C871.411 527.093 869.929 528.841 868.676 530.814C868.473 529.273 868.247 527.733 867.931 526.219C867.344 527.517 866.735 528.922 866.125 530.111C865.969 530.552 865.69 530.915 865.335 531.138C864.59 531.463 863.913 530.382 863.823 529.409C863.853 528.432 863.754 527.456 863.529 526.517C862.577 528.506 861.906 530.671 861.543 532.922C860.527 532.301 860.595 530.463 860.821 529.057L861.543 524.598C859.082 525.652 858.044 529.219 857.299 532.328C856.614 529.13 856.653 525.771 857.412 522.597C856.311 523.818 855.452 525.318 854.897 526.988C854.342 528.657 854.106 530.454 854.206 532.247C853.131 529.316 851.709 526.585 849.985 524.138C850.364 527.298 849.753 530.514 848.27 533.166C847.748 531.492 847.525 529.706 847.615 527.922C845.847 529.085 844.35 530.757 843.258 532.787C842.782 531.006 842.887 529.074 843.552 527.381C841.333 528.295 839.402 530.003 838.021 532.274C837.665 531.053 837.572 529.745 837.749 528.469C837.927 527.194 838.37 525.993 839.037 524.976C837.591 525.476 836.307 526.491 835.355 527.886C834.403 529.282 833.829 530.991 833.709 532.787L829.42 525.273C829.818 527.228 829.902 529.255 829.669 531.247C828.788 528.895 827.84 526.598 826.779 524.354C826.808 526.669 826.35 528.956 825.447 531.003C825.355 527.944 824.976 524.907 824.319 521.949C823.489 525.559 821.607 528.694 819.014 530.787L821.565 526.3C819.46 527.63 817.452 529.167 815.56 530.895L818.607 526.003C816.834 527.182 815.182 528.606 813.686 530.247V530.057C814.101 528.669 814.171 527.168 813.89 525.733C811.203 526.922 809.375 530.22 806.711 531.463C806.395 531.625 805.921 531.679 805.808 531.274C805.742 531.074 805.742 530.852 805.808 530.652C806.423 528.514 807.356 526.527 808.562 524.787C805.708 526.232 803.022 528.112 800.571 530.382C801.032 528.017 801.935 525.808 803.212 523.922C800.128 525.597 797.316 527.912 794.905 530.76C795.634 528.049 795.842 525.175 795.514 522.354C793.997 525.533 791.85 528.216 789.261 530.165C789.686 528.233 790.456 526.435 791.519 524.895C788.993 526.016 786.614 527.563 784.453 529.49L787.207 523.219C784.532 524.945 781.953 526.877 779.487 529.003C780.327 527.853 780.906 526.463 781.167 524.967C781.428 523.471 781.362 521.919 780.977 520.462C779.588 524.111 777.107 527.004 774.024 528.571C774.565 526.018 775.747 523.726 777.41 522.003C774.778 523.274 772.451 525.308 770.638 527.922C770.931 525.729 771.811 523.709 773.144 522.165C770.672 523.814 768.395 525.85 766.372 528.219C766.33 526.889 766.542 525.564 766.991 524.346C767.441 523.129 768.117 522.05 768.968 521.192C766.795 522.748 764.838 524.699 763.166 526.976C763.392 524.84 763.392 522.679 763.166 520.543C761.753 522.648 760.022 524.418 758.064 525.76L759.283 521.516C757.251 522.725 755.452 524.428 754.001 526.517C754.254 524.041 754.989 521.671 756.146 519.597C753.252 521.02 750.859 523.599 749.373 526.895H749.193L748.787 518.3C748.085 520.189 746.974 521.82 745.569 523.022C744.164 524.224 742.516 524.955 740.795 525.138C742.54 522.5 743.697 519.376 744.159 516.057L736.913 521.192C736.123 521.76 735.152 522.327 734.362 521.76C734.971 520.321 735.833 519.057 736.89 518.057C733.52 519.514 730.219 521.192 727.003 523.084C727.972 520.818 729.17 518.703 730.569 516.786C728.218 518.031 726.122 519.876 724.429 522.192C725.25 519.608 725.469 516.805 725.061 514.083C724.491 515.995 723.557 517.721 722.336 519.128C721.114 520.535 719.636 521.584 718.018 522.192C719.153 520.446 720.143 518.572 720.976 516.597C718.852 518.758 716.304 520.237 713.571 520.895C715.582 519.122 717.145 516.718 718.086 513.948C715.832 516.404 713.33 518.511 710.637 520.219C711.407 517.885 711.989 515.469 712.375 513.002C711.803 514.28 710.982 515.374 709.982 516.192L705.467 520.516C705.381 519.35 705.578 518.178 706.035 517.143C706.491 516.107 707.188 515.251 708.041 514.678C706.092 515.672 704.274 517.001 702.646 518.624C702.973 517.505 703.043 516.301 702.849 515.138C701.915 516.61 700.777 517.881 699.485 518.895C699.424 516.294 699.98 513.726 701.088 511.489C698.938 512.892 697.109 514.906 695.761 517.354C695.512 517.84 695.016 518.408 694.632 518.057C694.248 517.705 694.429 517.354 694.497 516.948C694.881 514.584 695.448 512.268 696.19 510.029C693.39 510.975 692.013 515.246 689.282 516.381C689.477 513.245 690.248 510.2 691.539 507.461C688.772 509.637 686.524 512.636 685.015 516.165C684.931 513.35 684.354 510.587 683.322 508.056C682.776 511.146 681.471 513.969 679.575 516.165C678.955 511.749 679.763 507.217 681.833 503.488C679.936 504.518 678.257 506.043 676.917 507.951C675.577 509.859 674.611 512.102 674.09 514.516C673.367 513.894 673.458 512.57 673.616 511.516C673.887 509.921 674.135 508.326 674.383 506.732C672.3 508.437 670.676 510.832 669.71 513.624C669.324 511.093 669.218 508.512 669.394 505.948C668.111 508.398 666.411 510.498 664.406 512.11C664.157 512.3 663.796 512.489 663.593 512.11C663.511 511.978 663.471 511.815 663.48 511.651C663.53 510.797 663.772 509.975 664.18 509.272L666.64 504.272L659.417 510.759C658.83 511.272 657.995 511.786 657.475 511.164C658.281 510.351 658.928 509.337 659.372 508.193C659.817 507.05 660.048 505.804 660.049 504.542C658.514 507.341 656.3 509.51 653.706 510.759C653.299 510.948 652.735 511.029 652.554 510.543C652.466 510.264 652.466 509.956 652.554 509.678C653.166 508.028 653.923 506.46 654.812 505.002C652.54 506.454 650.536 508.439 648.92 510.84H648.604C648.346 507.917 648.919 504.974 650.229 502.488C648.568 504.217 647.197 506.308 646.188 508.651C643.931 502.002 652.306 481.865 653.728 476.216C654.563 472.946 655.331 469.054 653.728 466.324C652.396 464.108 649.981 463.621 647.972 462.297C645.826 460.736 644.068 458.517 642.877 455.871C641.687 453.225 641.108 450.246 641.2 447.242C641.401 441.137 643.282 435.284 646.55 430.592C648.174 433.311 650.437 435.39 653.051 436.565C653.665 434.145 653.748 431.575 653.293 429.105C652.839 426.634 651.861 424.345 650.455 422.457C649.973 422.01 649.547 421.482 649.191 420.889C648.881 420.153 648.682 419.357 648.604 418.537C647.626 412.076 644.57 406.331 640.094 402.536C632.757 395.806 623.186 394.671 614.179 392.968C607.945 392.16 601.781 390.704 595.758 388.617C583.862 383.806 571.762 383.076 564.155 380.508C562.76 380.148 561.445 379.438 560.295 378.427C559.397 377.483 558.634 376.369 558.038 375.13C556.601 372.559 555.497 369.743 554.764 366.778C553.591 361.372 553.884 352.534 556.412 347.696C557.541 345.506 558.218 345.695 560.385 345.479C561.642 345.185 562.812 344.501 563.779 343.495C564.745 342.49 565.474 341.198 565.893 339.749C566.932 336.884 567.338 333.722 568.286 330.83C563.139 329.289 558.308 336.506 553.274 336.235C554.954 333.077 557.406 330.614 560.295 329.181C568.85 325.127 579.528 323.018 587.79 318.099C592.425 315.201 596.224 310.699 598.693 305.18C599.577 304.973 600.451 304.711 601.312 304.396C604.926 302.87 608.142 300.232 610.635 296.747C613.231 293.341 617.633 286.557 617.407 285.449C617.181 284.341 608.106 299.233 600.476 301.071C605.194 288.449 605.194 274.529 604.043 274.935C603.434 275.151 601.898 282.557 601.334 286.584C599.93 296.255 595.538 304.939 589.031 310.91C588.196 311.666 587.338 312.342 586.458 312.991C589.497 308.22 591.422 302.567 592.034 296.612C592.982 288.503 590.566 271.853 589.776 272.286C588.986 272.718 589.347 280.394 589.37 286.665C585.961 281.557 583.591 270.718 582.959 270.961C582.327 271.205 582.462 274.691 582.778 276.529C582.991 277.524 583.263 278.5 583.591 279.448C585.128 283.655 587.051 287.644 589.325 291.341C589.314 293.863 589.11 296.378 588.715 298.855C588.112 301.782 587.258 304.626 586.164 307.342C584.8 310.859 582.849 314.005 580.431 316.586C576.152 318.512 571.719 319.906 567.202 320.748C569.46 316.586 570.882 311.748 569.46 308.937C568.828 307.774 569.008 314.937 562.552 321.775C560.879 322.173 559.244 322.78 557.676 323.586C553.952 325.88 550.827 329.359 548.647 333.641C547.714 332.594 546.726 331.619 545.69 330.722C544.013 329.523 542.128 328.802 540.182 328.613C540.422 325.413 540.208 322.187 539.549 319.072C539.14 317.323 538.58 315.629 537.879 314.018C537.653 303.855 541.062 298.477 540.136 298.909C538.06 299.909 536.502 304.639 535.802 309.72C533.783 305.529 532.113 301.112 530.813 296.53C530.746 292.654 531.18 288.788 532.1 285.07C532.789 282.177 533.657 279.35 534.696 276.61C535.634 274.451 536.697 272.374 537.879 270.394C540.876 269.231 543.736 267.614 546.389 265.583C547.023 265.108 547.62 264.565 548.173 263.961C549.211 262.799 550.904 260.285 550.678 259.555C550.453 258.826 544.2 265.394 540.024 266.772C542.936 261.961 546.796 255.961 546.502 255.42C546.209 254.879 537.292 265.502 533.974 272.502C531.503 277.681 529.915 283.395 529.301 289.314C529.143 288.152 529.008 286.989 528.917 285.773C528.291 276.066 529.982 266.345 533.793 257.745C535.427 254.249 536.758 250.563 537.766 246.744C537.36 245.582 530.881 255.852 527.179 268.772C524.493 261.123 526.524 244.122 525.892 244.717C525.26 245.311 524.357 253.879 524.132 258.447C523.824 262.829 524.286 267.239 525.486 271.394C525.674 271.947 525.885 272.488 526.118 273.016C524.536 279.321 524.28 285.997 525.373 292.449C527.427 302.45 532.145 312.153 534.651 321.748C535.216 323.906 535.461 326.165 535.373 328.424H534.674C533.851 328.48 533.031 328.265 532.303 327.803C531.744 327.272 531.263 326.632 530.881 325.911C529.821 324.245 528.487 322.858 526.961 321.835C525.435 320.812 523.749 320.176 522.01 319.964C522.038 326.246 523.916 332.314 527.314 337.1C527.867 337.74 528.298 338.514 528.579 339.371C528.786 340.602 528.66 341.881 528.217 343.02C526.63 349.353 524.504 355.476 521.874 361.291C521.231 362.345 520.833 363.586 520.723 364.886C520.763 365.704 520.997 366.491 521.397 367.156C521.796 367.821 522.345 368.337 522.98 368.643C524.227 369.209 525.586 369.322 526.886 368.967C527.468 368.788 528.073 368.742 528.669 368.832C530.136 369.21 530.926 371.264 531.197 373.075C532.955 380.823 534.045 388.766 534.448 396.779C534.459 401.785 534.989 406.77 536.028 411.618C538.285 420.213 544.403 425.97 549.143 432.484L549.347 432.781C549.347 434.511 549.121 436.241 548.94 437.917C548.929 438.169 548.929 438.422 548.94 438.674C547.924 446.868 546.53 454.989 544.764 462.999C543.703 467.865 542.507 472.676 541.243 477.487C539.897 482.953 537.447 487.938 534.109 492.001C534.493 489.46 534.899 486.92 535.283 484.379C533.588 486.868 531.698 489.158 529.64 491.217C530.23 487.992 531.259 484.906 532.687 482.082C530.227 484.432 527.96 487.056 525.915 489.92C527.326 487.021 527.942 483.665 527.676 480.325C526.059 484.342 523.572 487.768 520.475 490.244C522.604 487.752 523.998 484.498 524.448 480.973C522.408 485.32 519.106 488.619 515.17 490.244C517.669 487.849 519.439 484.534 520.204 480.811C518.674 483.898 516.377 486.335 513.635 487.785C515.229 485.207 516.07 482.072 516.028 478.865C513.77 483.163 510.52 488.055 506.479 486.974C507.579 483.877 508.957 480.931 510.587 478.19C507.311 479.955 504.269 482.286 501.558 485.109C502.886 481.743 504.723 478.701 506.975 476.135C503.881 477.63 501.226 480.188 499.346 483.487L498.623 473.973C498.179 477.096 496.769 479.905 494.673 481.838C495.114 479.674 495.879 477.623 496.93 475.784C494.409 477.133 492.115 479.02 490.158 481.352C491.703 478.942 493.092 476.394 494.312 473.73C491.311 475.075 488.667 477.362 486.659 480.352C487.789 477.293 488.754 474.152 489.548 470.946C486.952 472.834 484.818 475.51 483.363 478.703C482.641 475.382 481.674 472.144 480.474 469.027C480.416 472.429 479.64 475.758 478.216 478.703C477.616 473.999 478.092 469.189 479.593 464.783C476.027 467.486 474.221 472.513 472.641 477.298C471.978 473.747 471.887 470.078 472.37 466.486C470.594 469.086 469.232 472.054 468.352 475.243C466.433 472.126 465.498 468.296 465.71 464.432C464.673 467.221 464.083 470.22 463.972 473.27C462.722 470.671 462.305 467.616 462.798 464.675C461.893 467.168 461.307 469.811 461.06 472.513C460.156 471.153 459.509 469.573 459.166 467.883C458.823 466.194 458.792 464.435 459.074 462.729C457.684 464.817 456.656 467.215 456.049 469.784C453.995 468.027 452.256 465.378 450.36 463.378C448.103 461.026 448.103 459.269 448.238 455.594C448.238 453.999 448.374 452.377 448.464 450.755C449.773 453.458 452.324 458.864 453.882 458.864C454.92 458.864 455.643 457.432 455.665 456.161C455.582 454.876 455.408 453.601 455.146 452.35C455.085 450.717 455.311 449.087 455.809 447.565C456.306 446.042 457.065 444.662 458.035 443.512C459.841 441.106 462.008 439.16 463.656 436.592C467.832 430.079 467.832 421.321 469.051 413.537C471.01 403.468 473.981 393.721 477.9 384.508C480.847 376.739 481.638 368.043 480.158 359.696C479.503 355.939 478.397 352.317 477.697 348.587C477.063 344.823 476.633 341.013 476.41 337.181C475.846 329.668 475.62 321.775 475.033 314.018C475.295 312.43 475.627 310.861 476.027 309.315C476.673 307.204 477.209 305.047 477.629 302.855C478.013 299.918 478.013 296.927 477.629 293.99C477.346 290.957 476.893 287.95 476.275 284.989C478.705 284.226 480.959 282.812 482.867 280.854C484.329 279.471 485.512 277.709 486.325 275.701C487.138 273.693 487.561 271.49 487.562 269.259C483.815 272.989 478.645 273.232 474.018 274.962C474.372 270.644 475.821 266.56 478.171 263.258C484.943 253.96 494.56 245.284 500.745 235.365C504.12 229.666 506.034 222.913 506.253 215.931C507.047 215.197 507.801 214.402 508.51 213.553C511.446 209.817 513.543 205.251 514.605 200.282C515.802 195.336 517.405 185.984 516.66 185.065C515.915 184.146 513.025 204.336 506.298 210.877C505.892 195.552 500.339 181.902 499.391 183.01C498.894 183.632 500.316 191.822 501.355 196.119C503.845 206.614 503 217.841 498.984 227.635C498.478 228.879 497.913 230.089 497.291 231.256C498.383 224.746 498.025 218.007 496.253 211.715C493.995 203.12 484.966 188.389 484.334 189.146C483.702 189.903 487.178 197.39 489.684 203.498C484.311 200.579 477.652 191.443 477.133 192.092C476.614 192.741 478.126 196.038 479.187 197.633C479.784 198.491 480.441 199.287 481.151 200.011C484.327 203.179 487.796 205.899 491.49 208.12C492.494 210.601 493.302 213.189 493.905 215.85C494.473 219.104 494.76 222.419 494.763 225.743C494.832 230.072 494.172 234.374 492.822 238.392C489.406 242.909 485.625 247.01 481.535 250.636C482.212 245.23 481.535 239.554 478.984 237.716C477.9 236.96 480.948 243.879 477.313 254.582C475.87 255.96 474.553 257.519 473.386 259.231C470.955 263.124 469.358 267.672 468.735 272.475C465.337 270.947 461.591 270.947 458.193 272.475H457.945C457.242 267.652 455.569 263.106 453.069 259.231C451.872 257.464 450.517 255.86 449.028 254.447C445.394 243.636 448.441 236.824 447.358 237.581C444.762 239.419 444.13 244.987 444.785 250.501C440.698 246.869 436.918 242.768 433.498 238.257C432.152 234.237 431.485 229.938 431.534 225.607C431.556 222.283 431.851 218.97 432.414 215.715C433.017 213.054 433.826 210.466 434.829 207.985C438.52 205.758 441.989 203.038 445.168 199.876C445.878 199.152 446.535 198.356 447.132 197.498C448.193 195.903 449.728 192.633 449.164 191.957C448.599 191.281 442.008 200.444 436.635 203.363C439.141 197.254 442.482 189.632 441.963 189.011C441.444 188.389 432.414 202.985 430.066 211.58C428.299 217.872 427.934 224.608 429.005 231.121C428.418 229.959 427.832 228.743 427.312 227.5C423.334 217.689 422.53 206.462 425.055 195.984C426.093 191.687 427.516 183.497 427.019 182.875C426.048 181.767 420.518 195.417 420.111 210.742C413.339 204.201 410.45 184.038 409.75 184.93C409.05 185.821 410.608 195.2 411.804 200.147C412.867 205.116 414.964 209.682 417.899 213.418C418.598 214.28 419.353 215.075 420.156 215.796C420.375 222.777 422.289 229.531 425.664 235.23C431.827 245.149 441.466 253.825 448.238 263.123C450.166 265.767 451.475 268.975 452.031 272.421C450.202 271.826 448.329 271.475 446.5 270.853C445.123 270.554 443.811 269.92 442.647 268.99C441.482 268.06 440.489 266.855 439.728 265.448C439.464 268.068 439.687 270.725 440.382 273.23C441.077 275.735 442.225 278.024 443.746 279.935C445.276 281.879 447.089 283.473 449.096 284.638C448.853 286.165 448.687 287.709 448.6 289.26C447.88 299.777 446.184 310.166 443.543 320.235C443.064 322.407 442.406 324.516 441.579 326.532C437.538 335.56 428.035 338.208 420.698 341.29L402.368 349.101C393.677 352.804 384.309 357.21 379.411 366.805C377.356 370.832 376.047 375.805 372.796 378.319C374.344 379.364 376.102 379.879 377.878 379.807C379.654 379.736 381.379 379.08 382.864 377.914C381.578 378.941 384.377 389.428 384.648 391.049C385.531 395.471 385.82 400.033 385.506 404.564C385.097 407.754 384.193 410.825 382.842 413.618C380.617 418.491 377.6 422.783 373.97 426.241C372.373 427.383 371.124 429.106 370.404 431.16C370.208 432.252 370.17 433.377 370.291 434.484C370.562 438.566 370.945 442.593 371.465 446.728C371.855 448.351 371.977 450.049 371.826 451.729C371.532 453.296 369.568 456.513 369.568 453.026C369.568 452.107 369.907 451.161 369.568 450.323L367.311 455.729V446.999C367.145 448.701 366.635 450.329 365.824 451.742C365.014 453.155 363.928 454.31 362.661 455.107C363.825 452.773 364.347 450.059 364.151 447.35C363.588 450.281 362.12 452.849 360.042 454.54C361.404 451.741 361.847 448.436 361.284 445.269C359.346 448.553 356.975 451.437 354.263 453.81C355.008 451.107 355.708 448.269 356.363 445.485C353.805 447.704 351.596 450.45 349.839 453.594C349.659 450.374 349.926 447.141 350.629 444.025C347.894 446.585 345.826 450.026 344.669 453.945C343.247 450.999 341.735 448.08 340.335 445.188C341.396 445.188 342.48 445.188 343.563 444.944C334.218 432.511 313.043 393.212 308.732 381.968C310.128 383.535 311.926 384.488 313.834 384.671C310.854 379.991 308.395 374.866 306.52 369.427C308.497 371.337 310.934 372.436 313.472 372.562C305.182 357.147 298.367 340.664 293.156 323.424C295.248 325.638 297.927 326.892 300.718 326.965L293.021 310.585C294.96 313.03 297.359 314.883 300.018 315.991C291.756 303.666 289.251 297.26 284.849 283.259L288.844 285.287C287.186 282.082 286.016 278.549 285.391 274.854L289.364 276.178C278.506 261.393 277.941 244.473 274.036 224.256C274.685 225.473 275.577 226.476 276.632 227.175C273.316 220.606 271.322 213.203 270.808 205.552C270.206 214.436 268.454 223.153 265.616 231.392C266.383 230.608 266.496 231.392 267.286 229.986C266.08 236.763 264.161 243.329 261.575 249.528C262.162 249.528 262.455 249.122 263.426 248.122C262.459 257.459 260.328 266.57 257.105 275.151C258.663 275.151 259.182 273.881 260.604 272.448C259.512 275.639 257.811 278.481 255.638 280.746C256.643 280.496 257.577 279.937 258.347 279.124C258.347 281.827 250.649 306.288 243.426 325.235C244.502 325.255 245.557 324.876 246.446 324.151C247.335 323.425 248.015 322.387 248.392 321.181C246.68 329.704 243.731 337.8 239.678 345.101C242.834 344.091 245.665 341.973 247.805 339.019C245.712 348.212 242.838 357.124 239.227 365.615C235.818 356.939 233.132 349.615 231.845 345.317C233.181 347.347 235.124 348.675 237.263 349.02C234.048 342.353 231.473 335.271 229.588 327.911C231.465 330.415 234.077 331.954 236.879 332.208C228.595 313.64 220.175 285.962 215.163 264.988C218.03 267.961 219.678 269.691 223.222 269.826L214.915 247.852C216.832 251.025 219.397 253.556 222.364 255.204C213.583 238.338 210.919 229.581 206.224 210.39L210.49 213.093C208.674 208.583 207.434 203.773 206.811 198.822L211.032 200.633C199.497 180.362 198.888 157.225 194.711 129.521C195.355 131.11 196.307 132.491 197.488 133.548C193.877 124.194 191.779 114.106 191.303 103.817C191.303 110.979 188.3 131.953 185.772 139.17C186.585 138.116 186.698 139.17 187.533 137.278C186.284 146.424 184.249 155.391 181.46 164.036C182.093 164.036 182.409 163.442 183.424 162.09C182.428 174.69 180.154 187.097 176.652 199.038C178.323 199.038 178.91 197.309 180.377 195.335C179.301 199.529 177.501 203.406 175.095 206.715C176.206 206.315 177.2 205.546 177.962 204.498C177.962 208.174 169.79 241.662 162.16 267.61C163.428 267.503 164.632 266.9 165.587 265.894C166.541 264.888 167.193 263.535 167.442 262.042C165.696 273.44 162.578 284.474 158.187 294.801C161.745 293.219 164.779 290.298 166.833 286.476C164.856 297.678 162.17 308.683 158.796 319.397C156.268 312.775 154.282 307.234 153.198 303.504C154.865 306.049 157.294 307.717 159.97 308.153C155.895 299.865 152.616 291.052 150.196 281.881C152.586 285.055 155.913 286.993 159.474 287.287C149.044 263.907 138.457 229.094 132.159 202.687C135.748 206.444 137.712 208.634 142.295 208.796C138.818 199.588 135.327 190.371 131.821 181.145C134.239 185.149 137.482 188.333 141.234 190.389C130.15 169.172 126.809 158.144 120.917 134.035L126.335 137.602C124.068 131.923 122.509 125.876 121.708 119.655L127.035 121.899C112.497 96.438 111.752 67.3282 106.493 32.4613C107.286 34.478 108.47 36.2386 109.947 37.5968C105.138 26.5691 103.174 12.8926 102.159 0.270302C102.159 9.24379 98.3661 35.6507 95.2058 44.7323C96.2216 43.4079 96.3796 44.7323 97.4632 42.3268C95.9002 53.8385 93.3431 65.1249 89.8332 76.0043C90.6233 76.0043 91.0071 75.2476 92.2938 73.5718C91.064 89.4119 88.229 105.014 83.8511 120.034C85.9505 120.034 86.6503 117.872 88.5239 115.385C87.1741 120.664 84.9131 125.544 81.8872 129.71C83.2912 129.248 84.5535 128.309 85.5216 127.007C85.341 131.656 75.2279 173.794 65.5437 206.417C67.1363 206.281 68.6482 205.526 69.85 204.268C71.0518 203.009 71.8779 201.315 72.203 199.444C70.0114 213.77 66.0875 227.637 60.5549 240.608C65.0225 238.631 68.833 234.969 71.4129 230.175C65.9049 262.177 56.0853 288.071 44.7306 318.775C49.9511 316.387 54.6901 312.702 58.6361 307.964C56.7625 310.153 55.6112 317.288 54.5503 320.397C53.0453 324.757 51.4652 329.064 49.8098 333.316C46.6268 341.641 43.1956 349.831 39.7192 357.966C32.9471 373.859 27.0779 389.779 19.8543 405.456C22.0401 403.278 24.4078 401.376 26.9199 399.78C25.1136 406.723 22.849 413.483 20.1477 419.997C5.70044 420.619 -9.1983 421.484 -25 422.7C-19.7854 504.921 -16.3994 555.626 -11.2074 637.874L-38 749.5C-27.5 971.5 1565.5 906.717 1689 900.5C1798 982.5 1951.5 802.152 1970.71 749.5C1977.78 729.742 1974.91 554.842 1970.71 534.139ZM450.225 407.888C451.038 404.598 452.214 401.453 453.724 398.536C454.062 398.497 454.402 398.497 454.74 398.536C456.162 398.888 456.342 399.888 456.749 401.563C457.541 405.567 457.943 409.666 457.945 413.78C458.058 417.781 458.193 421.889 458.329 425.808C458.408 427.026 458.363 428.252 458.193 429.457C457.903 430.823 457.422 432.12 456.771 433.295C455.182 436.433 453.271 439.321 451.083 441.89C450.135 443.025 449.119 444.107 448.238 445.323C448.419 438.674 448.08 416.754 450.225 407.888ZM66.4693 413.564V414.105C66.2209 413.348 65.9501 412.591 65.6792 411.834L66.7627 411.186C66.6417 411.937 66.5513 412.694 66.4918 413.456L66.4693 413.564ZM74.5958 415.24C74.3252 414.971 74.0688 414.682 73.8283 414.375L74.4152 413.97C74.4152 414.132 74.641 414.294 74.7539 414.456C74.7201 414.684 74.6749 414.91 74.6184 415.132L74.5958 415.24ZM324.398 442.485L324.263 442.16H324.669L324.398 442.485ZM335.03 447.89C334.722 448.265 334.336 448.536 333.911 448.673C333.487 448.811 333.04 448.811 332.615 448.674C332.157 447.999 331.86 447.187 331.757 446.325C331.653 445.464 331.747 444.585 332.028 443.782L335.414 444.35C335.414 444.782 335.414 445.242 335.414 445.647C335.506 446.4 335.37 447.166 335.03 447.809V447.89ZM404.016 461.648C404.016 461.999 403.881 462.378 403.79 462.756L401.533 454.918C400.584 456.475 399.824 458.186 399.276 459.999L400.224 448.863C400.151 450.592 399.719 452.272 398.966 453.749C398.213 455.227 397.163 456.456 395.912 457.323C397.384 454.957 398.472 452.279 399.118 449.431C396.596 452.721 393.745 455.626 390.63 458.08C391.545 456.872 392.244 455.453 392.687 453.91C393.129 452.368 393.305 450.733 393.203 449.107C392.046 452.168 390.25 454.821 387.989 456.81C388.848 454.39 389.115 451.728 388.756 449.134L386.16 454.54C386.16 453.053 386.16 451.566 386.16 450.08C385.37 451.323 384.557 452.566 383.745 453.783L383.316 449.431C383.045 450.861 382.636 452.249 382.097 453.566C382.097 453.81 381.826 454.107 381.6 454.161C381.404 454.156 381.218 454.059 381.081 453.891C376.905 450.134 377.334 443.539 377.514 437.674C377.695 436.291 378.147 434.979 378.834 433.847C379.521 432.714 380.423 431.793 381.465 431.16C383.688 429.319 385.759 427.228 387.65 424.916C389.544 422.36 391.557 419.933 393.677 417.645C395.526 415.987 397.456 414.461 399.456 413.078L399.75 412.834C398.658 416.556 397.179 420.097 395.348 423.376C394.618 424.398 394.161 425.66 394.038 426.997C394.168 428.3 394.625 429.525 395.348 430.511C397.59 434.421 399.396 438.664 400.72 443.133C402.684 449.026 405.077 455.08 404.016 461.567V461.648ZM427.199 464.918V465.162C427.13 462.212 427.358 459.262 427.877 456.377C426.24 458.805 424.958 461.547 424.084 464.486C423.738 463.732 423.557 462.886 423.557 462.026C423.557 461.166 423.738 460.32 424.084 459.567C424.768 458.038 425.168 456.351 425.258 454.621C423.033 457.189 421.34 460.346 420.314 463.837C419.935 461.191 418.887 458.748 417.312 456.837C417.91 459.168 417.798 461.677 416.996 463.918C416.328 461.539 414.933 459.55 413.091 458.351C409.434 456.026 409.434 451.35 408.712 446.647C408.215 443.431 407.38 440.322 406.635 437.214C405.728 434.708 405.671 431.877 406.477 429.322C407.192 428.019 408.16 426.943 409.298 426.186C416.071 420.646 423.046 414.591 427.087 405.807C427.781 404.287 428.378 402.706 428.87 401.077C430.507 401.738 431.965 402.914 433.091 404.483C433.882 405.899 434.455 407.474 434.784 409.131C437.175 418.953 438.874 428.998 439.863 439.16C440.721 448.08 442.279 455.702 440.45 464.837C440.315 465.459 440.021 466.243 439.502 466.189C438.983 466.135 438.78 465.378 438.712 464.729C438.419 461.969 438.328 459.184 438.441 456.405C436.521 458.878 435.168 461.904 434.513 465.189L435.394 455.837C433.783 458.539 432.618 461.585 431.963 464.81C431.354 460.671 430.401 456.614 429.118 452.702C429.531 456.887 428.861 461.122 427.199 464.837V464.918ZM573.004 454.945C573.681 449.08 575.871 442.62 580.408 440.89C582.828 440.247 585.344 440.349 587.722 441.187C597.971 443.674 602.982 446.161 611.357 448.674C612.696 454.142 615.12 459.141 618.423 463.243C620.432 465.946 622.463 468.838 624.563 471.513C625.294 472.282 625.827 473.286 626.098 474.405C626.207 475.084 626.207 475.781 626.098 476.46C625.15 482.217 621.583 486.244 619.326 491.217C617.068 496.19 612.282 499.785 609.98 505.029C611.039 502.617 611.763 500.016 612.124 497.326C610.198 499.841 608.461 502.554 606.932 505.434C607.361 502.596 607.768 499.758 608.197 496.92C606.116 499.321 604.425 502.162 603.208 505.299C603.348 501.418 603.941 497.578 604.969 493.893C602.814 495.847 601.029 498.325 599.731 501.164L601.221 493.65C598.901 496.278 596.97 499.358 595.51 502.759C596.761 500.01 597.384 496.914 597.316 493.785C596.178 497.672 593.834 500.886 590.77 502.759C593.095 499.982 594.669 496.431 595.284 492.569C593.136 496.871 589.948 500.292 586.142 502.38L591.086 491.325C588.532 493.67 586.16 496.284 583.997 499.137C584.993 496.729 585.875 494.257 586.639 491.731L581.153 500.245C581.126 497.308 581.469 494.383 582.169 491.569C581.022 494.348 579.408 496.814 577.428 498.812C577.121 497.387 577.067 495.899 577.269 494.447C577.471 492.994 577.926 491.609 578.602 490.379C576.73 492.084 575.348 494.446 574.652 497.136C573.207 490.406 573.455 483.109 573.049 476.216C572.424 469.147 572.409 462.019 573.004 454.945ZM550.995 468.459C552.214 465.162 553.5 461.891 554.855 458.648C555.351 457.486 559.369 449.972 559.144 449.134C559.844 450.719 560.448 452.363 560.95 454.053C564.565 465.958 566.348 478.55 566.209 491.217C566.219 492.431 566.027 493.634 565.645 494.758C565.4 495.348 565.04 495.86 564.597 496.25C564.153 496.64 563.638 496.898 563.094 497.001C563.989 494.438 564.201 491.606 563.704 488.893C562.724 491.708 561.433 494.354 559.866 496.758C560.106 493.152 560 489.524 559.55 485.947C559.099 489.538 557.807 492.902 555.825 495.65C555.941 492.2 556.435 488.783 557.293 485.487C555.229 488.063 553.685 491.169 552.778 494.569C553.071 491.866 553.387 489.163 553.681 486.271C551.754 488.43 550.618 491.412 550.52 494.569C549.456 492.489 548.757 490.172 548.466 487.758C547.832 489.915 547.586 492.208 547.744 494.488C543.161 486.568 548.286 475.784 550.995 468.351V468.459ZM644.947 483.568C644.36 488.936 643.393 494.235 642.057 499.407C641.403 501.893 641.538 503.38 639.597 504.813L639.868 503.975C638.995 504.566 638.151 505.216 637.339 505.921C636.476 506.249 635.631 506.647 634.811 507.11C635.181 505.535 635.768 504.046 636.549 502.704C634.172 504.387 632.21 506.793 630.861 509.678C631.313 506.566 631.244 503.378 630.658 500.299C630.337 502.458 629.484 504.454 628.209 506.029C626.934 507.604 625.294 508.686 623.502 509.137C624.314 507.029 626.572 506.029 627.023 503.731C624.558 505.545 621.807 506.732 618.942 507.218C620.015 505.21 621.384 503.452 622.982 502.029C620.848 502.977 618.817 504.23 616.933 505.759C619.958 501.672 622.719 497.317 625.195 492.731C627.622 488.746 630.433 485.117 633.57 481.919C634.214 481.383 634.759 480.693 635.17 479.893C635.582 479.094 635.852 478.201 635.962 477.271C635.898 476.323 635.667 475.402 635.285 474.568C634.382 472.243 633.457 469.865 632.599 467.432C634.983 469.783 637.528 471.889 640.206 473.73C642.157 474.719 643.755 476.499 644.721 478.757C645.117 480.316 645.195 481.966 644.947 483.568ZM1531.54 374.535C1531.4 374.048 1531.29 373.535 1531.17 373.048L1531.99 372.427L1532.26 372.697L1531.54 374.535ZM1610.77 318.234C1610.59 317.207 1610.43 316.18 1610.27 315.153L1610.59 314.91C1610.82 315.401 1611.1 315.855 1611.42 316.261L1610.77 318.234ZM1718.04 306.693C1717.72 305.855 1717.45 305.017 1717.14 304.18C1718.2 303.46 1719.17 302.549 1720 301.477C1719.46 303.071 1718.81 304.801 1718.02 306.747L1718.04 306.693Z" fill="url(#paint0_linear_189_652)"/>
<defs>
<linearGradient id="paint0_linear_189_652" x1="974.954" y1="678.525" x2="974.954" y2="0.0811195" gradientUnits="userSpaceOnUse">
<stop offset="0.05" stop-color="#063347"/>
<stop offset="0.39" stop-color="#0B414E"/>
<stop offset="0.99" stop-color="#196461"/>
</linearGradient>
</defs>
</svg>
