<svg xmlns="http://www.w3.org/2000/svg" width="1495" height="407" viewBox="0 0 1495 407" fill="none">
  <path d="M1133.3 224.424C1117.94 224.578 1102.59 224.981 1087.23 225.633C1061.28 226.728 1035.2 228.513 1009.42 225.25C990.724 222.888 972.451 217.898 954.235 212.926C922.085 204.154 884.982 185.246 875.539 186.916C866.095 188.586 805.211 217.399 789.741 217.399C774.27 217.399 702.33 188.605 673.903 181.196C599.084 161.424 523.458 143.668 452.862 110.613C422.381 96.3314 392.074 80.3798 359.194 74.1412C339.673 70.4748 319.02 70.1485 301.4 60.7042C290.133 54.6384 280.92 45.2325 271.035 36.94C252.398 21.2753 230.881 9.40127 207.693 1.98463C204.184 0.544552 200.349 0.0866883 196.599 0.660124C192.261 1.69669 188.921 5.20952 185.87 8.56876C106.156 95.6404 26.9794 187.396 -33.1371 290.592C-36.2849 295.966 -39.4136 302.743 -36.4385 308.213C-34.116 312.456 -29.0679 313.972 -24.5189 315.066C73.8902 338.331 177.194 326.065 276.486 344.8C328.003 354.532 377.755 372.461 428.869 384.286C509.485 402.944 592.654 406.169 675.247 406.687C901.507 408.091 1127.46 389.773 1350.54 351.941C1372.82 348.102 1395.9 340.424 1418.31 338.907C1437.51 337.602 1454.44 342.746 1473 332.477C1488.53 323.915 1499.56 303.683 1492.31 286.964C1489.03 279.42 1482.71 273.834 1475.88 269.438C1457.03 257.172 1434.67 252.411 1412.77 248.323C1320.59 231.412 1227.01 223.409 1133.3 224.424Z" fill="url(#paint0_linear_189_378)"/>
  <defs>
    <linearGradient id="paint0_linear_189_378" x1="703.405" y1="444.157" x2="764.144" y2="99.6154" gradientUnits="userSpaceOnUse">
      <stop offset="0.37" stop-color="#F4FFF1"/>
      <stop offset="0.51" stop-color="#EBFFEE"/>
      <stop offset="0.74" stop-color="#D4FFE5"/>
      <stop offset="0.89" stop-color="#C2FFDE"/>
    </linearGradient>
  </defs>
</svg>