<svg width="4033" height="1460" viewBox="0 0 4033 1460" fill="none" xmlns="http://www.w3.org/2000/svg">
<path d="M1351.06 642.063C1342.44 637.196 1337 634.031 1334.77 632.568C1302.73 611.579 1290.85 573.097 1294.71 536.484C1296.11 523.247 1299.18 510.309 1303.92 497.67C1305.39 493.763 1307.09 489.369 1309.04 484.489C1309.9 482.318 1311.52 478.923 1313.89 474.304C1318.6 466.241 1322.57 460.207 1325.79 456.199C1337.82 441.221 1352.23 426.776 1368.13 415.979C1378.18 409.145 1388.66 403.121 1399.56 397.907C1404.55 395.519 1409.4 393.544 1414.11 391.981C1434.34 385.29 1454.95 381.04 1475.96 379.229C1481.87 378.717 1487.74 378.485 1493.57 378.532C1494.28 378.537 1494.33 378.717 1493.71 379.073C1484.53 384.37 1476.32 389.597 1469.07 394.755C1462.1 399.709 1456.01 405.422 1450.81 411.895C1447.19 416.411 1444.48 421.521 1442.7 427.226C1439.8 436.512 1438.2 446.014 1438.78 455.958C1438.99 459.67 1439.61 463.973 1440.64 468.866C1442.17 476.147 1443.37 483.877 1444.99 491.164C1446.93 499.911 1449.29 508.748 1450.27 517.461C1451.15 525.333 1450.99 533.38 1449.81 541.603C1449.23 545.601 1448.39 549.244 1447.26 552.531C1443.58 563.283 1438.63 574.204 1431.87 583.484C1426.04 591.49 1419.83 599.12 1413.25 606.375C1401.43 619.4 1387.39 629.492 1371.13 636.651C1364.42 639.608 1357.73 641.412 1351.06 642.063Z" fill="#FFA218"/>
<path d="M1313.89 474.304C1311.52 478.923 1309.9 482.318 1309.03 484.489C1307.09 489.369 1305.39 493.763 1303.92 497.67C1299.18 510.309 1296.11 523.247 1294.71 536.484C1290.84 573.097 1302.73 611.579 1334.77 632.568C1337 634.031 1342.43 637.196 1351.06 642.063C1347.36 642.918 1343.81 643.342 1340.41 643.333C1332.93 643.307 1327.2 643.023 1323.23 642.48C1321.16 642.193 1317.6 641.503 1312.56 640.409C1308.2 639.462 1304.69 638.579 1302.04 637.758C1281.77 631.493 1265.18 619.888 1252.28 602.943C1250.97 601.22 1248.3 597.397 1244.27 591.475C1238.16 582.47 1234.13 572.502 1232.21 561.57C1230.24 550.388 1229.89 539.2 1231.59 528.116C1233.92 512.955 1239.14 498.326 1247.24 484.229C1250.76 478.107 1254.43 472.005 1258.89 466.476C1261.55 463.194 1264.17 460.083 1266.76 457.144C1269.07 454.534 1271.95 451.745 1275.42 448.775C1280.42 444.499 1285.35 440.316 1290.19 436.226C1294.87 432.275 1299.73 428.715 1304.77 425.545C1305.02 425.389 1305.08 425.441 1304.93 425.702C1302.04 430.951 1300.06 435.972 1298.99 440.765C1298.04 445.002 1297.91 448.951 1298.59 452.611C1300.35 462.08 1306.07 468.866 1313.89 474.304Z" fill="#FF8D24"/>
<path d="M1335.8 713.491C1340.36 703.783 1345.23 694.319 1350.42 685.097C1350.54 684.876 1350.48 684.787 1350.23 684.83C1341.34 686.297 1332.13 686.143 1322.57 684.368C1305.02 681.098 1289.43 674.438 1275.83 664.388C1275.04 663.808 1274.3 663.131 1273.54 662.505C1273.25 662.262 1273.18 662.317 1273.32 662.668L1280.71 680.779C1282 684.344 1283.21 687.734 1284.34 690.952C1293.74 717.765 1301.2 744.664 1306.72 771.647C1307.57 775.797 1308.42 780.054 1309.27 784.418C1316.01 818.938 1319.92 854.309 1321 890.531C1321.3 900.681 1321.24 911.21 1320.8 922.116C1320.53 929.088 1320.43 935.18 1320.5 940.389C1320.67 951.806 1319.12 965.645 1317.17 978.207C1313.61 1001 1306.84 1022.79 1296.86 1043.55C1288.2 1061.56 1276.85 1078.25 1261.87 1091.11C1256.5 1095.72 1250.65 1099.24 1244.31 1101.67C1242.18 1102.49 1240 1102.92 1237.8 1102.98C1229.41 1103.19 1222.26 1101.02 1216.37 1096.44C1211.49 1092.65 1207.48 1087.64 1204.34 1081.4C1200.06 1072.9 1196.98 1063.98 1195.11 1054.62C1192.63 1042.17 1191.28 1029.58 1191.07 1016.87C1190.85 1003.74 1191.55 990.654 1193.15 977.621C1196.13 953.516 1201.25 928.995 1208.51 904.057C1213.43 887.19 1217.29 874.393 1220.11 865.666C1226.02 847.358 1233.01 828.511 1241.07 809.126C1248.17 792.037 1256.54 776.003 1265.5 759.097C1265.88 758.39 1266.29 757.712 1266.75 757.065C1266.85 756.916 1266.99 756.795 1267.15 756.712C1267.32 756.63 1267.5 756.588 1267.68 756.59C1267.86 756.593 1268.04 756.64 1268.2 756.727C1268.36 756.815 1268.5 756.94 1268.6 757.091C1268.93 757.591 1268.99 758.22 1268.79 758.98C1267.86 762.38 1266.95 765.571 1266.04 768.553C1260.47 786.953 1255.01 805.739 1249.66 824.912C1245.65 839.311 1240.83 854.602 1236.91 869.808C1230.92 892.988 1225.54 916.209 1220.77 939.471C1218.81 949.044 1217.25 959.024 1216.09 969.409C1215.71 972.925 1215.28 976.698 1214.81 980.727C1213.15 994.955 1212.64 1009.34 1213.27 1023.87C1213.51 1029.52 1214.09 1035.65 1215.01 1042.27C1216.52 1053.13 1219.14 1064.23 1223.85 1074.08C1226.37 1079.35 1229.35 1082.46 1235.47 1083.34C1239.21 1083.86 1242.31 1082.04 1245.46 1079.71C1246.69 1078.8 1247.55 1078.05 1248.04 1077.48C1249.44 1076.58 1250.7 1075.52 1251.81 1074.32C1257.5 1068.12 1262.44 1060.99 1266.62 1052.93C1273.83 1039.05 1279.64 1024.85 1284.04 1010.35C1287.86 997.764 1290.62 986.037 1292.32 975.166C1295.14 957.2 1297.13 938.592 1298.31 919.341C1298.69 913.046 1298.82 906.482 1298.69 899.648C1298.5 889.271 1298.26 878.784 1297.98 868.186C1297.41 846.676 1295.2 824.098 1292.02 797.996C1291.47 793.463 1290.83 789.2 1290.11 785.206C1287.73 772.059 1285.04 758.757 1282.04 745.298C1280.43 738.064 1278.14 729.655 1275.16 720.069C1271.34 707.747 1267.97 697.751 1265.06 690.079C1260.75 678.708 1256.29 667.114 1251.71 655.296C1250.3 651.649 1248.93 648.276 1247.59 645.176C1245.39 640.031 1243.67 635.7 1241.64 629.957C1240.28 626.071 1238.76 622.224 1237.1 618.417L1228.94 595.864C1228.73 595.291 1228.81 595.252 1229.16 595.747C1238.14 608.225 1248.34 619.88 1259.75 630.712C1271.22 641.607 1283.5 651.057 1298.24 656.013C1313.86 661.268 1331.44 663.476 1347.99 660.252C1358.55 658.199 1368.82 655.222 1378.81 651.324C1380.45 650.679 1382.74 649.793 1384.48 650.588C1389.71 652.991 1387.04 658.298 1384.51 661.548C1377.62 670.379 1370.89 678.871 1364.35 687.943C1356.11 699.366 1349.48 708.754 1344.48 716.109C1337.76 725.969 1332.35 736.408 1326.96 747.03C1326.87 747.199 1326.74 747.337 1326.57 747.426C1326.41 747.514 1326.21 747.549 1326.03 747.525C1325.6 747.473 1325.35 747.247 1325.26 746.848C1325.21 746.578 1325.21 746.294 1325.28 745.994C1326.69 739.447 1328.21 733.788 1329.84 729.017C1331.33 724.645 1333.31 719.469 1335.8 713.491Z" fill="white"/>
<path d="M1237.1 618.417C1238.77 622.224 1240.28 626.071 1241.64 629.957C1243.67 635.701 1245.39 640.031 1247.6 645.176C1248.93 648.276 1250.3 651.649 1251.71 655.296C1256.3 667.114 1260.75 678.708 1265.06 690.079C1267.98 697.751 1271.34 707.747 1275.16 720.069C1278.14 729.655 1280.43 738.065 1282.04 745.298C1285.04 758.757 1287.73 772.059 1290.11 785.206C1290.84 789.2 1291.47 793.463 1292.03 797.996C1295.2 824.098 1297.41 846.676 1297.98 868.187C1298.27 878.784 1298.5 889.272 1298.69 899.648C1298.82 906.482 1298.69 913.046 1298.31 919.341C1297.13 938.592 1295.14 957.2 1292.32 975.166C1290.62 986.037 1287.86 997.764 1284.04 1010.35C1279.64 1024.85 1273.83 1039.05 1266.63 1052.93C1262.44 1060.99 1257.5 1068.12 1251.81 1074.32C1250.7 1075.52 1249.45 1076.58 1248.04 1077.48C1248.62 1076.26 1249.11 1075.16 1249.53 1074.19C1259.53 1050.7 1266.77 1026.3 1271.25 1000.99C1271.99 996.828 1272.73 992.549 1273.47 988.151C1278.11 960.634 1281.02 933.267 1282.2 906.05C1282.39 901.712 1282.35 897.297 1282.46 892.908C1282.68 884.435 1282.42 874.946 1282.34 866.109C1282.28 860.192 1282.16 854.276 1281.96 848.363C1281.75 842.107 1281.53 836.463 1281.29 831.431C1280.18 808.459 1277.86 785.768 1274.34 763.357C1271.18 743.229 1267.64 725.763 1263.71 710.958C1260.72 699.652 1257.75 688.874 1254.47 677.849C1250.89 665.775 1247.2 653.165 1243.39 640.018C1241.32 632.876 1239.23 625.676 1237.1 618.417Z" fill="#2C2C2C"/>
<path d="M1335.8 713.491L1339.33 695.875C1339.36 695.732 1339.3 695.664 1339.15 695.673C1331.32 696.146 1323.68 695.651 1316.22 694.188C1312.31 693.42 1308.15 692.267 1303.74 690.73C1295.99 688.03 1288.31 684.713 1280.71 680.779L1273.32 662.668C1273.18 662.317 1273.25 662.262 1273.54 662.506C1274.3 663.131 1275.04 663.808 1275.83 664.388C1289.43 674.438 1305.02 681.098 1322.57 684.368C1332.13 686.143 1341.34 686.297 1350.23 684.83C1350.48 684.787 1350.54 684.876 1350.42 685.097C1345.23 694.319 1340.36 703.783 1335.8 713.491Z" fill="#2C2C2C"/>
<path d="M1481.87 849.073C1479.52 849.073 1477.48 848.43 1475.77 847.146C1474.06 845.861 1472.77 844.63 1471.91 843.452C1470.31 841.31 1468.92 838.527 1467.74 835.101C1466.67 831.675 1465.76 827.927 1465.01 823.859C1464.26 819.79 1463.62 815.615 1463.08 811.332C1462.65 806.942 1462.28 802.713 1461.96 798.645C1461.74 794.469 1461.58 790.615 1461.48 787.081C1461.48 783.441 1461.48 780.443 1461.48 778.088C1461.48 774.983 1461.53 772.253 1461.64 769.897C1461.74 767.542 1461.8 765.507 1461.8 763.794C1461.8 759.619 1461.05 757.531 1459.55 757.531C1458.05 757.531 1456.12 758.548 1453.77 760.582C1451.41 762.51 1448.84 765.24 1446.06 768.773C1443.38 772.306 1440.6 776.482 1437.71 781.3C1434.92 786.118 1432.25 791.364 1429.68 797.039C1427.11 802.606 1424.81 808.495 1422.77 814.704C1420.74 820.914 1419.18 827.178 1418.11 833.495C1417.9 834.887 1417.52 836.493 1416.99 838.313C1416.45 840.026 1415.54 841.685 1414.26 843.291C1412.97 844.79 1411.21 846.075 1408.96 847.146C1406.82 848.216 1403.98 848.752 1400.45 848.752C1398.2 848.752 1396.27 848.323 1394.67 847.467C1393.17 846.503 1391.88 845.325 1390.81 843.934C1389.74 842.435 1388.88 840.775 1388.24 838.955C1387.6 837.135 1387.06 835.261 1386.64 833.334C1386.31 832.049 1385.83 829.051 1385.19 824.34C1384.66 819.63 1384.01 814.169 1383.26 807.959C1382.62 801.749 1381.93 795.165 1381.18 788.206C1380.43 781.246 1379.73 774.876 1379.09 769.094C1378.45 763.313 1377.91 758.548 1377.48 754.801C1377.16 750.946 1377 748.966 1377 748.859C1377 747.467 1377.32 746.182 1377.96 745.004C1378.71 743.827 1379.68 742.809 1380.85 741.953C1382.03 741.096 1383.37 740.454 1384.87 740.026C1386.37 739.597 1387.92 739.383 1389.53 739.383C1392.1 739.383 1394.45 740.079 1396.59 741.471C1398.84 742.756 1400.23 744.897 1400.77 747.895C1401.52 751.321 1402 754.319 1402.21 756.889C1402.43 759.351 1402.54 761.6 1402.54 763.634L1402.37 771.985C1402.37 773.591 1402.75 776.696 1403.5 781.3C1404.25 785.904 1405.05 791.685 1405.91 798.645C1406.01 799.18 1406.28 799.662 1406.71 800.09C1407.25 800.411 1407.67 800.839 1408 801.375C1408.75 801.161 1409.12 801.054 1409.12 801.054C1410.73 798.056 1412.71 794.201 1415.06 789.49C1417.42 784.779 1420.04 779.801 1422.93 774.555C1425.93 769.308 1429.19 764.062 1432.73 758.816C1436.37 753.57 1440.17 748.859 1444.13 744.683C1448.2 740.4 1452.48 736.974 1456.98 734.405C1461.48 731.728 1466.13 730.39 1470.95 730.39C1475.13 730.39 1478.12 732.156 1479.94 735.69C1481.76 739.223 1482.94 743.88 1483.48 749.662C1484.12 755.336 1484.33 761.76 1484.12 768.934C1484.01 776.107 1484.12 783.334 1484.44 790.615C1484.76 797.895 1485.51 804.854 1486.69 811.493C1487.97 818.131 1490.28 823.805 1493.6 828.516C1495.95 831.835 1497.13 835.047 1497.13 838.152C1497.13 841.257 1495.84 843.88 1493.27 846.021C1490.81 848.056 1487.01 849.073 1481.87 849.073ZM1528.24 854.694C1521.82 854.587 1516.68 853.355 1512.83 851C1508.97 848.752 1506.08 845.914 1504.15 842.488C1502.12 839.062 1500.83 835.422 1500.3 831.567C1499.66 827.606 1499.34 823.966 1499.34 820.647C1499.34 818.612 1499.71 815.829 1500.46 812.296C1501.21 808.655 1502.39 804.747 1503.99 800.572C1505.6 796.289 1507.63 791.846 1510.1 787.242C1512.56 782.531 1515.45 778.088 1518.77 773.912C1521.12 770.914 1524.23 767.488 1528.08 763.634C1531.94 759.672 1536.17 755.657 1540.77 751.589C1545.48 747.52 1550.46 743.559 1555.71 739.704C1561.06 735.743 1566.36 732.21 1571.61 729.105C1576.85 726 1581.94 723.537 1586.86 721.717C1591.89 719.79 1596.5 718.827 1600.67 718.827C1602.17 718.827 1603.56 718.987 1604.85 719.308C1607.31 721.45 1609.03 723.645 1609.99 725.893C1610.95 728.141 1611.43 730.39 1611.43 732.638C1611.43 735.101 1611.01 737.51 1610.15 739.865C1609.4 742.113 1608.44 744.415 1607.26 746.771C1603.83 749.555 1600.51 750.946 1597.3 750.946C1595.16 750.946 1593.07 750.358 1591.04 749.18C1589.11 748.002 1587.24 746.343 1585.42 744.201C1581.67 745.593 1577.87 747.627 1574.01 750.304C1570.16 752.981 1566.31 755.979 1562.45 759.298C1558.6 762.617 1554.8 766.15 1551.05 769.897C1547.3 773.537 1543.66 777.124 1540.13 780.657C1538.41 782.263 1536.49 784.726 1534.35 788.045C1532.31 791.257 1530.33 794.683 1528.4 798.323C1526.58 801.964 1525.03 805.497 1523.75 808.923C1522.46 812.242 1521.82 814.865 1521.82 816.792C1521.82 820.004 1522.62 822.574 1524.23 824.501C1525.83 826.321 1527.82 827.767 1530.17 828.837C1532.63 829.801 1535.2 830.443 1537.88 830.764C1540.66 831.086 1543.13 831.246 1545.27 831.246C1548.8 831.246 1552.12 830.818 1555.22 829.961C1558.44 829.105 1561.17 828.248 1563.41 827.392C1571.66 824.287 1579.21 820.593 1586.06 816.31C1592.91 812.028 1599.6 807.156 1606.13 801.696C1608.17 799.983 1610.36 798.966 1612.72 798.645C1615.18 798.323 1617.54 797.627 1619.79 796.557C1621.28 797.949 1622.35 799.34 1623 800.732C1623.64 802.017 1623.96 803.355 1623.96 804.747C1623.96 806.675 1623.53 808.548 1622.68 810.368C1621.82 812.081 1621.12 813.794 1620.59 815.507C1612.88 822.788 1604.74 828.944 1596.18 833.976C1587.72 838.901 1579.47 842.916 1571.44 846.021C1563.41 849.126 1556.03 851.375 1549.28 852.767C1542.54 854.158 1537.13 854.854 1533.06 854.854L1528.24 854.694ZM1621.14 850.839C1618.36 850.839 1615.58 850.411 1612.79 849.555C1609.9 848.698 1607.28 847.52 1604.92 846.021C1602.46 844.415 1600.48 842.542 1598.98 840.4C1597.48 838.259 1596.73 835.85 1596.73 833.173C1596.73 827.392 1598.71 820.861 1602.67 813.58C1606.53 806.193 1611.61 798.698 1617.93 791.096C1624.35 783.388 1631.53 775.893 1639.45 768.612C1647.48 761.225 1655.62 754.694 1663.86 749.019C1672.11 743.238 1680.08 738.634 1687.79 735.208C1695.5 731.675 1702.19 729.908 1707.87 729.908C1710.65 729.908 1713.01 730.55 1714.93 731.835C1716.86 733.013 1718.41 734.512 1719.59 736.332C1720.77 738.045 1721.57 739.919 1722 741.953C1722.53 743.987 1722.8 745.807 1722.8 747.413C1722.8 749.555 1722.53 751.482 1722 753.195C1721.57 754.908 1721.14 756.353 1720.71 757.531C1723.5 761.493 1724.89 765.454 1724.89 769.415C1724.89 771.664 1724.52 773.752 1723.77 775.679C1723.77 778.784 1723.61 781.996 1723.28 785.315C1722.96 788.527 1722.8 791.899 1722.8 795.433C1723.12 801.428 1723.98 806.139 1725.37 809.565C1726.87 812.991 1728.42 815.722 1730.03 817.756C1731.64 819.79 1733.08 821.45 1734.37 822.734C1735.65 824.019 1736.29 825.518 1736.29 827.231C1736.29 828.195 1736.19 829.266 1735.97 830.443C1735.86 831.621 1735.6 832.745 1735.17 833.816C1734.85 834.887 1734.37 835.85 1733.72 836.707C1733.19 837.456 1732.44 837.884 1731.47 837.991C1729.98 838.313 1728.53 838.473 1727.14 838.473C1720.61 838.473 1715.2 835.154 1710.92 828.516C1706.74 821.878 1703.16 811.439 1700.16 797.199C1696.73 799.983 1692.82 803.623 1688.43 808.12C1684.15 812.617 1679.17 817.381 1673.5 822.413C1667.82 827.445 1661.29 832.37 1653.91 837.188C1646.62 842.006 1638.27 846.075 1628.85 849.394C1626.28 850.358 1623.71 850.839 1621.14 850.839ZM1633.35 824.822C1634.42 824.715 1636.45 823.859 1639.45 822.253C1642.56 820.647 1646.14 818.505 1650.21 815.829C1654.28 813.152 1658.62 810.154 1663.22 806.835C1667.82 803.409 1672.16 799.876 1676.23 796.236C1680.3 792.595 1683.88 788.955 1686.99 785.315C1690.09 781.675 1692.18 778.248 1693.25 775.036C1691.22 774.073 1689.34 773.109 1687.63 772.146C1686.03 771.075 1684.74 769.63 1683.78 767.809C1683.99 766.739 1684.37 765.775 1684.9 764.919C1685.54 764.062 1686.19 763.206 1686.83 762.349C1687.47 761.493 1688.01 760.582 1688.43 759.619C1688.97 758.655 1689.24 757.531 1689.24 756.246V755.925C1687.74 756.46 1686.4 756.889 1685.22 757.21C1684.15 757.531 1683.13 758.013 1682.17 758.655C1679.28 760.69 1675.91 763.259 1672.05 766.364C1668.31 769.362 1664.4 772.788 1660.33 776.642C1656.26 780.39 1652.25 784.405 1648.28 788.687C1644.32 792.863 1640.74 797.092 1637.52 801.375C1634.42 805.55 1631.9 809.672 1629.98 813.741C1628.05 817.702 1627.03 821.396 1626.92 824.822L1630.46 824.983L1633.35 824.822ZM1842.14 849.073C1839.79 849.073 1837.75 848.43 1836.04 847.146C1834.33 845.861 1833.04 844.63 1832.18 843.452C1830.58 841.31 1829.19 838.527 1828.01 835.101C1826.94 831.675 1826.03 827.927 1825.28 823.859C1824.53 819.79 1823.89 815.615 1823.35 811.332C1822.92 806.942 1822.55 802.713 1822.23 798.645C1822.01 794.469 1821.85 790.615 1821.74 787.081C1821.74 783.441 1821.74 780.443 1821.74 778.088C1821.74 774.983 1821.8 772.253 1821.91 769.897C1822.01 767.542 1822.07 765.507 1822.07 763.794C1822.07 759.619 1821.32 757.531 1819.82 757.531C1818.32 757.531 1816.39 758.548 1814.04 760.582C1811.68 762.51 1809.11 765.24 1806.33 768.773C1803.65 772.306 1800.87 776.482 1797.98 781.3C1795.19 786.118 1792.52 791.364 1789.95 797.039C1787.38 802.606 1785.07 808.495 1783.04 814.704C1781.01 820.914 1779.45 827.178 1778.38 833.495C1778.17 834.887 1777.79 836.493 1777.26 838.313C1776.72 840.026 1775.81 841.685 1774.53 843.291C1773.24 844.79 1771.48 846.075 1769.23 847.146C1767.09 848.216 1764.25 848.752 1760.72 848.752C1758.47 848.752 1756.54 848.323 1754.94 847.467C1753.44 846.503 1752.15 845.325 1751.08 843.934C1750.01 842.435 1749.15 840.775 1748.51 838.955C1747.87 837.135 1747.33 835.261 1746.91 833.334C1746.58 832.049 1746.1 829.051 1745.46 824.34C1744.92 819.63 1744.28 814.169 1743.53 807.959C1742.89 801.749 1742.19 795.165 1741.45 788.206C1740.7 781.246 1740 774.876 1739.36 769.094C1738.71 763.313 1738.18 758.548 1737.75 754.801C1737.43 750.946 1737.27 748.966 1737.27 748.859C1737.27 747.467 1737.59 746.182 1738.23 745.004C1738.98 743.827 1739.95 742.809 1741.12 741.953C1742.3 741.096 1743.64 740.454 1745.14 740.026C1746.64 739.597 1748.19 739.383 1749.8 739.383C1752.37 739.383 1754.72 740.079 1756.86 741.471C1759.11 742.756 1760.5 744.897 1761.04 747.895C1761.79 751.321 1762.27 754.319 1762.48 756.889C1762.7 759.351 1762.8 761.6 1762.8 763.634L1762.64 771.985C1762.64 773.591 1763.02 776.696 1763.77 781.3C1764.52 785.904 1765.32 791.685 1766.18 798.645C1766.28 799.18 1766.55 799.662 1766.98 800.09C1767.52 800.411 1767.94 800.839 1768.27 801.375C1769.01 801.161 1769.39 801.054 1769.39 801.054C1771 798.056 1772.98 794.201 1775.33 789.49C1777.69 784.779 1780.31 779.801 1783.2 774.555C1786.2 769.308 1789.46 764.062 1793 758.816C1796.64 753.57 1800.44 748.859 1804.4 744.683C1808.47 740.4 1812.75 736.974 1817.25 734.405C1821.74 731.728 1826.4 730.39 1831.22 730.39C1835.4 730.39 1838.39 732.156 1840.21 735.69C1842.03 739.223 1843.21 743.88 1843.75 749.662C1844.39 755.336 1844.6 761.76 1844.39 768.934C1844.28 776.107 1844.39 783.334 1844.71 790.615C1845.03 797.895 1845.78 804.854 1846.96 811.493C1848.24 818.131 1850.55 823.805 1853.86 828.516C1856.22 831.835 1857.4 835.047 1857.4 838.152C1857.4 841.257 1856.11 843.88 1853.54 846.021C1851.08 848.056 1847.28 849.073 1842.14 849.073ZM1966.21 850.518C1964.28 850.518 1962.14 849.929 1959.78 848.752C1957.43 847.467 1955.02 845.593 1952.56 843.131C1948.49 838.955 1945.27 834.084 1942.92 828.516C1940.56 822.949 1938.8 817.488 1937.62 812.135C1936.55 806.675 1935.85 801.749 1935.53 797.36C1935.32 792.97 1935.21 789.972 1935.21 788.366V787.242C1933.39 789.49 1931.73 791.578 1930.23 793.505C1928.95 795.218 1927.61 796.985 1926.22 798.805C1924.93 800.518 1923.97 801.964 1923.33 803.141C1922.36 804.747 1920.92 806.996 1918.99 809.887C1917.06 812.67 1914.76 815.722 1912.08 819.041C1909.41 822.253 1906.41 825.572 1903.09 828.998C1899.77 832.317 1896.24 835.368 1892.49 838.152C1888.85 840.829 1885 843.077 1880.93 844.897C1876.97 846.61 1873 847.467 1869.04 847.467H1868.08C1864.87 847.36 1862.24 846.289 1860.21 844.255C1858.18 842.113 1856.62 839.758 1855.55 837.188C1854.48 834.512 1853.79 831.996 1853.47 829.64C1853.04 827.285 1852.82 825.732 1852.82 824.983C1852.82 821.128 1853.95 816.846 1856.2 812.135C1858.44 807.317 1861.39 802.338 1865.03 797.199C1868.67 792.06 1872.79 786.921 1877.39 781.782C1882.11 776.642 1886.82 771.771 1891.53 767.167C1896.35 762.563 1901 758.441 1905.5 754.801C1910.1 751.054 1914.17 748.056 1917.71 745.807C1921.88 743.131 1925.63 741.203 1928.95 740.026C1932.27 738.848 1935.1 737.724 1937.46 736.653C1939.81 735.582 1941.69 734.244 1943.08 732.638C1944.58 731.032 1945.6 728.409 1946.13 724.769C1947.31 717.167 1948.49 710.743 1949.66 705.497C1950.84 700.251 1952.02 695.861 1953.2 692.328C1954.38 688.794 1955.55 685.957 1956.73 683.816C1957.91 681.675 1959.09 679.961 1960.26 678.677C1961.44 677.392 1962.67 676.375 1963.96 675.625C1965.24 674.769 1966.53 673.859 1967.81 672.895C1969.1 672.039 1970.38 671.396 1971.67 670.968C1973.06 670.54 1974.5 670.325 1976 670.325C1976.54 670.325 1977.02 670.325 1977.45 670.325C1977.98 670.325 1978.52 670.433 1979.05 670.647C1981.52 674.18 1982.75 677.82 1982.75 681.567C1982.75 685.101 1982.11 689.062 1980.82 693.452C1979.64 697.842 1978.3 702.285 1976.81 706.782C1975.31 711.171 1973.91 715.4 1972.63 719.469C1971.45 723.537 1970.86 727.017 1970.86 729.908C1970.86 731.193 1971.29 732.424 1972.15 733.602C1973.11 734.779 1974.08 735.957 1975.04 737.135C1976.11 738.313 1977.07 739.597 1977.93 740.989C1978.89 742.274 1979.38 743.773 1979.38 745.486C1979.38 746.557 1979.21 747.681 1978.89 748.859C1978.68 750.036 1978.3 751.268 1977.77 752.552L1962.51 758.013C1961.33 762.831 1960.48 767.381 1959.94 771.664C1959.41 775.946 1959.14 779.961 1959.14 783.709C1959.14 791.632 1960 798.377 1961.71 803.944C1963.42 809.512 1965.35 814.062 1967.49 817.595C1969.95 821.771 1972.79 825.197 1976 827.874C1979.32 830.872 1980.98 834.458 1980.98 838.634C1980.98 839.919 1980.82 841.096 1980.5 842.167C1979.96 844.737 1978.25 846.771 1975.36 848.27C1972.58 849.769 1969.53 850.518 1966.21 850.518ZM1883.18 818.238C1885 818.238 1887.24 817.221 1889.92 815.186C1892.6 813.152 1895.44 810.529 1898.43 807.317C1901.54 804.105 1904.64 800.572 1907.75 796.717C1910.96 792.756 1913.9 788.955 1916.58 785.315C1919.36 781.567 1921.77 778.195 1923.81 775.197C1925.95 772.199 1927.5 769.951 1928.47 768.452C1929 767.702 1929.64 767.06 1930.39 766.525C1931.14 765.989 1931.89 765.4 1932.64 764.758C1928.25 765.507 1923.33 767.488 1917.87 770.7C1913.15 773.484 1907.59 777.767 1901.16 783.548C1894.85 789.223 1887.89 797.146 1880.29 807.317C1879.86 807.852 1879.43 808.762 1879 810.047C1878.57 811.225 1878.36 812.456 1878.36 813.741C1878.36 815.24 1878.68 816.31 1879.32 816.953C1880.07 817.595 1881.36 818.024 1883.18 818.238ZM2024.11 853.088C2014.9 853.088 2006.66 850.304 1999.38 844.737C1992.09 839.062 1986.74 830.497 1983.32 819.041C1982.14 818.077 1980.8 817.328 1979.3 816.792C1977.69 816.15 1976.25 815.4 1974.96 814.544C1973.57 813.687 1972.39 812.617 1971.43 811.332C1970.36 809.94 1969.82 808.12 1969.82 805.872C1971.54 804.694 1973.2 803.784 1974.8 803.141C1976.3 802.499 1977.75 801.749 1979.14 800.893C1980.42 800.036 1981.6 798.859 1982.67 797.36C1983.64 795.754 1984.44 793.398 1985.08 790.293C1986.05 785.368 1987.81 780.229 1990.38 774.876C1992.95 769.415 1996.11 764.062 1999.86 758.816C2003.6 753.57 2007.83 748.591 2012.54 743.88C2017.36 739.169 2022.5 735.047 2027.96 731.514C2033.42 727.874 2039.15 725.036 2045.15 723.002C2051.14 720.861 2057.19 719.79 2063.29 719.79C2068 719.79 2071.48 721.717 2073.73 725.572C2076.09 729.319 2077.37 734.084 2077.59 739.865C2077.59 745.433 2076.36 751.107 2073.89 756.889C2071.54 762.563 2068.38 768.077 2064.42 773.43C2060.46 778.784 2055.91 783.816 2050.77 788.527C2045.73 793.131 2040.6 797.199 2035.35 800.732C2030.1 804.158 2024.96 806.942 2019.93 809.084C2015.01 811.118 2010.62 812.188 2006.76 812.296C2007.08 815.615 2008.05 818.666 2009.65 821.45C2011.05 823.805 2013.13 825.946 2015.92 827.874C2018.81 829.801 2022.93 830.872 2028.28 831.086H2030.37C2037.65 831.086 2044.24 829.747 2050.12 827.071C2056.01 824.287 2060.99 821.182 2065.06 817.756C2069.88 813.794 2074.16 809.298 2077.91 804.266C2079.73 801.161 2081.76 798.912 2084.01 797.52C2086.37 796.128 2088.61 795.433 2090.76 795.433C2092.9 795.433 2094.72 796.128 2096.22 797.52C2097.72 798.805 2098.46 800.518 2098.46 802.66C2098.46 803.837 2098.25 804.908 2097.82 805.872C2094.72 812.296 2090.33 818.398 2084.65 824.18C2078.98 829.854 2072.66 834.833 2065.7 839.116C2058.85 843.398 2051.78 846.824 2044.5 849.394C2037.22 851.857 2030.42 853.088 2024.11 853.088ZM2006.76 789.009C2011.26 788.366 2015.6 787.135 2019.77 785.315C2024.05 783.388 2028.02 781.139 2031.66 778.57C2035.4 775.893 2038.78 773.002 2041.77 769.897C2044.77 766.792 2047.34 763.741 2049.48 760.743C2051.73 757.638 2053.44 754.747 2054.62 752.071C2055.8 749.287 2056.39 746.985 2056.39 745.165C2056.39 742.381 2055.05 740.989 2052.37 740.989H2051.89C2050.07 741.203 2048.09 741.846 2045.95 742.916C2043.81 743.987 2041.72 745.218 2039.69 746.61C2037.65 747.895 2035.83 749.18 2034.23 750.465C2032.73 751.642 2031.66 752.499 2031.01 753.034C2028.98 754.64 2026.68 756.889 2024.11 759.779C2021.64 762.563 2019.24 765.668 2016.88 769.094C2014.52 772.413 2012.38 775.839 2010.46 779.373C2008.64 782.799 2007.41 786.011 2006.76 789.009ZM2116.92 867.542C2115.74 867.542 2114.62 867.221 2113.54 866.578C2112.47 865.936 2111.51 865.133 2110.65 864.169C2109.9 863.206 2109.26 862.135 2108.73 860.957C2108.3 859.779 2108.08 858.602 2108.08 857.424C2108.08 855.925 2108.83 854.158 2110.33 852.124C2111.94 850.197 2113.92 848.109 2116.27 845.861C2118.63 843.612 2121.15 841.257 2123.82 838.794C2126.5 836.332 2129.02 833.816 2131.37 831.246C2133.73 828.677 2135.65 826.161 2137.15 823.698C2138.76 821.128 2139.56 818.612 2139.56 816.15C2139.56 813.687 2138.06 811.439 2135.06 809.405C2132.17 807.263 2128.48 805.122 2123.98 802.981C2119.59 800.839 2114.78 798.591 2109.53 796.236C2104.39 793.773 2099.63 790.989 2095.24 787.884C2090.74 784.672 2087.05 780.979 2084.15 776.803C2081.16 772.627 2079.66 767.756 2079.66 762.188C2079.66 756.621 2081.8 751.268 2086.08 746.128C2090.26 740.989 2095.66 736.225 2102.3 731.835C2108.83 727.445 2116.11 723.43 2124.14 719.79C2132.17 716.15 2139.99 713.045 2147.59 710.475C2155.19 707.906 2162.1 705.925 2168.31 704.533C2174.63 703.141 2179.28 702.445 2182.28 702.445C2184.53 702.445 2186.67 702.606 2188.71 702.927C2190.74 703.141 2192.51 703.516 2194 704.051C2195.61 704.587 2196.9 705.283 2197.86 706.139C2198.82 706.996 2199.3 708.066 2199.3 709.351C2199.3 714.812 2198.23 718.88 2196.09 721.557C2194.06 724.126 2191.17 725.411 2187.42 725.411C2185.28 725.411 2183.57 725.09 2182.28 724.448C2181.1 723.805 2179.93 723.109 2178.75 722.36C2177.68 721.61 2176.39 720.914 2174.89 720.272C2173.5 719.63 2171.63 719.308 2169.27 719.308C2166.7 719.308 2163.33 719.897 2159.15 721.075C2155.09 722.146 2150.7 723.645 2145.99 725.572C2141.38 727.499 2136.72 729.801 2132.01 732.478C2127.3 735.154 2123.02 737.991 2119.17 740.989C2115.42 743.987 2112.37 747.146 2110.01 750.465C2107.66 753.784 2106.48 757.103 2106.48 760.422C2106.48 763.206 2107.33 765.722 2109.05 767.97C2110.76 770.111 2113.01 772.092 2115.79 773.912C2118.58 775.732 2121.74 777.499 2125.27 779.212C2128.91 780.818 2132.6 782.478 2136.35 784.191C2140.1 785.904 2143.79 787.777 2147.43 789.812C2151.07 791.739 2154.28 793.987 2157.07 796.557C2159.96 799.019 2162.31 801.857 2164.13 805.069C2165.95 808.173 2166.92 811.814 2167.02 815.989C2167.02 817.595 2166.06 820.004 2164.13 823.216C2162.31 826.321 2159.9 829.801 2156.91 833.655C2153.91 837.51 2150.54 841.418 2146.79 845.379C2143.15 849.34 2139.45 852.981 2135.71 856.3C2132.07 859.619 2128.53 862.296 2125.11 864.33C2121.79 866.471 2119.06 867.542 2116.92 867.542ZM2195.46 854.694C2189.04 854.587 2183.9 853.355 2180.04 851C2176.19 848.752 2173.3 845.914 2171.37 842.488C2169.34 839.062 2168.05 835.422 2167.52 831.567C2166.88 827.606 2166.55 823.966 2166.55 820.647C2166.55 818.612 2166.93 815.829 2167.68 812.296C2168.43 808.655 2169.61 804.747 2171.21 800.572C2172.82 796.289 2174.85 791.846 2177.31 787.242C2179.78 782.531 2182.67 778.088 2185.99 773.912C2188.34 770.914 2191.45 767.488 2195.3 763.634C2199.16 759.672 2203.39 755.657 2207.99 751.589C2212.7 747.52 2217.68 743.559 2222.92 739.704C2228.28 735.743 2233.58 732.21 2238.82 729.105C2244.07 726 2249.16 723.537 2254.08 721.717C2259.11 719.79 2263.72 718.827 2267.89 718.827C2269.39 718.827 2270.78 718.987 2272.07 719.308C2274.53 721.45 2276.24 723.645 2277.21 725.893C2278.17 728.141 2278.65 730.39 2278.65 732.638C2278.65 735.101 2278.22 737.51 2277.37 739.865C2276.62 742.113 2275.65 744.415 2274.48 746.771C2271.05 749.555 2267.73 750.946 2264.52 750.946C2262.38 750.946 2260.29 750.358 2258.26 749.18C2256.33 748.002 2254.46 746.343 2252.64 744.201C2248.89 745.593 2245.09 747.627 2241.23 750.304C2237.38 752.981 2233.52 755.979 2229.67 759.298C2225.82 762.617 2222.01 766.15 2218.27 769.897C2214.52 773.537 2210.88 777.124 2207.35 780.657C2205.63 782.263 2203.71 784.726 2201.56 788.045C2199.53 791.257 2197.55 794.683 2195.62 798.323C2193.8 801.964 2192.25 805.497 2190.97 808.923C2189.68 812.242 2189.04 814.865 2189.04 816.792C2189.04 820.004 2189.84 822.574 2191.45 824.501C2193.05 826.321 2195.03 827.767 2197.39 828.837C2199.85 829.801 2202.42 830.443 2205.1 830.764C2207.88 831.086 2210.34 831.246 2212.49 831.246C2216.02 831.246 2219.34 830.818 2222.44 829.961C2225.65 829.105 2228.39 828.248 2230.63 827.392C2238.88 824.287 2246.43 820.593 2253.28 816.31C2260.13 812.028 2266.82 807.156 2273.35 801.696C2275.39 799.983 2277.58 798.966 2279.94 798.645C2282.4 798.323 2284.76 797.627 2287 796.557C2288.5 797.949 2289.57 799.34 2290.22 800.732C2290.86 802.017 2291.18 803.355 2291.18 804.747C2291.18 806.675 2290.75 808.548 2289.89 810.368C2289.04 812.081 2288.34 813.794 2287.81 815.507C2280.1 822.788 2271.96 828.944 2263.4 833.976C2254.94 838.901 2246.69 842.916 2238.66 846.021C2230.63 849.126 2223.25 851.375 2216.5 852.767C2209.76 854.158 2204.35 854.854 2200.28 854.854L2195.46 854.694ZM2323.15 853.088C2313.94 853.088 2305.69 850.304 2298.41 844.737C2291.13 839.062 2285.78 830.497 2282.35 819.041C2281.18 818.077 2279.84 817.328 2278.34 816.792C2276.73 816.15 2275.29 815.4 2274 814.544C2272.61 813.687 2271.43 812.617 2270.47 811.332C2269.4 809.94 2268.86 808.12 2268.86 805.872C2270.58 804.694 2272.24 803.784 2273.84 803.141C2275.34 802.499 2276.79 801.749 2278.18 800.893C2279.46 800.036 2280.64 798.859 2281.71 797.36C2282.68 795.754 2283.48 793.398 2284.12 790.293C2285.08 785.368 2286.85 780.229 2289.42 774.876C2291.99 769.415 2295.15 764.062 2298.9 758.816C2302.64 753.57 2306.87 748.591 2311.58 743.88C2316.4 739.169 2321.54 735.047 2327 731.514C2332.46 727.874 2338.19 725.036 2344.18 723.002C2350.18 720.861 2356.23 719.79 2362.33 719.79C2367.04 719.79 2370.52 721.717 2372.77 725.572C2375.13 729.319 2376.41 734.084 2376.63 739.865C2376.63 745.433 2375.39 751.107 2372.93 756.889C2370.58 762.563 2367.42 768.077 2363.46 773.43C2359.5 778.784 2354.95 783.816 2349.81 788.527C2344.77 793.131 2339.63 797.199 2334.39 800.732C2329.14 804.158 2324 806.942 2318.97 809.084C2314.05 811.118 2309.66 812.188 2305.8 812.296C2306.12 815.615 2307.09 818.666 2308.69 821.45C2310.08 823.805 2312.17 825.946 2314.96 827.874C2317.85 829.801 2321.97 830.872 2327.32 831.086H2329.41C2336.69 831.086 2343.27 829.747 2349.16 827.071C2355.05 824.287 2360.03 821.182 2364.1 817.756C2368.92 813.794 2373.2 809.298 2376.95 804.266C2378.77 801.161 2380.8 798.912 2383.05 797.52C2385.41 796.128 2387.65 795.433 2389.8 795.433C2391.94 795.433 2393.76 796.128 2395.26 797.52C2396.75 798.805 2397.5 800.518 2397.5 802.66C2397.5 803.837 2397.29 804.908 2396.86 805.872C2393.76 812.296 2389.37 818.398 2383.69 824.18C2378.02 829.854 2371.7 834.833 2364.74 839.116C2357.89 843.398 2350.82 846.824 2343.54 849.394C2336.26 851.857 2329.46 853.088 2323.15 853.088ZM2305.8 789.009C2310.3 788.366 2314.63 787.135 2318.81 785.315C2323.09 783.388 2327.05 781.139 2330.69 778.57C2334.44 775.893 2337.81 773.002 2340.81 769.897C2343.81 766.792 2346.38 763.741 2348.52 760.743C2350.77 757.638 2352.48 754.747 2353.66 752.071C2354.84 749.287 2355.43 746.985 2355.43 745.165C2355.43 742.381 2354.09 740.989 2351.41 740.989H2350.93C2349.11 741.203 2347.13 741.846 2344.99 742.916C2342.85 743.987 2340.76 745.218 2338.72 746.61C2336.69 747.895 2334.87 749.18 2333.26 750.465C2331.77 751.642 2330.69 752.499 2330.05 753.034C2328.02 754.64 2325.72 756.889 2323.15 759.779C2320.68 762.563 2318.27 765.668 2315.92 769.094C2313.56 772.413 2311.42 775.839 2309.5 779.373C2307.68 782.799 2306.44 786.011 2305.8 789.009ZM2493.25 849.073C2490.89 849.073 2488.86 848.43 2487.14 847.146C2485.43 845.861 2484.15 844.63 2483.29 843.452C2481.68 841.31 2480.29 838.527 2479.11 835.101C2478.04 831.675 2477.13 827.927 2476.38 823.859C2475.63 819.79 2474.99 815.615 2474.46 811.332C2474.03 806.942 2473.65 802.713 2473.33 798.645C2473.12 794.469 2472.96 790.615 2472.85 787.081C2472.85 783.441 2472.85 780.443 2472.85 778.088C2472.85 774.983 2472.9 772.253 2473.01 769.897C2473.12 767.542 2473.17 765.507 2473.17 763.794C2473.17 759.619 2472.42 757.531 2470.92 757.531C2469.42 757.531 2467.5 758.548 2465.14 760.582C2462.79 762.51 2460.22 765.24 2457.43 768.773C2454.76 772.306 2451.97 776.482 2449.08 781.3C2446.3 786.118 2443.62 791.364 2441.05 797.039C2438.48 802.606 2436.18 808.495 2434.15 814.704C2432.11 820.914 2430.56 827.178 2429.49 833.495C2429.27 834.887 2428.9 836.493 2428.36 838.313C2427.83 840.026 2426.92 841.685 2425.63 843.291C2424.35 844.79 2422.58 846.075 2420.33 847.146C2418.19 848.216 2415.36 848.752 2411.82 848.752C2409.57 848.752 2407.65 848.323 2406.04 847.467C2404.54 846.503 2403.26 845.325 2402.19 843.934C2401.12 842.435 2400.26 840.775 2399.62 838.955C2398.97 837.135 2398.44 835.261 2398.01 833.334C2397.69 832.049 2397.21 829.051 2396.57 824.34C2396.03 819.63 2395.39 814.169 2394.64 807.959C2394 801.749 2393.3 795.165 2392.55 788.206C2391.8 781.246 2391.11 774.876 2390.46 769.094C2389.82 763.313 2389.29 758.548 2388.86 754.801C2388.54 750.946 2388.38 748.966 2388.38 748.859C2388.38 747.467 2388.7 746.182 2389.34 745.004C2390.09 743.827 2391.05 742.809 2392.23 741.953C2393.41 741.096 2394.75 740.454 2396.24 740.026C2397.74 739.597 2399.3 739.383 2400.9 739.383C2403.47 739.383 2405.83 740.079 2407.97 741.471C2410.22 742.756 2411.61 744.897 2412.14 747.895C2412.89 751.321 2413.38 754.319 2413.59 756.889C2413.8 759.351 2413.91 761.6 2413.91 763.634L2413.75 771.985C2413.75 773.591 2414.12 776.696 2414.87 781.3C2415.62 785.904 2416.43 791.685 2417.28 798.645C2417.39 799.18 2417.66 799.662 2418.09 800.09C2418.62 800.411 2419.05 800.839 2419.37 801.375C2420.12 801.161 2420.49 801.054 2420.49 801.054C2422.1 798.056 2424.08 794.201 2426.44 789.49C2428.79 784.779 2431.42 779.801 2434.31 774.555C2437.3 769.308 2440.57 764.062 2444.1 758.816C2447.74 753.57 2451.54 748.859 2455.51 744.683C2459.57 740.4 2463.86 736.974 2468.35 734.405C2472.85 731.728 2477.51 730.39 2482.33 730.39C2486.5 730.39 2489.5 732.156 2491.32 735.69C2493.14 739.223 2494.32 743.88 2494.85 749.662C2495.49 755.336 2495.71 761.76 2495.49 768.934C2495.39 776.107 2495.49 783.334 2495.82 790.615C2496.14 797.895 2496.89 804.854 2498.06 811.493C2499.35 818.131 2501.65 823.805 2504.97 828.516C2507.33 831.835 2508.5 835.047 2508.5 838.152C2508.5 841.257 2507.22 843.88 2504.65 846.021C2502.19 848.056 2498.39 849.073 2493.25 849.073ZM2539.62 854.694C2533.19 854.587 2528.06 853.355 2524.2 851C2520.35 848.752 2517.46 845.914 2515.53 842.488C2513.49 839.062 2512.21 835.422 2511.67 831.567C2511.03 827.606 2510.71 823.966 2510.71 820.647C2510.71 818.612 2511.09 815.829 2511.83 812.296C2512.58 808.655 2513.76 804.747 2515.37 800.572C2516.97 796.289 2519.01 791.846 2521.47 787.242C2523.93 782.531 2526.82 778.088 2530.14 773.912C2532.5 770.914 2535.6 767.488 2539.46 763.634C2543.31 759.672 2547.54 755.657 2552.15 751.589C2556.86 747.52 2561.83 743.559 2567.08 739.704C2572.43 735.743 2577.73 732.21 2582.98 729.105C2588.23 726 2593.31 723.537 2598.24 721.717C2603.27 719.79 2607.87 718.827 2612.05 718.827C2613.55 718.827 2614.94 718.987 2616.22 719.308C2618.69 721.45 2620.4 723.645 2621.36 725.893C2622.33 728.141 2622.81 730.39 2622.81 732.638C2622.81 735.101 2622.38 737.51 2621.52 739.865C2620.77 742.113 2619.81 744.415 2618.63 746.771C2615.21 749.555 2611.89 750.946 2608.68 750.946C2606.53 750.946 2604.45 750.358 2602.41 749.18C2600.49 748.002 2598.61 746.343 2596.79 744.201C2593.04 745.593 2589.24 747.627 2585.39 750.304C2581.53 752.981 2577.68 755.979 2573.83 759.298C2569.97 762.617 2566.17 766.15 2562.42 769.897C2558.68 773.537 2555.04 777.124 2551.5 780.657C2549.79 782.263 2547.86 784.726 2545.72 788.045C2543.69 791.257 2541.71 794.683 2539.78 798.323C2537.96 801.964 2536.41 805.497 2535.12 808.923C2533.84 812.242 2533.19 814.865 2533.19 816.792C2533.19 820.004 2534 822.574 2535.6 824.501C2537.21 826.321 2539.19 827.767 2541.55 828.837C2544.01 829.801 2546.58 830.443 2549.25 830.764C2552.04 831.086 2554.5 831.246 2556.64 831.246C2560.18 831.246 2563.49 830.818 2566.6 829.961C2569.81 829.105 2572.54 828.248 2574.79 827.392C2583.03 824.287 2590.58 820.593 2597.43 816.31C2604.29 812.028 2610.98 807.156 2617.51 801.696C2619.54 799.983 2621.74 798.966 2624.09 798.645C2626.56 798.323 2628.91 797.627 2631.16 796.557C2632.66 797.949 2633.73 799.34 2634.37 800.732C2635.01 802.017 2635.34 803.355 2635.34 804.747C2635.34 806.675 2634.91 808.548 2634.05 810.368C2633.19 812.081 2632.5 813.794 2631.96 815.507C2624.25 822.788 2616.12 828.944 2607.55 833.976C2599.09 838.901 2590.85 842.916 2582.82 846.021C2574.79 849.126 2567.4 851.375 2560.66 852.767C2553.91 854.158 2548.5 854.854 2544.44 854.854L2539.62 854.694ZM2667.3 853.088C2658.09 853.088 2649.85 850.304 2642.57 844.737C2635.29 839.062 2629.94 830.497 2626.51 819.041C2625.33 818.077 2623.99 817.328 2622.5 816.792C2620.89 816.15 2619.44 815.4 2618.16 814.544C2616.77 813.687 2615.59 812.617 2614.63 811.332C2613.56 809.94 2613.02 808.12 2613.02 805.872C2614.73 804.694 2616.39 803.784 2618 803.141C2619.5 802.499 2620.94 801.749 2622.33 800.893C2623.62 800.036 2624.8 798.859 2625.87 797.36C2626.83 795.754 2627.63 793.398 2628.28 790.293C2629.24 785.368 2631.01 780.229 2633.58 774.876C2636.15 769.415 2639.3 764.062 2643.05 758.816C2646.8 753.57 2651.03 748.591 2655.74 743.88C2660.56 739.169 2665.7 735.047 2671.16 731.514C2676.62 727.874 2682.35 725.036 2688.34 723.002C2694.34 720.861 2700.39 719.79 2706.49 719.79C2711.2 719.79 2714.68 721.717 2716.93 725.572C2719.28 729.319 2720.57 734.084 2720.78 739.865C2720.78 745.433 2719.55 751.107 2717.09 756.889C2714.73 762.563 2711.57 768.077 2707.61 773.43C2703.65 778.784 2699.1 783.816 2693.96 788.527C2688.93 793.131 2683.79 797.199 2678.54 800.732C2673.3 804.158 2668.16 806.942 2663.13 809.084C2658.2 811.118 2653.81 812.188 2649.96 812.296C2650.28 815.615 2651.24 818.666 2652.85 821.45C2654.24 823.805 2656.33 825.946 2659.11 827.874C2662 829.801 2666.12 830.872 2671.48 831.086H2673.57C2680.85 831.086 2687.43 829.747 2693.32 827.071C2699.21 824.287 2704.19 821.182 2708.26 817.756C2713.07 813.794 2717.36 809.298 2721.1 804.266C2722.92 801.161 2724.96 798.912 2727.21 797.52C2729.56 796.128 2731.81 795.433 2733.95 795.433C2736.09 795.433 2737.91 796.128 2739.41 797.52C2740.91 798.805 2741.66 800.518 2741.66 802.66C2741.66 803.837 2741.45 804.908 2741.02 805.872C2737.91 812.296 2733.52 818.398 2727.85 824.18C2722.17 829.854 2715.86 834.833 2708.9 839.116C2702.05 843.398 2694.98 846.824 2687.7 849.394C2680.42 851.857 2673.62 853.088 2667.3 853.088ZM2649.96 789.009C2654.45 788.366 2658.79 787.135 2662.97 785.315C2667.25 783.388 2671.21 781.139 2674.85 778.57C2678.6 775.893 2681.97 773.002 2684.97 769.897C2687.97 766.792 2690.54 763.741 2692.68 760.743C2694.93 757.638 2696.64 754.747 2697.82 752.071C2698.99 749.287 2699.58 746.985 2699.58 745.165C2699.58 742.381 2698.24 740.989 2695.57 740.989H2695.09C2693.27 741.203 2691.29 741.846 2689.14 742.916C2687 743.987 2684.92 745.218 2682.88 746.61C2680.85 747.895 2679.03 749.18 2677.42 750.465C2675.92 751.642 2674.85 752.499 2674.21 753.034C2672.17 754.64 2669.87 756.889 2667.3 759.779C2664.84 762.563 2662.43 765.668 2660.08 769.094C2657.72 772.413 2655.58 775.839 2653.65 779.373C2651.83 782.799 2650.6 786.011 2649.96 789.009Z" fill="white"/>
<path d="M1710.41 595.664C1714.19 593.572 1718.03 591.654 1722.13 590.122C1724.36 589.287 1726.35 588.833 1728.09 588.76C1735.95 588.429 1740.22 594.056 1741.93 601.061C1742.77 604.511 1743.41 608.123 1744.54 611.492C1744.55 611.545 1744.58 611.592 1744.63 611.629C1744.67 611.667 1744.72 611.694 1744.77 611.707C1744.82 611.721 1744.88 611.721 1744.94 611.707C1744.99 611.693 1745.04 611.666 1745.08 611.628C1747.17 609.698 1748.96 607.739 1750.47 605.751C1751.21 604.786 1751.94 603.868 1752.66 602.996C1755.66 599.385 1761.32 599.542 1763.7 603.803C1764.92 606.018 1764.89 608.683 1764.35 611.102C1763.45 615.071 1762.1 619.044 1760.28 623.021C1760.26 623.05 1760.26 623.082 1760.26 623.114C1760.27 623.145 1760.28 623.175 1760.3 623.199C1760.32 623.223 1760.35 623.241 1760.38 623.25C1760.41 623.259 1760.44 623.259 1760.47 623.251C1766.81 621.591 1773.18 619.673 1780.05 617.569C1795.69 612.782 1812.27 610.741 1828.53 611.988C1834.14 612.417 1839.86 613.168 1844.88 615.472C1849.87 617.76 1853.08 622.101 1853 627.685C1852.9 633.94 1848.16 639.745 1842.95 643.089C1836.27 647.383 1828.55 649.751 1820.34 651.347C1816.26 652.139 1812.71 652.74 1809.69 653.15C1790.57 655.756 1771.54 656.575 1752.62 655.607C1734.6 654.682 1715.73 652.463 1697.13 650.472C1679.42 648.571 1660.93 647.146 1641.66 646.195C1639.88 646.107 1638.53 646.082 1637.62 646.119C1623.66 646.693 1609.46 646.639 1595.01 645.957C1593.11 645.87 1590.31 645.65 1586.61 645.3C1583.29 644.986 1580.48 644.861 1578.19 644.926C1574.74 645.025 1572.39 645.052 1571.16 645.007C1566.5 644.831 1561.92 644.581 1557.43 644.256C1545.03 643.356 1533.37 642.49 1522.46 641.659C1522.34 641.649 1522.22 641.593 1522.13 641.5C1522.05 641.408 1522 641.288 1522 641.162C1522 640.724 1522.21 640.478 1522.65 640.424C1530.09 639.545 1537.82 639.198 1545.56 638.837C1557.34 638.285 1568.91 638.113 1580.28 638.319C1580.37 638.32 1580.46 638.286 1580.53 638.223C1580.6 638.161 1580.64 638.075 1580.64 637.984C1580.74 634.954 1582.24 631.911 1583.93 629.298C1587.94 623.106 1594.38 619.635 1601.78 619.003C1601.89 618.994 1602 618.948 1602.08 618.873C1602.16 618.797 1602.21 618.696 1602.23 618.587C1603.29 611.186 1613.94 610.401 1619.58 610.287C1627.66 610.117 1635.7 610.599 1643.72 611.734C1647.07 612.209 1650.42 612.885 1653.76 613.762C1653.78 613.768 1653.81 613.767 1653.83 613.759C1653.86 613.751 1653.88 613.737 1653.89 613.718C1653.91 613.7 1653.92 613.677 1653.93 613.652C1653.93 613.628 1653.93 613.603 1653.92 613.58C1652.69 610.756 1651.69 607.855 1650.93 604.876C1648.43 595.162 1646.77 585.328 1645.93 575.376C1644.43 557.765 1646.04 538.878 1659.41 526.283C1666.4 519.693 1675.79 515.925 1685.25 516.001C1692.62 516.061 1698.64 518.607 1703.29 523.639C1714.96 536.251 1713.92 555.576 1713.12 571.557C1712.69 580.216 1711.7 588.194 1710.17 595.49C1710.17 595.52 1710.17 595.552 1710.18 595.581C1710.19 595.61 1710.21 595.635 1710.23 595.654C1710.26 595.672 1710.29 595.683 1710.32 595.684C1710.35 595.686 1710.39 595.679 1710.41 595.664ZM1665 610.847C1666.17 613.783 1666.01 618.846 1661.8 619.045C1660.46 619.108 1659.19 619.004 1657.97 618.736C1645.27 615.935 1632.38 614.799 1619.31 615.328C1616.44 615.447 1609.25 615.901 1607.94 618.854C1607.9 618.946 1607.88 619.044 1607.88 619.144C1607.88 619.245 1607.89 619.344 1607.93 619.437C1607.97 619.53 1608.03 619.614 1608.1 619.685C1608.17 619.755 1608.26 619.811 1608.35 619.847C1609.98 620.48 1611.82 621.664 1612.32 623.412C1612.73 624.832 1612.28 625.932 1610.97 626.713C1610.37 627.073 1609.74 627.07 1609.09 626.705C1604.59 624.184 1597.48 627.498 1593.67 630.074C1590.86 631.972 1588.57 634.585 1586.82 637.912C1586.79 637.965 1586.77 638.024 1586.78 638.083C1586.78 638.143 1586.79 638.201 1586.83 638.252C1586.86 638.303 1586.9 638.346 1586.95 638.375C1587 638.405 1587.06 638.42 1587.12 638.421C1592.54 638.48 1598.21 638.531 1603.75 638.2C1613.56 637.615 1623.5 637.045 1633.58 636.49C1635.14 636.405 1636.95 636.388 1639.01 636.439C1661.4 636.974 1683.87 637.954 1705.78 640.008C1722.56 641.578 1739.59 643.394 1755.76 643.912C1772.68 644.451 1789.94 643.029 1806.86 640.449C1816.37 639.002 1826.22 636.978 1834.48 632.264C1836.68 631.013 1838.27 629.498 1839.26 627.719C1839.34 627.587 1839.36 627.435 1839.34 627.285C1839.32 627.136 1839.25 626.998 1839.14 626.891C1838.6 626.365 1837.94 625.956 1837.15 625.665C1834.97 624.848 1832.65 624.269 1830.21 623.93C1816.12 621.965 1801.68 623.688 1787.76 627.231C1784.31 628.111 1781.93 628.742 1780.62 629.124C1771.11 631.913 1762.63 634.281 1755.19 636.227C1748.52 637.971 1743.45 633.015 1744.67 626.344C1744.73 626.013 1744.8 625.679 1744.86 625.343C1744.9 625.125 1744.81 625.023 1744.59 625.037C1744.11 625.067 1743.62 625.194 1743.13 625.194C1733.97 625.135 1732.12 614.394 1730.73 607.647C1730.32 605.653 1729.67 603.704 1728.79 601.8C1728.34 600.807 1727.57 600.404 1726.51 600.59C1720.7 601.605 1715.27 604.558 1709.83 606.93C1707.68 607.864 1705.69 608.007 1703.86 607.359C1698.34 605.411 1698.35 599.415 1699.2 594.365C1700.11 588.963 1701.06 583.37 1701.56 577.896C1702.28 569.984 1702.63 562.269 1702.62 554.752C1702.61 546.923 1701.58 539.141 1697.57 532.288C1694.57 527.144 1690.07 524.601 1684.07 524.658C1673.11 524.768 1663.94 531.167 1659.08 540.842C1656.02 546.936 1654.95 554.612 1655.03 561.487C1655.11 568.887 1655.81 576.121 1657.11 583.188C1658.45 590.398 1660.02 598.061 1662.64 604.847C1663.45 606.954 1664.24 608.954 1665 610.847Z" fill="white"/>
<path d="M2477.8 899.2L2478.28 901.6C2478.28 904 2477.08 905.2 2474.68 905.2C2473.4 905.2 2472.4 904.56 2471.68 903.28C2470.96 902 2470.6 900.64 2470.6 899.2C2470.6 896.08 2471.96 893.4 2474.68 891.16C2477.4 888.84 2480.36 887.68 2483.56 887.68C2486.76 887.68 2489.4 888.72 2491.48 890.8C2493.56 892.8 2494.6 895.84 2494.6 899.92C2494.6 902.64 2493.08 906.4 2490.04 911.2C2489.08 912.64 2487.52 915.04 2485.36 918.4C2478.72 928.64 2475.4 937.04 2475.4 943.6C2475.4 945.76 2477.2 947.52 2480.8 948.88C2484.4 950.16 2489.4 950.8 2495.8 950.8C2498.2 950.8 2499.4 952 2499.4 954.4C2499.4 956.8 2498.2 958 2495.8 958C2488.84 958 2482.92 957.08 2478.04 955.24C2471.48 952.76 2468.2 948.88 2468.2 943.6C2468.2 935.28 2471.84 925.68 2479.12 914.8C2484.64 906.48 2487.4 901.52 2487.4 899.92C2487.4 896.56 2486.2 894.88 2483.8 894.88C2482.52 894.88 2481.2 895.32 2479.84 896.2C2478.48 897.08 2477.8 898.08 2477.8 899.2ZM2546.74 906.64C2546.74 907.36 2546.42 907.92 2545.78 908.32C2545.22 908.64 2544.66 908.8 2544.1 908.8C2541.46 908.8 2538.74 909.72 2535.94 911.56C2533.14 913.4 2530.58 916.04 2528.26 919.48C2526.02 922.92 2524.9 926.28 2524.9 929.56C2524.9 932.84 2525.86 935.4 2527.78 937.24C2529.7 939.08 2532.1 940 2534.98 940C2542.1 940 2548.1 937.88 2552.98 933.64C2557.94 929.4 2560.42 923.92 2560.42 917.2C2560.42 914.64 2559.7 912.12 2558.26 909.64C2556.82 907.16 2555.06 905.92 2552.98 905.92C2549.94 905.92 2547.86 906.16 2546.74 906.64ZM2522.74 942.4C2519.38 939.12 2517.7 935.08 2517.7 930.28C2517.7 925.48 2519.18 920.8 2522.14 916.24C2525.1 911.68 2528.5 908.12 2532.34 905.56C2536.18 903 2539.58 901.72 2542.54 901.72C2542.54 900.84 2542.98 900.24 2543.86 899.92C2546.1 899.12 2549.22 898.72 2553.22 898.72C2557.22 898.72 2560.62 900.68 2563.42 904.6C2566.22 908.44 2567.62 912.64 2567.62 917.2C2567.62 925.84 2564.42 933 2558.02 938.68C2551.7 944.36 2544.02 947.2 2534.98 947.2C2530.18 947.2 2526.1 945.6 2522.74 942.4ZM2595.51 899.2L2595.99 901.6C2595.99 904 2594.79 905.2 2592.39 905.2C2591.11 905.2 2590.11 904.56 2589.39 903.28C2588.67 902 2588.31 900.64 2588.31 899.2C2588.31 896.08 2589.67 893.4 2592.39 891.16C2595.11 888.84 2598.07 887.68 2601.27 887.68C2604.47 887.68 2607.11 888.72 2609.19 890.8C2611.27 892.8 2612.31 895.84 2612.31 899.92C2612.31 902.64 2610.79 906.4 2607.75 911.2C2606.79 912.64 2605.23 915.04 2603.07 918.4C2596.43 928.64 2593.11 937.04 2593.11 943.6C2593.11 945.76 2594.91 947.52 2598.51 948.88C2602.11 950.16 2607.11 950.8 2613.51 950.8C2615.91 950.8 2617.11 952 2617.11 954.4C2617.11 956.8 2615.91 958 2613.51 958C2606.55 958 2600.63 957.08 2595.75 955.24C2589.19 952.76 2585.91 948.88 2585.91 943.6C2585.91 935.28 2589.55 925.68 2596.83 914.8C2602.35 906.48 2605.11 901.52 2605.11 899.92C2605.11 896.56 2603.91 894.88 2601.51 894.88C2600.23 894.88 2598.91 895.32 2597.55 896.2C2596.19 897.08 2595.51 898.08 2595.51 899.2ZM2675.97 958C2674.37 958 2672.77 957.04 2671.17 955.12C2669.57 953.12 2668.77 950.88 2668.77 948.4C2668.77 942.48 2669.17 937.52 2669.97 933.52C2667.33 935.44 2663.61 936.4 2658.81 936.4C2654.09 936.4 2649.97 934.4 2646.45 930.4C2642.93 926.32 2641.17 921.68 2641.17 916.48C2641.17 908.96 2643.49 900.56 2648.13 891.28C2649.33 888.88 2650.61 887.68 2651.97 887.68C2654.37 887.68 2655.57 888.88 2655.57 891.28C2655.57 891.84 2655.25 892.76 2654.61 894.04C2650.45 902.36 2648.37 909.76 2648.37 916.24C2648.37 919.6 2649.37 922.6 2651.37 925.24C2653.45 927.88 2655.89 929.2 2658.69 929.2C2661.57 929.2 2663.73 928.8 2665.17 928C2666.77 927.2 2668.13 926.4 2669.25 925.6C2671.57 924 2673.41 923.2 2674.77 923.2C2677.17 923.2 2678.37 924.4 2678.37 926.8C2678.37 927.28 2677.97 929.56 2677.17 933.64C2676.37 937.72 2675.97 942.64 2675.97 948.4C2675.97 949.2 2676.57 950.16 2677.77 951.28C2678.97 952.4 2679.57 953.44 2679.57 954.4C2679.57 956.8 2678.37 958 2675.97 958Z" fill="white"/>
<path d="M2080.74 897.783C2079.38 898.416 2078.07 899.137 2076.81 899.948C2065.93 906.935 2052.58 915.623 2039.04 911.717C2030.78 909.337 2025.07 903.922 2019.78 897.24C2019.62 897.048 2019.41 896.921 2019.16 896.885C2018.92 896.848 2018.68 896.904 2018.48 897.042C2015.03 899.394 2011.87 902.633 2008.78 905.561C2004.06 910.049 1999.15 913.573 1994.05 916.132C1985.28 920.547 1976.55 921.457 1967.49 917.602C1959.73 914.306 1954.11 909.19 1948.57 902.989C1948.37 902.766 1948.1 902.618 1947.81 902.566C1947.52 902.515 1947.21 902.564 1946.95 902.706C1945.53 903.479 1944.12 904.453 1942.71 905.629C1936.92 910.451 1931.66 915.205 1925.11 919.512C1921.36 921.988 1917.65 923.705 1913.99 924.662C1907.71 926.301 1901.67 924.351 1897.05 919.868C1895.72 918.587 1894.36 916.75 1892.95 914.357C1889.33 908.19 1885.56 901.988 1880.62 897.104C1880.12 896.607 1879.6 896.586 1879.07 897.042C1876.94 898.847 1874.86 900.6 1872.84 902.299C1866.38 907.715 1859.41 911.898 1851.26 913.328C1843.62 914.668 1834.86 912.655 1830.3 905.94C1829.55 904.836 1828.82 903.746 1828.1 902.672C1828.04 902.583 1828.01 902.478 1828 902.37C1827.99 902.262 1828.02 902.154 1828.07 902.058C1828.12 901.961 1828.19 901.88 1828.29 901.822C1828.38 901.764 1828.49 901.732 1828.59 901.728C1828.96 901.721 1829.32 901.774 1829.67 901.887C1831.91 902.627 1833.86 903.752 1836.23 904.244C1845.69 906.215 1854.44 904.419 1862.45 898.857C1865.31 896.874 1868.66 894.272 1872.51 891.05C1873.86 889.927 1875.38 888.987 1877.09 888.229C1881.94 886.075 1885.88 889.105 1888.25 893.085C1890.46 896.805 1892.83 900.747 1895.37 904.911C1897.79 908.879 1901.61 913.746 1906.01 914.973C1910.01 916.092 1914.89 913.373 1918.26 911.157C1925.15 906.635 1931.08 901.135 1937.34 896.302C1938.59 895.333 1940.2 894.361 1942.16 893.385C1950.53 889.224 1955.1 894.854 1960.44 900.061C1964.34 903.871 1968.76 906.503 1973.7 907.958C1977.07 908.949 1980.54 908.815 1984.11 907.556C1989.54 905.638 1994.85 902.392 2000.04 897.816C2003.3 894.937 2006.35 892.38 2009.18 890.146C2014.62 885.849 2021.02 883.786 2026.6 889.49C2031.06 894.057 2034.41 898.529 2040.76 900.502C2046.54 902.299 2053.62 899.823 2058.78 897.053C2061.54 895.565 2065.5 893.304 2070.67 890.27C2073.34 888.693 2077.21 886.827 2080.33 886.522C2087.96 885.776 2089.96 892.893 2094.65 897.014C2099.44 901.22 2106.06 901.033 2111.94 899.235C2116.25 897.92 2120.48 896.631 2124.62 895.369C2131.15 893.385 2137.43 892.65 2144.02 894.6C2148.6 895.957 2152.52 896.963 2155.78 897.619C2159.52 898.372 2163.86 898.885 2168.81 899.156C2176.12 899.558 2182.91 899.931 2190.08 900.089C2205.99 900.439 2221.81 902.115 2237.54 905.114C2237.68 905.142 2237.81 905.208 2237.92 905.307C2238.03 905.406 2238.11 905.533 2238.15 905.674C2238.35 906.386 2238.09 906.814 2237.37 906.957C2219.19 910.511 2199.81 912.148 2179.21 911.87C2170.51 911.753 2163.27 911.231 2157.49 910.304C2152.44 909.49 2147.32 907.924 2142.13 906.358C2138.08 905.137 2134.84 905.137 2130.82 906.313C2123.11 908.557 2115.27 911.66 2107.5 912.243C2099 912.876 2091.89 910.21 2086.16 904.244C2084.34 902.339 2082.88 900.078 2081.33 897.941C2081.18 897.726 2080.98 897.673 2080.74 897.783Z" fill="white"/>
<path d="M2018.77 935.95C2017.71 936.523 2016.72 937.229 2015.81 938.07C2012.86 940.798 2009.82 943.589 2006.69 946.442C1996.99 955.254 1983.37 962.157 1970.09 957.612C1961.3 954.599 1954.59 949.019 1948.58 942.032C1948.38 941.8 1948.11 941.643 1947.81 941.588C1947.51 941.532 1947.2 941.581 1946.93 941.727C1945.57 942.458 1944.3 943.316 1943.11 944.299C1937.23 949.155 1931.54 954.339 1925 958.584C1920.64 961.403 1916.58 963.189 1912.82 963.943C1906.69 965.17 1900.84 962.863 1896.49 958.397C1895.53 957.406 1894.24 955.56 1892.63 952.858C1889.02 946.815 1885.42 940.636 1880.38 935.972C1880.2 935.813 1879.98 935.724 1879.74 935.721C1879.51 935.719 1879.28 935.805 1879.11 935.961C1870.95 943.253 1862.53 950.161 1851.79 952.258C1844.62 953.66 1835.76 952.083 1831.09 946.046C1830.03 944.678 1829.03 943.214 1828.09 941.654C1828.03 941.56 1828 941.453 1828 941.344C1828 941.235 1828.03 941.128 1828.08 941.034C1828.14 940.94 1828.22 940.863 1828.32 940.811C1828.41 940.759 1828.52 940.733 1828.63 940.738C1829.03 940.753 1829.41 940.823 1829.79 940.947C1831.78 941.625 1833.63 942.705 1835.67 943.157C1842.19 944.597 1848.26 944.301 1853.9 942.27C1861.33 939.585 1866.95 934.599 1873.02 929.675C1874.36 928.59 1875.89 927.715 1877.62 927.052C1882.58 925.141 1886.39 928.838 1888.66 932.801C1891.33 937.44 1893.92 941.697 1896.42 945.571C1898.15 948.239 1900.43 950.817 1903.09 952.654C1905.86 954.561 1908.92 954.793 1912.27 953.349C1919.33 950.308 1925.86 944.887 1931.62 939.873C1934.46 937.405 1937.3 935.273 1940.14 933.48C1947.45 928.872 1952.7 931.117 1957.91 936.668C1962.55 941.625 1968.54 945.961 1975.03 947.312C1983.85 949.149 1994.13 942.157 2000.71 936.255C2003.54 933.719 2006.28 931.412 2008.94 929.336C2013.8 925.543 2019.18 923.123 2024.66 926.883C2027 928.482 2029.65 931.795 2031.94 934.124C2035.88 938.149 2041.8 941.026 2047.49 939.992C2051.7 939.227 2055.68 937.802 2059.43 935.718C2063.03 933.724 2066.79 931.561 2070.74 929.229C2073.16 927.798 2077.23 925.854 2080.09 925.565C2083.9 925.177 2087.12 926.751 2089.73 930.286C2093.33 935.153 2096.54 939.07 2103.12 939.438C2105.51 939.57 2107.87 939.321 2110.2 938.691C2114.04 937.659 2118.26 936.396 2122.85 934.904C2129.61 932.711 2136.48 931.558 2143.05 933.383C2149.32 935.119 2155.4 936.933 2162.12 937.623C2169.94 938.426 2180.12 938.816 2190.24 939.093C2206.31 939.526 2222.08 941.203 2237.54 944.124C2237.68 944.152 2237.81 944.221 2237.91 944.323C2238.01 944.424 2238.08 944.554 2238.11 944.695C2238.26 945.433 2237.97 945.871 2237.25 946.006C2222.89 948.742 2208.87 950.312 2195.21 950.715C2181.7 951.111 2167.37 951.399 2154.41 948.731C2149.64 947.742 2144.84 946.102 2140.13 944.893C2135.71 943.756 2131.36 945.028 2126.8 946.509C2120.84 948.437 2114.66 950.58 2108.45 951.201C2096.28 952.411 2087.61 946.984 2081.44 937.08C2081.36 936.952 2081.24 936.857 2081.09 936.812C2080.95 936.768 2080.79 936.776 2080.65 936.837C2079.78 937.225 2078.91 937.683 2078.05 938.211C2068.73 943.92 2059.36 950.647 2048.15 951.591C2038.33 952.417 2029.53 947.623 2023.16 940.28C2022.01 938.95 2020.79 937.55 2019.48 936.08C2019.4 935.98 2019.28 935.913 2019.15 935.89C2019.02 935.866 2018.89 935.887 2018.77 935.95Z" fill="white"/>
<path d="M2472.79 600.655C2472.79 600.637 2472.78 600.619 2472.78 600.603C2472.77 600.587 2472.75 600.574 2472.74 600.565C2472.72 600.556 2472.7 600.552 2472.69 600.553C2472.67 600.554 2472.65 600.561 2472.64 600.571C2470.97 601.755 2469.35 602.952 2467.77 604.164C2465.51 605.898 2463.14 607.285 2460.77 608.809C2453.9 613.226 2445.73 616.026 2437.7 618.339C2432.88 619.73 2427.91 621.07 2422.81 622.36C2422.57 622.419 2422.52 622.348 2422.65 622.148C2422.96 621.667 2423.42 621.34 2424.01 621.167C2427.64 620.108 2431.35 618.827 2435.13 617.326C2443.96 613.817 2452.05 608.953 2459.39 602.733C2462.36 600.211 2465.46 597.529 2468.69 594.688C2470.29 593.28 2471.9 591.759 2473.51 590.126C2475.06 588.559 2477.15 587.025 2479.49 587.603C2482.31 588.299 2483.01 591.162 2482.56 593.651C2482.22 595.564 2481.88 597.542 2481.55 599.587C2481.22 601.608 2481.25 603.828 2481.64 606.247C2482.15 609.385 2483 612.629 2484.2 615.977C2484.21 616.011 2484.23 616.042 2484.25 616.068C2484.28 616.094 2484.31 616.115 2484.34 616.13C2484.37 616.145 2484.41 616.153 2484.45 616.154C2484.48 616.155 2484.52 616.148 2484.55 616.135C2490.93 613.659 2496.31 609.966 2500.68 605.056C2501.75 603.849 2502.66 602.426 2503.4 600.788C2503.6 600.337 2503.91 599.882 2504.33 599.425C2506.23 597.361 2509.58 597.662 2510.74 600.333C2511.49 602.062 2511.04 604.22 2510.92 606.051C2510.6 610.875 2511.28 615.438 2512.93 619.91C2515.26 626.233 2518.52 632.036 2521.83 637.81C2524.78 642.968 2527.73 648.11 2530.66 653.238C2531.06 653.931 2531.5 654.757 2531.99 655.716C2532.14 656.012 2532.1 656.258 2531.88 656.455C2531.79 656.544 2531.66 656.593 2531.53 656.594C2531.4 656.596 2531.27 656.549 2531.17 656.462C2525.33 651.407 2520.06 645.909 2515.37 639.968C2512.23 635.993 2509.59 631.685 2507.25 627.131C2504.66 622.129 2502.77 617.079 2502.52 611.422C2502.52 611.411 2502.52 611.4 2502.51 611.391C2502.51 611.381 2502.5 611.374 2502.49 611.369C2502.48 611.365 2502.47 611.363 2502.45 611.364C2502.44 611.365 2502.43 611.369 2502.42 611.375C2500.89 612.524 2499.29 613.672 2497.63 614.818C2494.27 617.141 2490.76 619 2487.12 620.396C2486.88 620.488 2486.64 620.562 2486.39 620.617C2486.34 620.627 2486.3 620.647 2486.26 620.676C2486.23 620.705 2486.2 620.742 2486.18 620.784C2486.16 620.827 2486.15 620.873 2486.15 620.919C2486.15 620.966 2486.17 621.012 2486.19 621.053C2487.27 623.092 2488.6 625.236 2490.16 627.484C2490.44 627.879 2490.41 628.241 2490.07 628.569C2490.04 628.601 2490 628.624 2489.95 628.638C2489.91 628.651 2489.86 628.653 2489.82 628.645C2489.63 628.612 2489.45 628.557 2489.26 628.483C2483.9 626.246 2479.72 622.669 2476.73 617.752C2473.64 612.676 2472.4 606.473 2472.79 600.655Z" fill="white"/>
<path d="M2384.9 575.659C2383.09 574.877 2381.65 573.604 2380.6 571.839C2380.58 571.819 2380.57 571.804 2380.54 571.797C2380.52 571.789 2380.5 571.79 2380.47 571.8C2380.43 571.816 2380.4 571.843 2380.37 571.879C2377.4 575.717 2374.07 579.091 2370.38 582.001C2369.1 583.003 2367.51 584.194 2365.92 584.601C2364.5 584.965 2363.8 583.346 2364.97 582.539C2367.81 580.584 2370.35 577.967 2372.78 575.076C2375.07 572.363 2376.83 569.377 2378.08 566.117C2378.22 565.763 2378.33 565.393 2378.42 565.008C2378.54 564.476 2378.61 563.934 2378.83 563.427C2380.02 560.762 2383.53 560.826 2384.72 563.408C2384.91 563.808 2385.03 564.263 2385.1 564.772C2385.35 566.743 2385.88 568.346 2387.37 569.738C2387.98 570.309 2388.64 570.835 2389.33 571.315C2389.39 571.352 2389.45 571.367 2389.52 571.358C2389.58 571.349 2389.64 571.317 2389.68 571.268C2392.26 568.231 2394.61 564.96 2396.3 561.348C2396.78 560.341 2396.77 559.221 2397.85 558.587C2399.37 557.697 2400.94 558.89 2402.04 559.821C2404.85 562.197 2407.78 564.251 2410.82 565.986C2413.63 567.591 2416.74 568.339 2419.96 568.916C2420.54 569.02 2420.81 569.79 2420.07 569.98C2419.23 570.196 2418.35 570.402 2417.42 570.6C2411.17 571.925 2405.38 570.278 2400.41 566.331C2399.66 565.738 2398.99 565.081 2398.4 564.36C2398.39 564.343 2398.37 564.329 2398.35 564.32C2398.33 564.311 2398.31 564.306 2398.29 564.307C2398.26 564.308 2398.24 564.314 2398.22 564.325C2398.2 564.336 2398.18 564.351 2398.17 564.37C2396.3 567.062 2394.3 569.658 2392.08 572.033C2392.07 572.048 2392.06 572.066 2392.06 572.086C2392.05 572.105 2392.05 572.126 2392.06 572.145C2392.06 572.164 2392.08 572.182 2392.09 572.195C2392.11 572.208 2392.13 572.217 2392.15 572.221C2393.01 572.364 2393.87 572.5 2394.73 572.63C2395.32 572.718 2395.55 573.375 2395.03 573.719C2392.85 575.175 2390.34 576.269 2387.73 576.255C2387.59 576.254 2387.46 576.298 2387.34 576.387C2386.36 577.135 2385.4 577.804 2384.26 578.305C2383.67 578.566 2382.99 578.264 2383.08 577.546C2383.12 577.223 2383.33 576.931 2383.72 576.669C2384.14 576.377 2384.54 576.087 2384.92 575.799C2384.99 575.741 2384.98 575.695 2384.9 575.659Z" fill="white"/>
</svg>
