<svg width="126" height="126" viewBox="0 0 126 126" fill="none" xmlns="http://www.w3.org/2000/svg">
<g style="mix-blend-mode:screen" opacity="0.87">
<path d="M40.6311 9.46702C49.3135 9.34752 57.781 12.17 64.655 17.475C68.754 20.3742 72.115 24.1964 74.465 28.6332C76.815 33.07 78.089 37.9971 78.185 43.017C78.088 48.0397 76.813 52.9693 74.463 57.4094C72.113 61.8494 68.753 65.6764 64.655 68.5814C57.781 73.9094 49.3061 76.7554 40.6091 76.6554C31.9453 76.4234 23.6849 72.9444 17.4651 66.9094C14.2382 63.7894 11.6761 60.0483 9.9331 55.912C8.1902 51.7758 7.3023 47.3295 7.3231 42.841C7.2939 37.9927 8.3449 33.1987 10.3998 28.8072C12.4548 24.4158 15.462 20.5371 19.2031 17.453C25.2493 12.4656 32.7954 9.65322 40.6311 9.46702Z" fill="#B4CBDE"/>
</g>
<g style="mix-blend-mode:screen" opacity="0.9">
<path d="M41.1601 10.5223C49.7327 10.4277 58.0741 13.3039 64.7661 18.6623C68.5931 21.5011 71.7161 25.1817 73.8951 29.4198C76.0731 33.6578 77.2471 38.3399 77.3281 43.1043C77.2461 47.8746 76.0711 52.5624 73.8931 56.8074C71.7151 61.0523 68.5931 64.7414 64.7661 67.5904C58.0591 72.9204 49.7262 75.7854 41.1601 75.7084C32.6567 75.5624 24.523 72.2064 18.3901 66.3144C15.2589 63.2844 12.772 59.6526 11.0784 55.6378C9.3848 51.6231 8.5194 47.3076 8.5341 42.9503C8.5067 38.2183 9.5375 33.54 11.5511 29.2577C13.5647 24.9755 16.5102 21.1975 20.1721 18.2003C26.1027 13.3484 33.4986 10.6428 41.1601 10.5223Z" fill="#BBD2E6"/>
</g>
<g style="mix-blend-mode:screen" opacity="0.94">
<path d="M41.6872 11.5557C50.1473 11.5092 58.355 14.437 64.875 19.8277C68.43 22.614 71.316 26.1604 73.322 30.2069C75.328 34.2535 76.404 38.6977 76.469 43.2137C76.407 47.7296 75.331 52.1738 73.32 56.2179C71.31 60.2619 68.416 63.8024 64.853 66.5774C58.346 71.9764 50.1423 74.9064 41.6872 74.8494C33.3295 74.7494 25.326 71.4594 19.3132 65.6534C16.282 62.7204 13.8741 59.2052 12.2334 55.3192C10.5928 51.4331 9.75329 47.2559 9.76519 43.0377C9.72309 38.4067 10.7259 33.8259 12.6989 29.636C14.672 25.4462 17.5645 21.7552 21.1612 18.8377C26.9879 14.1682 34.2204 11.6024 41.6872 11.5557Z" fill="#C2DAEF"/>
</g>
<g style="mix-blend-mode:screen" opacity="0.97">
<path d="M42.2162 12.612C50.5701 12.5825 58.6541 15.5663 64.9861 21.016C68.3181 23.6963 71.0071 27.0897 72.8551 30.9466C74.7021 34.8035 75.6611 39.0255 75.6611 43.302C75.6611 47.5786 74.7021 51.8006 72.8551 55.6575C71.0071 59.5143 68.3181 62.9074 64.9861 65.5884C58.6651 71.0414 50.5863 74.0264 42.2382 73.9924C34.0409 74.0244 26.1521 70.8684 20.2382 65.1924C17.291 62.3384 14.9513 58.9189 13.3596 55.1383C11.768 51.3576 10.9572 47.2941 10.9762 43.192C10.9354 38.6881 11.9136 34.2331 13.8375 30.1605C15.7614 26.0879 18.5813 22.5031 22.0862 19.674C27.7991 15.1017 34.8988 12.611 42.2162 12.612Z" fill="#C8E1F7"/>
</g>
<g style="mix-blend-mode:screen">
<path d="M74.752 43.413C74.726 47.4277 73.85 51.3914 72.182 55.0431C70.513 58.6947 68.09 61.9515 65.072 64.5994C58.938 70.1064 50.9855 73.1544 42.7418 73.1574C34.6922 73.2054 26.9414 70.1114 21.1378 64.5334C18.2913 61.7679 16.0328 58.4562 14.498 54.7967C12.9631 51.1372 12.1834 47.2053 12.2058 43.237C12.2058 26.363 25.8678 13.647 42.7418 13.647C50.9855 13.6497 58.938 16.6974 65.072 22.205C68.092 24.8558 70.516 28.1163 72.184 31.7718C73.853 35.4273 74.728 39.3948 74.752 43.413Z" fill="#CFE9FF"/>
</g>
<g style="mix-blend-mode:multiply" opacity="0.69">
<path d="M48.3306 123.118C23.1406 117.332 3.3186 96.7184 3.3186 69.5264C3.3186 31.9941 37.1766 5.72613 73.719 11.7101C111.119 17.9581 132.767 53.3561 121.393 86.0704C111.295 115.176 79.131 130.224 48.3306 123.118Z" fill="#8C8C8C"/>
</g>
<g style="mix-blend-mode:multiply" opacity="0.75">
<path d="M51.5007 123.184C25.1887 118.454 4.48669 97.4004 4.48669 69.4384C4.48669 33.2481 36.4527 7.53011 71.8511 12.4141C107.953 17.3861 130.613 50.4521 121.615 82.8144C113.409 112.162 82.2131 128.772 51.5007 123.184Z" fill="#818181"/>
</g>
<g style="mix-blend-mode:multiply" opacity="0.81">
<path d="M54.6901 123.249C27.234 119.575 5.43201 97.9714 5.43201 69.3274C5.43201 34.5235 35.704 9.44346 69.9361 13.1175C104.674 16.8355 128.478 47.5255 121.812 79.3594C115.564 109.147 85.3361 127.363 54.6901 123.249Z" fill="#777777"/>
</g>
<g style="mix-blend-mode:multiply" opacity="0.88">
<path d="M57.858 123.316C29.302 120.786 6.51001 98.6544 6.51001 69.2404C6.51001 35.8002 34.978 11.4022 68.11 13.8222C101.506 16.3522 126.498 44.6222 122.098 76.0164C117.786 106.134 88.482 126.022 57.858 123.316Z" fill="#6C6C6C"/>
</g>
<g style="mix-blend-mode:multiply" opacity="0.94">
<path d="M61.025 123.361C31.3907 122.085 7.5647 99.1614 7.5647 69.1314C7.5647 37.0552 34.2507 13.3172 66.085 14.5272C97.919 15.7372 124.385 41.6312 122.207 72.6734C120.073 103.055 91.671 124.703 61.025 123.361Z" fill="#626262"/>
</g>
<g style="mix-blend-mode:multiply">
<path d="M122.403 69.3274C122.403 100.017 94.8811 123.425 64.1911 123.425C33.5015 123.425 8.61951 99.7094 8.61951 69.0194C8.61951 38.3295 33.5015 15.2075 64.1911 15.2075C94.8811 15.2075 122.403 38.6375 122.403 69.3274Z" fill="#575757"/>
</g>
<path d="M124.876 72.8223C130.388 38.5615 107.083 6.31925 72.822 0.807149C38.5615 -4.70505 6.31935 18.6 0.807147 52.8606C-4.70505 87.1213 18.6001 119.363 52.8606 124.875C87.121 130.388 119.363 107.082 124.876 72.8223Z" fill="url(#paint0_radial_12_71)"/>
<path d="M62.2801 123.756C95.9241 123.756 123.198 96.4824 123.198 62.8384C123.198 29.1943 95.9241 1.92041 62.2801 1.92041C28.6356 1.92041 1.36169 29.1943 1.36169 62.8384C1.36169 96.4824 28.6356 123.756 62.2801 123.756Z" fill="url(#paint1_radial_12_71)"/>
<g style="mix-blend-mode:multiply">
<path d="M16.2345 28.9807C18.9405 28.0347 25.8045 33.1827 25.1445 36.1087C24.4845 39.0347 22.6365 42.3127 25.1445 42.7087C27.6525 43.1047 31.9205 37.8247 31.9205 33.6007C31.9205 29.3767 37.7945 23.5027 41.0505 24.4707C44.3065 25.4387 44.0645 30.9167 46.5945 29.6847C49.1245 28.4527 45.9345 23.5027 50.1805 22.2047C54.4261 20.9067 70.3761 26.4507 71.6741 32.4567C72.9721 38.4627 75.5901 46.2947 73.3021 47.8567C71.0141 49.4187 79.2201 63.2564 82.1021 62.8604C89.8241 61.6947 85.6881 76.8524 82.1021 79.1404C78.5161 81.4284 66.4601 88.5784 62.3021 82.7264C58.1441 76.8744 46.5945 78.1504 51.8525 82.7264C57.1101 87.3024 65.6901 95.5964 62.3021 99.9964C57.9021 105.782 46.6165 110.644 43.7345 101.624C42.7225 98.4344 26.4865 97.0264 33.0865 91.1744C39.6865 85.3224 34.0545 72.2764 30.8865 77.1604C27.7185 82.0444 19.1605 85.3004 17.8625 75.8624C16.5645 66.4244 9.1945 71.6164 5.2785 63.4544C1.3625 55.2927 8.5345 31.6867 16.2345 28.9807Z" fill="#DDDDDD"/>
</g>
<g style="mix-blend-mode:multiply">
<path d="M91.605 39.694C85.401 39.474 84.433 32.214 82.167 33.094C79.901 33.974 76.623 41.894 76.623 47.746C76.623 53.598 85.093 58.504 89.977 55.578C94.861 52.652 95.609 39.848 91.605 39.694Z" fill="#DDDDDD"/>
</g>
<g style="mix-blend-mode:multiply">
<path d="M109.514 38.7261C106.28 39.0121 102.694 44.9081 105.62 46.5361C108.546 48.1641 110.504 51.0901 112.792 50.1221C115.08 49.1541 116.686 38.0661 109.514 38.7261Z" fill="#DDDDDD"/>
</g>
<g style="mix-blend-mode:multiply">
<path d="M97.7881 50.2553C98.4921 48.2973 104.63 49.0893 105.95 51.6853C106.658 52.8982 107.61 53.9507 108.746 54.7763C109.882 55.6018 111.178 56.1825 112.55 56.4813C114.178 56.4813 121.35 58.5273 121.35 62.7734C121.35 67.0194 120.03 78.3934 117.764 79.0534C115.498 79.7134 108.194 74.4994 109.712 71.8814C111.23 69.2634 109.712 69.6814 109.712 64.1594C109.712 58.6373 104.366 66.6894 104.63 68.2954C105.202 71.9914 113.738 77.4254 109.712 82.3094C105.686 87.1934 95.9401 81.0114 97.8761 75.4674C99.8121 69.9234 94.3121 66.3374 90.7261 62.7734C87.1401 59.2093 95.8521 55.7333 97.7881 50.2553Z" fill="#DDDDDD"/>
</g>
<g style="mix-blend-mode:multiply">
<path d="M57.086 16.9018C54.116 17.2538 53.7202 22.1378 57.944 21.0158C62.168 19.8938 61.684 16.3518 57.086 16.9018Z" fill="#DDDDDD"/>
</g>
<path d="M50.6857 58.0419C52.8857 56.9419 59.7281 59.252 54.1621 62.8384C48.5957 66.4244 44.8997 60.9679 50.6857 58.0419Z" fill="#E0E0E0"/>
<path d="M63.116 108.994C61.598 109.962 61.268 114.186 64.898 112.624C69.32 110.688 66.746 106.662 63.116 108.994Z" fill="#E0E0E0"/>
<g style="mix-blend-mode:multiply">
<path d="M74.8851 19.1674C73.4991 19.8714 66.2611 22.3134 70.7051 23.5674C72.7291 24.1394 81.4631 23.1274 80.6931 21.1034C80.4661 20.5714 80.1281 20.0937 79.7031 19.7018C79.2771 19.3098 78.7731 19.0126 78.2251 18.8296C77.6761 18.6467 77.0941 18.5822 76.5191 18.6404C75.9431 18.6986 75.3861 18.8783 74.8851 19.1674Z" fill="#DDDDDD"/>
</g>
<path d="M86.522 85.4541C85.95 84.3101 78.865 85.0801 81.285 88.3141C83.705 91.5481 83.64 88.5781 84.982 89.0841C87.688 90.0521 86.962 86.3121 86.522 85.4541Z" fill="#E0E0E0"/>
<g style="mix-blend-mode:multiply">
<path d="M41.2686 88.4471C41.2686 88.4471 39.8386 86.0271 38.6506 88.4471C37.4626 90.8671 41.8846 98.1491 44.0846 96.1911C46.2846 94.2331 45.5586 89.4371 44.0846 89.7231C43.5477 89.7491 43.0122 89.6471 42.5226 89.4251C42.0329 89.2031 41.6031 88.8681 41.2686 88.4471Z" fill="#DDDDDD"/>
</g>
<path d="M33.4165 108.07C28.7305 109.324 29.6105 114.868 33.9665 112.712C38.3225 110.556 34.4285 107.806 33.4165 108.07Z" fill="#DDDDDD"/>
<g style="mix-blend-mode:multiply">
<path d="M82.1011 111.965C79.4171 112.669 79.7031 115.375 82.1011 114.165C84.4991 112.955 82.6731 111.855 82.1011 111.965Z" fill="#DDDDDD"/>
</g>
<g style="mix-blend-mode:screen" opacity="0.4">
<path d="M106.96 92.0532C101.878 93.3952 103.022 99.6212 107.73 97.2672C112.438 94.9132 108.06 91.6792 106.96 92.0532Z" fill="#6B6B6B"/>
</g>
<path d="M19.5348 71.7915C17.2248 71.5715 18.3028 80.8115 23.0768 79.8435C27.8508 78.8755 32.2288 75.0255 23.8468 75.0255C19.2048 75.0255 21.1188 71.9235 19.5348 71.7915Z" fill="#A8A8A8"/>
<g style="mix-blend-mode:multiply">
<path d="M27.389 36.68C27.389 36.68 23.297 41.652 26.729 40.574C30.161 39.496 29.985 33.688 27.389 36.68Z" fill="#DDDDDD"/>
</g>
<path d="M39.6842 26.2745C37.6822 26.8025 34.2502 29.3545 37.4842 30.6745C40.7182 31.9945 43.1822 25.3285 39.6842 26.2745Z" fill="#D1D1D1"/>
<g style="mix-blend-mode:multiply">
<path d="M96.511 19.2349C105.188 29.7527 109.687 43.0971 109.152 56.7213C108.616 70.3454 103.083 83.2954 93.608 93.1004C84.133 102.904 71.379 108.876 57.781 109.876C44.1831 110.877 30.6929 106.835 19.885 98.5224C24.8271 104.631 31.0103 109.621 38.0254 113.16C45.0404 116.7 52.7274 118.709 60.577 119.055C68.427 119.401 76.261 118.076 83.56 115.167C90.86 112.258 97.458 107.832 102.918 102.182C108.379 96.5324 112.577 89.7864 115.234 82.3924C117.892 74.9974 118.949 67.1234 118.335 59.2897C117.721 51.4561 115.45 43.8424 111.672 36.9524C107.895 30.0624 102.697 24.0533 96.423 19.3229L96.511 19.2349Z" fill="#DBDBDB"/>
</g>
<g style="mix-blend-mode:soft-light">
<path d="M8.55645 50.1004C5.87245 67.2604 22.3285 93.3744 40.4125 93.3744C58.4961 93.3744 111.164 73.7944 99.8121 42.2244C93.9161 25.9004 76.6681 5.08838 58.5841 5.08838C40.5005 5.08838 13.2865 20.2904 8.55645 50.1004Z" fill="#C9C9C9"/>
</g>
<g style="mix-blend-mode:screen" opacity="0.3">
<path d="M48.265 34.722C15.023 50.452 12.383 57.536 13.527 50.254C18.103 21.214 44.525 10.522 51.235 10.522C57.945 10.522 99.635 10.412 48.265 34.722Z" fill="#FFF1D4"/>
</g>
<path d="M95.8959 82.2643C95.6729 82.2623 95.4549 82.1943 95.2699 82.0703C95.0849 81.9453 94.9399 81.7693 94.8529 81.5633C94.7669 81.3583 94.7419 81.1313 94.7829 80.9113C94.8239 80.6923 94.9279 80.4893 95.0819 80.3283C95.8079 79.6243 96.4899 79.5143 97.1059 80.3283C97.9859 81.5603 97.3259 82.2643 95.8959 82.2643Z" fill="url(#paint2_radial_12_71)"/>
<path d="M3.87092 74.6073C3.74862 74.6013 3.63102 74.5583 3.53312 74.4853C3.43522 74.4113 3.36152 74.3103 3.32142 74.1943C3.28122 74.0783 3.27652 73.9533 3.30772 73.8353C3.33902 73.7173 3.40492 73.6103 3.49692 73.5293C3.91492 73.1333 4.20092 73.0673 4.55292 73.5293C4.90492 73.9913 4.66292 74.6073 3.87092 74.6073Z" fill="url(#paint3_radial_12_71)"/>
<path d="M78.4039 108.73C78.2799 108.728 78.1589 108.688 78.0579 108.616C77.9569 108.544 77.8799 108.443 77.8369 108.327C77.7939 108.21 77.7869 108.084 77.8179 107.963C77.8479 107.843 77.9149 107.735 78.0079 107.652C78.4259 107.256 78.7339 107.19 79.0639 107.652C79.3939 108.114 79.2839 108.73 78.4039 108.73Z" fill="url(#paint4_radial_12_71)"/>
<defs>
<radialGradient id="paint0_radial_12_71" cx="0" cy="0" r="1" gradientUnits="userSpaceOnUse" gradientTransform="translate(38.8683 26.3959) scale(99.374 99.374)">
<stop stop-color="#F5F5F5"/>
<stop offset="1" stop-color="#F5F5F5"/>
</radialGradient>
<radialGradient id="paint1_radial_12_71" cx="0" cy="0" r="1" gradientUnits="userSpaceOnUse" gradientTransform="translate(39.0477 27.5064) scale(96.338 96.338)">
<stop stop-color="#E0E0E0"/>
<stop offset="1" stop-color="#E0E0E0"/>
</radialGradient>
<radialGradient id="paint2_radial_12_71" cx="0" cy="0" r="1" gradientUnits="userSpaceOnUse" gradientTransform="translate(94.6859 80.8343) scale(3.036 3.03601)">
<stop stop-color="#F5F5F5"/>
<stop offset="1" stop-color="#DCE7F0"/>
</radialGradient>
<radialGradient id="paint3_radial_12_71" cx="0" cy="0" r="1" gradientUnits="userSpaceOnUse" gradientTransform="translate(3.25492 73.8153) scale(1.65 1.64998)">
<stop stop-color="#F5F5F5"/>
<stop offset="1" stop-color="#DCE7F0"/>
</radialGradient>
<radialGradient id="paint4_radial_12_71" cx="0" cy="0" r="1" gradientUnits="userSpaceOnUse" gradientTransform="translate(77.7879 107.938) scale(1.65 1.65001)">
<stop stop-color="#F5F5F5"/>
<stop offset="1" stop-color="#DCE7F0"/>
</radialGradient>
</defs>
</svg>
