<svg width="1920" height="609" viewBox="0 0 1920 609" fill="none" xmlns="http://www.w3.org/2000/svg">
<g style="mix-blend-mode:multiply" opacity="0.25">
<path d="M-92.5746 204.604C-59.6175 203.341 -28.4689 187.55 3.13889 178.248L116.278 144.858C131.436 140.379 146.795 135.9 162.556 135.499C183.714 134.982 204.298 141.93 224.422 148.763L458.194 228.377C491.611 239.861 525.802 251.345 560.941 250.512C597.86 249.737 633.143 235.526 667.506 221.486L827.699 156.113C844.55 149.222 861.775 142.274 879.862 141.212C899.268 140.063 918.359 145.748 937.049 151.404L1214.17 235.296C1246.52 245.086 1279.94 254.991 1313.39 250.914C1338.22 247.9 1361.53 237.334 1384.44 226.884L1644.33 108.367C1657.89 102.166 1671.81 95.9069 1686.59 94.9307C1701.38 93.9545 1716.16 98.4621 1730.6 102.568C1926.68 158.208 2141.45 143.423 2325.18 233.889C2349.58 245.919 2374.19 260.647 2388.8 284.305C2403.41 307.962 2404.62 342.73 2384.81 361.823C2371.06 375.116 2351.1 378.044 2332.47 380.341C2246.35 390.992 2162.49 401.529 2078.98 422.143C1987.28 444.824 1879 438.192 1785.01 441.925C1586.14 449.841 1386.99 447.743 1188.33 435.637C1160.5 433.953 1132.7 432.039 1104.91 429.895C810.1 407.702 516.013 363.43 220.489 369.603C96.1538 372.216 -30.5072 383.528 -150.68 350.195" fill="url(#paint0_linear_784_924)"/>
</g>
<path d="M-199.743 259.585C-164.317 229.985 -123.838 204.834 -78.9956 197.456C-34.1532 190.077 11.6939 201.016 56.3928 210.203C156.212 230.76 258.47 242.129 360.241 236.904C454.979 232.023 535.362 199.15 625.965 174.315C636.587 171.444 647.439 168.573 658.377 169.406C676.205 170.956 691.564 182.469 706.664 192.374C785.096 244.541 878.426 265.356 969.489 285.223C1004.54 292.889 1040.37 300.583 1075.94 296.22C1104.5 292.717 1131.63 281.606 1158.13 270.036C1224.35 241.139 1289.05 208.864 1351.97 173.339C1390.9 151.347 1452.88 108.942 1496.14 101.017C1516.01 97.3713 1535.87 105.554 1554.71 113.076C1821.69 219.678 2121.7 220.281 2381.51 344.855C2409.47 358.263 2438.52 374.771 2452.59 403.281C2414.32 419.071 2372.58 423.033 2331.44 425.388C2042.98 441.695 1753.89 384.246 1465.77 403.482C1298.54 414.65 1133.44 451.543 966.044 459.266C640.922 474.253 316.691 378.877 -7.65544 406.869" fill="url(#paint1_linear_784_924)"/>
<path d="M1219.11 335.783C1196.14 336.012 1173.17 336.615 1150.21 337.591C1111.39 339.228 1072.38 341.898 1033.82 337.017C1005.86 333.486 978.532 326.021 951.288 318.585C903.202 305.464 847.708 277.185 833.584 279.682C819.46 282.18 728.397 325.275 705.258 325.275C682.119 325.275 574.52 282.209 532.003 271.127C420.098 241.555 306.988 214.998 201.399 165.559C155.81 144.198 110.479 120.34 61.3021 111.009C32.1057 105.525 1.21558 105.037 -25.1386 90.9115C-41.9904 81.8391 -55.7704 67.7709 -70.5552 55.368C-98.4297 31.9388 -130.611 14.1792 -165.293 3.08638C-170.541 0.932499 -176.278 0.247686 -181.886 1.10536C-188.374 2.65572 -193.369 7.90975 -197.934 12.9341C-317.159 143.164 -435.581 280.4 -525.496 434.747C-530.204 442.786 -534.883 452.921 -530.433 461.103C-526.96 467.448 -519.409 469.717 -512.606 471.353C-365.418 506.15 -210.91 487.804 -62.402 515.826C14.6511 530.382 89.063 557.197 165.513 574.883C286.088 602.789 410.481 607.613 534.013 608.388C872.424 610.488 1210.37 583.09 1544.03 526.506C1577.36 520.764 1611.87 509.28 1645.4 507.012C1674.11 505.059 1699.43 512.754 1727.19 497.393C1750.41 484.589 1766.92 454.328 1756.07 429.321C1751.16 418.038 1741.71 409.683 1731.49 403.109C1703.3 384.763 1669.86 377.642 1637.1 371.527C1499.24 346.234 1359.26 334.263 1219.11 335.783Z" fill="url(#paint2_linear_784_924)"/>
<defs>
<linearGradient id="paint0_linear_784_924" x1="1124.51" y1="446.633" x2="1124.51" y2="94.8159" gradientUnits="userSpaceOnUse">
<stop offset="0.36" stop-color="#FFFFDB"/>
<stop offset="0.47" stop-color="#FBFEDB"/>
<stop offset="0.6" stop-color="#EDFCDD"/>
<stop offset="0.73" stop-color="#D8F7DF"/>
<stop offset="0.86" stop-color="#B9F2E1"/>
<stop offset="1" stop-color="#92EAE5"/>
</linearGradient>
<linearGradient id="paint1_linear_784_924" x1="1126.38" y1="460.874" x2="1126.38" y2="100.127" gradientUnits="userSpaceOnUse">
<stop stop-color="#FFFFF3"/>
<stop offset="0.26" stop-color="#FBFFF2"/>
<stop offset="0.54" stop-color="#EDFEF0"/>
<stop offset="0.83" stop-color="#D8FEED"/>
<stop offset="1" stop-color="#C8FDEA"/>
</linearGradient>
<linearGradient id="paint2_linear_784_924" x1="576.128" y1="664.431" x2="666.974" y2="149.11" gradientUnits="userSpaceOnUse">
<stop offset="0.37" stop-color="#F4FFF1"/>
<stop offset="0.51" stop-color="#EBFFEE"/>
<stop offset="0.74" stop-color="#D4FFE5"/>
<stop offset="0.89" stop-color="#C2FFDE"/>
</linearGradient>
</defs>
</svg>
