<svg width="220" height="220" viewBox="0 0 220 220" fill="none" xmlns="http://www.w3.org/2000/svg">
<g clip-path="url(#clip0_1929_4147)">
<g style="mix-blend-mode:screen" opacity="0.87">
<path d="M86.7461 47.2126C95.4285 47.0931 103.896 49.9156 110.77 55.2206C114.869 58.1198 118.23 61.942 120.58 66.3788C122.93 70.8156 124.204 75.7427 124.3 80.7626C124.203 85.7853 122.928 90.7149 120.578 95.155C118.228 99.595 114.868 103.422 110.77 106.327C103.896 111.655 95.4211 114.501 86.7241 114.401C78.0603 114.169 69.7999 110.69 63.5801 104.655C60.3532 101.535 57.7911 97.7939 56.0481 93.6576C54.3052 89.5214 53.4173 85.0751 53.4381 80.5866C53.4089 75.7383 54.4599 70.9443 56.5148 66.5528C58.5698 62.1614 61.577 58.2827 65.3181 55.1986C71.3643 50.2112 78.9104 47.3988 86.7461 47.2126V47.2126Z" fill="#B4CBDE"/>
</g>
<g style="mix-blend-mode:screen" opacity="0.9">
<path d="M87.275 48.2679C95.8476 48.1733 104.189 51.0495 110.881 56.4079C114.708 59.2467 117.831 62.9273 120.01 67.1654C122.188 71.4034 123.362 76.0855 123.443 80.8499C123.361 85.6202 122.186 90.308 120.008 94.553C117.83 98.7979 114.708 102.487 110.881 105.336C104.174 110.666 95.8411 113.531 87.275 113.454C78.7716 113.308 70.6379 109.952 64.505 104.06C61.3738 101.03 58.8869 97.3982 57.1933 93.3834C55.4997 89.3687 54.6343 85.0532 54.649 80.6959C54.6216 75.9639 55.6524 71.2856 57.666 67.0033C59.6796 62.7211 62.6251 58.9431 66.287 55.9459C72.2176 51.094 79.6135 48.3884 87.275 48.2679V48.2679Z" fill="#BBD2E6"/>
</g>
<g style="mix-blend-mode:screen" opacity="0.94">
<path d="M87.8022 49.3013C96.2623 49.2548 104.47 52.1826 110.99 57.5733C114.545 60.3596 117.431 63.906 119.437 67.9525C121.443 71.9991 122.519 76.4433 122.584 80.9593C122.522 85.4752 121.446 89.9194 119.435 93.9635C117.425 98.0075 114.531 101.548 110.968 104.323C104.461 109.722 96.2573 112.652 87.8022 112.595C79.4445 112.495 71.441 109.205 65.4282 103.399C62.397 100.466 59.9891 96.9508 58.3484 93.0648C56.7078 89.1787 55.8683 85.0015 55.8802 80.7833C55.8381 76.1523 56.8409 71.5715 58.8139 67.3816C60.787 63.1918 63.6795 59.5008 67.2762 56.5833C73.1029 51.9138 80.3354 49.348 87.8022 49.3013V49.3013Z" fill="#C2DAEF"/>
</g>
<g style="mix-blend-mode:screen" opacity="0.97">
<path d="M88.3311 50.3576C96.685 50.3281 104.769 53.3119 111.101 58.7616C114.433 61.4419 117.122 64.8353 118.97 68.6922C120.817 72.5491 121.776 76.7711 121.776 81.0476C121.776 85.3242 120.817 89.5462 118.97 93.4031C117.122 97.2599 114.433 100.653 111.101 103.334C104.78 108.787 96.7012 111.772 88.3531 111.738C80.1558 111.77 72.267 108.614 66.3531 102.938C63.4059 100.084 61.0662 96.6645 59.4745 92.8839C57.8829 89.1032 57.0721 85.0397 57.0911 80.9376C57.0503 76.4337 58.0285 71.9787 59.9524 67.9061C61.8763 63.8335 64.6962 60.2487 68.2011 57.4196C73.914 52.8473 81.0137 50.3566 88.3311 50.3576Z" fill="#C8E1F7"/>
</g>
<g style="mix-blend-mode:screen">
<path d="M120.867 81.1586C120.841 85.1733 119.965 89.137 118.297 92.7887C116.628 96.4403 114.205 99.6971 111.187 102.345C105.053 107.852 97.1005 110.9 88.8568 110.903C80.8072 110.951 73.0564 107.857 67.2528 102.279C64.4063 99.5135 62.1478 96.2018 60.613 92.5423C59.0781 88.8828 58.2984 84.9509 58.3208 80.9826C58.3208 64.1086 71.9828 51.3926 88.8568 51.3926C97.1005 51.3953 105.053 54.443 111.187 59.9506C114.207 62.6014 116.631 65.8619 118.299 69.5174C119.968 73.1729 120.843 77.1404 120.867 81.1586V81.1586Z" fill="#CFE9FF"/>
</g>
<g style="mix-blend-mode:multiply" opacity="0.06">
<path d="M62.7226 203.269C55.2393 196.827 49.2303 188.851 45.1039 179.88C40.9776 170.91 38.8305 161.157 38.8086 151.283C38.8086 100.023 90.5966 67.4189 138.975 85.4369C189.905 104.445 202.643 164.637 165.573 200.277C137.831 227.051 92.7086 229.581 62.7226 203.269Z" fill="#F5F5F5"/>
</g>
<g style="mix-blend-mode:multiply" opacity="0.69">
<path d="M94.4456 160.864C69.2556 155.078 49.4336 134.464 49.4336 107.272C49.4336 69.7397 83.2916 43.4717 119.834 49.4557C157.234 55.7037 178.882 91.1017 167.508 123.816C157.41 152.922 125.246 167.97 94.4456 160.864Z" fill="#8C8C8C"/>
</g>
<g style="mix-blend-mode:multiply" opacity="0.75">
<path d="M97.6156 160.93C71.3036 156.2 50.6016 135.146 50.6016 107.184C50.6016 70.9937 82.5676 45.2757 117.966 50.1597C154.068 55.1317 176.728 88.1977 167.73 120.56C159.524 149.908 128.328 166.518 97.6156 160.93Z" fill="#818181"/>
</g>
<g style="mix-blend-mode:multiply" opacity="0.81">
<path d="M100.805 160.995C73.3489 157.321 51.5469 135.717 51.5469 107.073C51.5469 72.2691 81.8189 47.1891 116.051 50.8631C150.789 54.5811 174.593 85.2711 167.927 117.105C161.679 146.893 131.451 165.109 100.805 160.995Z" fill="#777777"/>
</g>
<g style="mix-blend-mode:multiply" opacity="0.88">
<path d="M103.973 161.062C75.417 158.532 52.625 136.4 52.625 106.986C52.625 73.5458 81.093 49.1478 114.225 51.5678C147.621 54.0978 172.613 82.3678 168.213 113.762C163.901 143.88 134.597 163.768 103.973 161.062Z" fill="#6C6C6C"/>
</g>
<g style="mix-blend-mode:multiply" opacity="0.94">
<path d="M107.14 161.107C77.5057 159.831 53.6797 136.907 53.6797 106.877C53.6797 74.8008 80.3657 51.0628 112.2 52.2728C144.034 53.4828 170.5 79.3768 168.322 110.419C166.188 140.801 137.786 162.449 107.14 161.107Z" fill="#626262"/>
</g>
<g style="mix-blend-mode:multiply">
<path d="M168.518 107.073C168.518 137.763 140.996 161.171 110.306 161.171C79.6164 161.171 54.7344 137.455 54.7344 106.765C54.7344 76.0751 79.6164 52.9531 110.306 52.9531C140.996 52.9531 168.518 76.3831 168.518 107.073Z" fill="#575757"/>
</g>
<path d="M170.991 110.568C176.503 76.3072 153.198 44.065 118.937 38.5529C84.6765 33.0407 52.4343 56.3458 46.9221 90.6064C41.4099 124.867 64.7151 157.109 98.9756 162.621C133.236 168.134 165.478 144.828 170.991 110.568Z" fill="url(#paint0_radial_1929_4147)"/>
<path d="M108.395 161.502C142.039 161.502 169.313 134.228 169.313 100.584C169.313 66.9399 142.039 39.666 108.395 39.666C74.7505 39.666 47.4766 66.9399 47.4766 100.584C47.4766 134.228 74.7505 161.502 108.395 161.502Z" fill="url(#paint1_radial_1929_4147)"/>
<g style="mix-blend-mode:multiply">
<path d="M62.3494 66.7263C65.0554 65.7803 71.9194 70.9283 71.2594 73.8543C70.5994 76.7803 68.7514 80.0583 71.2594 80.4543C73.7674 80.8503 78.0354 75.5703 78.0354 71.3463C78.0354 67.1223 83.9094 61.2483 87.1654 62.2163C90.4214 63.1843 90.1794 68.6623 92.7094 67.4303C95.2394 66.1983 92.0494 61.2483 96.2954 59.9503C100.541 58.6523 116.491 64.1963 117.789 70.2023C119.087 76.2083 121.705 84.0403 119.417 85.6023C117.129 87.1643 125.335 101.002 128.217 100.606C135.939 99.4403 131.803 114.598 128.217 116.886C124.631 119.174 112.575 126.324 108.417 120.472C104.259 114.62 92.7094 115.896 97.9674 120.472C103.225 125.048 111.805 133.342 108.417 137.742C104.017 143.528 92.7314 148.39 89.8494 139.37C88.8374 136.18 72.6014 134.772 79.2014 128.92C85.8014 123.068 80.1694 110.022 77.0014 114.906C73.8334 119.79 65.2754 123.046 63.9774 113.608C62.6794 104.17 55.3094 109.362 51.3934 101.2C47.4774 93.0383 54.6494 69.4323 62.3494 66.7263Z" fill="#DDDDDD"/>
</g>
<g style="mix-blend-mode:multiply">
<path d="M137.72 77.4396C131.516 77.2196 130.548 69.9596 128.282 70.8396C126.016 71.7196 122.738 79.6396 122.738 85.4916C122.738 91.3436 131.208 96.2496 136.092 93.3236C140.976 90.3976 141.724 77.5936 137.72 77.4396Z" fill="#DDDDDD"/>
</g>
<g style="mix-blend-mode:multiply">
<path d="M155.629 76.4717C152.395 76.7577 148.809 82.6537 151.735 84.2817C154.661 85.9097 156.619 88.8357 158.907 87.8677C161.195 86.8997 162.801 75.8117 155.629 76.4717Z" fill="#DDDDDD"/>
</g>
<g style="mix-blend-mode:multiply">
<path d="M143.903 88.0009C144.607 86.0429 150.745 86.8349 152.065 89.4309C152.773 90.6438 153.725 91.6963 154.861 92.5219C155.997 93.3474 157.293 93.9281 158.665 94.2269C160.293 94.2269 167.465 96.2729 167.465 100.519C167.465 104.765 166.145 116.139 163.879 116.799C161.613 117.459 154.309 112.245 155.827 109.627C157.345 107.009 155.827 107.427 155.827 101.905C155.827 96.3829 150.481 104.435 150.745 106.041C151.317 109.737 159.853 115.171 155.827 120.055C151.801 124.939 142.055 118.757 143.991 113.213C145.927 107.669 140.427 104.083 136.841 100.519C133.255 96.9549 141.967 93.4789 143.903 88.0009Z" fill="#DDDDDD"/>
</g>
<g style="mix-blend-mode:multiply">
<path d="M103.201 54.6474C100.231 54.9994 99.8352 59.8834 104.059 58.7614C108.283 57.6394 107.799 54.0974 103.201 54.6474Z" fill="#DDDDDD"/>
</g>
<path d="M96.8006 95.7876C99.0006 94.6876 105.843 96.9976 100.277 100.584C94.7106 104.17 91.0146 98.7136 96.8006 95.7876Z" fill="#E0E0E0"/>
<path d="M109.231 146.74C107.713 147.708 107.383 151.932 111.013 150.37C115.435 148.434 112.861 144.408 109.231 146.74Z" fill="#E0E0E0"/>
<g style="mix-blend-mode:multiply">
<path d="M121 56.913C119.614 57.617 112.376 60.059 116.82 61.313C118.844 61.885 127.578 60.873 126.808 58.849C126.581 58.317 126.243 57.8393 125.818 57.4474C125.392 57.0554 124.888 56.7582 124.34 56.5752C123.791 56.3923 123.209 56.3278 122.634 56.386C122.058 56.4442 121.501 56.6239 121 56.913V56.913Z" fill="#DDDDDD"/>
</g>
<path d="M132.637 123.2C132.065 122.056 124.98 122.826 127.4 126.06C129.82 129.294 129.755 126.324 131.097 126.83C133.803 127.798 133.077 124.058 132.637 123.2Z" fill="#E0E0E0"/>
<g style="mix-blend-mode:multiply">
<path d="M87.3836 126.193C87.3836 126.193 85.9536 123.773 84.7656 126.193C83.5776 128.613 87.9996 135.895 90.1996 133.937C92.3996 131.979 91.6736 127.183 90.1996 127.469C89.6627 127.495 89.1272 127.393 88.6376 127.171C88.1479 126.949 87.7181 126.614 87.3836 126.193V126.193Z" fill="#DDDDDD"/>
</g>
<path d="M79.5314 145.816C74.8454 147.07 75.7254 152.614 80.0814 150.458C84.4374 148.302 80.5434 145.552 79.5314 145.816Z" fill="#DDDDDD"/>
<g style="mix-blend-mode:multiply">
<path d="M128.216 149.711C125.532 150.415 125.818 153.121 128.216 151.911C130.614 150.701 128.788 149.601 128.216 149.711Z" fill="#DDDDDD"/>
</g>
<g style="mix-blend-mode:screen" opacity="0.4">
<path d="M153.075 129.799C147.993 131.141 149.137 137.367 153.845 135.013C158.553 132.659 154.175 129.425 153.075 129.799Z" fill="#6B6B6B"/>
</g>
<path d="M65.6498 109.537C63.3398 109.317 64.4178 118.557 69.1918 117.589C73.9658 116.621 78.3438 112.771 69.9618 112.771C65.3198 112.771 67.2338 109.669 65.6498 109.537Z" fill="#A8A8A8"/>
<g style="mix-blend-mode:multiply">
<path d="M73.5039 74.4256C73.5039 74.4256 69.4119 79.3976 72.8439 78.3196C76.2759 77.2416 76.0999 71.4336 73.5039 74.4256Z" fill="#DDDDDD"/>
</g>
<path d="M85.7991 64.0201C83.7971 64.5481 80.3651 67.1001 83.5991 68.4201C86.8331 69.7401 89.2971 63.0741 85.7991 64.0201Z" fill="#D1D1D1"/>
<g style="mix-blend-mode:multiply">
<path d="M142.626 56.9805C151.303 67.4983 155.802 80.8427 155.267 94.4669C154.731 108.091 149.198 121.041 139.723 130.846C130.248 140.65 117.494 146.622 103.896 147.622C90.2981 148.623 76.8079 144.581 66 136.268C70.9421 142.377 77.1253 147.367 84.1404 150.906C91.1554 154.446 98.8424 156.455 106.692 156.801C114.542 157.147 122.376 155.822 129.675 152.913C136.975 150.004 143.573 145.578 149.033 139.928C154.494 134.278 158.692 127.532 161.349 120.138C164.007 112.743 165.064 104.869 164.45 97.0353C163.836 89.2017 161.565 81.588 157.787 74.698C154.01 67.808 148.812 61.7989 142.538 57.0685L142.626 56.9805Z" fill="#DBDBDB"/>
</g>
<g style="mix-blend-mode:soft-light">
<path d="M54.6714 87.846C51.9874 105.006 68.4434 131.12 86.5274 131.12C104.611 131.12 157.279 111.54 145.927 79.97C140.031 63.646 122.783 42.834 104.699 42.834C86.6154 42.834 59.4014 58.036 54.6714 87.846Z" fill="#C9C9C9"/>
</g>
<g style="mix-blend-mode:screen" opacity="0.3">
<path d="M94.38 72.4676C61.138 88.1976 58.498 95.2816 59.642 87.9996C64.218 58.9596 90.64 48.2676 97.35 48.2676C104.06 48.2676 145.75 48.1576 94.38 72.4676Z" fill="#FFF1D4"/>
</g>
<path d="M142.011 120.01C141.788 120.008 141.57 119.94 141.385 119.816C141.2 119.691 141.055 119.515 140.968 119.309C140.882 119.104 140.857 118.877 140.898 118.657C140.939 118.438 141.043 118.235 141.197 118.074C141.923 117.37 142.605 117.26 143.221 118.074C144.101 119.306 143.441 120.01 142.011 120.01Z" fill="url(#paint2_radial_1929_4147)"/>
<path d="M49.9859 112.353C49.8636 112.347 49.746 112.304 49.6481 112.231C49.5502 112.157 49.4765 112.056 49.4364 111.94C49.3962 111.824 49.3915 111.699 49.4227 111.581C49.454 111.463 49.5199 111.356 49.6119 111.275C50.0299 110.879 50.3159 110.813 50.6679 111.275C51.0199 111.737 50.7779 112.353 49.9859 112.353Z" fill="url(#paint3_radial_1929_4147)"/>
<path d="M124.519 146.476C124.395 146.474 124.274 146.434 124.173 146.362C124.072 146.29 123.995 146.189 123.952 146.073C123.909 145.956 123.902 145.83 123.933 145.709C123.963 145.589 124.03 145.481 124.123 145.398C124.541 145.002 124.849 144.936 125.179 145.398C125.509 145.86 125.399 146.476 124.519 146.476Z" fill="url(#paint4_radial_1929_4147)"/>
<path style="mix-blend-mode:color-dodge" opacity="0.3" d="M172.24 140.58C172.416 141.108 161.504 145.266 147.864 149.864C134.224 154.462 123.026 157.784 122.85 157.278C122.674 156.772 133.586 152.592 147.226 147.994C160.866 143.396 172.064 140.074 172.24 140.58Z" fill="url(#paint5_radial_1929_4147)"/>
<path style="mix-blend-mode:color-dodge" opacity="0.3" d="M162.954 127.6C163.394 127.93 156.838 137.72 148.324 149.446C139.81 161.172 132.55 170.39 132.132 170.082C131.714 169.774 138.248 159.984 146.762 148.258C155.276 136.532 162.536 127.38 162.954 127.6Z" fill="url(#paint6_radial_1929_4147)"/>
<path style="mix-blend-mode:color-dodge" opacity="0.3" d="M136.4 124.761C136.884 124.541 142.252 135.167 148.39 148.521C154.528 161.875 159.082 172.875 158.598 173.095C158.114 173.315 152.79 162.799 146.652 149.335C140.514 135.871 135.96 124.981 136.4 124.761Z" fill="url(#paint7_radial_1929_4147)"/>
</g>
<defs>
<radialGradient id="paint0_radial_1929_4147" cx="0" cy="0" r="1" gradientUnits="userSpaceOnUse" gradientTransform="translate(84.9833 64.1417) scale(99.374 99.374)">
<stop stop-color="#F5F5F5"/>
<stop offset="1" stop-color="#F5F5F5"/>
</radialGradient>
<radialGradient id="paint1_radial_1929_4147" cx="0" cy="0" r="1" gradientUnits="userSpaceOnUse" gradientTransform="translate(85.1626 65.252) scale(96.338 96.338)">
<stop stop-color="#E0E0E0"/>
<stop offset="1" stop-color="#E0E0E0"/>
</radialGradient>
<radialGradient id="paint2_radial_1929_4147" cx="0" cy="0" r="1" gradientUnits="userSpaceOnUse" gradientTransform="translate(140.801 118.58) scale(3.036)">
<stop stop-color="#F5F5F5"/>
<stop offset="1" stop-color="#DCE7F0"/>
</radialGradient>
<radialGradient id="paint3_radial_1929_4147" cx="0" cy="0" r="1" gradientUnits="userSpaceOnUse" gradientTransform="translate(49.3699 111.561) scale(1.65 1.64999)">
<stop stop-color="#F5F5F5"/>
<stop offset="1" stop-color="#DCE7F0"/>
</radialGradient>
<radialGradient id="paint4_radial_1929_4147" cx="0" cy="0" r="1" gradientUnits="userSpaceOnUse" gradientTransform="translate(123.903 145.684) scale(1.65 1.65001)">
<stop stop-color="#F5F5F5"/>
<stop offset="1" stop-color="#DCE7F0"/>
</radialGradient>
<radialGradient id="paint5_radial_1929_4147" cx="0" cy="0" r="1" gradientUnits="userSpaceOnUse" gradientTransform="translate(587.276 -611.181) rotate(-18.6157) scale(25.9794 1.06513)">
<stop stop-color="#545454"/>
<stop offset="0.13" stop-color="#3F3F3F"/>
<stop offset="0.35" stop-color="#232323"/>
<stop offset="0.56" stop-color="#101010"/>
<stop offset="0.78" stop-color="#040404"/>
<stop offset="1"/>
</radialGradient>
<radialGradient id="paint6_radial_1929_4147" cx="0" cy="0" r="1" gradientUnits="userSpaceOnUse" gradientTransform="translate(259.775 918.326) rotate(-53.8068) scale(26.3325 0.933523)">
<stop stop-color="#545454"/>
<stop offset="0.13" stop-color="#3F3F3F"/>
<stop offset="0.35" stop-color="#232323"/>
<stop offset="0.56" stop-color="#101010"/>
<stop offset="0.78" stop-color="#040404"/>
<stop offset="1"/>
</radialGradient>
<radialGradient id="paint7_radial_1929_4147" cx="0" cy="0" r="1" gradientUnits="userSpaceOnUse" gradientTransform="translate(587.259 702.663) rotate(-114.814) scale(26.576 0.924008)">
<stop stop-color="#545454"/>
<stop offset="0.13" stop-color="#3F3F3F"/>
<stop offset="0.35" stop-color="#232323"/>
<stop offset="0.56" stop-color="#101010"/>
<stop offset="0.78" stop-color="#040404"/>
<stop offset="1"/>
</radialGradient>
<clipPath id="clip0_1929_4147">
<rect width="220" height="220" fill="white"/>
</clipPath>
</defs>
</svg>
