<svg width="1920" height="709" viewBox="0 0 1920 709" fill="none" xmlns="http://www.w3.org/2000/svg">
<path d="M1632.03 171.98C1679.39 173.264 1725.89 160.554 1764.3 135.831C1805.42 109.377 1848.9 67.3637 1895.89 83.2228C1912.08 88.6868 1924.9 100.581 1940.75 106.811C1993.35 127.368 2047.53 80.1576 2104.24 74.0605C2118.44 72.5612 2135.42 75.1933 2141.96 86.9543C2151.79 104.579 2137.14 145.126 2171.53 146.592C2179.98 146.959 2187.98 143.261 2196.13 141.262C2204.28 139.263 2214.04 138.596 2220.28 143.927C2224.58 147.658 2226.15 153.256 2228.73 158.187C2235.2 169.319 2246.17 177.845 2259.42 182.042C2272.21 186.507 2294.75 195.369 2308.32 196.868C2089.55 193.536 1766.73 200 1547.92 196.868C1571.78 179.98 1601.58 171.163 1632.03 171.98Z" fill="url(#paint0_linear_479_87)"/>
<path d="M-386.78 304.483C-385.665 287.343 -381.748 270.439 -375.153 254.307C-351.077 197.668 -280.009 154.755 -213.987 170.081C-193.339 175.134 -174.128 184.029 -157.618 196.181C-141.109 208.333 -127.677 223.465 -118.208 240.581C-106.992 260.738 -98.8052 285.759 -76.0753 293.888C-34.9521 308.781 1.64749 253.541 45.8362 256.04C74.6224 257.639 94.1747 282.694 112.045 303.55C129.914 324.407 155.672 341.532 182.627 332.103C191.001 329.171 197.917 323.574 205.805 319.643C231.638 306.682 275.266 309.414 299.267 325.007C323.268 340.599 338.671 383.645 363.98 391.975C391.57 401.037 430.712 388.043 454.937 388.31C507.762 388.876 546.193 393.94 591.802 414.764H-245.316C-336.235 414.764 -366.891 385.511 -382.293 349.595C-388.35 335.568 -387.976 319.743 -386.78 304.483Z" fill="url(#paint1_linear_479_87)"/>
<path d="M191.45 46.1075C192.308 45.1147 193.3 44.2196 194.403 43.4421C199.654 40.5003 205.611 38.7078 211.787 38.2113C224.012 36.2456 236.91 33.4802 245.807 25.4507C254.705 17.4213 258.107 5.26044 262.631 -5.70097C269.883 -23.3258 281.921 -40.0178 299.641 -49.2801C317.362 -58.5423 341.363 -58.7755 356.877 -46.548C375.009 -32.2882 376.504 -7.43348 384.505 13.4232C385.888 17.0214 388.991 21.2861 392.954 20.0866C393.855 19.7331 394.669 19.2244 395.349 18.5898C396.029 17.9551 396.562 17.207 396.916 16.3884C400.655 10.0581 401.365 2.36182 406.038 -3.40208C415.983 -15.7295 438.264 -11.9313 449.591 -0.670044C460.919 10.5912 464.994 26.3503 471.237 40.6434C471.792 43.2075 472.91 45.6484 474.528 47.8256C476.146 50.0027 478.231 51.8729 480.664 53.3285C483.096 54.7841 485.828 55.7963 488.701 56.3067C491.575 56.8172 494.533 56.8158 497.406 56.3026C510.292 56.0583 523.152 55.292 535.987 54.0037C550.941 52.4711 556.437 65.6981 569.11 65.6981H284.463C257.808 65.6981 230.367 67.3973 203.899 64.4653C198.516 63.8656 192.422 62.6329 189.656 58.3016C188.619 56.3281 188.237 54.1316 188.555 51.9711C188.873 49.8106 189.878 47.7761 191.45 46.1075Z" fill="url(#paint2_linear_479_87)"/>
<g style="mix-blend-mode:multiply" opacity="0.25">
<path d="M256.312 438.719C278.347 437.874 299.173 427.317 320.306 421.097L395.95 398.773C406.085 395.778 416.354 392.784 426.892 392.515C441.038 392.169 454.8 396.815 468.255 401.383L624.554 454.613C646.896 462.291 669.757 469.969 693.25 469.413C717.934 468.894 741.524 459.393 764.5 450.006L871.604 406.297C882.871 401.69 894.387 397.045 906.48 396.335C919.455 395.567 932.219 399.368 944.715 403.149L1130 459.239C1151.63 465.785 1173.97 472.407 1196.33 469.682C1212.94 467.666 1228.52 460.602 1243.84 453.615L1417.6 374.375C1426.66 370.229 1435.97 366.044 1445.86 365.391C1455.74 364.739 1465.63 367.752 1475.28 370.497C1606.38 407.699 1749.97 397.813 1872.82 458.299C1889.13 466.341 1905.58 476.189 1915.35 492.006C1925.12 507.823 1925.93 531.069 1912.68 543.834C1903.49 552.722 1890.15 554.68 1877.69 556.216C1820.11 563.337 1764.04 570.382 1708.2 584.165C1646.9 599.329 1574.5 594.895 1511.66 597.39C1378.69 602.683 1245.55 601.28 1112.72 593.187C1094.12 592.06 1075.52 590.781 1056.94 589.347C859.838 574.509 663.211 544.909 465.626 549.036C382.495 550.783 297.81 558.346 217.463 536.06" fill="url(#paint3_linear_479_87)"/>
</g>
<path d="M1126.2 519.322C1184.36 519.322 1231.52 470.206 1231.52 409.618C1231.52 349.031 1184.36 299.915 1126.2 299.915C1068.03 299.915 1020.88 349.031 1020.88 409.618C1020.88 470.206 1068.03 519.322 1126.2 519.322Z" fill="url(#paint4_linear_479_87)"/>
<path d="M184.66 475.479C208.346 455.688 235.41 438.873 265.391 433.939C295.373 429.006 326.026 436.32 355.911 442.462C422.65 456.206 491.02 463.808 559.064 460.314C622.405 457.051 676.149 435.072 736.726 418.468C743.828 416.548 751.083 414.628 758.396 415.185C770.316 416.222 780.585 423.919 790.681 430.542C843.12 465.42 905.52 479.337 966.404 492.62C989.841 497.746 1013.8 502.89 1037.58 499.972C1056.68 497.631 1074.81 490.202 1092.53 482.466C1136.81 463.145 1180.06 441.567 1222.13 417.815C1248.16 403.111 1289.6 374.759 1318.52 369.461C1331.81 367.023 1345.09 372.494 1357.68 377.523C1536.19 448.797 1736.77 449.2 1910.47 532.49C1929.17 541.454 1948.59 552.492 1958 571.553C1932.41 582.111 1904.51 584.76 1877 586.334C1684.14 597.237 1490.85 558.826 1298.22 571.687C1186.41 579.155 1076.02 603.821 964.101 608.985C746.726 619.005 529.946 555.237 313.089 573.953" fill="url(#paint5_linear_479_87)"/>
<path d="M1133.3 526.424C1117.94 526.578 1102.59 526.981 1087.23 527.633C1061.28 528.728 1035.2 530.513 1009.42 527.25C990.724 524.888 972.451 519.898 954.235 514.926C922.085 506.154 884.982 487.246 875.539 488.916C866.095 490.586 805.211 519.399 789.741 519.399C774.27 519.399 702.33 490.605 673.903 483.196C599.084 463.424 523.458 445.668 452.862 412.613C422.381 398.331 392.074 382.38 359.194 376.141C339.673 372.475 319.02 372.149 301.4 362.704C290.133 356.638 280.92 347.233 271.035 338.94C252.398 323.275 230.881 311.401 207.693 303.985C204.184 302.545 200.349 302.087 196.599 302.66C192.261 303.697 188.921 307.21 185.87 310.569C106.156 397.64 26.9794 489.396 -33.1371 592.592C-36.2849 597.966 -39.4136 604.743 -36.4385 610.213C-34.116 614.456 -29.0679 615.972 -24.5189 617.066C73.8902 640.331 177.194 628.065 276.486 646.8C328.003 656.532 377.755 674.461 428.869 686.286C509.485 704.944 592.654 708.169 675.247 708.687C901.507 710.091 1127.46 691.773 1350.54 653.941C1372.82 650.102 1395.9 642.424 1418.31 640.907C1437.51 639.602 1454.44 644.746 1473 634.477C1488.53 625.915 1499.56 605.683 1492.31 588.964C1489.03 581.42 1482.71 575.834 1475.88 571.438C1457.03 559.172 1434.67 554.411 1412.77 550.323C1320.59 533.412 1227.01 525.409 1133.3 526.424Z" fill="url(#paint6_linear_479_87)"/>
<defs>
<linearGradient id="paint0_linear_479_87" x1="1928.16" y1="197.768" x2="1928.16" y2="73.6607" gradientUnits="userSpaceOnUse">
<stop stop-color="#FFFFDD" stop-opacity="0.5"/>
<stop offset="1" stop-color="white"/>
</linearGradient>
<linearGradient id="paint1_linear_479_87" x1="102.175" y1="414.864" x2="102.175" y2="166.949" gradientUnits="userSpaceOnUse">
<stop stop-color="#FFFFDD" stop-opacity="0.5"/>
<stop offset="1" stop-color="white"/>
</linearGradient>
<linearGradient id="paint2_linear_479_87" x1="378.71" y1="66.1978" x2="378.71" y2="-55.9768" gradientUnits="userSpaceOnUse">
<stop stop-color="#FFFFDD" stop-opacity="0.5"/>
<stop offset="1" stop-color="white" stop-opacity="0.5"/>
</linearGradient>
<linearGradient id="paint3_linear_479_87" x1="1070.05" y1="600.538" x2="1070.05" y2="365.315" gradientUnits="userSpaceOnUse">
<stop offset="0.36" stop-color="#FFFFDB"/>
<stop offset="0.47" stop-color="#FBFEDB"/>
<stop offset="0.6" stop-color="#EDFCDD"/>
<stop offset="0.73" stop-color="#D8F7DF"/>
<stop offset="0.86" stop-color="#B9F2E1"/>
<stop offset="1" stop-color="#92EAE5"/>
</linearGradient>
<linearGradient id="paint4_linear_479_87" x1="1126.2" y1="519.322" x2="1126.2" y2="299.915" gradientUnits="userSpaceOnUse">
<stop offset="0.09" stop-color="#FFDCB9" stop-opacity="0.5"/>
<stop offset="0.23" stop-color="#FFDDB9" stop-opacity="0.52"/>
<stop offset="0.38" stop-color="#FEE0B8" stop-opacity="0.56"/>
<stop offset="0.54" stop-color="#FDE5B7" stop-opacity="0.64"/>
<stop offset="0.71" stop-color="#FCEDB6" stop-opacity="0.74"/>
<stop offset="0.87" stop-color="#FBF6B5" stop-opacity="0.87"/>
<stop offset="1" stop-color="#F9FFB3"/>
</linearGradient>
<linearGradient id="paint5_linear_479_87" x1="1071.3" y1="610.06" x2="1071.3" y2="368.866" gradientUnits="userSpaceOnUse">
<stop stop-color="#FFFFF3"/>
<stop offset="0.26" stop-color="#FBFFF2"/>
<stop offset="0.54" stop-color="#EDFEF0"/>
<stop offset="0.83" stop-color="#D8FEED"/>
<stop offset="1" stop-color="#C8FDEA"/>
</linearGradient>
<linearGradient id="paint6_linear_479_87" x1="703.405" y1="746.157" x2="764.144" y2="401.615" gradientUnits="userSpaceOnUse">
<stop offset="0.37" stop-color="#F4FFF1"/>
<stop offset="0.51" stop-color="#EBFFEE"/>
<stop offset="0.74" stop-color="#D4FFE5"/>
<stop offset="0.89" stop-color="#C2FFDE"/>
</linearGradient>
</defs>
</svg>
