<svg width="245" height="45" viewBox="0 0 245 45" fill="none" xmlns="http://www.w3.org/2000/svg">
<g id="Group 5217">
<path id="Vector" d="M22.9135 20.6782C24.2756 21.0709 25.525 21.7817 26.5588 22.7519C26.8869 23.0422 27.1985 23.3506 27.4923 23.6757C28.2752 24.4591 28.7227 25.5165 28.7401 26.6241C28.7327 27.2206 28.6264 27.8117 28.4257 28.3734C27.9854 29.4603 27.353 30.4591 26.5588 31.3218C25.2772 32.7609 23.8101 34.0233 22.1962 35.0761C19.862 36.683 17.3244 37.9719 14.6501 38.9089C13.3178 39.3747 11.9417 39.704 10.543 39.8917C9.9861 39.9669 9.42465 40.003 8.86275 39.9998C8.08197 39.9994 7.30275 39.9303 6.53407 39.7934C4.73487 39.4934 2.98784 38.9374 1.34611 38.1424C1.00041 37.9588 0.671611 37.745 0.363545 37.5035C0.162104 37.3433 0.0315705 37.1104 0 36.8549C0.0169771 36.722 0.0649356 36.5949 0.140033 36.484C0.21513 36.373 0.315265 36.2812 0.432332 36.2161C0.697924 36.0038 1.00132 35.8437 1.32647 35.7443C1.38488 35.7329 1.44492 35.7329 1.50333 35.7443C1.65071 35.7443 1.7588 35.8131 1.78828 36.0294C1.81776 36.2456 1.86687 36.3439 1.89635 36.4913C2.03843 36.9049 2.30205 37.2659 2.65267 37.5272C3.0033 37.7885 3.42461 37.9378 3.86148 37.9556C4.04817 37.9556 4.15627 37.8868 4.18575 37.7099C4.21523 37.533 4.33313 37.1399 4.40191 36.8156C4.96668 34.4819 5.67214 32.1845 6.51443 29.9361C7.497 27.2924 8.47955 24.6486 9.41299 22.0737C10.2678 19.6757 11.162 17.2777 12.0168 14.8797C12.6713 13.1253 13.2321 11.3374 13.697 9.52353C13.8123 9.03033 13.8748 8.52628 13.8837 8.01986C13.8925 7.70256 13.8033 7.39025 13.6282 7.12552C13.5857 7.0708 13.5494 7.01143 13.5201 6.94859C13.5201 6.86997 13.5201 6.84049 13.5201 6.80118C13.5201 6.76187 13.6184 6.58497 13.7658 6.58497H13.9132C14.0462 6.5945 14.1778 6.61756 14.3062 6.65377C15.4038 7.0213 16.4092 7.62136 17.2539 8.41297C17.4914 8.62382 17.6817 8.88257 17.8121 9.17223C17.9425 9.46188 18.0101 9.77587 18.0105 10.0935V10.2017C17.9868 10.9112 17.888 11.6161 17.7157 12.3048C17.223 14.308 16.6027 16.2776 15.8587 18.2015L15.3182 19.6266H15.3968C15.4656 19.6266 15.5049 19.6266 15.5737 19.5283C16.006 19.1647 16.4285 18.8404 16.8216 18.4472C17.2146 18.0541 17.6469 17.7396 18.0792 17.4153C19.9584 16.1081 21.697 14.6095 23.2672 12.9436C24.5627 11.5788 25.6578 10.0368 26.5195 8.36381C26.9089 7.61203 27.1743 6.80226 27.3056 5.96581C27.3056 5.64148 27.3744 5.3565 27.3744 5.04201C27.3725 4.67905 27.3363 4.31708 27.2663 3.96094C27.2467 3.84136 27.1926 3.73013 27.1105 3.64104C27.0284 3.55194 26.922 3.48889 26.8044 3.4597C26.223 3.34613 25.6359 3.26411 25.0456 3.21401C24.8 3.21401 24.5544 3.21401 24.2989 3.21401C22.4539 3.24666 20.6235 3.54794 18.8653 4.10835C15.9886 4.92252 13.3121 6.32469 11.0048 8.22624C9.75251 9.20974 8.68459 10.4077 7.85071 11.7643C7.35289 12.5475 7.01866 13.4234 6.86814 14.3392C6.86814 14.5161 6.86814 14.7323 6.86814 14.9092C6.86814 15.0861 6.86814 15.3023 6.86814 15.489C6.87802 15.6052 6.92003 15.7164 6.98943 15.8101C7.05884 15.9039 7.15293 15.9764 7.26119 16.0198C7.4402 16.0728 7.60257 16.171 7.7328 16.3048C7.7328 16.3834 7.80159 16.4129 7.80159 16.4817C7.80159 16.5505 7.8016 16.5898 7.65421 16.6291C7.52325 16.6963 7.37887 16.7333 7.23171 16.7372C7.15311 16.7372 7.04502 16.7372 6.97624 16.6684C6.09102 16.3855 5.303 15.8597 4.70195 15.1508C4.1009 14.4418 3.71098 13.5784 3.57656 12.6586C3.56277 12.4689 3.56277 12.2783 3.57656 12.0886C3.59781 11.1041 3.83956 10.1369 4.28401 9.25816C4.76582 8.32585 5.36695 7.46027 6.07226 6.68325C8.01089 4.57692 10.3939 2.92857 13.0485 1.85775C14.7909 1.07372 16.6322 0.531459 18.5214 0.245993C19.408 0.0960097 20.3047 0.0138724 21.2038 0.000295836C22.0095 -0.005605 22.8135 0.0767854 23.6013 0.245993C24.6811 0.477933 25.7099 0.904177 26.6374 1.50396C27.7952 2.27672 28.8317 3.21738 29.7128 4.29508C30.5457 5.33912 30.9995 6.63504 31 7.9707C30.9867 8.41573 30.9408 8.85919 30.8625 9.29748C30.4506 11.0386 29.6286 12.656 28.465 14.0149C26.9057 15.9178 25.0865 17.5918 23.0609 18.9878C22.3933 19.5321 21.6762 20.0125 20.9189 20.4227C21.5901 20.4469 22.2578 20.5324 22.9135 20.6782ZM24.5347 23.5774C24.1891 23.5349 23.8414 23.5119 23.4932 23.5086C22.5699 23.529 21.6499 23.6243 20.742 23.7936C19.4018 24.0291 18.0861 24.3877 16.8117 24.8649C15.5246 25.3661 14.2374 25.8477 12.9502 26.4373C12.8144 26.4984 12.6932 26.5879 12.5949 26.6998C12.4966 26.8117 12.4235 26.9434 12.3804 27.086C12.233 27.4791 12.0954 27.8722 11.9087 28.2653C10.9608 30.5874 10.1504 32.9633 9.48177 35.3807C9.30491 36.0588 9.12807 36.7075 8.98068 37.3463C8.96454 37.4274 8.96454 37.5109 8.98068 37.592C8.98068 37.592 8.98067 37.6608 9.05928 37.6608C9.15383 37.6735 9.24967 37.6735 9.34423 37.6608C9.62917 37.5527 9.91411 37.4839 10.1991 37.3758C12.3523 36.6759 14.4064 35.7014 16.3106 34.4765C18.7278 33.0259 20.8808 31.1749 22.6777 29.0024C23.5934 27.9294 24.297 26.692 24.7509 25.3563C24.8973 24.9536 24.993 24.5344 25.0358 24.1081C24.9474 23.5774 24.9179 23.5774 24.5347 23.5774Z" fill="white"/>
<path id="Vector_2" d="M37.9203 22.0892C38.9027 20.3236 40.0345 18.6374 41.3047 17.0475C42.0858 16.1847 42.9148 15.3623 43.7879 14.5839C43.9531 14.4207 44.1505 14.2903 44.3687 14.2001C44.587 14.11 44.8218 14.0619 45.0596 14.0588C45.311 14.0582 45.5598 14.1069 45.7905 14.202C46.3702 14.371 46.9228 14.6152 47.4327 14.9277C47.7151 15.0963 47.9449 15.3341 48.0981 15.6163C48.2513 15.8984 48.3224 16.2146 48.3038 16.5319C48.2998 16.7403 48.2763 16.948 48.2337 17.1525C48.1631 17.3559 48.1259 17.5685 48.1236 17.7827C48.1378 18.1764 48.226 18.5645 48.3839 18.9286C48.4906 19.2336 48.6351 19.5253 48.8145 19.7975C48.9246 19.9694 48.9947 20.0362 49.1049 20.0362C49.1775 20.0509 49.2525 20.0509 49.3251 20.0362C49.4678 19.9924 49.616 19.9667 49.7657 19.9598H49.8358C49.946 19.9598 49.986 19.9598 49.986 20.0649C50.0047 20.124 50.0047 20.1871 49.986 20.2463C49.9154 20.3766 49.8046 20.4831 49.6685 20.5514C49.5324 20.6197 49.3776 20.6465 49.225 20.6282C48.0695 20.5617 46.989 20.0602 46.2211 19.2341C45.8881 18.8713 45.6146 18.4624 45.41 18.0214C45.3099 17.84 45.2699 17.7732 45.1998 17.7732C45.1297 17.7732 45.0496 17.84 44.9394 17.9832C43.6901 19.3214 42.5676 20.7625 41.5851 22.2897C40.0685 24.6301 38.7299 27.0712 37.5799 29.5944C36.8809 31.0691 36.0746 32.4954 35.1667 33.8627C35.0149 34.1093 34.8094 34.3221 34.5642 34.4868C34.3189 34.6515 34.0396 34.7643 33.7449 34.8175C33.1578 34.9286 32.561 34.9862 31.9625 34.9894C31.7191 35.0035 31.475 35.0035 31.2316 34.9894C31.0826 34.9907 30.9349 34.9636 30.797 34.9099C30.6591 34.8561 30.5339 34.7767 30.4285 34.6762C30.3232 34.5758 30.2399 34.4563 30.1835 34.3248C30.1271 34.1933 30.0988 34.0525 30.1001 33.9104C30.0335 33.5093 30 33.1038 30 32.6977C30.0019 32.3942 30.0253 32.0911 30.0701 31.7906C30.5256 29.2135 31.134 26.6631 31.8924 24.1517C32.5133 22.0319 33.1808 19.9121 33.8951 17.7923C34.1339 17.0738 34.3179 16.3398 34.4458 15.5961C34.4458 15.491 34.4458 15.3574 34.4458 15.2523C34.4496 15.1166 34.4229 14.9817 34.3677 14.8565C34.3124 14.7314 34.2298 14.6189 34.1254 14.5266C34.067 14.4542 34.0291 14.3688 34.0152 14.2784C34.0216 14.2246 34.0462 14.1743 34.0853 14.1351C34.1308 14.0882 34.1869 14.0517 34.2493 14.0286C34.3118 14.0054 34.379 13.9961 34.4458 14.0015C34.6661 14.0015 34.9264 14.0683 35.1767 14.1351C36.1812 14.5034 37.1176 15.0224 37.9504 15.6725C38.1979 15.8401 38.3973 16.0644 38.5302 16.3246C38.6632 16.5849 38.7255 16.8729 38.7113 17.1621V17.3053C38.5873 18.3799 38.3456 19.4392 37.9904 20.4659C37.66 21.5067 37.3295 22.5188 37.0392 23.5596C37.0392 23.5596 37.0392 23.6265 37.0392 23.7315C37.2995 23.13 37.5899 22.6144 37.9203 22.0892Z" fill="white"/>
<path id="Vector_3" d="M68.6678 21.0246C68.1082 22.0551 67.4328 23.0208 66.6544 23.9036C65.2953 25.4964 63.8658 26.9705 62.4363 28.4843C61.9228 29.0185 61.4295 29.5231 60.9362 30.0276C59.6076 31.3392 58.075 32.4346 56.396 33.2727C55.4908 33.7066 54.5031 33.9493 53.4967 33.985C53.2521 34.005 53.0063 34.005 52.7618 33.985C52.1287 33.9971 51.4983 33.9 50.8993 33.6981C50.4091 33.5199 49.9609 33.2455 49.5819 32.8918C49.2029 32.538 48.901 32.1122 48.6946 31.6403C48.3458 30.8529 48.1348 30.0134 48.0705 29.157C48.0705 28.7316 48 28.3358 48 27.9005C48.0671 25.1741 48.9036 22.5196 50.4161 20.2331C51.1162 19.0591 51.9542 17.9699 52.9128 16.988C54.0367 15.7666 55.4415 14.8269 57.0101 14.2475C57.5435 14.0793 58.1009 13.9958 58.6611 14.0002C59.5407 14.0026 60.4033 14.2384 61.1577 14.6828C61.7459 14.9784 62.2883 15.3549 62.7685 15.8008C63.0422 16.0559 63.2608 16.3626 63.4113 16.7025C63.5617 17.0425 63.641 17.4088 63.6443 17.7795C63.6451 18.0471 63.6079 18.3135 63.5336 18.571C63.3413 19.3543 62.9656 20.0827 62.4363 20.698C61.1369 22.2294 59.4787 23.4278 57.604 24.1904C56.9181 24.472 56.183 24.6198 55.4396 24.6258C54.7914 24.6208 54.1485 24.5105 53.5369 24.2993C53.4088 24.244 53.2731 24.2073 53.1342 24.1904C52.943 24.1904 52.9128 24.2993 52.7618 24.6554C52.1772 25.948 51.8068 27.3241 51.6644 28.7316C51.6453 28.9951 51.6453 29.2596 51.6644 29.5231C51.6369 30.5038 51.8767 31.4739 52.3591 32.3328C52.5474 32.6754 52.8255 32.9623 53.1644 33.1639C53.2785 33.2237 53.4085 33.2479 53.5369 33.2331C53.6335 33.25 53.7323 33.25 53.8289 33.2331C54.6788 32.9508 55.4725 32.5257 56.1745 31.9767C57.0922 31.3045 57.9727 30.5845 58.8121 29.8198C61.6712 27.297 64.3389 24.5565 67.0873 21.9051C67.6007 21.4401 68.094 20.9157 68.6275 20.4705C68.698 20.4013 68.7785 20.2924 68.8892 20.2924C69 20.2924 68.9597 20.2924 69 20.2924C68.9533 20.5599 68.8391 20.8117 68.6678 21.0246ZM61.0168 16.0778C60.9202 16.061 60.8214 16.061 60.7248 16.0778C60.206 16.2217 59.711 16.4383 59.255 16.7209C56.7685 18.2883 54.7666 20.4953 53.4665 23.1022C53.4304 23.156 53.4064 23.2167 53.396 23.2803C53.396 23.3495 53.4665 23.3495 53.6477 23.3495C54.1338 23.3354 54.6154 23.2521 55.0772 23.1022C57.3477 22.4098 59.2793 20.92 60.5034 18.9172C60.972 18.2358 61.2274 17.4345 61.2383 16.6121V16.4735C61.198 16.2361 61.198 16.1273 61.0168 16.1273V16.0778Z" fill="white"/>
<path id="Vector_4" d="M89.8336 20.9059C88.4269 23.0452 86.8941 25.1043 85.2427 27.0729C84.0975 28.456 83.0305 29.8675 81.8167 31.2127C81.2768 31.8171 80.6805 32.3721 80.0352 32.8705C79.4396 33.3199 78.7223 33.593 77.9698 33.6568C77.7092 33.6759 77.4474 33.6759 77.1868 33.6568H76.8344C76.5367 33.609 76.2551 33.4929 76.0133 33.3182C75.7714 33.1435 75.5764 32.9153 75.4444 32.6526C75.1706 32.0569 75.0369 31.4098 75.0529 30.758C75.0732 29.9368 75.1682 29.119 75.3367 28.3139C75.3574 28.1662 75.3574 28.0164 75.3367 27.8687V27.6603C75.0431 28.0392 74.7592 28.4181 74.4753 28.835C73.8506 29.752 73.1604 30.6256 72.4099 31.4495C72.0184 31.8664 71.6269 32.3116 71.1962 32.6905C70.4841 33.3527 69.5782 33.7861 68.6022 33.9315C68.3169 33.9724 68.0292 33.9946 67.7408 33.9978H67.4276C67.0307 34.0163 66.6374 33.9174 66.2999 33.7144C65.9625 33.5113 65.6969 33.2137 65.5384 32.8611C65.3002 32.4361 65.1537 31.9688 65.1077 31.4874C65.0367 30.9851 65.0007 30.4787 65 29.9717C65 29.5549 65 29.1381 65 28.7307C65.1881 26.4574 65.8017 24.2362 66.8109 22.1753C67.5849 20.3087 68.7516 18.6182 70.2369 17.2114C70.7348 16.7469 71.2682 16.3194 71.8324 15.9325C72.6758 15.351 73.6845 15.0366 74.72 15.0326C75.5227 15.0456 76.3134 15.2231 77.04 15.5536C77.6826 15.8351 78.2928 16.1812 78.8606 16.5862C78.9161 16.6562 78.9861 16.7143 79.0662 16.7567C79.1738 16.8325 79.213 16.8609 79.2815 16.8609C79.35 16.8609 79.3892 16.7946 79.4283 16.662C79.7086 15.9893 79.8867 15.281 79.9569 14.5589C79.9569 14.1705 80.0646 14 80.28 14C80.4341 14.0091 80.5829 14.0582 80.7107 14.1421C81.84 14.6685 82.7808 15.5098 83.4123 16.5577C83.6099 16.9058 83.711 17.2974 83.706 17.6945C83.7253 17.8423 83.7253 17.9919 83.706 18.1398C83.5456 18.9475 83.2928 19.7355 82.9522 20.4891C82.2474 22.1374 81.4252 23.7289 80.7792 25.3867C80.2506 26.7982 79.536 28.1718 79.0368 29.6212C78.7994 30.2063 78.5968 30.8041 78.4299 31.4117C78.3928 31.5961 78.3699 31.7829 78.3614 31.9706C78.3614 32.1032 78.3614 32.2074 78.3614 32.3495C78.3614 32.4916 78.3614 32.52 78.4299 32.52C78.4814 32.5115 78.5291 32.4884 78.567 32.4537C78.7676 32.3274 78.9489 32.1743 79.1053 31.999C80.1801 30.9691 81.1902 29.8777 82.13 28.7307C83.9898 26.5898 85.7713 24.4204 87.6899 22.3837C88.2877 21.7332 88.9427 21.1342 89.6476 20.5933C89.7161 20.5175 89.7846 20.4133 89.8923 20.4133C90 20.4133 89.9608 20.4133 90 20.4133C89.9841 20.5877 89.9272 20.7562 89.8336 20.9059ZM68.6413 32.2263C68.6457 32.3675 68.6688 32.5076 68.7099 32.6432C68.7099 32.8137 68.8175 32.9179 68.8861 32.9179C68.9546 32.9179 69.0329 32.8421 69.1406 32.7758C69.2482 32.7095 69.5615 32.4348 69.7768 32.2263C70.8037 31.2225 71.7556 30.1493 72.6253 29.0149C73.8782 27.6034 75.0137 26.0877 76.2275 24.6383C76.3371 24.476 76.4321 24.3049 76.5114 24.1268C77.0791 22.5732 77.7251 21.0575 78.3614 19.5323C78.4523 19.3861 78.5029 19.2197 78.5082 19.0492C78.479 18.5244 78.3461 18.0098 78.1167 17.5335C78.0854 17.465 78.0349 17.4065 77.9708 17.3646C77.9067 17.3227 77.8318 17.2992 77.7545 17.2966H77.6566C77.1892 17.3558 76.7394 17.5073 76.3352 17.7419C75.4824 18.2458 74.7243 18.8865 74.0936 19.6365C72.9594 20.8556 71.9741 22.197 71.157 23.6342C70.2813 25.2871 69.5764 27.0196 69.0525 28.8065C68.7436 29.6828 68.5752 30.5997 68.5533 31.5253C68.6022 31.6959 68.6022 31.9327 68.6413 32.2263Z" fill="white"/>
<path id="Vector_5" d="M102.74 30.5164C104.886 27.5428 107.15 24.5887 109.443 21.6833C109.807 21.2192 110.201 20.7795 110.624 20.3671C110.732 20.2988 110.801 20.1526 110.939 20.1233C111.077 20.0941 110.939 20.1915 110.939 20.2598C110.931 20.3352 110.907 20.4082 110.87 20.4743C110.191 21.9041 109.401 23.2796 108.508 24.5886C107.248 26.4021 105.959 28.1765 104.64 29.9119C103.882 30.8869 103.134 31.8619 102.307 32.7198C101.867 33.1456 101.345 33.4783 100.771 33.6979C100.198 33.9174 99.5852 34.0192 98.9707 33.997C98.5285 33.9815 98.1078 33.8044 97.7896 33.4998C97.4789 33.2887 97.2227 33.0082 97.0416 32.6808C96.0884 31.3115 95.3854 29.7869 94.9649 28.1765C94.7878 27.3965 94.5713 26.6556 94.463 25.8658C94.463 25.5148 94.463 25.1639 94.3941 24.8031C94.2465 24.8031 94.1776 24.9104 94.0988 24.9786C93.1737 26.0121 92.278 27.0748 91.4119 28.1375C90.8411 28.8492 90.2702 29.561 89.66 30.2727C89.5134 30.4515 89.4031 30.6568 89.3352 30.8772C89.1285 31.5109 88.912 32.1153 88.6955 32.7491C88.6586 32.8844 88.5905 33.0095 88.4966 33.1144C88.4026 33.2192 88.2854 33.3011 88.1542 33.3535C87.9355 33.4571 87.7083 33.542 87.4751 33.607C86.8842 33.7166 86.2849 33.7754 85.6838 33.7825C85.3987 33.802 85.1126 33.802 84.8275 33.7825C84.7193 33.7825 84.611 33.7825 84.5421 33.7825C84.1484 33.6753 84.0008 33.568 84.0008 33.3535C83.9953 33.2075 84.0187 33.0618 84.0697 32.9246C85.1818 29.4537 86.3629 25.9731 87.544 22.4925C88.912 18.5926 90.2309 14.6148 91.4808 10.6759C92.1474 8.63525 92.7091 6.56242 93.1638 4.46541C93.3361 3.61199 93.4577 2.74926 93.528 1.88174V1.59902C93.5337 1.20782 93.4206 0.82395 93.2032 0.497307C93.1528 0.42259 93.1286 0.333504 93.1343 0.243808C93.1343 0.107313 93.2327 6.67845e-05 93.4493 6.67845e-05C93.6131 -0.00178729 93.775 0.0349877 93.9217 0.107328C94.9679 0.40868 95.942 0.916031 96.7857 1.59902C97.0783 1.83401 97.3134 2.13142 97.4736 2.46907C97.6338 2.80672 97.7149 3.17588 97.7109 3.54895C97.666 4.74338 97.5112 5.93124 97.2483 7.0978C96.4686 10.5773 95.4525 14.0008 94.2071 17.3447C93.341 19.7626 92.4453 22.2195 91.5497 24.5594V24.6959C91.658 24.6959 91.6973 24.5886 91.7367 24.5204C93.4353 22.3799 95.3012 20.375 97.3172 18.5244C98.9925 17.0025 100.804 15.6352 102.73 14.4393C103.198 14.1318 103.744 13.9596 104.305 13.9421C104.783 13.9611 105.249 14.095 105.663 14.332C105.847 14.4645 106.041 14.5818 106.244 14.683C106.424 14.7768 106.576 14.9167 106.683 15.0882C106.791 15.2596 106.85 15.4563 106.854 15.658C106.844 15.8377 106.808 16.0151 106.746 16.1845C106.497 16.7286 106.165 17.2316 105.762 17.6761C104.711 18.8044 103.561 19.8386 102.327 20.7668C101.284 21.5858 100.211 22.2585 99.138 22.9702C98.5967 23.2822 98.3802 23.4967 98.3802 23.8867C98.3861 24.1307 98.4361 24.3718 98.5278 24.5984C98.9215 25.9146 99.3841 27.2308 99.7482 28.5762C100.112 29.9217 100.388 31.0624 100.732 32.2616C100.752 32.3798 100.803 32.4908 100.88 32.5833C101.57 31.9597 102.194 31.2671 102.74 30.5164ZM98.8723 20.1526C100.289 19.3838 101.532 18.3352 102.524 17.0717C101.21 17.9812 99.9877 19.0128 98.8723 20.1526Z" fill="white"/>
<path id="Vector_6" d="M124.851 20.9527C123.332 23.1281 121.674 25.1566 119.977 27.1557C119.103 28.1356 118.309 29.1939 117.406 30.0955C116.212 31.4828 114.882 32.7499 113.435 33.8781C112.489 34.6149 111.314 35.0061 110.109 34.9854C109.881 35.0049 109.652 35.0049 109.424 34.9854C108.905 34.9431 108.413 34.736 108.023 34.3951C107.633 34.0542 107.365 33.5978 107.26 33.0941C107.099 32.6605 107.011 32.2035 107.002 31.7418C106.978 30.0645 107.209 28.3932 107.687 26.7833C108.521 24.2159 109.493 21.6876 110.367 19.1104C110.805 17.8823 111.18 16.6329 111.489 15.367C111.619 14.8905 111.789 14.4251 111.995 13.9755C112.013 13.9056 112.054 13.8435 112.111 13.7991C112.169 13.7547 112.24 13.7306 112.313 13.7305H112.422C112.664 13.7698 112.896 13.8529 113.107 13.9755C113.921 14.2992 114.633 14.83 115.172 15.514C115.531 15.9765 115.732 16.5389 115.748 17.1211C115.739 17.312 115.716 17.502 115.678 17.6895C115.351 19.1559 114.916 20.5969 114.378 22.0012C113.762 23.6083 113.037 25.1468 112.531 26.7833C112.065 28.1356 111.538 29.4585 111.052 30.8108C110.788 31.5111 110.618 32.2425 110.546 32.9863C110.546 33.1333 110.546 33.2705 110.546 33.4175C110.548 33.577 110.585 33.7342 110.655 33.8781C110.724 34.0936 110.804 34.1622 110.913 34.1622C111.012 34.1537 111.109 34.1306 111.201 34.0936C112.024 33.6428 112.788 33.0931 113.474 32.4571C114.348 31.6732 115.142 30.7814 115.936 29.9191C116.73 29.0568 117.743 27.9592 118.607 26.9793L122.002 23.3045C122.828 22.4301 123.71 21.6085 124.643 20.8449C124.752 20.7763 124.821 20.6685 125 20.6685V20.7371C124.96 20.8449 124.891 20.8743 124.851 20.9527ZM118.637 6.72398C118.498 7.11596 118.388 7.46873 118.279 7.82151C118.118 8.36255 117.859 8.87044 117.515 9.32081C117.2 9.80536 117.002 10.3555 116.939 10.9279C116.869 11.3199 116.8 11.7511 116.721 12.143C116.641 12.535 116.611 12.6036 116.323 12.6036H116.155C115.739 12.5608 115.335 12.4411 114.963 12.2508C114.622 12.0704 114.331 11.8097 114.117 11.4917C113.902 11.1738 113.77 10.8085 113.732 10.4281C113.623 9.85978 113.663 9.29142 113.593 8.71326C113.593 8.46827 113.593 8.18407 113.514 7.89989V7.6157C113.51 7.33447 113.561 7.05512 113.663 6.79256C113.991 5.81262 114.348 4.83268 114.745 3.85274L114.963 3.21579C114.988 3.15054 115.033 3.09465 115.092 3.05597C115.151 3.0173 115.22 2.99778 115.291 3.0002H115.361C115.551 3.01331 115.736 3.06325 115.907 3.14719C116.708 3.44042 117.444 3.88661 118.071 4.4603C118.272 4.60587 118.438 4.79403 118.557 5.01104C118.675 5.22804 118.743 5.46843 118.756 5.71465V6.06741C118.754 6.29138 118.714 6.51346 118.637 6.72398Z" fill="white"/>
<path id="Vector_7" d="M129.686 18.6563C130.723 17.5502 131.851 16.529 133.059 15.603C133.765 15.0859 134.538 14.6616 135.357 14.3412C135.544 14.2396 135.755 14.1896 135.969 14.1967C136.077 14.1967 136.225 14.1967 136.324 14.1967C137.408 14.3907 138.436 14.8077 139.342 15.42C139.577 15.5759 139.769 15.7856 139.901 16.0308C140.034 16.2759 140.102 16.5491 140.102 16.8262C140.121 16.9669 140.121 17.1094 140.102 17.25C140.007 17.8178 139.838 18.3713 139.599 18.8971C138.879 20.6501 138.129 22.3646 137.448 24.1176C136.862 25.5268 136.358 26.9675 135.939 28.4327C135.722 29.2707 135.397 30.0798 135.18 30.9178C135.14 31.2133 135.08 31.5061 135.002 31.7943V32.0062C134.983 32.0756 134.983 32.1487 135.002 32.2181C135.156 32.1415 135.291 32.033 135.397 31.9002C136.383 30.8118 137.369 29.7619 138.356 28.6446C139.756 26.8916 141.157 25.1675 142.558 23.4145C143.422 22.3438 144.354 21.3273 145.349 20.3708C145.536 20.2263 145.675 20.0818 145.852 19.947C145.9 19.9612 145.952 19.9612 146 19.947C146 19.947 146 20.024 146 20.0529C145.998 20.1129 145.984 20.1718 145.959 20.2263C145.933 20.2809 145.897 20.33 145.852 20.3708C145.497 21.0354 145.063 21.6711 144.668 22.2972C143.771 23.6649 142.834 24.9556 141.867 26.2559C140.713 27.797 139.608 29.3767 138.454 30.8793C137.92 31.5876 137.333 32.2572 136.699 32.8827C135.943 33.5876 134.942 33.9868 133.898 34C133.72 34 133.542 34 133.395 34C133.153 33.995 132.912 33.9692 132.675 33.923C132.41 33.8819 132.16 33.7778 131.947 33.6199C131.733 33.462 131.563 33.2551 131.451 33.0176C131.2 32.4506 131.056 31.8434 131.027 31.226V30.7637C131.03 29.2844 131.273 27.8149 131.747 26.41C132.536 23.7805 133.572 21.228 134.618 18.7045C134.687 18.5311 134.756 18.3866 134.835 18.2132V18.1458H134.756C134.647 18.1458 134.647 18.2132 134.578 18.2518C134.079 18.6367 133.611 19.0586 133.178 19.5136C131.697 21.0493 130.319 22.6773 129.055 24.3873C127.725 26.1637 126.5 28.0129 125.385 29.9257C125.03 30.5614 124.784 31.2549 124.458 31.9291C124.241 32.3818 123.985 32.8346 123.807 33.3258C123.759 33.4499 123.677 33.5582 123.568 33.6383C123.46 33.7184 123.331 33.767 123.196 33.7785C122.842 33.8521 122.482 33.8877 122.121 33.8844C121.795 33.8844 121.509 33.8844 121.223 33.8844C120.993 33.8531 120.765 33.8048 120.542 33.7399C120.108 33.6051 120 33.4991 120 33.0753V32.6226C120.141 31.4308 120.405 30.2561 120.789 29.1166C121.687 26.4197 122.584 23.7131 123.521 21.0547C123.985 19.6869 124.508 18.3481 124.961 16.9803L125.277 15.6126C125.323 15.4295 125.349 15.2423 125.356 15.054C125.356 14.9191 125.356 14.8132 125.356 14.6687V14.3893C125.347 14.3369 125.352 14.2832 125.369 14.2327C125.385 14.1822 125.414 14.1363 125.453 14.0987C125.491 14.0612 125.538 14.033 125.59 14.0166C125.642 14.0001 125.697 13.9958 125.75 14.0041H125.928C126.269 14.0882 126.599 14.2077 126.914 14.3605C127.668 14.7077 128.36 15.1694 128.966 15.7282C129.15 15.8766 129.297 16.0638 129.396 16.2757C129.495 16.4875 129.543 16.7186 129.538 16.9515C129.557 17.0695 129.557 17.1898 129.538 17.3078C129.469 17.7991 129.36 18.271 129.252 18.8104C129.206 18.8966 129.182 18.9925 129.183 19.0897C129.171 19.1469 129.171 19.2059 129.183 19.2631C129.372 19.079 129.541 18.8755 129.686 18.6563Z" fill="white"/>
<path id="Vector_8" d="M151.21 30.3334C150.401 31.4634 149.468 32.4926 148.429 33.4001C147.361 34.3331 146.017 34.8635 144.619 34.9039H144.514C144.202 34.9042 143.894 34.8222 143.621 34.6657C143.348 34.5092 143.118 34.2833 142.952 34.0095C142.662 33.6181 142.451 33.1701 142.333 32.6924C142.135 31.8962 142.039 31.0767 142.048 30.2548C142.029 29.9274 142.029 29.5992 142.048 29.2719C142.135 27.9135 142.378 26.5707 142.771 25.2714C143.641 22.5673 144.969 20.0444 146.695 17.821C147.012 17.3797 147.359 16.9625 147.733 16.5727C148.491 15.8269 149.439 15.319 150.467 15.1081C150.754 15.0383 151.048 15.002 151.343 15C151.824 15.0154 152.302 15.098 152.762 15.2457C153.655 15.5527 154.497 16.0003 155.257 16.5727L155.638 16.8577C155.649 16.8766 155.665 16.8926 155.683 16.9045C155.701 16.9164 155.722 16.9239 155.743 16.9265C155.743 16.9265 155.81 16.8577 155.848 16.7889C155.886 16.6378 155.908 16.4829 155.914 16.3269C155.911 16.1984 155.875 16.073 155.81 15.9633C155.758 15.9052 155.719 15.8369 155.694 15.7624C155.67 15.688 155.66 15.6091 155.667 15.5308C155.661 15.4803 155.666 15.4291 155.682 15.3809C155.697 15.3326 155.722 15.2883 155.756 15.251C155.789 15.2137 155.83 15.1842 155.875 15.1647C155.921 15.1451 155.97 15.1359 156.019 15.1376H156.152C156.316 15.1989 156.47 15.285 156.61 15.3932C157.349 15.9805 157.972 16.7077 158.448 17.5359C158.798 18.1933 158.987 18.9287 159 19.6787V20.1406C158.964 21.2593 158.823 22.3718 158.581 23.4629C158.065 25.5285 157.429 27.5602 156.676 29.5471C155.724 32.1616 154.657 34.6975 153.552 37.2334C152.716 39.1382 151.605 40.9013 150.257 42.4625C149.204 43.7247 147.761 44.572 146.171 44.8608C145.586 44.9603 144.993 45.0064 144.4 44.9984C143.357 45.0197 142.321 44.8259 141.352 44.4283C141.077 44.2989 140.82 44.1302 140.59 43.927C140.418 43.7928 140.275 43.6213 140.173 43.4243C140.071 43.2274 140.012 43.0098 140 42.7869C140.001 42.554 140.046 42.3235 140.133 42.1087L140.238 41.7843C140.343 41.6368 140.419 41.3911 140.619 41.3911C140.819 41.3911 140.829 41.6762 140.905 41.8138C141.093 42.304 141.426 42.7204 141.857 43.0031C142.788 43.6146 143.845 43.9917 144.943 44.104H145.019C145.163 44.0977 145.3 44.0344 145.4 43.927C145.795 43.6093 146.145 43.2353 146.438 42.8164C147.076 41.9312 147.61 40.9711 148.029 39.9561C149.616 36.4123 150.984 32.7682 152.124 29.0458V28.9868C151.867 29.3996 151.552 29.8616 151.21 30.3334ZM145.829 33.5082C145.933 33.6556 145.971 33.7244 146.038 33.7244C146.086 33.7203 146.133 33.7059 146.176 33.6822C146.218 33.6586 146.256 33.6261 146.286 33.5868C146.796 33.1881 147.259 32.7296 147.667 32.2206C148.619 31.1492 149.438 29.9697 150.305 28.8295C151.419 27.3945 152.457 25.93 153.6 24.5342C153.716 24.3628 153.797 24.1689 153.838 23.9642C154.01 23.4924 154.152 22.9812 154.324 22.4898C154.638 21.5069 154.914 20.5239 155.229 19.4526C155.294 19.3076 155.329 19.1504 155.333 18.9906C155.333 18.8825 155.333 18.8039 155.333 18.6957C155.227 18.2806 155.063 17.8834 154.848 17.5162C154.804 17.4351 154.738 17.3688 154.659 17.3252C154.58 17.2816 154.49 17.2626 154.4 17.2705H154.295C154.003 17.3445 153.724 17.4639 153.467 17.6244C152.993 17.9031 152.549 18.2325 152.143 18.6073C150.893 19.6534 149.837 20.9257 149.029 22.362C147.827 24.4605 146.868 26.6972 146.171 29.0261C145.835 29.9891 145.649 31.0009 145.619 32.024C145.566 32.5291 145.638 33.0398 145.829 33.5082Z" fill="white"/>
<path id="Vector_9" d="M185.184 7.31631C185.425 7.47069 185.649 7.65104 185.853 7.8543C186.198 8.13279 186.472 8.49323 186.652 8.90456C186.831 9.31588 186.91 9.76575 186.882 10.2154V10.5044C186.855 11.295 186.761 12.0818 186.601 12.8556C186.155 14.8489 185.551 16.8015 184.795 18.6936C184.553 19.3811 184.271 20.0784 184.019 20.7659C183.988 20.836 183.965 20.9095 183.951 20.985C183.951 21.0946 184.058 21.0946 184.232 21.0946C185.116 21.0149 185.96 20.985 186.843 20.985H187.552C188.793 20.9358 190.032 21.146 191.192 21.6028C191.619 21.7674 192.014 22.0105 192.356 22.3201C192.43 22.3902 192.49 22.4748 192.531 22.5689C192.573 22.663 192.596 22.7647 192.599 22.868C192.592 22.9915 192.552 23.1107 192.484 23.2126C192.415 23.3144 192.321 23.3951 192.211 23.4458C192.196 23.4537 192.179 23.4578 192.162 23.4578C192.145 23.4578 192.129 23.4537 192.114 23.4458C192.036 23.4458 192.007 23.3761 191.968 23.2964C191.949 23.1776 191.949 23.0565 191.968 22.9377C191.968 22.6488 191.861 22.5392 191.58 22.5392C191.441 22.5196 191.301 22.5196 191.163 22.5392C191.008 22.5177 190.851 22.5177 190.697 22.5392C189.959 22.6089 189.25 22.5392 188.542 22.6488C187.047 22.78 185.562 23.0096 184.096 23.3362C183.829 23.415 183.557 23.4749 183.281 23.5156C183.16 23.5393 183.047 23.5949 182.954 23.677C182.86 23.7591 182.789 23.8649 182.747 23.9838C182.33 24.9801 181.942 25.9763 181.515 26.9726C180.175 30.2304 178.904 33.528 177.807 36.8655C177.486 37.7322 177.205 38.6388 176.962 39.5454C176.891 39.7949 176.768 40.0252 176.6 40.2198C176.432 40.4144 176.224 40.5686 175.992 40.6712C175.449 40.8843 174.874 40.9956 174.293 41C173.851 40.9923 173.411 40.9321 172.983 40.8206L172.633 40.6712C172.512 40.6057 172.412 40.5065 172.343 40.3849C172.274 40.2633 172.24 40.1243 172.245 39.9838C172.231 39.888 172.231 39.7907 172.245 39.6949C172.633 38.4595 173.022 37.264 173.41 36.0286C174.303 33.4184 175.254 30.8082 176.244 28.2378C176.632 27.2416 177.021 26.2453 177.409 25.249C177.409 25.1793 177.477 25.0697 177.516 24.99V24.9203C177.516 24.7709 177.516 24.731 177.302 24.7011C176.294 24.5235 175.339 24.1149 174.507 23.5056C173.853 23.0636 173.33 22.4471 172.993 21.7223C172.88 21.4339 172.82 21.1264 172.818 20.8157C172.818 20.4869 172.993 20.3076 173.235 20.3076C173.292 20.292 173.353 20.292 173.41 20.3076C174.286 20.5762 175.078 21.074 175.71 21.7522C175.782 21.8434 175.835 21.9489 175.865 22.0621C175.895 22.1753 175.902 22.2937 175.885 22.4097C175.885 22.6986 175.885 22.8082 176.069 22.8082C176.149 22.8246 176.232 22.8246 176.312 22.8082C177.036 22.6772 177.745 22.4703 178.428 22.1905C178.642 22.1905 178.68 21.9415 178.748 21.7621C179.175 20.7061 179.564 19.66 179.952 18.5641C180.764 16.4643 181.471 14.3228 182.068 12.1482C182.441 10.8986 182.692 9.61356 182.815 8.31257V8.203C182.82 8.11152 182.803 8.02026 182.766 7.93699C182.728 7.85372 182.672 7.7809 182.602 7.72478C182.282 7.42412 182.05 7.03767 181.932 6.60897C181.854 6.41968 181.825 6.34993 181.718 6.34993C181.661 6.3343 181.601 6.3343 181.544 6.34993C179.638 6.96442 177.879 7.98262 176.38 9.33872C175.99 9.73221 175.662 10.186 175.409 10.6837C174.863 11.7735 174.449 12.9278 174.177 14.1208C174.135 14.2393 174.113 14.3637 174.109 14.4894C174.113 14.5614 174.139 14.6304 174.182 14.6873C174.225 14.7442 174.284 14.7863 174.351 14.8082C174.379 14.823 174.403 14.8442 174.422 14.8702C174.44 14.8961 174.453 14.926 174.458 14.9577C174.458 14.9577 174.458 15.0672 174.458 15.1071C174.421 15.1898 174.362 15.2605 174.289 15.3114C174.215 15.3624 174.129 15.3916 174.041 15.396H173.963C173.878 15.3878 173.795 15.3606 173.72 15.3163C173.052 15.0198 172.462 14.5628 172.001 13.9838C171.54 13.4048 171.221 12.7206 171.071 11.9888C171.014 11.6902 170.992 11.3861 171.003 11.0822C171.014 10.5847 171.059 10.0887 171.139 9.59776C171.408 8.13979 172.171 6.82674 173.293 5.89166C175.846 3.6478 178.972 2.20253 182.301 1.72728C183.284 1.57999 184.277 1.50674 185.271 1.5081C185.911 1.5081 186.581 1.50811 187.212 1.57785C189.551 1.72729 191.881 2.12579 194.171 2.41471C195.78 2.64187 197.401 2.76166 199.025 2.77335H199.869C200.53 2.75221 201.184 2.63138 201.81 2.41471C202.092 2.34497 202.198 2.30511 202.198 2.12578C202.211 2.03994 202.211 1.95259 202.198 1.86674V1.72728C202.184 1.59867 202.205 1.4684 202.26 1.35186C202.315 1.23532 202.401 1.13741 202.509 1.06975C202.597 1.02571 202.693 1.0019 202.791 1C202.993 1.01026 203.184 1.09933 203.324 1.24907C203.633 1.57433 203.894 1.9434 204.101 2.34496C204.545 3.11459 204.844 3.96276 204.984 4.84559C205.005 4.96416 205.005 5.08567 204.984 5.20423V5.31384C204.992 5.56727 204.924 5.81714 204.791 6.03054C204.658 6.24394 204.464 6.41085 204.237 6.50934C203.642 6.85035 202.976 7.03838 202.296 7.0573C202.004 7.0573 201.723 7.0573 201.441 7.0573C200.448 7.04214 199.457 6.97228 198.471 6.84806C196.355 6.58903 194.239 6.19055 192.114 5.90163C190.489 5.63988 188.847 5.50666 187.202 5.50313C186.853 5.50313 186.533 5.50313 186.183 5.50313C185.119 5.50924 184.061 5.66682 183.038 5.97137C183.808 6.32115 184.529 6.77333 185.184 7.31631Z" fill="white"/>
<path id="Vector_10" d="M201.535 22.0891C202.465 20.3215 203.541 18.635 204.751 17.0475C205.49 16.1824 206.278 15.3599 207.11 14.5839C207.267 14.4207 207.455 14.2903 207.662 14.2001C207.869 14.11 208.092 14.0619 208.318 14.0588C208.557 14.0592 208.793 14.1079 209.013 14.202C209.564 14.371 210.089 14.6152 210.573 14.9277C210.84 15.0978 211.057 15.3359 211.203 15.6176C211.348 15.8994 211.416 16.2149 211.401 16.5318C211.392 16.7399 211.37 16.9473 211.334 17.1525C211.263 17.3547 211.227 17.5681 211.23 17.7827C211.244 18.1753 211.325 18.5626 211.467 18.9285C211.572 19.2338 211.713 19.5255 211.886 19.7974C211.991 19.9693 212.057 20.0361 212.162 20.0361C212.231 20.05 212.302 20.05 212.371 20.0361C212.504 19.9924 212.641 19.9666 212.78 19.9597H212.856C212.961 19.9597 212.99 19.9598 212.99 20.0648C213.003 20.1245 213.003 20.1865 212.99 20.2462C212.92 20.3764 212.813 20.4825 212.682 20.5506C212.551 20.6187 212.403 20.6458 212.257 20.6282C211.159 20.5616 210.133 20.0602 209.403 19.234C209.093 18.8683 208.837 18.46 208.642 18.0214C208.537 17.84 208.509 17.7731 208.433 17.7731C208.356 17.7731 208.299 17.84 208.195 17.9832C207.005 19.3189 205.938 20.7603 205.008 22.2896C203.57 24.6322 202.299 27.073 201.202 29.5942C200.545 31.0706 199.782 32.4971 198.919 33.8624C198.773 34.1083 198.578 34.3205 198.345 34.4851C198.112 34.6497 197.847 34.7629 197.568 34.8173C197.01 34.9284 196.443 34.9859 195.874 34.9891C195.643 35.0036 195.411 35.0036 195.18 34.9891C195.038 34.9904 194.898 34.9634 194.767 34.9096C194.636 34.8558 194.517 34.7764 194.417 34.676C194.317 34.5755 194.237 34.4561 194.184 34.3246C194.13 34.1931 194.103 34.0522 194.105 33.9102C194.038 33.5093 194.003 33.1038 194 32.6975C194.007 32.3942 194.029 32.0914 194.067 31.7904C194.509 29.2151 195.087 26.6653 195.798 24.1516C196.388 22.0318 197.022 19.912 197.701 17.7922C197.928 17.0738 198.103 16.3398 198.224 15.5961C198.224 15.491 198.224 15.3574 198.224 15.2523C198.231 15.1152 198.207 14.9783 198.152 14.8524C198.098 14.7265 198.015 14.615 197.91 14.5266C197.91 14.4502 197.815 14.3834 197.815 14.2784C197.821 14.2246 197.845 14.1743 197.882 14.1351C197.925 14.0882 197.978 14.0517 198.038 14.0286C198.097 14.0054 198.161 13.9961 198.224 14.0015C198.433 14.0015 198.681 14.0683 198.919 14.1351C199.873 14.5034 200.763 15.0224 201.554 15.6725C201.788 15.8413 201.976 16.0658 202.103 16.3257C202.229 16.5857 202.289 16.8731 202.277 17.162V17.3053C202.156 18.3802 201.923 19.4395 201.583 20.4658C201.278 21.5066 200.964 22.5187 200.688 23.5595C200.688 23.5595 200.688 23.6264 200.688 23.7314C200.974 23.1299 201.25 22.6142 201.535 22.0891Z" fill="white"/>
<path id="Vector_11" d="M226.722 27.7499C226.507 27.9978 226.291 28.2159 226.046 28.4736L225.939 28.5826C225.478 29.0783 225.047 29.574 224.587 30.0201C223.309 31.3556 221.81 32.4559 220.159 33.2716C219.282 33.7065 218.324 33.9496 217.348 33.9854C217.11 34.0049 216.871 34.0049 216.633 33.9854C216.015 33.9772 215.402 33.8804 214.811 33.6979C213.861 33.3185 213.095 32.5787 212.676 31.636C212.345 30.844 212.141 30.0043 212.069 29.1477C212.069 28.7214 212 28.2852 212 27.8887C211.998 26.5407 212.213 25.2014 212.637 23.9234C213.077 22.6392 213.652 21.4062 214.351 20.2456C215.022 19.0651 215.835 17.973 216.77 16.994C217.861 15.7626 219.233 14.8199 220.767 14.2481C221.286 14.0788 221.828 13.9951 222.373 14.0002C223.226 14.0024 224.062 14.2388 224.793 14.6842C225.374 14.9699 225.906 15.3481 226.37 15.8044C226.901 16.3255 227.208 17.0382 227.222 17.7871C227.22 18.0551 227.184 18.3217 227.114 18.5802C226.939 19.3696 226.572 20.1023 226.046 20.7115C224.775 22.2426 223.159 23.4426 221.335 24.2109C220.088 24.7419 218.69 24.7808 217.417 24.3199C217.292 24.2634 217.16 24.2266 217.025 24.2109C216.988 24.2063 216.95 24.2146 216.918 24.2344C216.886 24.2542 216.862 24.2843 216.849 24.3199C216.78 24.4335 216.721 24.5529 216.672 24.6768C216.131 25.966 215.782 27.3289 215.634 28.7214C215.62 28.9856 215.62 29.2503 215.634 29.5145C215.631 30.4945 215.863 31.4607 216.31 32.3299C216.49 32.6752 216.762 32.9633 217.093 33.1626C217.208 33.1999 217.326 33.2232 217.446 33.232C217.54 33.2495 217.636 33.2495 217.73 33.232C218.551 32.9354 219.321 32.5106 220.012 31.973C220.904 31.289 221.766 30.5653 222.579 29.8119C224.469 28.0374 226.33 26.2332 228.142 24.3992L229.817 22.7041L230.141 22.1588C230.698 21.2019 231.355 20.308 232.1 19.4922C233.008 18.4856 234.144 17.7169 235.411 17.2518C235.956 17.06 236.536 16.9926 237.11 17.0543C237.684 17.116 238.238 17.3053 238.731 17.6086C239.191 17.8589 239.622 18.1615 240.014 18.5108C240.23 18.721 240.402 18.9736 240.518 19.2532C240.634 19.5327 240.693 19.8333 240.69 20.1365C240.682 20.3559 240.659 20.5745 240.622 20.7908C240.461 21.4401 240.156 22.0436 239.73 22.5554C238.705 23.827 237.382 24.8187 235.881 25.4402C235.327 25.682 234.73 25.8068 234.127 25.8069C233.606 25.7954 233.09 25.6983 232.599 25.5194C232.494 25.483 232.386 25.4565 232.276 25.4402C232.249 25.4409 232.222 25.4485 232.198 25.4623C232.174 25.4761 232.153 25.4958 232.139 25.5194C232.077 25.6184 232.027 25.725 231.992 25.8367C231.533 26.8899 231.245 28.0114 231.14 29.1576C231.12 29.3753 231.12 29.5942 231.14 29.8119C231.129 30.6154 231.325 31.408 231.708 32.1118C231.856 32.3991 232.08 32.6393 232.354 32.8057C232.445 32.8431 232.541 32.8665 232.638 32.8751C232.719 32.8914 232.803 32.8914 232.883 32.8751C233.569 32.6431 234.209 32.2907 234.774 31.8342C235.508 31.2832 236.211 30.6907 236.88 30.0597C238.447 28.6223 239.985 27.1452 241.444 25.5888C242.12 24.9048 242.835 24.2208 243.511 23.5368C243.727 23.3484 243.942 23.1403 244.118 22.9519C244.295 22.7636 244.549 22.5554 244.755 22.3472L244.824 22.2778H245C244.965 22.4956 244.881 22.7025 244.755 22.8825C244.287 23.7301 243.739 24.5301 243.119 25.2716C242.228 26.3522 241.258 27.403 240.298 28.4042C240.122 28.6223 239.906 28.8404 239.73 29.0188L239.652 29.0981C239.299 29.4947 238.947 29.9209 238.555 30.3175C237.488 31.399 236.258 32.3025 234.911 32.9941C234.187 33.3433 233.401 33.539 232.599 33.569C231.89 33.647 231.172 33.5727 230.493 33.3509C230.079 33.1965 229.705 32.9497 229.398 32.6287C229.091 32.3078 228.859 31.9211 228.72 31.4972C228.437 30.8723 228.267 30.2005 228.221 29.5145C228.177 29.1692 228.151 28.8217 228.142 28.4736C228.139 27.5843 228.248 26.6983 228.466 25.8367C227.898 26.481 227.329 27.0957 226.722 27.7499ZM224.871 16.1613C224.818 16.119 224.752 16.0947 224.685 16.0919C224.591 16.075 224.495 16.075 224.401 16.0919C223.899 16.2362 223.421 16.4533 222.98 16.7363C220.57 18.3171 218.624 20.5258 217.348 23.1303C217.311 23.1842 217.284 23.2448 217.27 23.3088C217.27 23.3088 217.27 23.3782 217.417 23.3782H217.524C217.999 23.3815 218.47 23.2975 218.915 23.1303C221.125 22.4374 223.005 20.9444 224.195 18.937C224.662 18.2601 224.908 17.4527 224.9 16.6272V16.4884C224.906 16.3785 224.896 16.2683 224.871 16.1613ZM238.731 18.7586C238.714 18.7378 238.694 18.7209 238.67 18.7089C238.646 18.697 238.62 18.6902 238.594 18.6892C238.521 18.7086 238.449 18.7318 238.378 18.7586C237.964 18.8674 237.568 19.0378 237.203 19.2642C235.209 20.5572 233.605 22.3821 232.57 24.538C232.57 24.6074 232.501 24.6471 232.501 24.6768C232.501 24.7066 232.57 24.7561 232.707 24.7561C233.099 24.751 233.486 24.6772 233.853 24.538C235.665 23.9657 237.211 22.7468 238.202 21.108C238.582 20.5447 238.78 19.8765 238.77 19.1948V19.0857C238.781 18.9751 238.767 18.8635 238.731 18.7586Z" fill="white"/>
</g>
</svg>
