<svg width="56" height="124" viewBox="0 0 56 124" fill="none" xmlns="http://www.w3.org/2000/svg">
<g id="Group 29">
<path id="Vector" d="M26.0947 35.7512C22.2949 35.9732 18.5874 36.9853 15.2202 38.7206C13.7837 39.4225 13.2953 40.2157 13.4963 41.8508C15.0909 54.9906 16.5705 68.1512 18.1148 81.2979C18.9983 88.7875 19.9535 96.2559 20.8729 103.759L21.4763 103.696C20.9974 90.2194 20.5353 76.7402 20.09 63.2591L20.7508 63.1959L22.3454 72.2363H22.9774C23.6885 66.3824 25.9079 41.1489 26.0947 35.7512Z" fill="#004F79"/>
<path id="Vector_2" d="M3.08853 17.5087C2.03268 13.6485 0.897828 9.78781 0 5.91329C0.00853002 5.50389 0.13412 5.10485 0.362584 4.76105C0.591045 4.41775 0.913279 4.143 1.29287 3.96938C11.6574 -0.501979 32.6594 -1.94771 44.7549 3.73064C44.9595 3.80611 45.1415 3.93041 45.2845 4.0922C45.4275 4.25398 45.5269 4.44833 45.5737 4.65698C43.2538 4.18 40.9697 3.60437 38.6066 3.25317C27.4807 1.50557 16.6781 1.84937 6.44281 5.82944C4.34549 6.65071 3.31837 7.61206 3.61286 9.40209C4.02227 12.0553 4.06536 14.7292 4.26648 17.4037L3.08853 17.5087Z" fill="#004F79"/>
<path id="Vector_3" d="M31.8188 28.6691C21.8421 27.3497 10.9461 29.1116 4.71875 34.4249C8.05151 37.9344 8.69076 37.9344 12.8208 35.6955C15.27 34.3687 30.5546 28.8516 31.8188 28.6691Z" fill="#004F79"/>
<path id="Vector_4" d="M24.8086 75.1002L23.0848 65.351L22.3665 65.4141C22.8453 79.9573 23.3433 94.5034 23.8605 109.051L23.2069 109.115C22.2156 101.043 21.1814 92.9708 20.2333 84.9061C18.5884 70.7344 16.9795 56.5138 15.2557 42.3283C15.0402 40.5664 15.5933 39.7101 17.116 38.9594C24.787 35.1549 32.5658 34.5581 40.5385 37.9763C45.121 39.9419 45.2288 40.082 44.5608 44.8834C42.4299 60.3627 40.2751 75.8396 38.0964 91.3145C36.7749 100.991 35.4557 110.666 34.1388 120.338C33.9377 121.777 33.83 123.616 31.7686 123.096C31.0503 122.907 30.332 121.124 30.332 120.043C29.7861 101.548 29.3408 83.0529 28.8524 64.5578C28.8386 61.7463 28.4915 58.9456 27.8181 56.212C27.0568 62.5059 26.293 68.8043 25.5268 75.1071L24.8086 75.1002Z" fill="#73CDDB"/>
<path id="Vector_5" d="M36.3871 13.1785C29.4989 10.5741 22.4025 11.6553 15.1839 11.3742C17.4106 10.7147 19.6085 9.97037 21.8566 9.39524C30.5548 7.17707 39.2529 6.524 47.9151 9.58465L48.5185 9.78096C54.8679 12.0554 55.6149 13.0872 55.3851 19.6076C55.27 22.8646 55.0189 26.1146 54.8391 29.0904C48.0444 27.6373 41.6088 25.5316 35.0439 25.0684C28.479 24.6053 21.792 25.7703 15.0547 26.2616C19.7162 21.9308 26.0082 21.6995 31.8692 19.9869H15.4785C21.5693 14.6662 29.2835 15.0174 36.3871 13.1785Z" fill="#73CDDB"/>
<path id="Vector_6" d="M5.58791 27.5041C4.39561 21.4326 3.10992 15.3754 2.09717 9.25461C2.0758 8.67257 2.19466 8.09349 2.44417 7.56422C2.69368 7.03496 3.06688 6.57081 3.5337 6.20827C15.2629 -0.810753 39.023 -3.09206 52.7133 5.82945C52.9683 5.98877 53.184 6.20235 53.3441 6.45341C53.5042 6.70497 53.6053 6.98811 53.6396 7.28209C51.0182 6.53135 48.4251 5.63955 45.7388 5.05701C33.1476 2.31254 20.93 2.81812 9.35161 9.10022C6.97419 10.3916 5.81778 11.9078 6.14816 14.7154C6.61502 18.8849 6.65815 23.0889 6.86645 27.2865L5.58791 27.5041Z" fill="#73CDDB"/>
<path id="Vector_7" d="M6.78809 35.4287C17.2675 25.7071 43.0244 26.0159 52.8572 35.4775C49.2661 38.6644 49.0507 38.6082 45.1936 36.2569C35.1379 30.108 25.0032 30.1854 14.9476 36.2569C10.954 38.6432 10.3147 38.6714 6.78809 35.4287Z" fill="#73CDDB"/>
</g>
</svg>
