<svg width="11" height="16" viewBox="0 0 11 16" fill="none" xmlns="http://www.w3.org/2000/svg">
<path id="Vector" d="M10.9952 6.71236L10.6073 8.22365C10.2472 8.78549 9.85376 9.32226 9.42938 9.83066C9.03318 10.3547 8.56607 10.8131 8.04333 11.1908C7.87723 11.3353 7.71927 11.49 7.57027 11.6543C7.2556 11.7819 6.97702 11.9935 6.76133 12.2689C6.43667 12.4222 6.1315 12.6185 5.85307 12.8533C5.79631 12.8533 5.70171 12.9238 5.56925 12.9893C5.47462 13.0484 5.37024 13.0877 5.26175 13.1051C4.97491 13.3495 4.6562 13.548 4.31564 13.6945C3.9352 13.9017 3.54524 14.0883 3.1472 14.2537C2.75669 14.375 2.37288 14.5197 1.99764 14.687C1.93745 14.7401 1.88203 14.7992 1.83209 14.8633C1.74694 14.964 1.68545 15.0144 1.63815 15.0194C1.61469 15.0241 1.59063 15.0241 1.56718 15.0194C1.25496 15.1 1.09412 14.9892 1.03735 14.687C0.996512 14.4687 0.937951 14.2546 0.862325 14.0472C0.783355 13.8345 0.754135 13.6046 0.777178 13.3772L0.810296 13.226C0.825661 13.2028 0.845338 13.1833 0.868128 13.1685C0.890918 13.1538 0.916316 13.1442 0.942737 13.1404C0.97384 13.1432 1.00425 13.1517 1.03262 13.1656L1.12724 13.1958C1.15878 13.1821 1.18656 13.1601 1.20805 13.1319C1.22954 13.1038 1.24406 13.0703 1.25024 13.0346L2.466 12.6165C2.55745 12.5762 2.68989 12.5057 2.86335 12.4049C3.32009 12.1066 3.75354 11.7697 4.15952 11.3974C4.93748 10.7688 5.6682 10.0765 6.34504 9.3269C6.98401 8.52585 7.54804 7.66031 8.02912 6.74258C7.17744 7.13351 6.34815 7.5776 5.54557 8.07253C5.35424 8.11776 5.17585 8.21102 5.02522 8.34455C4.88139 8.47239 4.70842 8.55756 4.52378 8.59141C4.48496 8.65457 4.43519 8.70927 4.37714 8.7526C4.15714 9.00185 3.96067 9.27352 3.79055 9.56367L3.89934 9.50825L3.83784 9.60901L3.78582 9.54352L3.74796 9.64427C3.53315 9.58036 3.32158 9.50469 3.11408 9.41757L3.14246 9.24629C3.05258 9.24629 2.97687 9.1405 2.91538 8.91381C2.86738 8.75051 2.84034 8.58106 2.83497 8.41004C3.05558 8.0308 3.3056 7.67188 3.5824 7.33702C4.05546 6.68716 4.3866 6.28919 4.52852 6.1431C4.67044 5.99701 4.76505 5.78542 4.94955 5.49324L5.05834 5.43279L5.02996 5.38745C5.25229 5.12046 5.58342 4.72753 6.02337 4.21369C6.04964 4.11171 6.10403 4.02046 6.17948 3.95172C6.02527 4.00068 5.86676 4.03275 5.70643 4.04743L5.74901 3.99705H5.65913V4.06759C5.57398 4.10789 5.12456 4.36481 4.31564 4.83835C3.89314 5.09894 3.42728 5.27 2.94376 5.34211C2.90118 5.34211 2.87281 5.30685 2.86808 5.22624C2.78416 5.20446 2.69656 5.20446 2.61264 5.22624C2.47159 5.04119 2.34049 4.84777 2.22 4.64692C2.09495 4.45619 2.04099 4.22277 2.06862 3.99203C2.07282 3.84559 2.10502 3.70161 2.16323 3.56887C2.10716 3.43277 2.08594 3.28328 2.10173 3.13562C2.12065 3.00464 2.30042 2.81322 2.64102 2.56134C2.87283 2.37024 3.12935 2.21584 3.40264 2.10291C3.47911 2.00564 3.58724 1.94267 3.7054 1.92659C3.78425 1.90683 3.85337 1.85655 3.89934 1.78553L3.95137 1.85103C3.95137 1.72005 3.98449 1.65456 4.04599 1.64952C4.10749 1.64448 4.0933 1.64952 4.14061 1.70997C4.20642 1.64745 4.27771 1.59177 4.35349 1.54372C4.35349 1.57395 4.39133 1.58403 4.40552 1.58403L4.50958 1.50343C4.55215 1.46312 4.58527 1.46312 4.59946 1.50343V1.42786L4.67516 1.49334C4.69824 1.45575 4.72983 1.42497 4.76704 1.40384C4.80425 1.3827 4.84588 1.3719 4.88805 1.37244C4.92116 1.37244 4.95427 1.33215 4.99684 1.26666L5.08199 1.20621L5.11037 1.27673C5.17096 1.22005 5.2475 1.18638 5.32799 1.18101V1.20621L5.45569 1.12056L5.49354 1.26161C5.49658 1.18814 5.52144 1.11759 5.56451 1.06011C5.67332 1.06011 5.72062 1.11552 5.71116 1.1659L5.67331 1.22132V1.26666L5.62128 1.20116L5.55978 1.30192L5.51719 1.33215H5.4699L5.40366 1.58403C5.3883 1.57865 5.37173 1.57865 5.35637 1.58403C5.29303 1.60176 5.23382 1.6333 5.18252 1.67666C5.13122 1.72002 5.08894 1.77425 5.05834 1.83591L5.02996 1.76538L4.90222 1.87621V1.92154C4.8763 2.04324 4.82451 2.15699 4.75084 2.25403C4.58251 2.35473 4.43202 2.486 4.30617 2.64193C4.30148 2.65663 4.30148 2.67258 4.30617 2.68728L4.38187 2.72757C4.38187 2.66376 4.4623 2.59828 4.62314 2.53111C4.77924 2.47066 4.86438 2.43539 4.87858 2.43539C4.89381 2.4416 4.91064 2.4416 4.92587 2.43539C4.9531 2.43416 4.97893 2.42208 4.9982 2.40156C5.01747 2.38103 5.0288 2.35356 5.02996 2.32457C5.3223 2.27586 5.60612 2.18077 5.87198 2.04246L6.70457 1.66463C6.85452 1.6003 7.00135 1.52799 7.14451 1.448C7.16736 1.45731 7.19263 1.45731 7.21548 1.448L7.31483 1.41275C7.35381 1.39411 7.39531 1.38221 7.4378 1.37748H7.50404C7.63056 1.31604 7.75377 1.24708 7.87304 1.17094L8.07645 1.1256H8.25621C8.34108 1.10563 8.42249 1.07163 8.49748 1.02484C8.50331 1.03228 8.5105 1.03836 8.51864 1.04269C8.52678 1.04703 8.53568 1.04953 8.54477 1.05004C8.60005 1.03002 8.65138 0.999267 8.69615 0.959351C8.7352 0.9675 8.77537 0.9675 8.81442 0.959351C8.91833 0.94142 9.01795 0.902072 9.10771 0.843495C9.19335 0.788149 9.28806 0.750546 9.38683 0.732666C9.47671 0.732666 9.52873 0.813262 9.54765 1.00973C9.63029 1.08132 9.69074 1.17778 9.72112 1.28652C9.7515 1.39526 9.75039 1.51122 9.71794 1.61928C9.77074 1.6565 9.81455 1.70647 9.84579 1.76512C9.87703 1.82377 9.89481 1.88945 9.89771 1.95681C9.89771 2.12305 9.94503 2.27923 9.97341 2.42028C9.87005 2.53602 9.79669 2.67835 9.76053 2.83336C9.6328 2.94419 9.43412 3.10036 9.16447 3.3069L9.24962 3.27667L9.10297 3.3875H9.07459C8.73729 3.63686 8.42075 3.91664 8.12848 4.22376C7.81894 4.52147 7.53552 4.84859 7.28171 5.20106L7.41416 5.14061L7.35266 5.21617L7.55136 5.17084C7.79563 5.10717 8.03334 5.01773 8.26095 4.90384H8.46436C8.48705 4.89999 8.50848 4.89013 8.52667 4.87517C8.54485 4.86021 8.55919 4.84061 8.56842 4.81819C8.65872 4.81987 8.7464 4.78576 8.81442 4.72248L8.94215 4.65699C8.94215 4.65699 8.94213 4.70737 8.86171 4.76279L9.01783 4.6973L9.04147 4.72248L9.10297 4.66707C9.10297 4.66707 9.10297 4.66707 9.13136 4.66707C9.06986 4.66707 9.13137 4.63684 9.32533 4.5512L9.37735 4.61669C9.37857 4.58818 9.39007 4.56127 9.40946 4.54156C9.42885 4.52185 9.45461 4.51088 9.48141 4.51091L9.57603 4.54617C9.65352 4.48304 9.74457 4.44147 9.84094 4.42526C10.0065 4.42526 10.1484 4.64188 10.2667 5.12046C10.385 5.59903 10.5458 5.83581 10.7398 5.81566C10.8642 6.08219 10.9135 6.38137 10.8817 6.67709L10.9952 6.71236ZM5.94295 0.984549L5.88145 1.06515L5.80104 0.949281L5.94295 0.984549ZM9.30639 6.30431C9.20231 6.3295 9.0462 6.37988 8.83333 6.4504C8.7242 6.61427 8.65585 6.80491 8.63465 7.00453L7.30536 9.21103C8.22102 8.47061 8.91197 7.45976 9.29221 6.30431H9.30639Z" fill="white"/>
</svg>
