<svg width="11" height="17" viewBox="0 0 11 17" fill="none" xmlns="http://www.w3.org/2000/svg">
<path id="Vector" d="M10.8298 3.94671C10.7919 4.35308 10.3693 5.06171 9.562 6.0726C9.06146 6.74481 8.48826 7.35183 7.85427 7.88112C7.07573 8.56251 6.37973 9.3443 5.78227 10.2085C5.63563 10.4201 5.3991 10.7123 5.07269 11.1606C4.94263 11.2892 4.83247 11.4388 4.74628 11.6039C4.40483 11.9701 4.10476 12.3776 3.85219 12.818H3.92316L3.95154 12.8885C3.97499 12.8375 4.00892 12.7927 4.05087 12.7576C4.06514 12.7558 4.07957 12.7588 4.09224 12.766C4.10491 12.7732 4.11523 12.7843 4.12184 12.7979L4.18334 12.7173H4.29687C4.31321 12.6787 4.33672 12.6441 4.36599 12.6155C4.39526 12.5869 4.42968 12.565 4.46716 12.551L4.51448 12.5964L4.5949 12.4906V12.5157C4.94559 12.1954 5.26279 11.8356 5.54101 11.4427L6.56754 10.143V10.0977C7.25505 9.23121 8.31313 7.96172 9.74176 6.28922C9.83637 6.34463 9.89313 6.54109 9.90732 6.87861C9.39334 7.31069 8.94084 7.81973 8.56385 8.38991C7.736 9.49819 7.26294 10.1027 7.14468 10.2136H7.09736L6.59592 10.9692C6.47696 11.1459 6.34738 11.3141 6.20801 11.473C6.26105 11.4848 6.31582 11.4848 6.36886 11.473C6.59006 11.2177 6.89487 11.0626 7.22036 11.0397C7.23572 11.0451 7.25229 11.0451 7.26765 11.0397C7.27948 11.0091 7.27948 10.9747 7.26765 10.944C7.39099 10.8539 7.53951 10.8112 7.68868 10.8231C7.98197 10.6821 8.37463 10.4654 8.86188 10.1682C9.12666 10.1155 9.38103 10.0149 9.61403 9.87098C9.73702 9.87098 9.85054 9.95158 9.95935 10.1531C9.97127 10.4818 10.0881 10.7963 10.2905 11.0448V11.0699C10.3402 11.1981 10.369 11.3344 10.3756 11.473C10.3628 11.5626 10.3274 11.6469 10.2733 11.717C10.2192 11.787 10.1483 11.8402 10.0682 11.8709C9.93431 11.9321 9.80604 12.0063 9.685 12.0926C9.64967 12.1355 9.61175 12.1759 9.57147 12.2135C9.5147 12.2538 9.47683 12.2588 9.45791 12.2135C8.14333 12.748 6.8578 13.3602 5.60724 14.0472C4.38176 14.6724 3.24088 15.4705 2.2154 16.4199C2.2154 16.5509 2.08768 16.6265 1.80385 16.6567C1.78884 16.6595 1.77339 16.6571 1.75976 16.6499C1.74613 16.6426 1.73505 16.6309 1.72817 16.6164C1.49637 16.702 1.25512 16.5509 1.02332 16.1529C0.826757 15.9027 0.718038 15.5875 0.71582 15.2613C1.02018 14.4996 1.40589 13.7779 1.86535 13.1102C2.29856 12.3474 2.7823 11.6184 3.3129 10.9289V10.8836C3.3129 10.8483 3.33657 10.808 3.38861 10.7526H3.45955V10.7274C3.53201 10.5594 3.63124 10.406 3.75284 10.274C3.86649 10.1147 3.99316 9.96631 4.13131 9.83069C4.13131 9.83069 4.10763 9.83069 4.10763 9.78535C4.20697 9.72994 4.2401 9.68459 4.20698 9.65437C4.40094 9.42263 4.68005 9.10022 5.07742 8.68713C5.13164 8.57982 5.20956 8.48819 5.30448 8.42014L5.47004 8.20856C5.52964 8.12642 5.5997 8.05352 5.67819 7.99195L5.6498 7.94661C5.73495 7.85593 5.85797 7.72999 6.02354 7.56879C6.44154 6.96515 6.9017 6.39596 7.40012 5.86606C7.93319 5.30119 8.4206 4.68947 8.85715 4.03739L8.94229 3.98196C8.91192 3.96907 8.87805 3.96907 8.84768 3.98196C8.4987 4.06177 8.158 4.1782 7.83059 4.32956C7.51198 4.4319 7.21035 4.58657 6.93653 4.78799C6.6335 4.92316 6.35614 5.11608 6.11813 5.35725C5.87468 5.60238 5.61197 5.82485 5.33286 6.02222C5.08291 6.35331 4.80588 6.66013 4.50501 6.93908V6.98442C4.47498 7.04667 4.43308 7.10156 4.38201 7.14561C4.31106 7.21614 4.29687 7.26652 4.32525 7.29675L4.20225 7.40758L4.23063 7.45292L4.08399 7.61412C4.0083 7.61412 3.97517 7.68969 3.98463 7.81563L3.89949 7.85089C3.70704 8.05649 3.55859 8.30395 3.46428 8.57632C3.38155 8.61459 3.30857 8.6733 3.2514 8.7476H3.13787C2.89661 8.7879 2.66482 8.6418 2.37626 8.31435C2.26322 8.19979 2.17279 8.06237 2.11025 7.91013C2.0477 7.75789 2.01429 7.59387 2.01199 7.42772C2.1007 7.24421 2.16744 7.04959 2.21067 6.84839C2.21067 6.13304 2.65536 5.22124 3.5589 4.10288C3.64405 4.07769 3.69608 4.03738 3.70555 3.96685C3.83327 3.87617 4.01776 3.72504 4.25901 3.52354H4.30634L4.59016 3.21625L4.66584 3.28174C4.71104 3.20441 4.76508 3.13334 4.82669 3.07015C4.84205 3.07553 4.85862 3.07553 4.87398 3.07015C4.91384 3.05977 4.94901 3.03481 4.97334 2.99963C5.00645 2.95429 5.03957 2.94421 5.07269 2.97443C5.06637 2.9639 5.06301 2.95168 5.06301 2.93918C5.06301 2.92669 5.06637 2.91445 5.07269 2.90391C5.07269 2.90391 5.11998 2.87368 5.20986 2.86361C5.29974 2.85353 5.28557 2.81828 5.31395 2.73264C5.38427 2.69356 5.4522 2.64981 5.51736 2.60165C5.58355 2.54671 5.66161 2.51034 5.74442 2.49587C5.76137 2.45515 5.78835 2.42006 5.82249 2.39434C5.85664 2.36862 5.89666 2.35322 5.93836 2.34977C5.9852 2.34444 6.03049 2.32868 6.07124 2.30351C6.11199 2.27834 6.14729 2.24433 6.17489 2.20367C6.17489 2.23894 6.17491 2.25405 6.22695 2.24901C6.27898 2.24397 6.2695 2.21375 6.32154 2.14322C6.37357 2.0727 6.40671 2.03743 6.43509 2.0324C6.44935 2.03734 6.46189 2.04668 6.47116 2.05924C6.48042 2.07179 6.48599 2.08701 6.48712 2.10293L6.65268 1.9115L6.7473 1.95179V1.87623L6.94598 1.80571H6.87977C7.00917 1.7684 7.12783 1.69742 7.22509 1.59916C7.24032 1.60537 7.25716 1.60537 7.27239 1.59916C7.23927 1.59916 7.2724 1.57397 7.37647 1.51352C7.38668 1.51426 7.3966 1.51736 7.40558 1.52257C7.41456 1.52779 7.42239 1.53501 7.4285 1.54374C7.43595 1.55597 7.44678 1.56545 7.45948 1.57086C7.47219 1.57627 7.48616 1.57735 7.49947 1.57397L7.55624 1.44803V1.42284L7.63191 1.46818C7.67107 1.4596 7.70811 1.44244 7.74071 1.4178C7.7656 1.39618 7.79471 1.3807 7.82588 1.37246V1.2969C7.98554 1.27726 8.14365 1.24527 8.29894 1.20119V1.13065C8.33915 1.11985 8.37641 1.09914 8.40774 1.0702C8.4385 1.0404 8.47597 1.01958 8.51653 1.00975C8.53189 1.00437 8.54849 1.00437 8.56385 1.00975L8.45976 1.11554L8.57803 1.176C8.57163 1.17449 8.56563 1.17142 8.56053 1.16704C8.55543 1.16266 8.55135 1.15708 8.54861 1.15074C8.54586 1.14441 8.54453 1.13748 8.54471 1.1305C8.54489 1.12352 8.54658 1.11668 8.54965 1.11051L8.63479 1.05006C8.66318 1.0148 8.63479 0.984572 8.60641 0.954346C8.63886 1.01307 8.65978 1.0782 8.66791 1.14578L8.71994 1.19112H8.649C8.58017 1.27296 8.50235 1.34568 8.41721 1.40773C8.32732 1.40773 8.28 1.40773 8.28 1.40773C8.28 1.40773 8.28001 1.37751 8.32259 1.37751L8.28474 1.47825C8.34195 1.4982 8.39276 1.53487 8.43138 1.58405C8.43138 1.55383 8.39828 1.54374 8.38409 1.54374C8.3699 1.54374 8.34152 1.56893 8.29894 1.62435C8.25637 1.67976 8.22798 1.67976 8.20906 1.62435L8.08606 1.78051C8.0707 1.77513 8.0541 1.77513 8.03874 1.78051C8.00562 1.78051 7.99144 1.82081 7.99144 1.8863C7.99144 1.95179 7.94886 1.97195 7.86844 1.94676C8.03612 1.95406 8.20405 1.94394 8.36988 1.91654L8.4645 1.95683C8.4645 1.84097 8.71994 1.76037 9.22138 1.70999C9.72282 1.65962 9.95935 1.70999 10.0776 1.86112L10.1722 1.90143C10.2523 2.15253 10.3741 2.38629 10.5318 2.59158C10.5531 2.70657 10.5984 2.81501 10.6642 2.90896C10.7572 3.07252 10.8243 3.2512 10.8629 3.4379C10.8757 3.60832 10.8645 3.77981 10.8298 3.94671ZM7.13995 2.28428C7.10634 2.35232 7.0963 2.43079 7.11156 2.50594L7.13995 2.28428Z" fill="white"/>
</svg>
