<svg width="32" height="49" viewBox="0 0 32 49" fill="none" xmlns="http://www.w3.org/2000/svg">
<path id="Vector" d="M23.716 39.9335C23.716 39.6211 23.716 39.2987 23.716 38.9813C23.6915 38.8588 23.7008 38.7313 23.7427 38.6142C23.7847 38.4971 23.8576 38.3954 23.9526 38.3214C24.0776 38.2369 24.1742 38.1124 24.2286 37.9658C24.283 37.8192 24.2924 37.658 24.2553 37.5053C24.2045 37.1704 24.2682 36.8271 24.4351 36.5381C24.5541 36.3467 24.6233 36.1251 24.6358 35.8959C24.6482 35.6667 24.6035 35.4381 24.506 35.2333C24.4166 35.0711 24.3902 34.8781 24.4326 34.6954C24.4751 34.5128 24.5829 34.3551 24.7331 34.256C25.0501 34.0041 25.3765 33.7523 25.6792 33.5256C25.911 33.3493 26.2043 33.2283 26.1996 32.8455C26.1949 32.4626 26.2753 32.0445 25.8826 31.7422C25.5856 31.4755 25.3073 31.1859 25.0501 30.8758C24.3357 30.1503 24.0424 29.173 23.6971 28.231C23.6737 28.0741 23.6737 27.9143 23.6971 27.7575C23.6971 26.9615 23.6593 26.1656 23.6971 25.3797C23.6751 24.5319 23.5315 23.6927 23.2714 22.8911C23.2714 22.8407 23.1484 22.7903 23.1531 22.7551C23.2903 21.9188 22.628 21.3042 22.5996 20.5133C22.5996 20.468 22.4814 20.3823 22.4246 20.3823C22.3678 20.3823 22.2543 20.4881 22.259 20.5335C22.2514 21.1506 22.2925 21.7674 22.382 22.3772C22.5616 22.9797 22.5382 23.63 22.3158 24.216C22.2885 24.2665 22.2678 24.3207 22.2543 24.3772C22.0649 26.027 21.5833 27.6236 20.8351 29.0824C20.1891 30.3432 19.4251 31.5314 18.555 32.6289C17.642 33.7926 16.6627 34.8958 15.7166 36.0293C15.4114 36.4206 15.1524 36.8503 14.9456 37.3088C14.4789 38.1785 14.1135 39.1056 13.8575 40.0695C13.8387 40.1292 13.8071 40.1835 13.7652 40.2281C13.7234 40.2727 13.6724 40.3063 13.6163 40.3264C13.5548 40.3264 13.4365 40.2156 13.3703 40.1199C12.8808 39.2797 12.3437 38.4722 11.7619 37.7018C11.4105 37.3064 11.0168 36.9564 10.5887 36.659C9.98318 36.2358 9.48174 35.6515 8.7485 35.4046C8.32082 35.1769 7.92187 34.8925 7.56113 34.5583C6.65173 33.9712 5.80749 33.2767 5.04447 32.4878C4.83632 32.2712 4.50518 32.1201 4.32542 31.8581C3.5496 30.7297 2.55618 29.7826 1.9081 28.5383C1.27355 27.2012 0.746565 25.8091 0.332815 24.3772C0.332815 24.3218 0.261857 24.2613 0.271318 24.216C0.399044 23.5208 0.096286 22.881 0.096286 22.2009C0.0382172 21.5307 0.0382172 20.8561 0.096286 20.1859C0.38012 18.5839 0.682878 16.997 1.58642 15.6066C1.98197 14.9095 2.42968 14.2474 2.92517 13.6268C3.59085 12.95 4.31463 12.3412 5.08704 11.8083C6.44944 10.7554 7.92538 9.9544 9.34455 8.98213C10.9398 7.85004 12.3983 6.51344 13.6872 5.00239C14.1188 4.41817 14.4707 3.77202 14.7327 3.08304C14.8707 2.73258 14.9907 2.37437 15.0922 2.01002C15.2402 1.43464 15.3587 0.851081 15.447 0.261953C15.4688 0.176279 15.4957 0.092152 15.5274 0.0100708C15.6319 0.0347347 15.7335 0.0719146 15.8302 0.1209C16.3032 0.418121 16.3647 0.992412 16.4877 1.4458C16.6451 1.98417 16.7699 2.53272 16.8614 3.08808C16.9371 3.65785 16.9371 4.23614 16.8614 4.80591C16.7661 5.69053 16.5773 6.56084 16.2985 7.40031C16.0714 8.03001 15.6741 8.58416 15.5794 9.27431C15.5227 9.69748 14.9739 9.87883 15.078 10.3876C14.605 10.8914 14.7989 11.7226 14.3826 12.2717C14.4205 13.0677 14.2029 13.8838 14.6097 14.6394C14.8131 15.0223 14.9124 15.4505 15.1442 15.8384C15.2349 16.0001 15.3555 16.1407 15.4986 16.2515C15.6417 16.3623 15.8043 16.4411 15.9768 16.4832C16.2998 16.559 16.6358 16.5434 16.9513 16.4379C17.8643 16.2112 18.3184 15.5009 18.8435 14.8157C19.5531 13.909 19.8843 12.7604 20.6222 11.8788C20.9155 11.5161 21.1237 11.0778 21.4075 10.7C21.9184 10.0199 22.68 9.73274 23.3896 9.37003C23.47 9.32469 23.6403 9.44559 23.7444 9.52116C23.9242 9.63702 23.7444 9.69748 23.6924 9.78816C23.4015 10.531 23.2058 11.3121 23.1105 12.1105C23.1072 12.8972 23.2911 13.6719 23.6451 14.3623C23.8343 14.7905 24.0661 15.2036 24.2506 15.6218C24.5495 16.2008 24.8962 16.7504 25.2866 17.264C25.5674 17.8074 25.8836 18.3292 26.2327 18.8257C27.2498 19.9541 27.9594 21.3042 28.8061 22.5586C29.1118 22.9445 29.3549 23.3821 29.5252 23.8533C29.6482 24.3218 29.9982 24.6442 30.1307 25.1228C30.2631 25.6013 30.4949 26.1656 30.7126 26.6693C30.9895 27.3027 31.1501 27.9867 31.1856 28.6844C31.2188 29.0741 31.2757 29.4611 31.3559 29.843C31.4079 30.2058 31.2282 30.6088 31.4789 30.9312C31.1383 31.6667 31.4505 32.4727 31.2518 33.2535C31.0863 33.9084 30.9917 34.5885 30.8214 35.2686C30.7818 35.5314 30.7185 35.7896 30.6321 36.0394C30.0739 37.1678 29.686 38.3819 28.8865 39.3743C28.6571 39.5986 28.4566 39.8544 28.2905 40.135C28.1084 40.4672 27.8516 40.7459 27.5431 40.946C26.6679 41.5606 26.0387 42.543 24.998 42.9107C24.0519 43.9183 22.7983 44.3515 21.7576 45.1777C21.0722 45.6183 20.3612 46.0121 19.6288 46.3565C18.8057 46.8602 18.0204 47.4245 17.2115 47.9635C17.0696 48.0592 16.8662 48.2708 16.7999 48.2254C16.5978 48.1127 16.4327 47.937 16.3269 47.7217C16.215 47.4127 16.1542 47.0855 16.1471 46.7544C16.0811 46.2843 15.9782 45.8209 15.8396 45.3691C15.7211 44.8194 15.7133 44.2491 15.8169 43.696C15.9205 43.1429 16.133 42.6194 16.4404 42.1601C16.6018 41.9049 16.8252 41.7013 17.0868 41.5708C17.3485 41.4404 17.6384 41.3881 17.9258 41.4196C18.6787 41.5016 19.4211 41.6705 20.1397 41.9233C20.561 42.1247 21.0227 42.2113 21.4832 42.1752C21.8408 42.1525 22.1994 42.1525 22.557 42.1752C22.8349 42.1889 23.1064 42.0847 23.3122 41.8854C23.5179 41.6861 23.6411 41.4081 23.6545 41.1123V41.0518C23.7302 40.6337 23.716 40.2861 23.716 39.9335Z" fill="url(#paint0_linear_601_986)"/>
<defs>
<linearGradient id="paint0_linear_601_986" x1="15.7923" y1="48.1952" x2="15.7923" y2="-0.00504097" gradientUnits="userSpaceOnUse">
<stop stop-color="#F26428"/>
<stop offset="1" stop-color="#F1EB4D"/>
</linearGradient>
</defs>
</svg>
