<svg width="21" height="27" viewBox="0 0 21 27" fill="none" xmlns="http://www.w3.org/2000/svg">
<path id="Vector" d="M18.1641 13.0958C19.0143 13.6155 19.7321 14.3488 20.255 15.2318C20.7408 16.0684 20.995 17.034 20.9882 18.0176C20.9696 19.0289 20.7605 20.0259 20.3733 20.9495C19.9321 22.0365 19.2884 23.0168 18.481 23.8311C17.5436 24.7709 16.4472 25.5128 15.2501 26.0174C12.3796 27.134 9.23907 27.1855 6.33766 26.1635C5.20281 25.7306 4.14542 25.0952 3.21076 24.2844C2.40198 23.5794 1.73165 22.7115 1.23811 21.7304C0.801979 20.8708 0.498505 19.942 0.339301 18.9798L4.45017 18.1486C4.5021 18.5328 4.59904 18.9085 4.73873 19.2669C4.94947 19.8191 5.2726 20.3146 5.68484 20.7178C6.23484 21.2592 6.87716 21.6833 7.57707 21.9671C8.55763 22.3421 9.59665 22.5131 10.6378 22.4709C11.711 22.5121 12.7811 22.3219 13.7836 21.9117C14.4869 21.6098 15.1293 21.1669 15.6758 20.607C16.0848 20.1833 16.3985 19.6667 16.5935 19.0957C16.7222 18.7421 16.8019 18.3704 16.8301 17.9924C16.8301 17.4635 16.3286 16.9597 15.3352 16.4811C14.3418 16.0026 12.7712 15.7759 10.6425 15.7759C9.26373 15.7981 7.88641 15.6715 6.53162 15.398C5.55005 15.1884 4.59666 14.8499 3.69327 14.3905C3.01479 14.0488 2.39448 13.5891 1.85781 13.0303C1.4453 12.5989 1.10175 12.0986 0.84074 11.5493C0.631311 11.1159 0.481549 10.6528 0.396065 10.174C0.336124 9.83317 0.301327 9.48788 0.291992 9.14127C0.312805 8.13026 0.521829 7.1337 0.906961 6.20935C1.34506 5.12645 1.98939 4.15212 2.79919 3.34797C3.73973 2.41864 4.83354 1.68251 6.02544 1.17674C8.90773 0.0644978 12.0583 0.0218979 14.9662 1.05584C16.1026 1.49427 17.1602 2.1366 18.0931 2.95503C18.896 3.65244 19.5657 4.50753 20.0658 5.47385C20.5045 6.32735 20.8097 7.25128 20.9693 8.2093L16.8537 9.08082C16.8014 8.69512 16.7044 8.3178 16.5652 7.95742C16.3541 7.41127 16.0308 6.92241 15.619 6.52673C15.0634 5.99834 14.4223 5.58184 13.7268 5.29754C12.7485 4.91146 11.7089 4.7318 10.6661 4.76859C9.60545 4.73186 8.54862 4.922 7.55814 5.32777C6.8551 5.62805 6.21274 6.06927 5.66592 6.62748C5.25875 7.03729 4.93649 7.53318 4.7198 8.08336C4.58329 8.41435 4.49708 8.76633 4.46436 9.12615C4.48818 9.40029 4.60408 9.65608 4.79077 9.84653C5.08449 10.169 5.44376 10.4155 5.84096 10.5669C6.46021 10.8226 7.10444 11.0034 7.76157 11.1059C8.71767 11.2638 9.6845 11.3363 10.6519 11.3226C13.8656 11.3696 16.3696 11.9607 18.1641 13.0958Z" fill="white"/>
</svg>
