<svg width="20" height="63" viewBox="0 0 20 63" fill="none" xmlns="http://www.w3.org/2000/svg">
<path id="Vector" d="M6.34849 28.2744L5.21316 21.2771L4.7401 21.3225C5.05547 31.7605 5.38345 42.2002 5.72405 52.6415L5.29357 52.6869C4.64076 46.8936 3.95955 41.1003 3.33512 35.312C2.25182 25.141 1.19217 14.9347 0.056831 4.75362C-0.0850862 3.48917 0.279166 2.87458 1.28205 2.33555C6.3343 -0.394859 11.4575 -0.823056 16.7084 1.63028C19.7265 3.04082 19.7975 3.14157 19.3576 6.58733C17.9542 17.697 16.535 28.8051 15.1001 39.9114C14.2296 46.8566 13.3608 53.8002 12.4935 60.7421C12.3611 61.7748 12.2901 63.0947 10.9324 62.7219C10.4594 62.5859 9.9863 61.3063 9.9863 60.5305C9.62678 47.2563 9.33348 33.9821 9.0118 20.7079C9.00268 18.69 8.77409 16.68 8.3306 14.7181C7.82916 19.2352 7.32615 23.7557 6.82155 28.2795L6.34849 28.2744Z" fill="#3959CD"/>
</svg>
