<svg width="11" height="17" viewBox="0 0 11 17" fill="none" xmlns="http://www.w3.org/2000/svg">
<path id="Vector" d="M10.2523 3.38995C10.2145 3.79632 9.79187 4.50328 8.98452 5.51081C8.48532 6.18429 7.91198 6.79147 7.27679 7.31933C6.49967 8.00423 5.80387 8.78749 5.2048 9.65176C5.05815 9.86334 4.82162 10.1555 4.49521 10.5988C4.36589 10.73 4.25586 10.8811 4.1688 11.0472C3.82736 11.4134 3.52729 11.8208 3.27472 12.2613H3.34095L3.36934 12.3318C3.39607 12.2816 3.43138 12.2372 3.47342 12.2008C3.48782 12.1973 3.5029 12.1995 3.51593 12.2069C3.52895 12.2143 3.53905 12.2264 3.54437 12.2411L3.60587 12.1605H3.71939C3.73573 12.122 3.75927 12.0874 3.78855 12.0588C3.81782 12.0302 3.85224 12.0083 3.88972 11.9943L3.93701 12.0396L4.01742 11.9338V11.959C4.36517 11.6353 4.68208 11.2759 4.96354 10.886C5.61951 10.0531 5.96013 9.61986 5.98536 9.58627V9.53589C6.66971 8.66942 7.72777 7.40161 9.15955 5.73247C9.25416 5.78285 9.31095 5.98434 9.32514 6.32187C8.81042 6.75466 8.35641 7.26357 7.97691 7.83316C7.15379 8.93641 6.68073 9.54596 6.55774 9.65679H6.51044L6.009 10.4124C5.88886 10.5881 5.75934 10.7563 5.62109 10.9162C5.6742 10.9273 5.72884 10.9273 5.78195 10.9162C6.00478 10.664 6.309 10.511 6.63344 10.488C6.64881 10.4934 6.66537 10.4934 6.68074 10.488C6.69285 10.4557 6.69285 10.4196 6.68074 10.3873C6.80436 10.2982 6.95308 10.2572 7.10176 10.2714C7.39506 10.1303 7.78769 9.90868 8.27494 9.6165C8.53972 9.56376 8.79411 9.46324 9.02711 9.31928C9.14538 9.31928 9.26363 9.39988 9.37243 9.60138C9.38504 9.9284 9.50184 10.2411 9.70358 10.488V10.5182C9.75338 10.6462 9.78064 10.7828 9.78399 10.9212C9.77113 11.0109 9.73579 11.0952 9.68166 11.1653C9.62754 11.2353 9.55667 11.2885 9.47652 11.3192C9.34448 11.3811 9.21782 11.4553 9.09805 11.5409L8.98452 11.6618C8.92776 11.7021 8.88992 11.7071 8.87099 11.6618C7.55642 12.1963 6.27085 12.8085 5.0203 13.4955C3.79367 14.1185 2.65256 14.9168 1.62849 15.8682C1.62849 15.9992 1.50077 16.0748 1.21693 16.105C1.20205 16.1064 1.18708 16.1034 1.17371 16.0963C1.16034 16.0892 1.14911 16.0782 1.14126 16.0647C0.909458 16.1503 0.668174 15.9992 0.436376 15.6012C0.239814 15.351 0.131124 15.0358 0.128906 14.7096C0.433265 13.9479 0.818979 13.2261 1.27843 12.5585C1.71164 11.7957 2.19539 11.0667 2.72599 10.3772V10.3318C2.72599 10.2966 2.72597 10.2563 2.80166 10.2009H2.87263V10.1757C2.9451 10.0076 3.04432 9.85425 3.16593 9.72228C3.27686 9.56055 3.40372 9.41193 3.54437 9.27897C3.53136 9.2676 3.52291 9.25139 3.52072 9.23363C3.62006 9.17318 3.65318 9.13289 3.62007 9.10266C3.81402 8.87093 4.09311 8.54851 4.49048 8.13543C4.5447 8.02812 4.62265 7.93648 4.71757 7.86843H4.69389L4.85948 7.65684C4.91745 7.57487 4.98591 7.50196 5.06289 7.44023L5.03924 7.39489C5.11966 7.30421 5.24738 7.17827 5.41295 7.01202C5.83161 6.41053 6.29176 5.84306 6.78956 5.31434C7.32263 4.74947 7.81001 4.13775 8.24656 3.48567L8.3317 3.43026C8.30124 3.41786 8.26758 3.41786 8.23711 3.43026C7.89895 3.50056 7.56787 3.60514 7.24841 3.74259C6.9298 3.84493 6.62814 3.9996 6.35433 4.20102C6.04972 4.33301 5.77186 4.52629 5.53595 4.77028C5.2925 5.01541 5.02977 5.23787 4.75066 5.43524C4.50038 5.76447 4.22336 6.0696 3.92281 6.34706V6.39743C3.89223 6.45787 3.8504 6.51101 3.79983 6.55359C3.72888 6.62916 3.71469 6.67955 3.74307 6.70978L3.62007 6.81556V6.86594L3.47816 7.02211C3.40247 7.02211 3.36935 7.10271 3.37881 7.22865L3.29366 7.26391C3.10121 7.46951 2.95274 7.71696 2.85843 7.98933C2.77677 8.02725 2.70408 8.08404 2.64557 8.15558H2.53204C2.29079 8.19588 2.03531 8.04978 1.7704 7.72233C1.65737 7.60777 1.56694 7.47036 1.50439 7.31811C1.44185 7.16587 1.40846 7.00187 1.40617 6.83572C1.49488 6.65221 1.56162 6.45757 1.60484 6.25637C1.60484 5.54103 2.0495 4.62922 2.95304 3.51086C3.03819 3.48568 3.09023 3.44033 3.09969 3.37484C3.22742 3.27912 3.41193 3.13304 3.65319 2.92649L3.70048 2.95168L3.97013 2.65446L4.0458 2.71995C4.09101 2.64262 4.14505 2.57155 4.20666 2.50836C4.21385 2.51278 4.222 2.51511 4.2303 2.51511C4.23861 2.51511 4.24676 2.51278 4.25395 2.50836C4.29378 2.50105 4.3294 2.47758 4.3533 2.44288C4.38642 2.39755 4.41954 2.38746 4.45266 2.41769C4.44634 2.40716 4.44295 2.39492 4.44295 2.38242C4.44295 2.36992 4.44634 2.3577 4.45266 2.34717C4.45266 2.34717 4.49995 2.31693 4.58983 2.30686C4.67971 2.29678 4.66553 2.26153 4.68918 2.17589C4.76119 2.13715 4.83073 2.09339 4.89733 2.04491C4.96352 1.98996 5.04158 1.95359 5.12439 1.93912C5.14133 1.8984 5.16832 1.86331 5.20246 1.83759C5.23661 1.81187 5.27663 1.79647 5.31833 1.79302C5.36517 1.7877 5.41045 1.77193 5.4512 1.74676C5.49195 1.72159 5.52726 1.68758 5.55486 1.64693C5.55486 1.68219 5.55488 1.69226 5.60692 1.69226C5.64241 1.66282 5.6728 1.62702 5.69677 1.58648C5.74408 1.51595 5.78192 1.48069 5.81503 1.47565C5.82892 1.47966 5.84134 1.48807 5.85064 1.49977C5.85993 1.51147 5.86568 1.52589 5.86709 1.54114L6.03265 1.35475L6.12727 1.39504V1.31948L6.32594 1.24895H6.25971C6.3882 1.20927 6.50638 1.13861 6.60506 1.04242C6.61256 1.04574 6.62059 1.04744 6.62871 1.04744C6.63683 1.04744 6.64486 1.04574 6.65235 1.04242C6.61924 1.04242 6.65237 1.01722 6.75644 0.95677C6.77677 0.959423 6.79537 0.970232 6.80847 0.986995C6.81592 0.999223 6.82675 1.0087 6.83945 1.01411C6.85216 1.01953 6.8661 1.02061 6.87941 1.01722L6.93621 0.891278V0.866096C6.95767 0.883509 6.98161 0.897111 7.00715 0.906391C7.04832 0.903318 7.08776 0.887568 7.12068 0.861054C7.14557 0.839433 7.17465 0.823952 7.20582 0.815717V0.740155C7.36548 0.720517 7.52359 0.688526 7.67888 0.644438V0.573904C7.71909 0.5631 7.75638 0.542397 7.7877 0.513455C7.81726 0.481856 7.85525 0.460747 7.8965 0.453005C7.8965 0.453005 7.92487 0.453005 7.94379 0.453005L7.83973 0.558792L7.958 0.619241C7.92488 0.619241 7.91542 0.583985 7.92962 0.548722L8.01476 0.4933C8.04315 0.458036 8.01476 0.427809 7.98638 0.397583C8.01936 0.454216 8.04035 0.517837 8.04788 0.583989H8.02423L8.07626 0.629326H8.00529C7.93671 0.712902 7.85888 0.78733 7.7735 0.850984C7.68362 0.850984 7.63632 0.850984 7.63632 0.850984C7.63995 0.842129 7.6459 0.834559 7.65344 0.829199C7.66099 0.82384 7.66981 0.820919 7.67888 0.820759L7.64106 0.921503C7.69915 0.939523 7.75044 0.976526 7.7877 1.02729C7.7877 0.997064 7.75457 0.981957 7.74038 0.986995C7.72619 0.992033 7.69781 0.986997 7.65523 1.0676C7.61266 1.1482 7.58427 1.12301 7.56535 1.0676L7.44235 1.22881C7.42699 1.22343 7.41042 1.22343 7.39506 1.22881C7.36194 1.22881 7.34776 1.2691 7.34776 1.33459C7.34776 1.40008 7.30518 1.41519 7.22476 1.39504C7.3924 1.39932 7.56009 1.38922 7.7262 1.36482L7.82082 1.40511C7.82082 1.28925 8.07626 1.20865 8.5777 1.15323C9.07914 1.09782 9.31567 1.15324 9.43393 1.30941L9.52855 1.34971C9.60866 1.60081 9.73043 1.83457 9.88808 2.03986C9.90945 2.15485 9.95469 2.26329 10.0205 2.35724C10.1116 2.51276 10.1787 2.68284 10.2192 2.861C10.2553 3.03452 10.2664 3.21286 10.2523 3.38995ZM6.56247 1.72753C6.52887 1.79558 6.51882 1.87405 6.53409 1.94919L6.56247 1.72753Z" fill="white"/>
</svg>
