<svg width="14" height="16" viewBox="0 0 14 16" fill="none" xmlns="http://www.w3.org/2000/svg">
<path id="Vector" d="M13.8809 4.04485L13.2659 9.33439C13.2659 9.3898 13.124 9.74243 12.8638 10.4024C12.8023 10.4024 12.7597 10.4628 12.7408 10.5585H12.6698C12.6698 10.5585 12.6415 10.6391 12.6273 10.8054C12.6273 10.886 12.5658 10.9615 12.4428 11.0321C12.3245 11.0976 12.2772 11.1882 12.3056 11.2991C12.2133 11.4431 12.0921 11.5636 11.9508 11.6517V11.7021C11.9206 11.73 11.8872 11.7537 11.8515 11.7726C11.8042 11.8028 11.7947 11.8482 11.8515 11.9086C11.7695 12.0021 11.6774 12.085 11.5771 12.1555C11.4902 12.2423 11.4139 12.3405 11.35 12.4477C11.2826 12.5472 11.1833 12.617 11.0709 12.6441C11.0428 12.6796 11.0111 12.7117 10.9763 12.7398C10.929 12.7852 10.9148 12.8255 10.929 12.8557H10.8864C9.7511 13.8179 8.11905 14.5786 5.9761 15.1378L5.90513 15.0975L5.74902 15.1378C5.41593 15.2029 5.07452 15.2029 4.74143 15.1378L3.79532 14.9413C3.74494 14.8856 3.67813 14.8501 3.60608 14.8405C3.52811 14.8432 3.45015 14.8348 3.37429 14.8154C2.90236 14.6326 2.47654 14.336 2.13015 13.9489C1.18403 12.8977 0.681014 11.9758 0.621094 11.1832C0.621094 10.9767 0.621094 10.1505 0.621094 8.70468L0.786652 8.27143C0.770792 8.25147 0.760908 8.22691 0.75827 8.20091C0.76963 8.16311 0.789058 8.12862 0.815034 8.10016C0.843418 8.05985 0.843418 8.02963 0.815034 8.00444C0.90782 7.77081 0.971448 7.52524 1.00427 7.27399C1.1256 7.1314 1.21033 6.95788 1.25027 6.77022L1.49624 6.45285C1.48835 6.4383 1.4842 6.42179 1.4842 6.40499C1.4842 6.38819 1.48835 6.37168 1.49624 6.35713C1.54827 6.27149 1.61452 6.15059 1.69021 5.99442H1.78009V5.91886L1.69494 5.97931L1.79427 5.82314V5.84832C1.8992 5.78286 1.97823 5.67903 2.01662 5.55615L2.06865 5.62164V5.52592L2.09703 5.32442C2.14907 5.36976 2.18691 5.38991 2.21529 5.38487C2.24368 5.37983 2.2484 5.3496 2.26259 5.27404C2.27678 5.19848 2.3099 5.15816 2.35247 5.15313L2.45182 5.19344C2.48997 5.06144 2.53904 4.93331 2.59847 4.81057H2.64576L2.76876 4.67959L2.74512 4.6544C2.74512 4.6544 2.76876 4.67959 2.85864 4.6544C2.94853 4.62921 3.00531 4.56876 3.11411 4.41763C3.15626 4.35313 3.21027 4.29842 3.27289 4.25686C3.33551 4.21528 3.40541 4.18771 3.47835 4.17582C3.50525 4.04742 3.57826 3.93532 3.68176 3.86349H3.83788C3.8891 3.79643 3.92765 3.71946 3.95141 3.6368L4.10279 3.54611V3.49575C4.11286 3.50194 4.12428 3.50519 4.13591 3.50519C4.14753 3.50519 4.15895 3.50194 4.16902 3.49575C4.21633 3.49575 4.28729 3.43529 4.3819 3.31439C4.45741 3.24067 4.51294 3.14672 4.54273 3.04235C4.67042 2.97688 4.79234 2.89933 4.90699 2.81062L5.07728 2.66957L5.12931 2.7149C5.22393 2.62423 5.5456 2.34716 6.07543 1.88874C6.15456 1.86914 6.22582 1.82327 6.27887 1.75775C6.34101 1.68618 6.41911 1.63247 6.50593 1.60159C6.76425 1.41516 7.00506 1.20259 7.22498 0.966838V0.936613H7.31957C7.35446 0.915216 7.39085 0.896698 7.42839 0.881207H7.49933C7.8628 0.732469 8.21275 0.548672 8.5448 0.332104C8.59343 0.36204 8.64984 0.374399 8.70562 0.367356C8.81271 0.349679 8.91195 0.296851 8.98948 0.216233L9.12192 0.150741C9.47198 0.150741 9.84098 0.150741 10.2289 0.150741C10.5603 0.14461 10.8834 0.262244 11.1419 0.483228H11.1845C11.2509 0.478761 11.317 0.496366 11.3737 0.533607C11.3737 0.599097 11.4541 0.624287 11.5534 0.614212C11.6528 0.604136 11.7001 0.639396 11.7096 0.719998L11.7521 0.689773C12.1495 1.03737 12.7313 1.59655 13.5024 2.35723L13.4599 2.38746C13.6532 2.60519 13.7928 2.87052 13.8662 3.15974C13.9397 3.44896 13.9447 3.75305 13.8809 4.04485ZM12.4617 9.12784V9.07746C12.3063 9.54494 12.027 9.95441 11.6575 10.2563C11.4175 10.6747 11.0946 11.0323 10.7114 11.3041C10.3282 11.6164 9.94979 11.9338 9.58553 12.2461L9.55715 12.2008C9.39631 12.2814 9.15978 12.4225 8.84283 12.6139H8.86648C8.86648 12.6139 8.39343 12.7852 7.54666 13.0774C6.69989 13.3695 6.23156 13.5156 6.18425 13.5207C5.40391 13.5887 4.61887 13.4806 3.88046 13.2033C3.16235 12.971 2.50483 12.564 1.95985 12.0144L2.00241 12.2512C2.05576 12.4295 2.13221 12.5991 2.2295 12.755C2.35445 13.1607 2.57805 13.524 2.87759 13.8078C3.35064 14.3569 4.19741 14.5685 5.44628 14.4426C6.3924 14.3418 7.6791 13.838 9.30642 12.9313C10.2332 12.3789 11.0394 11.6234 11.6717 10.7147C11.8433 10.4759 11.9893 10.2173 12.1069 9.94394L11.9556 10.0799H11.9319C12.1514 9.79009 12.3328 9.46979 12.4712 9.12784H12.4617ZM12.2961 6.08007C12.3241 5.8038 12.3241 5.52511 12.2961 5.24884C12.2336 4.78353 12.1077 4.33043 11.9224 3.9038C11.7336 3.47659 11.5999 3.02412 11.5251 2.55874C11.4738 2.50014 11.4101 2.45541 11.3394 2.42825C11.2686 2.40109 11.1928 2.39229 11.1182 2.40257C10.9618 2.42832 10.8033 2.43678 10.6452 2.42777C10.3364 2.52055 10.0193 2.57797 9.69906 2.59905V2.64941C9.00208 2.88625 8.31957 3.16892 7.65545 3.49575C7.32431 3.74259 6.84179 4.12546 6.20316 4.64433C4.70357 6.19089 3.87573 7.66691 3.72908 9.05731L3.70544 9.01197V9.18325L3.74326 9.0825C3.68247 9.4464 3.71685 9.8211 3.84261 10.1656V10.216L3.81423 10.1706C3.97992 10.7769 4.30885 11.318 4.76034 11.7273C5.10095 11.7928 5.45099 11.8582 5.81052 11.9388C6.15779 12.0111 6.51205 12.0382 6.86545 12.0194C7.40782 11.9039 7.92878 11.6946 8.40763 11.3998C8.93998 11.1414 9.44701 10.8275 9.92138 10.4628C10.5895 9.9558 11.1479 9.30235 11.5592 8.54639C11.9704 7.79043 12.2249 6.94948 12.3056 6.08007H12.2961ZM13.0814 3.88364C13.0624 3.70733 12.9813 3.54528 12.8543 3.43026L12.4286 3.02724C12.5223 3.56881 12.693 4.09203 12.9348 4.57884C12.9348 4.69471 12.9348 4.77531 13.001 4.81561L12.9679 4.72494H13.0152C13.1014 4.45457 13.1273 4.16653 13.0909 3.88364H13.0814Z" fill="white"/>
</svg>
