<svg width="20" height="27" viewBox="0 0 20 27" fill="none" xmlns="http://www.w3.org/2000/svg">
<path id="Vector" d="M9.89279 0.355591C11.1584 0.358058 12.4076 0.660943 13.5495 1.24221C14.7853 1.87365 15.8669 2.80131 16.7095 3.95247C17.7039 5.33183 18.4585 6.88948 18.9376 8.55184C19.5391 10.6744 19.8249 12.8841 19.7844 15.1008C19.8516 17.1672 19.5581 19.2289 18.9187 21.1812C18.4519 22.5559 17.6755 23.7875 16.6575 24.7681C15.7503 25.6016 14.6654 26.1861 13.4975 26.4708C12.3151 26.7595 11.1059 26.9048 9.89279 26.904H0.0673828V0.355591H9.89279ZM14.0084 21.2769C14.3637 20.9363 14.6516 20.5236 14.8552 20.0629C15.0865 19.5548 15.2642 19.0209 15.385 18.471C15.5088 17.8989 15.5941 17.318 15.6404 16.733C15.683 16.1436 15.7067 15.5693 15.7067 15.0152C15.7681 13.2288 15.5327 11.4449 15.0113 9.74577C14.6709 8.70232 14.1827 7.7204 13.5637 6.83401C13.1452 6.21276 12.5942 5.70615 11.956 5.35585C11.3179 5.00554 10.6108 4.82153 9.89279 4.81895H4.14987V22.3802H9.89279C11.8418 22.3936 13.2136 22.0259 14.0084 21.2769Z" fill="white"/>
</svg>
