<svg width="22" height="27" viewBox="0 0 22 27" fill="none" xmlns="http://www.w3.org/2000/svg">
<path id="Vector" d="M21.318 23.015C20.1718 24.2182 18.824 25.182 17.3443 25.8563C15.8111 26.5446 14.1641 26.8992 12.5002 26.8992C10.8364 26.8992 9.18932 26.5446 7.65612 25.8563C4.67494 24.5062 2.30111 21.9783 1.03332 18.8036C0.367473 17.1747 0.0259944 15.4165 0.0304441 13.64C0.0216017 11.8601 0.356524 10.0974 1.0144 8.46124C2.27758 5.28323 4.65291 2.7537 7.6372 1.40853C9.92114 0.354475 12.4517 0.0632042 14.8943 0.573201C17.337 1.0832 19.5769 2.37046 21.318 4.26488L18.2952 7.48394C17.5453 6.68925 16.663 6.05031 15.6934 5.59985C14.6901 5.13811 13.6073 4.90475 12.5144 4.91474C11.4171 4.90618 10.3299 5.13943 9.32129 5.59985C8.35093 6.04221 7.46808 6.67639 6.71947 7.46883C5.97438 8.26221 5.38008 9.20127 4.96916 10.2345C4.53533 11.31 4.3147 12.4694 4.32108 13.64C4.31416 14.8041 4.53487 15.9569 4.96916 17.0252C5.80527 19.1046 7.36504 20.7584 9.32129 21.6397C10.3299 22.1002 11.4171 22.3334 12.5144 22.3249C13.6073 22.3349 14.6901 22.1015 15.6934 21.6397C16.6587 21.1965 17.5403 20.5701 18.2952 19.7909L21.318 23.015ZM14.4587 13.64C14.4574 14.1967 14.2492 14.7302 13.8795 15.1239C13.5099 15.5176 13.0088 15.7393 12.486 15.7407C12.2224 15.745 11.9607 15.6923 11.7168 15.5858C11.4729 15.4793 11.2518 15.3211 11.0669 15.121C10.8756 14.9324 10.7236 14.7031 10.6209 14.448C10.5183 14.1928 10.4671 13.9175 10.4708 13.64C10.4652 13.3576 10.5153 13.0772 10.618 12.8168C10.7207 12.5565 10.8736 12.322 11.0669 12.1287C11.2527 11.9301 11.474 11.7734 11.7178 11.6679C11.9616 11.5623 12.2229 11.51 12.486 11.5141C12.7458 11.509 13.0038 11.5609 13.2439 11.6667C13.484 11.7724 13.701 11.9297 13.8816 12.1287C14.0684 12.3262 14.2159 12.5618 14.315 12.8216C14.4142 13.0813 14.4631 13.3596 14.4587 13.64Z" fill="white"/>
</svg>
