<svg width="12" height="14" viewBox="0 0 12 14" fill="none" xmlns="http://www.w3.org/2000/svg">
<path id="Vector" d="M11.5631 12.9611C11.5631 13.0417 11.5631 13.3591 11.4307 13.4145C11.1185 13.5706 11.2083 13.1576 11.0853 13.0215C10.8252 12.7445 10.6123 12.4069 10.3805 12.1047C9.8166 11.4617 9.13579 10.9475 8.37946 10.5934C7.65095 10.1904 6.80891 9.86797 6.07567 9.40955C5.34289 9.01263 4.6687 8.50345 4.07464 7.89825C3.62996 7.39449 3.16164 6.89072 2.68858 6.41718C2.08046 5.78539 1.62865 5.00312 1.37348 4.14016C1.19372 3.58098 0.758507 3.13263 0.777429 2.49285C0.777429 2.42736 0.61659 2.34676 0.626051 2.28631C0.641013 1.88779 0.579857 1.49018 0.446289 1.11757C0.446289 1.05208 0.498325 0.956363 0.531439 0.880798C0.62132 0.926137 0.739584 0.956362 0.791621 1.03696C1.44115 2.00633 2.2078 2.88033 3.07176 3.63639C3.98139 4.4143 4.92882 5.14073 5.9101 5.81266C6.57711 6.31643 7.29616 6.69929 7.97263 7.16275C9.18254 8.00538 10.1981 9.12817 10.9434 10.4473C11.1829 11.0113 11.3714 11.5983 11.5064 12.2004C11.5473 12.4516 11.5663 12.7062 11.5631 12.9611Z" fill="url(#paint0_linear_601_987)"/>
<defs>
<linearGradient id="paint0_linear_601_987" x1="5.99998" y1="13.4497" x2="5.99998" y2="0.85561" gradientUnits="userSpaceOnUse">
<stop stop-color="#F26428"/>
<stop offset="1" stop-color="#F1EB4D"/>
</linearGradient>
</defs>
</svg>
