<svg xmlns="http://www.w3.org/2000/svg" width="45" height="45" viewBox="0 0 45 45" fill="none">
  <path d="M36.6482 33.6637C37.0445 34.06 37.2671 34.5974 37.2671 35.1579C37.2671 35.7183 37.0445 36.2557 36.6482 36.652C36.2519 37.0483 35.7145 37.2709 35.154 37.2709C34.5936 37.2709 34.0562 37.0483 33.6599 36.652L22.4996 25.4881L11.3357 36.6485C10.9394 37.0448 10.402 37.2674 9.84155 37.2674C9.28114 37.2674 8.74368 37.0448 8.34741 36.6485C7.95114 36.2522 7.72852 35.7148 7.72852 35.1543C7.72852 34.5939 7.95114 34.0565 8.34741 33.6602L19.5113 22.4999L8.35092 11.336C7.95465 10.9397 7.73203 10.4023 7.73203 9.84184C7.73203 9.28143 7.95465 8.74397 8.35092 8.3477C8.74719 7.95143 9.28465 7.72881 9.84506 7.72881C10.4055 7.72881 10.9429 7.95143 11.3392 8.3477L22.4996 19.5116L33.6634 8.34594C34.0597 7.94967 34.5971 7.72705 35.1576 7.72705C35.718 7.72705 36.2554 7.94967 36.6517 8.34594C37.048 8.74221 37.2706 9.27967 37.2706 9.84008C37.2706 10.4005 37.048 10.938 36.6517 11.3342L25.4878 22.4999L36.6482 33.6637Z" fill=" #083649"/>
</svg>