<svg xmlns="http://www.w3.org/2000/svg" width="85" height="85" viewBox="0 0 85 85" fill="none">
  <path d="M42.1367 2.40234C20.1335 2.40234 2.26172 20.2739 2.26172 42.277C2.26172 64.2802 20.1333 82.1466 42.1367 82.1466C64.1397 82.1468 82.0115 64.28 82.0115 42.277C82.0115 20.2739 64.1399 2.40234 42.1365 2.40234H42.1367ZM42.1367 5.50451C62.463 5.50451 78.9091 21.9507 78.9091 42.277C78.9091 45.2586 78.555 48.1559 77.887 50.9305L70.4319 49.4885L67.0236 37.6028L66.7951 36.7986L65.991 36.5496L56.3516 33.5718L45.2442 12.2179L44.4556 10.6978L43.0187 11.6315L27.8957 21.4679L27.4083 21.7845L27.2472 22.3446L19.2891 50.1318L7.63149 55.0187C6.16724 51.0492 5.36438 46.7589 5.36438 42.277C5.36438 21.9507 21.8106 5.50451 42.1368 5.50451H42.1367ZM42.2715 15.8182L33.5507 33.1826L36.2431 55.5014L51.2053 45.2188V55.6728L47.2935 56.7104L50.7541 78.0324C47.9906 78.6945 45.1045 79.0443 42.1365 79.0443C27.3922 79.0443 14.6891 70.3921 8.82448 57.8823L21.177 52.6998L21.862 52.4142L22.0695 51.6984L30.0693 23.7613L42.2715 15.8182Z" fill="#073548"/>
</svg>