<svg width="31" height="28" viewBox="0 0 31 28" fill="none" xmlns="http://www.w3.org/2000/svg">
<g id="Group 9">
<path id="Vector" d="M20.8802 4.99469C21.6785 4.99469 22.3257 4.34748 22.3257 3.5491C22.3257 2.75073 21.6785 2.10352 20.8802 2.10352C20.0818 2.10352 19.4346 2.75073 19.4346 3.5491C19.4346 4.34748 20.0818 4.99469 20.8802 4.99469Z" fill="#123053"/>
<path id="Vector_2" d="M2.90908 15.4373C3.70779 15.4373 4.35527 14.7898 4.35527 13.9911C4.35527 13.1924 3.70779 12.5449 2.90908 12.5449C2.11037 12.5449 1.46289 13.1924 1.46289 13.9911C1.46289 14.7898 2.11037 15.4373 2.90908 15.4373Z" fill="#123053"/>
<path id="Vector_3" d="M20.8801 25.8793C21.679 25.8793 22.3266 25.2317 22.3266 24.4328C22.3266 23.6339 21.679 22.9863 20.8801 22.9863C20.0812 22.9863 19.4336 23.6339 19.4336 24.4328C19.4336 25.2317 20.0812 25.8793 20.8801 25.8793Z" fill="#123053"/>
<path id="Vector_4" d="M27.021 15.9034C28.0719 15.9034 28.9239 15.0514 28.9239 14.0005C28.9239 12.9496 28.0719 12.0977 27.021 12.0977C25.9701 12.0977 25.1182 12.9496 25.1182 14.0005C25.1182 15.0514 25.9701 15.9034 27.021 15.9034Z" fill="#162740"/>
<path id="Vector_5" d="M8.96397 5.48943C10.0211 5.47702 10.8681 4.60997 10.8557 3.55281C10.8432 2.49566 9.97619 1.64872 8.91904 1.66113C7.86188 1.67353 7.01494 2.54059 7.02735 3.59775C7.03976 4.6549 7.90681 5.50184 8.96397 5.48943Z" fill="#162740"/>
<path id="Vector_6" d="M18.6142 2.76342C18.7769 2.19667 19.2378 1.71642 19.744 1.4391C20.4085 1.07468 21.2465 1.06712 21.9212 1.39192C23.3184 2.06391 23.6885 3.81494 22.7773 5.04036C22.7707 5.04944 22.7702 5.05891 22.7758 5.06879L25.9966 10.6479C26.0037 10.66 26.0141 10.6642 26.0278 10.6606C26.8415 10.441 27.6189 10.4832 28.3601 10.787C29.8286 11.3897 30.689 12.9255 30.4646 14.4947C30.1631 16.6072 28.0882 17.9321 26.0266 17.3354C26.0167 17.3326 26.0091 17.3356 26.0039 17.3445L22.7716 22.9417C22.7672 22.9496 22.7677 22.957 22.7731 22.9641C23.9338 24.4665 22.9866 26.6724 21.0916 26.8385C19.9766 26.9358 18.9804 26.2883 18.6054 25.2299C18.6026 25.2216 18.5967 25.2175 18.5879 25.2175H12.3588C12.3508 25.2174 12.3429 25.2201 12.3365 25.2251C12.3302 25.2301 12.3257 25.2371 12.3238 25.245C11.9167 26.9026 10.4623 27.9922 8.75153 27.9178C7.31653 27.8552 6.08264 26.895 5.62961 25.5501C5.20017 24.2757 5.55522 22.8558 6.54263 21.9123C6.54589 21.9092 6.54803 21.9051 6.54868 21.9007C6.54934 21.8963 6.54849 21.8918 6.54626 21.8881L3.36446 16.3776C3.3616 16.3728 3.35738 16.3689 3.35236 16.3666C3.34734 16.3642 3.34175 16.3634 3.33633 16.3643C2.54842 16.4913 1.87059 16.3029 1.30284 15.7991C-0.343254 14.3387 0.708878 11.5615 2.9453 11.6011C3.00538 11.6021 3.13855 11.6123 3.3448 11.6317C3.35529 11.6327 3.36325 11.6286 3.36869 11.6193L6.54475 6.1185C6.55362 6.10318 6.5515 6.08947 6.5384 6.07737C5.95956 5.54047 5.61116 4.87393 5.49322 4.07775C5.16902 1.89153 6.90584 -0.0249306 9.11625 0.0824298C10.6607 0.157431 11.9654 1.25856 12.3235 2.75646C12.3248 2.76246 12.3282 2.76781 12.3331 2.77166C12.338 2.7755 12.3441 2.77761 12.3504 2.77763H18.5951C18.605 2.77763 18.6113 2.77289 18.6142 2.76342ZM10.8373 3.56C10.8373 3.05533 10.6369 2.57134 10.28 2.21448C9.92316 1.85763 9.43917 1.65715 8.9345 1.65715C8.42983 1.65715 7.94583 1.85763 7.58898 2.21448C7.23213 2.57134 7.03165 3.05533 7.03165 3.56C7.03165 4.06467 7.23213 4.54866 7.58898 4.90552C7.94583 5.26237 8.42983 5.46285 8.9345 5.46285C9.43917 5.46285 9.92316 5.26237 10.28 4.90552C10.6369 4.54866 10.8373 4.06467 10.8373 3.56ZM22.3216 3.55909C22.3216 3.36925 22.2842 3.18128 22.2115 3.00589C22.1389 2.8305 22.0324 2.67114 21.8982 2.53691C21.7639 2.40267 21.6046 2.29619 21.4292 2.22355C21.2538 2.1509 21.0658 2.11351 20.876 2.11351C20.4926 2.11351 20.1249 2.26581 19.8538 2.53691C19.5827 2.80801 19.4304 3.1757 19.4304 3.55909C19.4304 3.94248 19.5827 4.31018 19.8538 4.58127C20.1249 4.85237 20.4926 5.00468 20.876 5.00468C21.0658 5.00468 21.2538 4.96729 21.4292 4.89464C21.6046 4.82199 21.7639 4.71551 21.8982 4.58127C22.0324 4.44704 22.1389 4.28768 22.2115 4.11229C22.2842 3.93691 22.3216 3.74893 22.3216 3.55909ZM18.6154 23.6264C19.0206 22.5147 20.2176 21.8088 21.3974 22.101C21.4062 22.1031 21.4155 22.1023 21.4237 22.0988C21.432 22.0952 21.4389 22.0891 21.4433 22.0813L24.6239 16.5718C24.6296 16.5619 24.6286 16.5527 24.6209 16.5443C24.3953 16.2926 24.2561 16.1301 24.2033 16.0567C23.1929 14.6526 23.3426 12.7001 24.6118 11.4932C24.632 11.474 24.6314 11.4459 24.61 11.4088C23.5532 9.57631 22.4955 7.74413 21.437 5.91225C21.432 5.90338 21.4244 5.89995 21.4143 5.90197C20.4127 6.10883 19.4241 5.73533 18.8619 4.88068C18.7627 4.72977 18.6831 4.54136 18.606 4.36566C18.6014 4.35537 18.5934 4.35023 18.5821 4.35023H12.3585C12.3512 4.35026 12.344 4.35271 12.3382 4.35719C12.3324 4.36168 12.3283 4.36796 12.3265 4.37503C11.8054 6.33806 9.90709 7.44826 7.93952 6.89815C7.92803 6.89513 7.91936 6.89876 7.91352 6.90904L4.74321 12.4004C4.73894 12.4079 4.73703 12.4165 4.73773 12.425C4.73843 12.4335 4.74172 12.4416 4.74714 12.4482C5.49836 13.3558 5.49503 14.6453 4.74563 15.552C4.73272 15.5677 4.73131 15.5844 4.74139 15.6019L7.9114 21.0912C7.91453 21.0966 7.91938 21.1009 7.92519 21.1032C7.931 21.1056 7.93743 21.1059 7.94346 21.1042C9.84751 20.5659 11.8583 21.6631 12.3168 23.624C12.3202 23.6379 12.3291 23.6449 12.3434 23.6449H18.5891C18.5948 23.6449 18.6003 23.6431 18.605 23.6398C18.6097 23.6365 18.6133 23.6318 18.6154 23.6264ZM28.9232 14.0012C28.9232 13.4967 28.7228 13.0128 28.366 12.6561C28.0093 12.2993 27.5255 12.0989 27.0209 12.0989C26.5164 12.0989 26.0326 12.2993 25.6759 12.6561C25.3191 13.0128 25.1187 13.4967 25.1187 14.0012C25.1187 14.5057 25.3191 14.9895 25.6759 15.3463C26.0326 15.703 26.5164 15.9034 27.0209 15.9034C27.5255 15.9034 28.0093 15.703 28.366 15.3463C28.7228 14.9895 28.9232 14.5057 28.9232 14.0012ZM4.35097 14.0021C4.35097 13.6185 4.1986 13.2507 3.92739 12.9795C3.65617 12.7083 3.28833 12.5559 2.90478 12.5559C2.52122 12.5559 2.15338 12.7083 1.88216 12.9795C1.61095 13.2507 1.45859 13.6185 1.45859 14.0021C1.45859 14.3856 1.61095 14.7535 1.88216 15.0247C2.15338 15.2959 2.52122 15.4483 2.90478 15.4483C3.28833 15.4483 3.65617 15.2959 3.92739 15.0247C4.1986 14.7535 4.35097 14.3856 4.35097 14.0021ZM10.837 24.4448C10.837 23.9401 10.6366 23.4561 10.2797 23.0993C9.92286 22.7424 9.43886 22.5419 8.9342 22.5419C8.42953 22.5419 7.94553 22.7424 7.58868 23.0993C7.23182 23.4561 7.03135 23.9401 7.03135 24.4448C7.03135 24.9494 7.23182 25.4334 7.58868 25.7903C7.94553 26.1471 8.42953 26.3476 8.9342 26.3476C9.43886 26.3476 9.92286 26.1471 10.2797 25.7903C10.6366 25.4334 10.837 24.9494 10.837 24.4448ZM22.3225 24.4436C22.3225 24.2536 22.2851 24.0655 22.2124 23.89C22.1397 23.7145 22.0331 23.5551 21.8988 23.4207C21.7645 23.2864 21.605 23.1799 21.4295 23.1072C21.254 23.0345 21.066 22.9971 20.876 22.9971C20.4924 22.9971 20.1244 23.1495 19.8532 23.4207C19.5819 23.692 19.4295 24.0599 19.4295 24.4436C19.4295 24.8272 19.5819 25.1951 19.8532 25.4664C20.1244 25.7377 20.4924 25.8901 20.876 25.8901C21.066 25.8901 21.254 25.8526 21.4295 25.7799C21.605 25.7073 21.7645 25.6007 21.8988 25.4664C22.0331 25.3321 22.1397 25.1726 22.2124 24.9971C22.2851 24.8216 22.3225 24.6335 22.3225 24.4436Z" fill="#162740"/>
<path id="Vector_7" d="M19.3567 13.1504C19.3743 13.1504 19.3787 13.1428 19.37 13.1277L17.4288 9.76806C17.4229 9.75786 17.4144 9.74939 17.4042 9.7435C17.3941 9.73761 17.3825 9.7345 17.3707 9.73449H12.5386C12.5319 9.7345 12.5253 9.73627 12.5194 9.73961C12.5136 9.74295 12.5087 9.74775 12.5053 9.75354L10.0663 13.9805C10.0612 13.9892 10.0608 13.9981 10.0651 14.0071C10.0848 14.0503 10.1065 14.0922 10.1301 14.1329C10.9202 15.5045 11.7097 16.8738 12.4984 18.2408C12.5022 18.2475 12.5078 18.2531 12.5144 18.2569C12.5211 18.2608 12.5286 18.2628 12.5362 18.2628C14.3564 18.2626 16.1798 18.263 18.0064 18.264C18.9956 18.2646 19.1883 19.6664 18.2487 19.9476C18.1599 19.9743 18.0375 19.9875 17.8812 19.9873C15.9241 19.9862 13.9673 19.9861 12.0109 19.987C11.5578 19.9873 11.3658 19.7502 11.1411 19.3603C10.2215 17.7647 9.30025 16.1702 8.37725 14.5766C8.23662 14.3337 8.14589 14.109 8.20275 13.8278C8.2221 13.7316 8.29136 13.5808 8.41052 13.3754C9.35851 11.7374 10.3046 10.0984 11.2488 8.45826C11.4795 8.05755 11.8155 8.01219 12.2834 8.01158C14.9652 8.00916 16.8276 8.00916 17.8703 8.01158C18.2417 8.01259 18.5195 8.17348 18.7038 8.49425C20.1552 11.0203 21.1014 12.6617 21.5424 13.4186C21.6409 13.5877 21.722 13.7452 21.7392 13.9336C21.7755 14.3268 21.5182 14.7112 21.148 14.8282C21.0508 14.8591 20.8588 14.8746 20.5719 14.8748C17.9533 14.8764 15.3346 14.8764 12.7158 14.8748C11.7332 14.8742 11.5104 13.4867 12.4191 13.1891C12.5044 13.1612 12.632 13.1475 12.802 13.1479C14.9922 13.1536 17.1771 13.1544 19.3567 13.1504Z" fill="#162740"/>
<path id="Vector_8" d="M8.9514 26.3676C10.0086 26.3676 10.8657 25.5106 10.8657 24.4533C10.8657 23.3961 10.0086 22.5391 8.9514 22.5391C7.89416 22.5391 7.03711 23.3961 7.03711 24.4533C7.03711 25.5106 7.89416 26.3676 8.9514 26.3676Z" fill="#162740"/>
</g>
</svg>
