<svg width="40" height="40" viewBox="0 0 32 32" fill="none" xmlns="http://www.w3.org/2000/svg">
<path d="M10.2399 1.92C5.65271 1.92 1.91992 5.65279 1.91992 10.24V21.76C1.91992 26.3472 5.65271 30.08 10.2399 30.08H21.7599C26.3471 30.08 30.0799 26.3472 30.0799 21.76V10.24C30.0799 5.65279 26.3471 1.92 21.7599 1.92H10.2399ZM10.2399 3.2H21.7599C25.6553 3.2 28.7999 6.34465 28.7999 10.24V21.76C28.7999 25.6553 25.6553 28.8 21.7599 28.8H10.2399C6.34457 28.8 3.19992 25.6553 3.19992 21.76V10.24C3.19992 6.34465 6.34457 3.2 10.2399 3.2ZM23.6799 7.04C23.3404 7.04 23.0149 7.17486 22.7748 7.4149C22.5348 7.65495 22.3999 7.98052 22.3999 8.32C22.3999 8.65948 22.5348 8.98505 22.7748 9.2251C23.0149 9.46514 23.3404 9.6 23.6799 9.6C24.0194 9.6 24.345 9.46514 24.585 9.2251C24.8251 8.98505 24.9599 8.65948 24.9599 8.32C24.9599 7.98052 24.8251 7.65495 24.585 7.4149C24.345 7.17486 24.0194 7.04 23.6799 7.04ZM15.9999 8.96C12.1194 8.96 8.95992 12.1195 8.95992 16C8.95992 19.8805 12.1194 23.04 15.9999 23.04C19.8804 23.04 23.0399 19.8805 23.0399 16C23.0399 12.1195 19.8804 8.96 15.9999 8.96ZM15.9999 10.24C19.1887 10.24 21.7599 12.8113 21.7599 16C21.7599 19.1887 19.1887 21.76 15.9999 21.76C12.8112 21.76 10.2399 19.1887 10.2399 16C10.2399 12.8113 12.8112 10.24 15.9999 10.24Z" fill="white"/>
</svg>
