<svg xmlns="http://www.w3.org/2000/svg" width="81" height="81" viewBox="0 0 81 81" fill="none">
  <path d="M40.1367 0.402344C18.1335 0.402344 0.261719 18.2739 0.261719 40.277C0.261719 62.2802 18.1333 80.1466 40.1367 80.1466C62.1397 80.1468 80.0115 62.28 80.0115 40.277C80.0115 18.2739 62.1399 0.402344 40.1365 0.402344H40.1367ZM40.1367 3.50451C60.463 3.50451 76.9091 19.9507 76.9091 40.277C76.9091 43.2586 76.555 46.1559 75.887 48.9305L68.4319 47.4885L65.0236 35.6028L64.7951 34.7986L63.991 34.5496L54.3516 31.5718L43.2442 10.2179L42.4556 8.69781L41.0187 9.63148L25.8957 19.4679L25.4083 19.7845L25.2472 20.3446L17.2891 48.1318L5.63149 53.0187C4.16724 49.0492 3.36438 44.7589 3.36438 40.277C3.36438 19.9507 19.8106 3.50451 40.1368 3.50451H40.1367ZM40.2715 13.8182L31.5507 31.1826L34.2431 53.5014L49.2053 43.2188V53.6728L45.2935 54.7104L48.7541 76.0324C45.9906 76.6945 43.1045 77.0443 40.1365 77.0443C25.3922 77.0443 12.6891 68.3921 6.82448 55.8823L19.177 50.6998L19.862 50.4142L20.0695 49.6984L28.0693 21.7613L40.2715 13.8182Z" fill="white"/>
</svg>