<svg xmlns="http://www.w3.org/2000/svg" width="30" height="30" viewBox="0 0 30 30" fill="none">
  <path d="M5.87888 0C2.64596 0 0 2.6459 0 5.87888V24.1221C0 27.355 2.6459 30 5.87888 30H24.1221C27.355 30 30 27.355 30 24.1221V5.87888C30 2.64596 27.355 0 24.1221 0H5.87888ZM7.35751 4.9506C8.90762 4.9506 9.86243 5.96823 9.8919 7.30588C9.8919 8.614 8.90756 9.66023 7.32752 9.66023H7.29844C5.77782 9.66023 4.79499 8.61406 4.79499 7.30588C4.79499 5.96826 5.80757 4.9506 7.35748 4.9506H7.35751ZM20.7157 11.2026C23.6969 11.2026 25.9317 13.1511 25.9317 17.3384V25.1553H21.4012V17.8625C21.4012 16.0299 20.7455 14.7796 19.1059 14.7796C17.8542 14.7796 17.1081 15.6223 16.7806 16.4364C16.6609 16.7276 16.6315 17.1344 16.6315 17.5418V25.1553H12.1009C12.1009 25.1553 12.1604 12.8015 12.1009 11.5223H16.6324V13.4529C17.2345 12.524 18.3114 11.2026 20.7157 11.2026V11.2026ZM5.06222 11.5233H9.59279V25.1553H5.06222V11.5233Z" fill="#083649"/>
</svg>