<svg width="40" height="40" viewBox="0 0 32 32" fill="none" xmlns="http://www.w3.org/2000/svg">
<path d="M21.3335 10.6667C23.4552 10.6667 25.4901 11.5095 26.9904 13.0098C28.4906 14.5101 29.3335 16.5449 29.3335 18.6667V28H24.0002V18.6667C24.0002 17.9594 23.7192 17.2812 23.2191 16.7811C22.719 16.281 22.0407 16 21.3335 16C20.6263 16 19.948 16.281 19.4479 16.7811C18.9478 17.2812 18.6668 17.9594 18.6668 18.6667V28H13.3335V18.6667C13.3335 16.5449 14.1764 14.5101 15.6766 13.0098C17.1769 11.5095 19.2118 10.6667 21.3335 10.6667V10.6667Z" stroke="white" stroke-width="2" stroke-linecap="round" stroke-linejoin="round"/>
<path d="M7.99984 12H2.6665V28H7.99984V12Z" stroke="white" stroke-width="2" stroke-linecap="round" stroke-linejoin="round"/>
<path d="M5.33317 8C6.80593 8 7.99984 6.8061 7.99984 5.33334C7.99984 3.86058 6.80593 2.66667 5.33317 2.66667C3.86041 2.66667 2.6665 3.86058 2.6665 5.33334C2.6665 6.8061 3.86041 8 5.33317 8Z" stroke="white" stroke-width="2" stroke-linecap="round" stroke-linejoin="round"/>
</svg>
