<svg xmlns="http://www.w3.org/2000/svg" width="34" height="23" viewBox="0 0 34 23" fill="none">
  <path d="M2.42857 0H14.5714C15.2155 0 15.8332 0.242321 16.2887 0.673654C16.7441 1.10499 17 1.69 17 2.3C17 2.91 16.7441 3.49501 16.2887 3.92635C15.8332 4.35768 15.2155 4.6 14.5714 4.6H2.42857C1.78447 4.6 1.16676 4.35768 0.711312 3.92635C0.255867 3.49501 0 2.91 0 2.3C0 1.69 0.255867 1.10499 0.711312 0.673654C1.16676 0.242321 1.78447 0 2.42857 0ZM19.4286 18.4H31.5714C32.2155 18.4 32.8332 18.6423 33.2887 19.0737C33.7441 19.505 34 20.09 34 20.7C34 21.31 33.7441 21.895 33.2887 22.3263C32.8332 22.7577 32.2155 23 31.5714 23H19.4286C18.7845 23 18.1668 22.7577 17.7113 22.3263C17.2559 21.895 17 21.31 17 20.7C17 20.09 17.2559 19.505 17.7113 19.0737C18.1668 18.6423 18.7845 18.4 19.4286 18.4ZM2.42857 9.2H31.5714C32.2155 9.2 32.8332 9.44232 33.2887 9.87365C33.7441 10.305 34 10.89 34 11.5C34 12.11 33.7441 12.695 33.2887 13.1263C32.8332 13.5577 32.2155 13.8 31.5714 13.8H2.42857C1.78447 13.8 1.16676 13.5577 0.711312 13.1263C0.255867 12.695 0 12.11 0 11.5C0 10.89 0.255867 10.305 0.711312 9.87365C1.16676 9.44232 1.78447 9.2 2.42857 9.2Z" fill="white"/>
</svg>