<svg width="8052" height="796" viewBox="0 0 8052 796" fill="none" xmlns="http://www.w3.org/2000/svg">
<path d="M0 6.33851C125.514 104.695 251.012 203.052 376.526 176.703C502.04 150.344 627.554 -0.720503 753.052 6.33851C878.566 13.3975 1004.08 178.59 1129.59 176.703C1255.09 174.806 1380.61 5.83929 1506.12 6.33851C1631.62 6.83774 1757.13 176.793 1882.65 176.703C2008.16 176.604 2133.66 6.43836 2259.17 6.33851C2384.69 6.23867 2510.2 176.204 2635.7 176.703C2761.21 177.193 2886.73 8.22558 3012.22 6.33851C3137.74 4.45145 3263.25 169.634 3388.77 176.703C3514.26 183.762 3639.78 32.6975 3765.29 6.33851C3890.81 -20.0205 4016.3 78.3365 4141.82 176.703V778.637C4016.3 778.637 3890.81 778.637 3765.29 778.637C3639.78 778.637 3514.26 778.637 3388.77 778.637C3263.25 778.637 3137.74 778.637 3012.22 778.637C2886.73 778.637 2761.21 778.637 2635.7 778.637C2510.2 778.637 2384.69 778.637 2259.17 778.637C2133.66 778.637 2008.16 778.637 1882.65 778.637C1757.13 778.637 1631.62 778.637 1506.12 778.637C1380.61 778.637 1255.09 778.637 1129.59 778.637C1004.08 778.637 878.566 778.637 753.052 778.637C627.554 778.637 502.04 778.637 376.526 778.637C251.012 778.637 125.514 778.637 0 778.637V6.33851Z" fill="#031633"/>
<path d="M0 6.33851C125.514 104.695 251.012 203.052 376.526 176.703C502.04 150.344 627.554 -0.720503 753.052 6.33851C878.566 13.3975 1004.08 178.59 1129.59 176.703C1255.09 174.806 1380.61 5.83929 1506.12 6.33851C1631.62 6.83774 1757.13 176.793 1882.65 176.703C2008.16 176.604 2133.66 6.43836 2259.17 6.33851C2384.69 6.23867 2510.2 176.204 2635.7 176.703C2761.21 177.193 2886.73 8.22558 3012.22 6.33851C3137.74 4.45145 3263.25 169.634 3388.77 176.703C3514.26 183.762 3639.78 32.6975 3765.29 6.33851C3890.81 -20.0205 4016.3 78.3365 4141.82 176.703" stroke="#031633" stroke-width="4"/>
<path d="M0 290.272C125.514 388.629 251.012 486.986 376.526 460.627C502.04 434.268 627.554 283.203 753.052 290.272C878.566 297.331 1004.08 462.514 1129.59 460.627C1255.09 458.74 1380.61 289.773 1506.12 290.272C1631.62 290.761 1757.13 460.727 1882.65 460.627C2008.16 460.527 2133.66 290.362 2259.17 290.272C2384.69 290.172 2510.2 460.128 2635.7 460.627C2761.21 461.126 2886.73 292.159 3012.22 290.272C3137.74 288.375 3263.25 453.568 3388.77 460.627C3514.26 467.686 3639.78 316.621 3765.29 290.272C3890.81 263.913 4016.3 362.27 4141.82 460.627V778.632C4016.3 778.632 3890.81 778.632 3765.29 778.632C3639.78 778.632 3514.26 778.632 3388.77 778.632C3263.25 778.632 3137.74 778.632 3012.22 778.632C2886.73 778.632 2761.21 778.632 2635.7 778.632C2510.2 778.632 2384.69 778.632 2259.17 778.632C2133.66 778.632 2008.16 778.632 1882.65 778.632C1757.13 778.632 1631.62 778.632 1506.12 778.632C1380.61 778.632 1255.09 778.632 1129.59 778.632C1004.08 778.632 878.566 778.632 753.052 778.632C627.554 778.632 502.04 778.632 376.526 778.632C251.012 778.632 125.514 778.632 0 778.632V290.272Z" fill="#031633"/>
<path d="M0 290.272C125.514 388.629 251.012 486.986 376.526 460.627C502.04 434.268 627.554 283.203 753.052 290.272C878.566 297.331 1004.08 462.514 1129.59 460.627C1255.09 458.74 1380.61 289.773 1506.12 290.272C1631.62 290.761 1757.13 460.727 1882.65 460.627C2008.16 460.527 2133.66 290.362 2259.17 290.272C2384.69 290.172 2510.2 460.128 2635.7 460.627C2761.21 461.126 2886.73 292.159 3012.22 290.272C3137.74 288.375 3263.25 453.568 3388.77 460.627C3514.26 467.686 3639.78 316.621 3765.29 290.272C3890.81 263.913 4016.3 362.27 4141.82 460.627" stroke="#031633" stroke-width="4"/>
<path d="M0 608.278C125.514 509.911 251.012 411.554 376.526 437.913C502.04 464.272 627.554 615.337 753.052 608.278C878.566 601.209 1004.08 436.026 1129.59 437.913C1255.09 439.8 1380.61 608.767 1506.12 608.278C1631.62 607.778 1757.13 437.813 1882.65 437.913C2008.16 438.013 2133.66 608.178 2259.17 608.278C2384.69 608.367 2510.2 438.412 2635.7 437.913C2761.21 437.414 2886.73 606.381 3012.22 608.278C3137.74 610.165 3263.25 444.972 3388.77 437.913C3514.26 430.854 3639.78 581.919 3765.29 608.278C3890.81 634.627 4016.3 536.27 4141.82 437.913V778.632C4016.3 778.632 3890.81 778.632 3765.29 778.632C3639.78 778.632 3514.26 778.632 3388.77 778.632C3263.25 778.632 3137.74 778.632 3012.22 778.632C2886.73 778.632 2761.21 778.632 2635.7 778.632C2510.2 778.632 2384.69 778.632 2259.17 778.632C2133.66 778.632 2008.16 778.632 1882.65 778.632C1757.13 778.632 1631.62 778.632 1506.12 778.632C1380.61 778.632 1255.09 778.632 1129.59 778.632C1004.08 778.632 878.566 778.632 753.052 778.632C627.554 778.632 502.04 778.632 376.526 778.632C251.012 778.632 125.514 778.632 0 778.632V608.278Z" fill="#031633"/>
<path d="M0 608.278C125.514 509.911 251.012 411.554 376.526 437.913C502.04 464.272 627.554 615.337 753.052 608.278C878.566 601.209 1004.08 436.026 1129.59 437.913C1255.09 439.8 1380.61 608.767 1506.12 608.278C1631.62 607.778 1757.13 437.813 1882.65 437.913C2008.16 438.013 2133.66 608.178 2259.17 608.278C2384.69 608.368 2510.2 438.412 2635.7 437.913C2761.21 437.414 2886.73 606.381 3012.22 608.278C3137.74 610.165 3263.25 444.972 3388.77 437.913C3514.26 430.854 3639.78 581.919 3765.29 608.278C3890.81 634.627 4016.3 536.27 4141.82 437.913" stroke="#031633" stroke-width="4"/>
<path d="M0 574.206C125.514 672.563 251.012 770.92 376.526 744.571C502.04 718.212 627.554 567.147 753.052 574.206C878.566 581.265 1004.08 746.458 1129.59 744.571C1255.09 742.673 1380.61 573.706 1506.12 574.206C1631.62 574.705 1757.13 744.66 1882.65 744.571C2008.16 744.471 2133.66 574.306 2259.17 574.206C2384.69 574.106 2510.2 744.071 2635.7 744.571C2761.21 745.06 2886.73 576.093 3012.22 574.206C3137.74 572.319 3263.25 737.502 3388.77 744.571C3514.26 751.63 3639.78 600.565 3765.29 574.206C3890.81 547.847 4016.3 646.204 4141.82 744.571V778.638C4016.3 778.638 3890.81 778.638 3765.29 778.638C3639.78 778.638 3514.26 778.638 3388.77 778.638C3263.25 778.638 3137.74 778.638 3012.22 778.638C2886.73 778.638 2761.21 778.638 2635.7 778.638C2510.2 778.638 2384.69 778.638 2259.17 778.638C2133.66 778.638 2008.16 778.638 1882.65 778.638C1757.13 778.638 1631.62 778.638 1506.12 778.638C1380.61 778.638 1255.09 778.638 1129.59 778.638C1004.08 778.638 878.566 778.638 753.052 778.638C627.554 778.638 502.04 778.638 376.526 778.638C251.012 778.638 125.514 778.638 0 778.638V574.206Z" fill="#031633"/>
<path d="M0 574.206C125.514 672.563 251.012 770.92 376.526 744.571C502.04 718.212 627.554 567.147 753.052 574.206C878.566 581.265 1004.08 746.458 1129.59 744.571C1255.09 742.673 1380.61 573.706 1506.12 574.206C1631.62 574.705 1757.13 744.66 1882.65 744.571C2008.16 744.471 2133.66 574.306 2259.17 574.206C2384.69 574.106 2510.2 744.071 2635.7 744.571C2761.21 745.06 2886.73 576.093 3012.22 574.206C3137.74 572.319 3263.25 737.502 3388.77 744.571C3514.26 751.63 3639.78 600.565 3765.29 574.206C3890.81 547.847 4016.3 646.204 4141.82 744.571" stroke="#031633" stroke-width="4"/>
<path d="M3908.18 24.3385C4033.7 122.695 4159.2 221.052 4284.71 194.703C4410.22 168.344 4535.74 17.2795 4661.24 24.3385C4786.75 31.3975 4912.26 196.59 5037.78 194.703C5163.28 192.806 5288.79 23.8393 5414.3 24.3385C5539.8 24.8377 5665.32 194.793 5790.83 194.703C5916.34 194.604 6041.84 24.4384 6167.36 24.3385C6292.87 24.2387 6418.38 194.204 6543.88 194.703C6669.4 195.193 6794.91 26.2256 6920.41 24.3385C7045.92 22.4514 7171.44 187.634 7296.95 194.703C7422.45 201.762 7547.96 50.6975 7673.48 24.3385C7798.99 -2.02047 7924.49 96.3365 8050 194.703V796.637C7924.49 796.637 7798.99 796.637 7673.48 796.637C7547.96 796.637 7422.45 796.637 7296.95 796.637C7171.44 796.637 7045.92 796.637 6920.41 796.637C6794.91 796.637 6669.4 796.637 6543.88 796.637C6418.38 796.637 6292.87 796.637 6167.36 796.637C6041.84 796.637 5916.34 796.637 5790.83 796.637C5665.32 796.637 5539.8 796.637 5414.3 796.637C5288.79 796.637 5163.28 796.637 5037.78 796.637C4912.26 796.637 4786.75 796.637 4661.24 796.637C4535.74 796.637 4410.22 796.637 4284.71 796.637C4159.2 796.637 4033.7 796.637 3908.18 796.637V24.3385Z" fill="#031633"/>
<path d="M3908.18 24.3385C4033.7 122.695 4159.2 221.052 4284.71 194.703C4410.22 168.344 4535.74 17.2795 4661.24 24.3385C4786.75 31.3975 4912.26 196.59 5037.78 194.703C5163.28 192.806 5288.79 23.8393 5414.3 24.3385C5539.8 24.8377 5665.32 194.793 5790.83 194.703C5916.34 194.604 6041.84 24.4384 6167.36 24.3385C6292.87 24.2387 6418.38 194.204 6543.88 194.703C6669.4 195.193 6794.91 26.2256 6920.41 24.3385C7045.92 22.4514 7171.44 187.634 7296.95 194.703C7422.45 201.762 7547.96 50.6975 7673.48 24.3385C7798.99 -2.02047 7924.49 96.3365 8050 194.703" stroke="#031633" stroke-width="4"/>
<path d="M3908.18 308.272C4033.7 406.629 4159.2 504.986 4284.71 478.627C4410.22 452.268 4535.74 301.203 4661.24 308.272C4786.75 315.331 4912.26 480.514 5037.78 478.627C5163.28 476.74 5288.79 307.773 5414.3 308.272C5539.8 308.761 5665.32 478.727 5790.83 478.627C5916.34 478.527 6041.84 308.362 6167.36 308.272C6292.87 308.172 6418.38 478.128 6543.88 478.627C6669.4 479.126 6794.91 310.159 6920.41 308.272C7045.92 306.375 7171.44 471.568 7296.95 478.627C7422.45 485.686 7547.96 334.621 7673.48 308.272C7798.99 281.913 7924.49 380.27 8050 478.627V796.632C7924.49 796.632 7798.99 796.632 7673.48 796.632C7547.96 796.632 7422.45 796.632 7296.95 796.632C7171.44 796.632 7045.92 796.632 6920.41 796.632C6794.91 796.632 6669.4 796.632 6543.88 796.632C6418.38 796.632 6292.87 796.632 6167.36 796.632C6041.84 796.632 5916.34 796.632 5790.83 796.632C5665.32 796.632 5539.8 796.632 5414.3 796.632C5288.79 796.632 5163.28 796.632 5037.78 796.632C4912.26 796.632 4786.75 796.632 4661.24 796.632C4535.74 796.632 4410.22 796.632 4284.71 796.632C4159.2 796.632 4033.7 796.632 3908.18 796.632V308.272Z" fill="#031633"/>
<path d="M3908.18 308.272C4033.7 406.629 4159.2 504.986 4284.71 478.627C4410.22 452.268 4535.74 301.203 4661.24 308.272C4786.75 315.331 4912.26 480.514 5037.78 478.627C5163.28 476.74 5288.79 307.773 5414.3 308.272C5539.8 308.761 5665.32 478.727 5790.83 478.627C5916.34 478.527 6041.84 308.362 6167.36 308.272C6292.87 308.172 6418.38 478.128 6543.88 478.627C6669.4 479.126 6794.91 310.159 6920.41 308.272C7045.92 306.375 7171.44 471.568 7296.95 478.627C7422.45 485.686 7547.96 334.621 7673.48 308.272C7798.99 281.913 7924.49 380.27 8050 478.627" stroke="#031633" stroke-width="4"/>
<path d="M3908.18 626.278C4033.7 527.911 4159.2 429.554 4284.71 455.913C4410.22 482.272 4535.74 633.337 4661.24 626.278C4786.75 619.209 4912.26 454.026 5037.78 455.913C5163.28 457.8 5288.79 626.767 5414.3 626.278C5539.8 625.778 5665.32 455.813 5790.83 455.913C5916.34 456.013 6041.84 626.178 6167.36 626.278C6292.87 626.367 6418.38 456.412 6543.88 455.913C6669.4 455.414 6794.91 624.381 6920.41 626.278C7045.92 628.165 7171.44 462.972 7296.95 455.913C7422.45 448.854 7547.96 599.919 7673.48 626.278C7798.99 652.627 7924.49 554.27 8050 455.913V796.632C7924.49 796.632 7798.99 796.632 7673.48 796.632C7547.96 796.632 7422.45 796.632 7296.95 796.632C7171.44 796.632 7045.92 796.632 6920.41 796.632C6794.91 796.632 6669.4 796.632 6543.88 796.632C6418.38 796.632 6292.87 796.632 6167.36 796.632C6041.84 796.632 5916.34 796.632 5790.83 796.632C5665.32 796.632 5539.8 796.632 5414.3 796.632C5288.79 796.632 5163.28 796.632 5037.78 796.632C4912.26 796.632 4786.75 796.632 4661.24 796.632C4535.74 796.632 4410.22 796.632 4284.71 796.632C4159.2 796.632 4033.7 796.632 3908.18 796.632V626.278Z" fill="#031633"/>
<path d="M3908.18 626.278C4033.7 527.911 4159.2 429.554 4284.71 455.913C4410.22 482.272 4535.74 633.337 4661.24 626.278C4786.75 619.209 4912.26 454.026 5037.78 455.913C5163.28 457.8 5288.79 626.767 5414.3 626.278C5539.8 625.778 5665.32 455.813 5790.83 455.913C5916.34 456.013 6041.84 626.178 6167.36 626.278C6292.87 626.368 6418.38 456.412 6543.88 455.913C6669.4 455.414 6794.91 624.381 6920.41 626.278C7045.92 628.165 7171.44 462.972 7296.95 455.913C7422.45 448.854 7547.96 599.919 7673.48 626.278C7798.99 652.627 7924.49 554.27 8050 455.913" stroke="#031633" stroke-width="4"/>
<path d="M3908.18 592.206C4033.7 690.563 4159.2 788.92 4284.71 762.571C4410.22 736.212 4535.74 585.147 4661.24 592.206C4786.75 599.265 4912.26 764.458 5037.78 762.571C5163.28 760.673 5288.79 591.706 5414.3 592.206C5539.8 592.705 5665.32 762.66 5790.83 762.571C5916.34 762.471 6041.84 592.306 6167.36 592.206C6292.87 592.106 6418.38 762.071 6543.88 762.571C6669.4 763.06 6794.91 594.093 6920.41 592.206C7045.92 590.319 7171.44 755.502 7296.95 762.571C7422.45 769.63 7547.96 618.565 7673.48 592.206C7798.99 565.847 7924.49 664.204 8050 762.571V796.638C7924.49 796.638 7798.99 796.638 7673.48 796.638C7547.96 796.638 7422.45 796.638 7296.95 796.638C7171.44 796.638 7045.92 796.638 6920.41 796.638C6794.91 796.638 6669.4 796.638 6543.88 796.638C6418.38 796.638 6292.87 796.638 6167.36 796.638C6041.84 796.638 5916.34 796.638 5790.83 796.638C5665.32 796.638 5539.8 796.638 5414.3 796.638C5288.79 796.638 5163.28 796.638 5037.78 796.638C4912.26 796.638 4786.75 796.638 4661.24 796.638C4535.74 796.638 4410.22 796.638 4284.71 796.638C4159.2 796.638 4033.7 796.638 3908.18 796.638V592.206Z" fill="#031633"/>
<path d="M3908.18 592.206C4033.7 690.563 4159.2 788.92 4284.71 762.571C4410.22 736.212 4535.74 585.147 4661.24 592.206C4786.75 599.265 4912.26 764.458 5037.78 762.571C5163.28 760.673 5288.79 591.706 5414.3 592.206C5539.8 592.705 5665.32 762.66 5790.83 762.571C5916.34 762.471 6041.84 592.306 6167.36 592.206C6292.87 592.106 6418.38 762.071 6543.88 762.571C6669.4 763.06 6794.91 594.093 6920.41 592.206C7045.92 590.319 7171.44 755.502 7296.95 762.571C7422.45 769.63 7547.96 618.565 7673.48 592.206C7798.99 565.847 7924.49 664.204 8050 762.571" stroke="#031633" stroke-width="4"/>
</svg>
