<svg width="7854" height="795" viewBox="0 0 7854 795" fill="none" xmlns="http://www.w3.org/2000/svg">
<path d="M3813.09 22.3385C3935.48 120.695 4057.86 219.052 4180.26 192.703C4302.65 166.344 4425.05 15.2795 4547.43 22.3385C4669.82 29.3975 4792.22 194.59 4914.62 192.703C5037 190.806 5159.39 21.8393 5281.79 22.3385C5404.17 22.8377 5526.56 192.793 5648.96 192.703C5771.35 192.604 5893.73 22.4384 6016.13 22.3385C6138.53 22.2387 6260.92 192.204 6383.3 192.703C6505.7 193.193 6628.09 24.2256 6750.47 22.3385C6872.87 20.4514 6995.26 185.634 7117.66 192.703C7240.04 199.762 7362.44 48.6975 7484.83 22.3385C7607.23 -4.02047 7729.61 94.3365 7852 192.703V794.637C7729.61 794.637 7607.23 794.637 7484.83 794.637C7362.44 794.637 7240.04 794.637 7117.66 794.637C6995.26 794.637 6872.87 794.637 6750.47 794.637C6628.09 794.637 6505.7 794.637 6383.3 794.637C6260.92 794.637 6138.53 794.637 6016.13 794.637C5893.73 794.637 5771.35 794.637 5648.96 794.637C5526.56 794.637 5404.17 794.637 5281.79 794.637C5159.39 794.637 5037 794.637 4914.62 794.637C4792.22 794.637 4669.82 794.637 4547.43 794.637C4425.05 794.637 4302.65 794.637 4180.26 794.637C4057.86 794.637 3935.48 794.637 3813.09 794.637V22.3385Z" fill="#0B67F4"/>
<path d="M3813.09 22.3385C3935.48 120.695 4057.86 219.052 4180.26 192.703C4302.65 166.344 4425.05 15.2795 4547.43 22.3385C4669.82 29.3975 4792.22 194.59 4914.62 192.703C5037 190.806 5159.39 21.8393 5281.79 22.3385C5404.17 22.8377 5526.56 192.793 5648.96 192.703C5771.35 192.604 5893.73 22.4384 6016.13 22.3385C6138.53 22.2387 6260.92 192.204 6383.3 192.703C6505.7 193.193 6628.09 24.2256 6750.47 22.3385C6872.87 20.4514 6995.26 185.634 7117.66 192.703C7240.04 199.762 7362.44 48.6975 7484.83 22.3385C7607.23 -4.02047 7729.61 94.3365 7852 192.703" stroke="#0B67F4" stroke-width="4"/>
<path d="M3813.09 306.272C3935.48 404.629 4057.86 502.986 4180.26 476.627C4302.65 450.268 4425.05 299.203 4547.43 306.272C4669.82 313.331 4792.22 478.514 4914.62 476.627C5037 474.74 5159.39 305.773 5281.79 306.272C5404.17 306.761 5526.56 476.727 5648.96 476.627C5771.35 476.527 5893.73 306.362 6016.13 306.272C6138.53 306.172 6260.92 476.128 6383.3 476.627C6505.7 477.126 6628.09 308.159 6750.47 306.272C6872.87 304.375 6995.26 469.568 7117.66 476.627C7240.04 483.686 7362.44 332.621 7484.83 306.272C7607.23 279.913 7729.61 378.27 7852 476.627V794.632C7729.61 794.632 7607.23 794.632 7484.83 794.632C7362.44 794.632 7240.04 794.632 7117.66 794.632C6995.26 794.632 6872.87 794.632 6750.47 794.632C6628.09 794.632 6505.7 794.632 6383.3 794.632C6260.92 794.632 6138.53 794.632 6016.13 794.632C5893.73 794.632 5771.35 794.632 5648.96 794.632C5526.56 794.632 5404.17 794.632 5281.79 794.632C5159.39 794.632 5037 794.632 4914.62 794.632C4792.22 794.632 4669.82 794.632 4547.43 794.632C4425.05 794.632 4302.65 794.632 4180.26 794.632C4057.86 794.632 3935.48 794.632 3813.09 794.632V306.272Z" fill="#0B67F4"/>
<path d="M3813.09 306.272C3935.48 404.629 4057.86 502.986 4180.26 476.627C4302.65 450.268 4425.05 299.203 4547.43 306.272C4669.82 313.331 4792.22 478.514 4914.62 476.627C5037 474.74 5159.39 305.773 5281.79 306.272C5404.17 306.761 5526.56 476.727 5648.96 476.627C5771.35 476.527 5893.73 306.362 6016.13 306.272C6138.53 306.172 6260.92 476.128 6383.3 476.627C6505.7 477.126 6628.09 308.159 6750.47 306.272C6872.87 304.375 6995.26 469.568 7117.66 476.627C7240.04 483.686 7362.44 332.621 7484.83 306.272C7607.23 279.913 7729.61 378.27 7852 476.627" stroke="#0B67F4" stroke-width="4"/>
<path d="M3813.09 624.278C3935.48 525.911 4057.86 427.554 4180.26 453.913C4302.65 480.272 4425.05 631.337 4547.43 624.278C4669.82 617.209 4792.22 452.026 4914.62 453.913C5037 455.8 5159.39 624.767 5281.79 624.278C5404.17 623.778 5526.56 453.813 5648.96 453.913C5771.35 454.013 5893.73 624.178 6016.13 624.278C6138.53 624.367 6260.92 454.412 6383.3 453.913C6505.7 453.414 6628.09 622.381 6750.47 624.278C6872.87 626.165 6995.26 460.972 7117.66 453.913C7240.04 446.854 7362.44 597.919 7484.83 624.278C7607.23 650.627 7729.61 552.27 7852 453.913V794.632C7729.61 794.632 7607.23 794.632 7484.83 794.632C7362.44 794.632 7240.04 794.632 7117.66 794.632C6995.26 794.632 6872.87 794.632 6750.47 794.632C6628.09 794.632 6505.7 794.632 6383.3 794.632C6260.92 794.632 6138.53 794.632 6016.13 794.632C5893.73 794.632 5771.35 794.632 5648.96 794.632C5526.56 794.632 5404.17 794.632 5281.79 794.632C5159.39 794.632 5037 794.632 4914.62 794.632C4792.22 794.632 4669.82 794.632 4547.43 794.632C4425.05 794.632 4302.65 794.632 4180.26 794.632C4057.86 794.632 3935.48 794.632 3813.09 794.632V624.278Z" fill="#0B67F4"/>
<path d="M3813.09 624.278C3935.48 525.911 4057.86 427.554 4180.26 453.913C4302.65 480.272 4425.05 631.337 4547.43 624.278C4669.82 617.209 4792.22 452.026 4914.62 453.913C5037 455.8 5159.39 624.767 5281.79 624.278C5404.17 623.778 5526.56 453.813 5648.96 453.913C5771.35 454.013 5893.73 624.178 6016.13 624.278C6138.53 624.368 6260.92 454.412 6383.3 453.913C6505.7 453.414 6628.09 622.381 6750.47 624.278C6872.87 626.165 6995.26 460.972 7117.66 453.913C7240.04 446.854 7362.44 597.919 7484.83 624.278C7607.23 650.627 7729.61 552.27 7852 453.913" stroke="#0B67F4" stroke-width="4"/>
<path d="M3813.09 590.206C3935.48 688.563 4057.86 786.92 4180.26 760.571C4302.65 734.212 4425.05 583.147 4547.43 590.206C4669.82 597.265 4792.22 762.458 4914.62 760.571C5037 758.673 5159.39 589.706 5281.79 590.206C5404.17 590.705 5526.56 760.66 5648.96 760.571C5771.35 760.471 5893.73 590.306 6016.13 590.206C6138.53 590.106 6260.92 760.071 6383.3 760.571C6505.7 761.06 6628.09 592.093 6750.47 590.206C6872.87 588.319 6995.26 753.502 7117.66 760.571C7240.04 767.63 7362.44 616.565 7484.83 590.206C7607.23 563.847 7729.61 662.204 7852 760.571V794.638C7729.61 794.638 7607.23 794.638 7484.83 794.638C7362.44 794.638 7240.04 794.638 7117.66 794.638C6995.26 794.638 6872.87 794.638 6750.47 794.638C6628.09 794.638 6505.7 794.638 6383.3 794.638C6260.92 794.638 6138.53 794.638 6016.13 794.638C5893.73 794.638 5771.35 794.638 5648.96 794.638C5526.56 794.638 5404.17 794.638 5281.79 794.638C5159.39 794.638 5037 794.638 4914.62 794.638C4792.22 794.638 4669.82 794.638 4547.43 794.638C4425.05 794.638 4302.65 794.638 4180.26 794.638C4057.86 794.638 3935.48 794.638 3813.09 794.638V590.206Z" fill="#0B67F4"/>
<path d="M3813.09 590.206C3935.48 688.563 4057.86 786.92 4180.26 760.571C4302.65 734.212 4425.05 583.147 4547.43 590.206C4669.82 597.265 4792.22 762.458 4914.62 760.571C5037 758.673 5159.39 589.706 5281.79 590.206C5404.17 590.705 5526.56 760.66 5648.96 760.571C5771.35 760.471 5893.73 590.306 6016.13 590.206C6138.53 590.106 6260.92 760.071 6383.3 760.571C6505.7 761.06 6628.09 592.093 6750.47 590.206C6872.87 588.319 6995.26 753.502 7117.66 760.571C7240.04 767.63 7362.44 616.565 7484.83 590.206C7607.23 563.847 7729.61 662.204 7852 760.571" stroke="#0B67F4" stroke-width="4"/>
<path d="M2 4.33851C124.395 102.695 246.776 201.052 369.172 174.703C491.567 148.344 613.962 -2.7205 736.343 4.33851C858.739 11.3975 981.134 176.59 1103.53 174.703C1225.91 172.806 1348.31 3.83929 1470.7 4.33851C1593.08 4.83774 1715.48 174.793 1837.87 174.703C1960.27 174.604 2082.65 4.43836 2205.04 4.33851C2327.44 4.23867 2449.83 174.204 2572.22 174.703C2694.61 175.193 2817.01 6.22558 2939.39 4.33851C3061.78 2.45145 3184.18 167.634 3306.57 174.703C3428.95 181.762 3551.35 30.6975 3673.74 4.33851C3796.14 -22.0205 3918.52 76.3365 4040.92 174.703V776.637C3918.52 776.637 3796.14 776.637 3673.74 776.637C3551.35 776.637 3428.95 776.637 3306.57 776.637C3184.18 776.637 3061.78 776.637 2939.39 776.637C2817.01 776.637 2694.61 776.637 2572.22 776.637C2449.83 776.637 2327.44 776.637 2205.04 776.637C2082.65 776.637 1960.27 776.637 1837.87 776.637C1715.48 776.637 1593.08 776.637 1470.7 776.637C1348.31 776.637 1225.91 776.637 1103.53 776.637C981.134 776.637 858.739 776.637 736.343 776.637C613.962 776.637 491.567 776.637 369.172 776.637C246.776 776.637 124.395 776.637 2 776.637V4.33851Z" fill="#0B67F4"/>
<path d="M2 4.33851C124.395 102.695 246.776 201.052 369.172 174.703C491.567 148.344 613.962 -2.7205 736.343 4.33851C858.738 11.3975 981.134 176.59 1103.53 174.703C1225.91 172.806 1348.31 3.83929 1470.7 4.33851C1593.08 4.83774 1715.48 174.793 1837.87 174.703C1960.27 174.604 2082.65 4.43836 2205.04 4.33851C2327.44 4.23867 2449.83 174.204 2572.22 174.703C2694.61 175.193 2817.01 6.22558 2939.39 4.33851C3061.78 2.45145 3184.18 167.634 3306.57 174.703C3428.95 181.762 3551.35 30.6975 3673.74 4.33851C3796.14 -22.0205 3918.52 76.3365 4040.92 174.703" stroke="#0B67F4" stroke-width="4"/>
<path d="M2 288.272C124.395 386.629 246.776 484.986 369.172 458.627C491.567 432.268 613.962 281.203 736.343 288.272C858.739 295.331 981.134 460.514 1103.53 458.627C1225.91 456.74 1348.31 287.773 1470.7 288.272C1593.08 288.761 1715.48 458.727 1837.87 458.627C1960.27 458.527 2082.65 288.362 2205.04 288.272C2327.44 288.172 2449.83 458.128 2572.22 458.627C2694.61 459.126 2817.01 290.159 2939.39 288.272C3061.78 286.375 3184.18 451.568 3306.57 458.627C3428.95 465.686 3551.35 314.621 3673.74 288.272C3796.14 261.913 3918.52 360.27 4040.92 458.627V776.632C3918.52 776.632 3796.14 776.632 3673.74 776.632C3551.35 776.632 3428.95 776.632 3306.57 776.632C3184.18 776.632 3061.78 776.632 2939.39 776.632C2817.01 776.632 2694.61 776.632 2572.22 776.632C2449.83 776.632 2327.44 776.632 2205.04 776.632C2082.65 776.632 1960.27 776.632 1837.87 776.632C1715.48 776.632 1593.08 776.632 1470.7 776.632C1348.31 776.632 1225.91 776.632 1103.53 776.632C981.134 776.632 858.739 776.632 736.343 776.632C613.962 776.632 491.567 776.632 369.172 776.632C246.776 776.632 124.395 776.632 2 776.632V288.272Z" fill="#0B67F4"/>
<path d="M2 288.272C124.395 386.629 246.776 484.986 369.172 458.627C491.567 432.268 613.962 281.203 736.343 288.272C858.738 295.331 981.134 460.514 1103.53 458.627C1225.91 456.74 1348.31 287.773 1470.7 288.272C1593.08 288.761 1715.48 458.727 1837.87 458.627C1960.27 458.527 2082.65 288.362 2205.04 288.272C2327.44 288.172 2449.83 458.128 2572.22 458.627C2694.61 459.126 2817.01 290.159 2939.39 288.272C3061.78 286.375 3184.18 451.568 3306.57 458.627C3428.95 465.686 3551.35 314.621 3673.74 288.272C3796.14 261.913 3918.52 360.27 4040.92 458.627" stroke="#0B67F4" stroke-width="4"/>
<path d="M2 606.278C124.395 507.911 246.776 409.554 369.172 435.913C491.567 462.272 613.962 613.337 736.343 606.278C858.739 599.209 981.134 434.026 1103.53 435.913C1225.91 437.8 1348.31 606.767 1470.7 606.278C1593.08 605.778 1715.48 435.813 1837.87 435.913C1960.27 436.013 2082.65 606.178 2205.04 606.278C2327.44 606.367 2449.83 436.412 2572.22 435.913C2694.61 435.414 2817.01 604.381 2939.39 606.278C3061.78 608.165 3184.18 442.972 3306.57 435.913C3428.95 428.854 3551.35 579.919 3673.74 606.278C3796.14 632.627 3918.52 534.27 4040.92 435.913V776.632C3918.52 776.632 3796.14 776.632 3673.74 776.632C3551.35 776.632 3428.95 776.632 3306.57 776.632C3184.18 776.632 3061.78 776.632 2939.39 776.632C2817.01 776.632 2694.61 776.632 2572.22 776.632C2449.83 776.632 2327.44 776.632 2205.04 776.632C2082.65 776.632 1960.27 776.632 1837.87 776.632C1715.48 776.632 1593.08 776.632 1470.7 776.632C1348.31 776.632 1225.91 776.632 1103.53 776.632C981.134 776.632 858.739 776.632 736.343 776.632C613.962 776.632 491.567 776.632 369.172 776.632C246.776 776.632 124.395 776.632 2 776.632V606.278Z" fill="#0B67F4"/>
<path d="M2 606.278C124.395 507.911 246.776 409.554 369.172 435.913C491.567 462.272 613.962 613.337 736.343 606.278C858.738 599.209 981.134 434.026 1103.53 435.913C1225.91 437.8 1348.31 606.767 1470.7 606.278C1593.08 605.778 1715.48 435.813 1837.87 435.913C1960.27 436.013 2082.65 606.178 2205.04 606.278C2327.44 606.368 2449.83 436.412 2572.22 435.913C2694.61 435.414 2817.01 604.381 2939.39 606.278C3061.78 608.165 3184.18 442.972 3306.57 435.913C3428.95 428.854 3551.35 579.919 3673.74 606.278C3796.14 632.627 3918.52 534.27 4040.92 435.913" stroke="#0B67F4" stroke-width="4"/>
<path d="M2 572.206C124.395 670.563 246.776 768.92 369.172 742.571C491.567 716.212 613.962 565.147 736.343 572.206C858.739 579.265 981.134 744.458 1103.53 742.571C1225.91 740.673 1348.31 571.706 1470.7 572.206C1593.08 572.705 1715.48 742.66 1837.87 742.571C1960.27 742.471 2082.65 572.306 2205.04 572.206C2327.44 572.106 2449.83 742.071 2572.22 742.571C2694.61 743.06 2817.01 574.093 2939.39 572.206C3061.78 570.319 3184.18 735.502 3306.57 742.571C3428.95 749.63 3551.35 598.565 3673.74 572.206C3796.14 545.847 3918.52 644.204 4040.92 742.571V776.638C3918.52 776.638 3796.14 776.638 3673.74 776.638C3551.35 776.638 3428.95 776.638 3306.57 776.638C3184.18 776.638 3061.78 776.638 2939.39 776.638C2817.01 776.638 2694.61 776.638 2572.22 776.638C2449.83 776.638 2327.44 776.638 2205.04 776.638C2082.65 776.638 1960.27 776.638 1837.87 776.638C1715.48 776.638 1593.08 776.638 1470.7 776.638C1348.31 776.638 1225.91 776.638 1103.53 776.638C981.134 776.638 858.739 776.638 736.343 776.638C613.962 776.638 491.567 776.638 369.172 776.638C246.776 776.638 124.395 776.638 2 776.638V572.206Z" fill="#0B67F4"/>
<path d="M2 572.206C124.395 670.563 246.776 768.92 369.172 742.571C491.567 716.212 613.962 565.147 736.343 572.206C858.738 579.265 981.134 744.458 1103.53 742.571C1225.91 740.673 1348.31 571.706 1470.7 572.206C1593.08 572.705 1715.48 742.66 1837.87 742.571C1960.27 742.471 2082.65 572.306 2205.04 572.206C2327.44 572.106 2449.83 742.071 2572.22 742.571C2694.61 743.06 2817.01 574.093 2939.39 572.206C3061.78 570.319 3184.18 735.502 3306.57 742.571C3428.95 749.63 3551.35 598.565 3673.74 572.206C3796.14 545.847 3918.52 644.204 4040.92 742.571" stroke="#0B67F4" stroke-width="4"/>
</svg>
