<svg width="8052" height="744" viewBox="0 0 8052 744" fill="none" xmlns="http://www.w3.org/2000/svg">
<path d="M2 6.05113C127.514 97.8928 253.012 189.734 378.526 165.131C504.04 140.518 629.554 -0.540294 755.052 6.05113C880.566 12.6425 1006.08 166.893 1131.59 165.131C1257.09 163.359 1382.61 5.58497 1508.12 6.05113C1633.62 6.51728 1759.13 165.215 1884.65 165.131C2010.16 165.038 2135.66 6.14436 2261.17 6.05113C2386.69 5.95789 2512.2 164.665 2637.7 165.131C2763.21 165.588 2888.73 7.81319 3014.22 6.05113C3139.74 4.28906 3265.25 158.53 3390.77 165.131C3516.26 171.722 3641.78 30.6641 3767.29 6.05113C3892.81 -18.5618 4018.3 73.2799 4143.82 165.131V727.191C4018.3 727.191 3892.81 727.191 3767.29 727.191C3641.78 727.191 3516.26 727.191 3390.77 727.191C3265.25 727.191 3139.74 727.191 3014.22 727.191C2888.73 727.191 2763.21 727.191 2637.7 727.191C2512.2 727.191 2386.69 727.191 2261.17 727.191C2135.66 727.191 2010.16 727.191 1884.65 727.191C1759.13 727.191 1633.62 727.191 1508.12 727.191C1382.61 727.191 1257.09 727.191 1131.59 727.191C1006.08 727.191 880.566 727.191 755.052 727.191C629.554 727.191 504.04 727.191 378.526 727.191C253.012 727.191 127.514 727.191 2 727.191V6.05113Z" fill="#012863"/>
<path d="M2 6.05113C127.514 97.8928 253.012 189.734 378.526 165.131C504.04 140.518 629.554 -0.540294 755.052 6.05113C880.566 12.6425 1006.08 166.893 1131.59 165.131C1257.09 163.359 1382.61 5.58497 1508.12 6.05113C1633.62 6.51728 1759.13 165.215 1884.65 165.131C2010.16 165.038 2135.66 6.14436 2261.17 6.05113C2386.69 5.95789 2512.2 164.665 2637.7 165.131C2763.21 165.588 2888.73 7.81319 3014.22 6.05113C3139.74 4.28906 3265.25 158.53 3390.77 165.131C3516.26 171.722 3641.78 30.6641 3767.29 6.05113C3892.81 -18.5618 4018.3 73.2799 4143.82 165.131" stroke="#012863" stroke-width="4"/>
<path d="M2 271.176C127.514 363.018 253.012 454.86 378.526 430.247C504.04 405.634 629.554 264.575 755.052 271.176C880.566 277.768 1006.08 432.009 1131.59 430.247C1257.09 428.485 1382.61 270.71 1508.12 271.176C1633.62 271.633 1759.13 430.34 1884.65 430.247C2010.16 430.153 2135.66 271.26 2261.17 271.176C2386.69 271.083 2512.2 429.78 2637.7 430.247C2763.21 430.713 2888.73 272.938 3014.22 271.176C3139.74 269.405 3265.25 423.655 3390.77 430.247C3516.26 436.838 3641.78 295.78 3767.29 271.176C3892.81 246.563 4018.3 338.405 4143.82 430.247V727.187C4018.3 727.187 3892.81 727.187 3767.29 727.187C3641.78 727.187 3516.26 727.187 3390.77 727.187C3265.25 727.187 3139.74 727.187 3014.22 727.187C2888.73 727.187 2763.21 727.187 2637.7 727.187C2512.2 727.187 2386.69 727.187 2261.17 727.187C2135.66 727.187 2010.16 727.187 1884.65 727.187C1759.13 727.187 1633.62 727.187 1508.12 727.187C1382.61 727.187 1257.09 727.187 1131.59 727.187C1006.08 727.187 880.566 727.187 755.052 727.187C629.554 727.187 504.04 727.187 378.526 727.187C253.012 727.187 127.514 727.187 2 727.187V271.176Z" fill="#012863"/>
<path d="M2 271.176C127.514 363.018 253.012 454.86 378.526 430.247C504.04 405.634 629.554 264.575 755.052 271.176C880.566 277.768 1006.08 432.009 1131.59 430.247C1257.09 428.485 1382.61 270.71 1508.12 271.176C1633.62 271.633 1759.13 430.34 1884.65 430.247C2010.16 430.153 2135.66 271.26 2261.17 271.176C2386.69 271.083 2512.2 429.78 2637.7 430.247C2763.21 430.713 2888.73 272.938 3014.22 271.176C3139.74 269.405 3265.25 423.655 3390.77 430.247C3516.26 436.838 3641.78 295.78 3767.29 271.176C3892.81 246.563 4018.3 338.405 4143.82 430.247" stroke="#012863" stroke-width="4"/>
<path d="M2 568.117C127.514 476.266 253.012 384.425 378.526 409.037C504.04 433.65 629.554 574.709 755.052 568.117C880.566 561.516 1006.08 407.275 1131.59 409.037C1257.09 410.8 1382.61 568.574 1508.12 568.117C1633.62 567.651 1759.13 408.944 1884.65 409.037C2010.16 409.131 2135.66 568.024 2261.17 568.117C2386.69 568.201 2512.2 409.504 2637.7 409.037C2763.21 408.571 2888.73 566.346 3014.22 568.117C3139.74 569.879 3265.25 415.629 3390.77 409.037C3516.26 402.446 3641.78 543.504 3767.29 568.117C3892.81 592.721 4018.3 500.879 4143.82 409.037V727.188C4018.3 727.188 3892.81 727.188 3767.29 727.188C3641.78 727.188 3516.26 727.188 3390.77 727.188C3265.25 727.188 3139.74 727.188 3014.22 727.188C2888.73 727.188 2763.21 727.188 2637.7 727.188C2512.2 727.188 2386.69 727.188 2261.17 727.188C2135.66 727.188 2010.16 727.188 1884.65 727.188C1759.13 727.188 1633.62 727.188 1508.12 727.188C1382.61 727.188 1257.09 727.188 1131.59 727.188C1006.08 727.188 880.566 727.188 755.052 727.188C629.554 727.188 504.04 727.188 378.526 727.188C253.012 727.188 127.514 727.188 2 727.188V568.117Z" fill="#012863"/>
<path d="M2 568.117C127.514 476.266 253.012 384.425 378.526 409.037C504.04 433.65 629.554 574.709 755.052 568.117C880.566 561.516 1006.08 407.275 1131.59 409.037C1257.09 410.8 1382.61 568.574 1508.12 568.117C1633.62 567.651 1759.13 408.944 1884.65 409.037C2010.16 409.131 2135.66 568.024 2261.17 568.117C2386.69 568.201 2512.2 409.504 2637.7 409.037C2763.21 408.571 2888.73 566.346 3014.22 568.117C3139.74 569.879 3265.25 415.629 3390.77 409.037C3516.26 402.446 3641.78 543.504 3767.29 568.117C3892.81 592.721 4018.3 500.879 4143.82 409.037" stroke="#012863" stroke-width="4"/>
<path d="M2 536.303C127.514 628.145 253.012 719.986 378.526 695.383C504.04 670.77 629.554 529.712 755.052 536.303C880.566 542.894 1006.08 697.145 1131.59 695.383C1257.09 693.611 1382.61 535.837 1508.12 536.303C1633.62 536.769 1759.13 695.467 1884.65 695.383C2010.16 695.29 2135.66 536.396 2261.17 536.303C2386.69 536.21 2512.2 694.917 2637.7 695.383C2763.21 695.84 2888.73 538.065 3014.22 536.303C3139.74 534.541 3265.25 688.782 3390.77 695.383C3516.26 701.974 3641.78 560.916 3767.29 536.303C3892.81 511.69 4018.3 603.532 4143.82 695.383V727.193C4018.3 727.193 3892.81 727.193 3767.29 727.193C3641.78 727.193 3516.26 727.193 3390.77 727.193C3265.25 727.193 3139.74 727.193 3014.22 727.193C2888.73 727.193 2763.21 727.193 2637.7 727.193C2512.2 727.193 2386.69 727.193 2261.17 727.193C2135.66 727.193 2010.16 727.193 1884.65 727.193C1759.13 727.193 1633.62 727.193 1508.12 727.193C1382.61 727.193 1257.09 727.193 1131.59 727.193C1006.08 727.193 880.566 727.193 755.052 727.193C629.554 727.193 504.04 727.193 378.526 727.193C253.012 727.193 127.514 727.193 2 727.193V536.303Z" fill="#012863"/>
<path d="M2 536.303C127.514 628.145 253.012 719.986 378.526 695.383C504.04 670.77 629.554 529.712 755.052 536.303C880.566 542.894 1006.08 697.145 1131.59 695.383C1257.09 693.611 1382.61 535.837 1508.12 536.303C1633.62 536.769 1759.13 695.467 1884.65 695.383C2010.16 695.29 2135.66 536.396 2261.17 536.303C2386.69 536.21 2512.2 694.917 2637.7 695.383C2763.21 695.84 2888.73 538.065 3014.22 536.303C3139.74 534.541 3265.25 688.782 3390.77 695.383C3516.26 701.974 3641.78 560.916 3767.29 536.303C3892.81 511.69 4018.3 603.532 4143.82 695.383" stroke="#012863" stroke-width="4"/>
<path d="M3910.18 22.8578C4035.7 114.699 4161.2 206.541 4286.71 181.938C4412.22 157.325 4537.74 16.2663 4663.24 22.8578C4788.75 29.4492 4914.26 183.7 5039.78 181.938C5165.28 180.166 5290.79 22.3916 5416.3 22.8578C5541.8 23.3239 5667.32 182.021 5792.83 181.938C5918.34 181.844 6043.84 22.951 6169.36 22.8578C6294.87 22.7645 6420.38 181.471 6545.88 181.938C6671.4 182.394 6796.91 24.6198 6922.41 22.8578C7047.92 21.0957 7173.44 175.337 7298.95 181.938C7424.45 188.529 7549.96 47.4707 7675.48 22.8578C7800.99 -1.75517 7926.49 90.0865 8052 181.938V743.998C7926.49 743.998 7800.99 743.998 7675.48 743.998C7549.96 743.998 7424.45 743.998 7298.95 743.998C7173.44 743.998 7047.92 743.998 6922.41 743.998C6796.91 743.998 6671.4 743.998 6545.88 743.998C6420.38 743.998 6294.87 743.998 6169.36 743.998C6043.84 743.998 5918.34 743.998 5792.83 743.998C5667.32 743.998 5541.8 743.998 5416.3 743.998C5290.79 743.998 5165.28 743.998 5039.78 743.998C4914.26 743.998 4788.75 743.998 4663.24 743.998C4537.74 743.998 4412.22 743.998 4286.71 743.998C4161.2 743.998 4035.7 743.998 3910.18 743.998V22.8578Z" fill="#012863"/>
<path d="M3910.18 22.8578C4035.7 114.699 4161.2 206.541 4286.71 181.938C4412.22 157.325 4537.74 16.2663 4663.24 22.8578C4788.75 29.4492 4914.26 183.7 5039.78 181.938C5165.28 180.166 5290.79 22.3916 5416.3 22.8578C5541.8 23.3239 5667.32 182.021 5792.83 181.938C5918.34 181.844 6043.84 22.951 6169.36 22.8578C6294.87 22.7645 6420.38 181.471 6545.88 181.938C6671.4 182.394 6796.91 24.6198 6922.41 22.8578C7047.92 21.0957 7173.44 175.337 7298.95 181.938C7424.45 188.529 7549.96 47.4707 7675.48 22.8578C7800.99 -1.75517 7926.49 90.0865 8052 181.938" stroke="#012863" stroke-width="4"/>
<path d="M3910.18 287.983C4035.7 379.824 4161.2 471.666 4286.71 447.053C4412.22 422.44 4537.74 281.382 4663.24 287.983C4788.75 294.574 4914.26 448.815 5039.78 447.053C5165.28 445.291 5290.79 287.517 5416.3 287.983C5541.8 288.44 5667.32 447.146 5792.83 447.053C5918.34 446.96 6043.84 288.067 6169.36 287.983C6294.87 287.89 6420.38 446.587 6545.88 447.053C6671.4 447.519 6796.91 289.745 6922.41 287.983C7047.92 286.211 7173.44 440.462 7298.95 447.053C7424.45 453.645 7549.96 312.586 7675.48 287.983C7800.99 263.37 7926.49 355.212 8052 447.053V743.993C7926.49 743.993 7800.99 743.993 7675.48 743.993C7549.96 743.993 7424.45 743.993 7298.95 743.993C7173.44 743.993 7047.92 743.993 6922.41 743.993C6796.91 743.993 6671.4 743.993 6545.88 743.993C6420.38 743.993 6294.87 743.993 6169.36 743.993C6043.84 743.993 5918.34 743.993 5792.83 743.993C5667.32 743.993 5541.8 743.993 5416.3 743.993C5290.79 743.993 5165.28 743.993 5039.78 743.993C4914.26 743.993 4788.75 743.993 4663.24 743.993C4537.74 743.993 4412.22 743.993 4286.71 743.993C4161.2 743.993 4035.7 743.993 3910.18 743.993V287.983Z" fill="#012863"/>
<path d="M3910.18 287.983C4035.7 379.824 4161.2 471.666 4286.71 447.053C4412.22 422.44 4537.74 281.382 4663.24 287.983C4788.75 294.574 4914.26 448.815 5039.78 447.053C5165.28 445.291 5290.79 287.517 5416.3 287.983C5541.8 288.44 5667.32 447.146 5792.83 447.053C5918.34 446.96 6043.84 288.067 6169.36 287.983C6294.87 287.89 6420.38 446.587 6545.88 447.053C6671.4 447.519 6796.91 289.745 6922.41 287.983C7047.92 286.211 7173.44 440.462 7298.95 447.053C7424.45 453.645 7549.96 312.586 7675.48 287.983C7800.99 263.37 7926.49 355.212 8052 447.053" stroke="#012863" stroke-width="4"/>
<path d="M3910.18 584.924C4035.7 493.073 4161.2 401.231 4286.71 425.844C4412.22 450.457 4537.74 591.515 4663.24 584.924C4788.75 578.323 4914.26 424.082 5039.78 425.844C5165.28 427.606 5290.79 585.381 5416.3 584.924C5541.8 584.458 5667.32 425.751 5792.83 425.844C5918.34 425.937 6043.84 584.831 6169.36 584.924C6294.87 585.008 6420.38 426.31 6545.88 425.844C6671.4 425.378 6796.91 583.152 6922.41 584.924C7047.92 586.686 7173.44 432.436 7298.95 425.844C7424.45 419.253 7549.96 560.311 7675.48 584.924C7800.99 609.527 7926.49 517.686 8052 425.844V743.994C7926.49 743.994 7800.99 743.994 7675.48 743.994C7549.96 743.994 7424.45 743.994 7298.95 743.994C7173.44 743.994 7047.92 743.994 6922.41 743.994C6796.91 743.994 6671.4 743.994 6545.88 743.994C6420.38 743.994 6294.87 743.994 6169.36 743.994C6043.84 743.994 5918.34 743.994 5792.83 743.994C5667.32 743.994 5541.8 743.994 5416.3 743.994C5290.79 743.994 5165.28 743.994 5039.78 743.994C4914.26 743.994 4788.75 743.994 4663.24 743.994C4537.74 743.994 4412.22 743.994 4286.71 743.994C4161.2 743.994 4035.7 743.994 3910.18 743.994V584.924Z" fill="#012863"/>
<path d="M3910.18 584.924C4035.7 493.073 4161.2 401.231 4286.71 425.844C4412.22 450.457 4537.74 591.515 4663.24 584.924C4788.75 578.323 4914.26 424.082 5039.78 425.844C5165.28 427.606 5290.79 585.381 5416.3 584.924C5541.8 584.458 5667.32 425.751 5792.83 425.844C5918.34 425.937 6043.84 584.831 6169.36 584.924C6294.87 585.008 6420.38 426.31 6545.88 425.844C6671.4 425.378 6796.91 583.152 6922.41 584.924C7047.92 586.686 7173.44 432.436 7298.95 425.844C7424.45 419.253 7549.96 560.311 7675.48 584.924C7800.99 609.527 7926.49 517.686 8052 425.844" stroke="#012863" stroke-width="4"/>
<path d="M3910.18 553.11C4035.7 644.951 4161.2 736.793 4286.71 712.189C4412.22 687.576 4537.74 546.518 4663.24 553.11C4788.75 559.701 4914.26 713.951 5039.78 712.189C5165.28 710.418 5290.79 552.644 5416.3 553.11C5541.8 553.576 5667.32 712.273 5792.83 712.189C5918.34 712.096 6043.84 553.203 6169.36 553.11C6294.87 553.016 6420.38 711.723 6545.88 712.189C6671.4 712.646 6796.91 554.872 6922.41 553.11C7047.92 551.348 7173.44 705.589 7298.95 712.189C7424.45 718.781 7549.96 577.723 7675.48 553.11C7800.99 528.497 7926.49 620.338 8052 712.189V744C7926.49 744 7800.99 744 7675.48 744C7549.96 744 7424.45 744 7298.95 744C7173.44 744 7047.92 744 6922.41 744C6796.91 744 6671.4 744 6545.88 744C6420.38 744 6294.87 744 6169.36 744C6043.84 744 5918.34 744 5792.83 744C5667.32 744 5541.8 744 5416.3 744C5290.79 744 5165.28 744 5039.78 744C4914.26 744 4788.75 744 4663.24 744C4537.74 744 4412.22 744 4286.71 744C4161.2 744 4035.7 744 3910.18 744V553.11Z" fill="#012863"/>
<path d="M3910.18 553.11C4035.7 644.951 4161.2 736.793 4286.71 712.189C4412.22 687.576 4537.74 546.518 4663.24 553.11C4788.75 559.701 4914.26 713.951 5039.78 712.189C5165.28 710.418 5290.79 552.644 5416.3 553.11C5541.8 553.576 5667.32 712.273 5792.83 712.189C5918.34 712.096 6043.84 553.203 6169.36 553.11C6294.87 553.016 6420.38 711.723 6545.88 712.189C6671.4 712.646 6796.91 554.872 6922.41 553.11C7047.92 551.348 7173.44 705.589 7298.95 712.189C7424.45 718.781 7549.96 577.723 7675.48 553.11C7800.99 528.497 7926.49 620.338 8052 712.189" stroke="#012863" stroke-width="4"/>
</svg>
